<?xml version="1.0" encoding="utf-8"?>
<!-- Generator: Adobe Illustrator 24.0.3, SVG Export Plug-In . SVG Version: 6.00 Build 0)  -->
<svg version="1.1" id="Layer_1" xmlns="http://www.w3.org/2000/svg" xmlns:xlink="http://www.w3.org/1999/xlink" x="0px" y="0px"
	 viewBox="0 0 1064.6 1777.5" style="enable-background:new 0 0 1064.6 1777.5;" xml:space="preserve">
<style type="text/css">
	.st0{fill:#353535;}
	.st1{fill:#FF0000;}
	.st2{display:none;}
	.st3{display:inline;}
	.st4{fill:#353434;}
</style>
<g id="banner">
	<polygon class="st0" points="96.7,668.3 96.7,1435.9 248.9,1498.7 401.1,1435.9 401.1,668.3 	"/>
	<polygon class="st1" points="96.7,1401.6 96.7,1440.7 248.9,1500 401.1,1440.7 401.1,1401.6 	"/>
</g>
<g id="Achievements" class="st2">
	<g class="st3">
		<polygon class="st0" points="505.6,1632.4 462.5,1648.5 505.6,1664.3 1010.5,1664.3 1010.5,1632.4 		"/>
		<polygon class="st1" points="455.4,1632.4 419,1648.5 455.4,1664.3 557.2,1664.3 557.2,1632.4 		"/>
	</g>
</g>
<g id="Experience" class="st2">
	<g class="st3">
		<polygon class="st0" points="505.6,1215.1 462.5,1231.2 505.6,1247 1010.5,1247 1010.5,1215.1 		"/>
		<polygon class="st1" points="455.4,1215.1 419,1231.2 455.4,1247 557.2,1247 557.2,1215.1 		"/>
	</g>
</g>
<g id="Education" class="st2">
	<g class="st3">
		<polygon class="st0" points="505.6,762.1 462.5,778.1 505.6,793.9 1010.5,793.9 1010.5,762.1 		"/>
		<polygon class="st1" points="455.4,762.1 419,778.1 455.4,793.9 557.2,793.9 557.2,762.1 		"/>
	</g>
</g>
<g id="Header">
	<rect x="95.1" y="523.5" class="st4" width="915.4" height="126.7"/>
	<rect x="944.5" y="523.5" class="st1" width="66" height="126.7"/>
	<rect x="95.1" y="523.5" class="st1" width="66" height="126.7"/>
</g>
</svg>
