<?xml version="1.0" encoding="utf-8"?>
<!-- Generator: Adobe Illustrator 24.0.3, SVG Export Plug-In . SVG Version: 6.00 Build 0)  -->
<svg version="1.1" id="Layer_1" xmlns="http://www.w3.org/2000/svg" xmlns:xlink="http://www.w3.org/1999/xlink" x="0px" y="0px"
	 viewBox="0 0 576.9 1576.4" style="enable-background:new 0 0 576.9 1576.4;" xml:space="preserve">
<style type="text/css">
	.st0{fill:#353535;}
	.st1{fill:#FF0000;}
	.st2{fill:#FFFFFF;}
</style>
<g id="Layer_1_1_">
	<g id="banner">
		<polygon class="st0" points="0,0 0,1454.9 288.5,1573.9 576.9,1454.9 576.9,0 		"/>
		<polygon class="st1" points="0,1389.9 0,1464 288.5,1576.4 576.9,1464 576.9,1389.9 		"/>
	</g>
</g>
<g>
	<g>
		<path class="st2" d="M43.8,285.3l1.5-0.2l7.2-18.6h2.4l7.1,18.6l1.5,0.2v1.8h-5.9v-1.8l1.6-0.3l-1.4-3.8h-8.3l-1.4,3.8l1.6,0.3
			v1.8h-5.9V285.3z M50.4,278.9h6.5l-3.2-8.9h-0.1L50.4,278.9z"/>
		<path class="st2" d="M77.2,276.6h-2.1l-0.5-1.8c-0.3-0.3-0.8-0.6-1.3-0.8c-0.5-0.2-1.1-0.3-1.7-0.3c-1,0-1.7,0.2-2.2,0.7
			s-0.7,1-0.7,1.6c0,0.6,0.2,1.1,0.6,1.4s1.3,0.7,2.6,0.9c1.9,0.4,3.4,1,4.3,1.7c0.9,0.7,1.4,1.7,1.4,2.9c0,1.4-0.5,2.5-1.6,3.3
			c-1.1,0.8-2.5,1.3-4.3,1.3c-1.2,0-2.2-0.1-3.1-0.4c-0.9-0.3-1.8-0.7-2.5-1.2l0-3.5h2.1l0.5,2.1c0.3,0.3,0.8,0.5,1.3,0.6
			c0.6,0.1,1.1,0.2,1.7,0.2c1,0,1.8-0.2,2.3-0.6c0.6-0.4,0.8-0.9,0.8-1.6c0-0.6-0.2-1.1-0.7-1.5c-0.5-0.4-1.4-0.7-2.7-1
			c-1.9-0.4-3.3-1-4.2-1.7s-1.4-1.6-1.4-2.8c0-1.2,0.5-2.3,1.6-3.2c1.1-0.9,2.4-1.3,4.1-1.3c1.2,0,2.2,0.2,3.1,0.5s1.7,0.7,2.3,1.3
			L77.2,276.6z"/>
		<path class="st2" d="M97.5,287.1c-0.1-0.4-0.2-0.8-0.2-1.1s-0.1-0.7-0.1-1c-0.5,0.7-1.2,1.3-2,1.7c-0.8,0.5-1.7,0.7-2.6,0.7
			c-1.6,0-2.8-0.4-3.6-1.2c-0.8-0.8-1.2-1.9-1.2-3.3c0-1.5,0.6-2.6,1.8-3.4c1.2-0.8,2.8-1.2,4.8-1.2h2.9v-1.8c0-0.9-0.3-1.6-0.8-2.1
			c-0.6-0.5-1.4-0.8-2.4-0.8c-0.7,0-1.3,0.1-1.8,0.3c-0.5,0.2-1,0.4-1.3,0.7l-0.3,1.6h-2.2v-3c0.7-0.6,1.5-1,2.5-1.3
			c1-0.3,2.1-0.5,3.2-0.5c1.7,0,3.1,0.4,4.2,1.3s1.6,2.2,1.6,3.8v7.4c0,0.2,0,0.4,0,0.6c0,0.2,0,0.4,0,0.6l1.1,0.2v1.8H97.5z
			 M93,285.1c0.9,0,1.8-0.2,2.5-0.7s1.3-1,1.6-1.6v-2.5h-3c-1.1,0-2,0.3-2.7,0.8c-0.7,0.5-1,1.2-1,1.9c0,0.7,0.2,1.2,0.6,1.5
			C91.5,284.9,92.2,285.1,93,285.1z"/>
		<path class="st2" d="M122.4,276.6h-2.1l-0.5-1.8c-0.3-0.3-0.8-0.6-1.3-0.8c-0.5-0.2-1.1-0.3-1.7-0.3c-1,0-1.7,0.2-2.2,0.7
			s-0.7,1-0.7,1.6c0,0.6,0.2,1.1,0.6,1.4s1.3,0.7,2.6,0.9c1.9,0.4,3.4,1,4.3,1.7c0.9,0.7,1.4,1.7,1.4,2.9c0,1.4-0.5,2.5-1.6,3.3
			c-1.1,0.8-2.5,1.3-4.3,1.3c-1.2,0-2.2-0.1-3.1-0.4c-0.9-0.3-1.8-0.7-2.5-1.2l0-3.5h2.1l0.5,2.1c0.3,0.3,0.8,0.5,1.3,0.6
			c0.6,0.1,1.1,0.2,1.7,0.2c1,0,1.8-0.2,2.3-0.6c0.6-0.4,0.8-0.9,0.8-1.6c0-0.6-0.2-1.1-0.7-1.5c-0.5-0.4-1.4-0.7-2.7-1
			c-1.9-0.4-3.3-1-4.2-1.7s-1.4-1.6-1.4-2.8c0-1.2,0.5-2.3,1.6-3.2c1.1-0.9,2.4-1.3,4.1-1.3c1.2,0,2.2,0.2,3.1,0.5s1.7,0.7,2.3,1.3
			L122.4,276.6z"/>
		<path class="st2" d="M125.5,279.3c0-2.3,0.6-4.1,1.8-5.6c1.2-1.5,2.9-2.2,5-2.2c2.1,0,3.8,0.7,5,2.2c1.2,1.5,1.8,3.3,1.8,5.6v0.3
			c0,2.3-0.6,4.2-1.8,5.6s-2.9,2.2-5,2.2c-2.1,0-3.8-0.7-5-2.2c-1.2-1.5-1.8-3.3-1.8-5.6V279.3z M128.3,279.6c0,1.6,0.3,3,1,4
			c0.7,1.1,1.7,1.6,3.1,1.6c1.3,0,2.3-0.5,3-1.6s1-2.4,1-4v-0.3c0-1.6-0.3-2.9-1-4s-1.7-1.6-3-1.6s-2.4,0.5-3,1.6s-1,2.4-1,4V279.6z
			"/>
		<path class="st2" d="M141.4,291.2l2.3-0.4V274l-2.3-0.4v-1.8h4.7l0.3,1.9c0.5-0.7,1.1-1.2,1.9-1.6c0.7-0.4,1.6-0.6,2.5-0.6
			c1.9,0,3.4,0.8,4.4,2.3c1.1,1.5,1.6,3.5,1.6,6v0.3c0,2.2-0.5,4-1.6,5.3c-1.1,1.4-2.5,2-4.4,2c-0.9,0-1.8-0.2-2.5-0.5
			c-0.7-0.3-1.3-0.8-1.8-1.4v5.3l2.3,0.4v1.8h-7.4V291.2z M154,279.7c0-1.7-0.3-3.2-1-4.3s-1.7-1.7-3-1.7c-0.8,0-1.5,0.2-2,0.5
			s-1,0.8-1.4,1.5v7.5c0.3,0.6,0.8,1.1,1.4,1.5c0.6,0.3,1.3,0.5,2.1,0.5c1.3,0,2.3-0.5,3-1.4s1-2.2,1-3.8V279.7z"/>
		<path class="st2" d="M158.8,285.3l2.3-0.4v-17.7l-2.3-0.4V265h5.1v8.8c0.5-0.7,1.2-1.3,1.9-1.7s1.6-0.6,2.5-0.6
			c1.6,0,2.9,0.5,3.8,1.5s1.4,2.5,1.4,4.5v7.4l2.3,0.4v1.8h-7.4v-1.8l2.3-0.4v-7.4c0-1.3-0.3-2.2-0.8-2.8c-0.5-0.6-1.4-0.9-2.4-0.9
			c-0.8,0-1.5,0.2-2.1,0.5c-0.6,0.4-1.1,0.9-1.6,1.5v9.1l2.3,0.4v1.8h-7.4V285.3z"/>
		<path class="st2" d="M177.7,279.3c0-2.3,0.6-4.1,1.8-5.6c1.2-1.5,2.9-2.2,5-2.2c2.1,0,3.8,0.7,5,2.2c1.2,1.5,1.8,3.3,1.8,5.6v0.3
			c0,2.3-0.6,4.2-1.8,5.6s-2.9,2.2-5,2.2c-2.1,0-3.8-0.7-5-2.2c-1.2-1.5-1.8-3.3-1.8-5.6V279.3z M180.5,279.6c0,1.6,0.3,3,1,4
			c0.7,1.1,1.7,1.6,3.1,1.6c1.3,0,2.3-0.5,3-1.6s1-2.4,1-4v-0.3c0-1.6-0.3-2.9-1-4s-1.7-1.6-3-1.6s-2.4,0.5-3,1.6s-1,2.4-1,4V279.6z
			"/>
		<path class="st2" d="M193.4,285.3l2.3-0.4V274l-2.3-0.4v-1.8h4.8l0.2,2c0.5-0.7,1.1-1.3,1.9-1.7s1.7-0.6,2.7-0.6s1.9,0.2,2.6,0.7
			c0.7,0.5,1.3,1.2,1.6,2.1c0.5-0.9,1.1-1.6,1.9-2.1s1.7-0.8,2.8-0.8c1.6,0,2.8,0.5,3.7,1.6c0.9,1.1,1.4,2.7,1.4,4.8v7l2.3,0.4v1.8
			H212v-1.8l2.3-0.4v-7c0-1.5-0.3-2.6-0.8-3.2c-0.5-0.6-1.3-0.9-2.3-0.9c-1,0-1.8,0.3-2.3,1c-0.6,0.7-0.9,1.5-1,2.6v7.5l2.3,0.4v1.8
			h-7.4v-1.8l2.3-0.4v-7c0-1.4-0.3-2.5-0.8-3.2c-0.5-0.7-1.3-1-2.3-1c-0.8,0-1.5,0.2-2.1,0.5s-1,0.8-1.3,1.5v9.2l2.3,0.4v1.8h-7.4
			V285.3z"/>
		<path class="st2" d="M221.3,279.3c0-2.3,0.6-4.1,1.8-5.6c1.2-1.5,2.9-2.2,5-2.2c2.1,0,3.8,0.7,5,2.2c1.2,1.5,1.8,3.3,1.8,5.6v0.3
			c0,2.3-0.6,4.2-1.8,5.6s-2.9,2.2-5,2.2c-2.1,0-3.8-0.7-5-2.2c-1.2-1.5-1.8-3.3-1.8-5.6V279.3z M224.1,279.6c0,1.6,0.3,3,1,4
			c0.7,1.1,1.7,1.6,3.1,1.6c1.3,0,2.3-0.5,3-1.6s1-2.4,1-4v-0.3c0-1.6-0.3-2.9-1-4s-1.7-1.6-3-1.6s-2.4,0.5-3,1.6s-1,2.4-1,4V279.6z
			"/>
		<path class="st2" d="M237.5,273.6v-1.8h4.8l0.3,2.2c0.4-0.8,1-1.4,1.6-1.8c0.6-0.4,1.4-0.7,2.2-0.7c0.2,0,0.4,0,0.7,0
			c0.2,0,0.4,0.1,0.5,0.1l-0.4,2.6l-1.6-0.1c-0.7,0-1.4,0.2-1.9,0.5c-0.5,0.3-0.9,0.8-1.2,1.5v8.8l2.3,0.4v1.8h-7.4v-1.8l2.3-0.4
			V274L237.5,273.6z"/>
		<path class="st2" d="M256.2,287.4c-2.1,0-3.8-0.7-5.1-2.1c-1.3-1.4-1.9-3.3-1.9-5.5v-0.6c0-2.2,0.6-4,1.9-5.4
			c1.3-1.4,2.8-2.2,4.6-2.2c2.1,0,3.6,0.6,4.7,1.9c1.1,1.2,1.6,2.9,1.6,5v1.7h-9.9l0,0.1c0,1.5,0.4,2.7,1.1,3.6
			c0.7,0.9,1.7,1.4,3,1.4c0.9,0,1.8-0.1,2.5-0.4c0.7-0.3,1.3-0.6,1.8-1.1l1.1,1.8c-0.5,0.5-1.3,1-2.2,1.3
			C258.6,287.2,257.5,287.4,256.2,287.4z M255.8,273.7c-0.9,0-1.7,0.4-2.4,1.2c-0.7,0.8-1.1,1.8-1.2,3l0,0.1h7.1v-0.4
			c0-1.1-0.3-2-0.9-2.7S257,273.7,255.8,273.7z"/>
		<path class="st2" d="M272,285.3l2.3-0.4V274l-2.3-0.4v-1.8h5.1v13.1l2.3,0.4v1.8H272V285.3z M277.1,267.9h-2.8V265h2.8V267.9z"/>
		<path class="st2" d="M281.2,285.3l2.3-0.4V274l-2.3-0.4v-1.8h4.8l0.2,2.3c0.5-0.8,1.1-1.4,1.9-1.9c0.8-0.4,1.6-0.7,2.6-0.7
			c1.7,0,2.9,0.5,3.8,1.5c0.9,1,1.4,2.5,1.4,4.5v7.5l2.3,0.4v1.8h-7.4v-1.8l2.3-0.4v-7.4c0-1.4-0.3-2.3-0.8-2.9
			c-0.5-0.6-1.3-0.8-2.4-0.8c-0.8,0-1.5,0.2-2.1,0.6c-0.6,0.4-1.1,0.9-1.5,1.6v9l2.3,0.4v1.8h-7.4V285.3z"/>
		<path class="st2" d="M306.9,285.3l2.3-0.4V274l-2.3-0.4v-1.8h4.8l0.2,2c0.5-0.7,1.1-1.3,1.9-1.7c0.8-0.4,1.7-0.6,2.7-0.6
			s1.9,0.2,2.6,0.7c0.7,0.5,1.3,1.2,1.7,2.1c0.5-0.9,1.1-1.6,1.9-2.1s1.7-0.8,2.8-0.8c1.6,0,2.8,0.5,3.7,1.6
			c0.9,1.1,1.4,2.7,1.4,4.8v7l2.3,0.4v1.8h-7.4v-1.8l2.3-0.4v-7c0-1.5-0.3-2.6-0.8-3.2c-0.5-0.6-1.3-0.9-2.3-0.9c-1,0-1.8,0.3-2.3,1
			c-0.6,0.7-0.9,1.5-1,2.6v7.5l2.3,0.4v1.8h-7.4v-1.8l2.3-0.4v-7c0-1.4-0.3-2.5-0.8-3.2c-0.5-0.7-1.3-1-2.3-1
			c-0.8,0-1.5,0.2-2.1,0.5c-0.5,0.3-1,0.8-1.3,1.5v9.2l2.3,0.4v1.8h-7.4V285.3z"/>
		<path class="st2" d="M349.4,273.6l-1.4,0.2l-5.8,15.7c-0.4,1-0.9,1.9-1.7,2.7c-0.7,0.8-1.7,1.1-2.9,1.1c-0.2,0-0.5,0-0.8-0.1
			c-0.3-0.1-0.6-0.1-0.8-0.1l0.3-2.2c-0.1,0,0.1,0,0.5,0c0.4,0,0.6,0,0.7,0c0.6,0,1.1-0.3,1.4-0.8c0.4-0.5,0.7-1.1,1-1.8l0.7-1.6
			l-5.1-13l-1.4-0.2v-1.8h6.2v1.8l-1.7,0.3l2.6,7.6l0.5,2h0.1l3.2-9.5l-1.7-0.3v-1.8h6.2V273.6z"/>
		<path class="st2" d="M370.2,276.6h-2.1l-0.5-1.8c-0.3-0.3-0.8-0.6-1.3-0.8c-0.5-0.2-1.1-0.3-1.7-0.3c-1,0-1.7,0.2-2.2,0.7
			s-0.7,1-0.7,1.6c0,0.6,0.2,1.1,0.6,1.4s1.3,0.7,2.6,0.9c1.9,0.4,3.4,1,4.3,1.7c0.9,0.7,1.4,1.7,1.4,2.9c0,1.4-0.5,2.5-1.7,3.3
			c-1.1,0.8-2.5,1.3-4.3,1.3c-1.2,0-2.2-0.1-3.1-0.4c-0.9-0.3-1.8-0.7-2.5-1.2l0-3.5h2.1l0.5,2.1c0.3,0.3,0.8,0.5,1.3,0.6
			c0.6,0.1,1.1,0.2,1.7,0.2c1,0,1.8-0.2,2.3-0.6c0.6-0.4,0.8-0.9,0.8-1.6c0-0.6-0.2-1.1-0.7-1.5c-0.5-0.4-1.4-0.7-2.7-1
			c-1.9-0.4-3.3-1-4.2-1.7c-0.9-0.7-1.4-1.6-1.4-2.8c0-1.2,0.5-2.3,1.6-3.2c1.1-0.9,2.4-1.3,4.1-1.3c1.2,0,2.2,0.2,3.1,0.5
			c0.9,0.3,1.7,0.7,2.3,1.3L370.2,276.6z"/>
		<path class="st2" d="M380.3,287.4c-2.1,0-3.8-0.7-5.1-2.1c-1.3-1.4-1.9-3.3-1.9-5.5v-0.6c0-2.2,0.6-4,1.9-5.4
			c1.3-1.4,2.8-2.2,4.6-2.2c2.1,0,3.6,0.6,4.7,1.9c1.1,1.2,1.6,2.9,1.6,5v1.7h-9.9l0,0.1c0,1.5,0.4,2.7,1.1,3.6
			c0.7,0.9,1.7,1.4,3,1.4c0.9,0,1.8-0.1,2.5-0.4c0.7-0.3,1.3-0.6,1.8-1.1l1.1,1.8c-0.5,0.5-1.3,1-2.2,1.3
			C382.6,287.2,381.6,287.4,380.3,287.4z M379.9,273.7c-0.9,0-1.7,0.4-2.4,1.2c-0.7,0.8-1.1,1.8-1.2,3l0,0.1h7.1v-0.4
			c0-1.1-0.3-2-0.9-2.7C381.9,274.1,381,273.7,379.9,273.7z"/>
		<path class="st2" d="M395.8,285.2c0.9,0,1.7-0.3,2.4-0.9c0.7-0.6,1.1-1.3,1.1-2.1h2.5l0,0.1c0,1.3-0.5,2.5-1.8,3.5
			c-1.2,1-2.6,1.5-4.3,1.5c-2.2,0-3.9-0.7-5.1-2.2c-1.2-1.5-1.8-3.3-1.8-5.5v-0.6c0-2.2,0.6-4,1.8-5.5c1.2-1.5,2.9-2.2,5.1-2.2
			c1.2,0,2.3,0.2,3.3,0.6c1,0.4,1.8,1,2.4,1.7l0.1,3.4h-2.2l-0.6-2.4c-0.3-0.3-0.8-0.6-1.3-0.8c-0.5-0.2-1.1-0.3-1.8-0.3
			c-1.5,0-2.5,0.5-3.1,1.6c-0.6,1.1-0.9,2.3-0.9,3.9v0.6c0,1.6,0.3,2.9,0.9,3.9C393.2,284.7,394.3,285.2,395.8,285.2z"/>
		<path class="st2" d="M404.5,279.3c0-2.3,0.6-4.1,1.8-5.6c1.2-1.5,2.9-2.2,5-2.2c2.1,0,3.8,0.7,5,2.2c1.2,1.5,1.8,3.3,1.8,5.6v0.3
			c0,2.3-0.6,4.2-1.8,5.6c-1.2,1.5-2.9,2.2-5,2.2c-2.1,0-3.8-0.7-5-2.2c-1.2-1.5-1.8-3.3-1.8-5.6V279.3z M407.3,279.6
			c0,1.6,0.3,3,1,4c0.7,1.1,1.7,1.6,3.1,1.6c1.3,0,2.3-0.5,3-1.6c0.7-1.1,1-2.4,1-4v-0.3c0-1.6-0.3-2.9-1-4c-0.7-1.1-1.7-1.6-3-1.6
			c-1.3,0-2.4,0.5-3,1.6s-1,2.4-1,4V279.6z"/>
		<path class="st2" d="M420.4,285.3l2.3-0.4V274l-2.3-0.4v-1.8h4.8l0.2,2.3c0.5-0.8,1.1-1.4,1.9-1.9c0.8-0.4,1.6-0.7,2.6-0.7
			c1.7,0,2.9,0.5,3.8,1.5c0.9,1,1.4,2.5,1.4,4.5v7.5l2.3,0.4v1.8H430v-1.8l2.3-0.4v-7.4c0-1.4-0.3-2.3-0.8-2.9s-1.3-0.8-2.4-0.8
			c-0.8,0-1.5,0.2-2.1,0.6c-0.6,0.4-1.1,0.9-1.5,1.6v9l2.3,0.4v1.8h-7.4V285.3z"/>
		<path class="st2" d="M449.6,285.3c-0.5,0.7-1.1,1.2-1.8,1.6c-0.7,0.4-1.6,0.5-2.5,0.5c-1.9,0-3.3-0.7-4.4-2
			c-1.1-1.4-1.6-3.1-1.6-5.3v-0.3c0-2.5,0.5-4.5,1.6-6s2.5-2.3,4.4-2.3c0.9,0,1.7,0.2,2.4,0.5c0.7,0.3,1.3,0.8,1.8,1.5v-6.2
			l-2.3-0.4V265h2.3h2.8v19.9l2.3,0.4v1.8h-4.7L449.6,285.3z M442.1,280c0,1.5,0.3,2.8,0.9,3.7c0.6,0.9,1.6,1.4,2.9,1.4
			c0.8,0,1.5-0.2,2.1-0.6s1-0.9,1.4-1.6v-7.1c-0.4-0.6-0.8-1.2-1.4-1.5c-0.6-0.4-1.3-0.6-2.1-0.6c-1.3,0-2.3,0.6-3,1.7
			c-0.6,1.1-1,2.5-1,4.3V280z"/>
		<path class="st2" d="M56,319.6h-2.1l-0.5-1.8c-0.3-0.3-0.8-0.6-1.3-0.8c-0.5-0.2-1.1-0.3-1.7-0.3c-1,0-1.7,0.2-2.2,0.7
			s-0.7,1-0.7,1.6c0,0.6,0.2,1.1,0.6,1.4s1.3,0.7,2.6,0.9c1.9,0.4,3.4,1,4.3,1.7c0.9,0.7,1.4,1.7,1.4,2.9c0,1.4-0.5,2.5-1.6,3.3
			c-1.1,0.8-2.5,1.3-4.3,1.3c-1.2,0-2.2-0.1-3.1-0.4c-0.9-0.3-1.8-0.7-2.5-1.2l0-3.5H47l0.5,2.1c0.3,0.3,0.8,0.5,1.3,0.6
			c0.6,0.1,1.1,0.2,1.7,0.2c1,0,1.8-0.2,2.3-0.6c0.6-0.4,0.8-0.9,0.8-1.6c0-0.6-0.2-1.1-0.7-1.5c-0.5-0.4-1.4-0.7-2.7-1
			c-1.9-0.4-3.3-1-4.2-1.7s-1.4-1.6-1.4-2.8c0-1.2,0.5-2.3,1.6-3.2c1.1-0.9,2.4-1.3,4.1-1.3c1.2,0,2.2,0.2,3.1,0.5s1.7,0.7,2.3,1.3
			L56,319.6z"/>
		<path class="st2" d="M66,330.4c-2.1,0-3.8-0.7-5.1-2.1c-1.3-1.4-1.9-3.3-1.9-5.5v-0.6c0-2.2,0.6-4,1.9-5.4
			c1.3-1.4,2.8-2.2,4.6-2.2c2.1,0,3.6,0.6,4.7,1.9c1.1,1.2,1.6,2.9,1.6,5v1.7H62l0,0.1c0,1.5,0.4,2.7,1.1,3.6c0.7,0.9,1.7,1.4,3,1.4
			c0.9,0,1.8-0.1,2.5-0.4c0.7-0.3,1.3-0.6,1.8-1.1l1.1,1.8c-0.5,0.5-1.3,1-2.2,1.3C68.4,330.2,67.3,330.4,66,330.4z M65.6,316.7
			c-0.9,0-1.7,0.4-2.4,1.2c-0.7,0.8-1.1,1.8-1.2,3l0,0.1h7.1v-0.4c0-1.1-0.3-2-0.9-2.7S66.8,316.7,65.6,316.7z"/>
		<path class="st2" d="M74.1,328.3l2.3-0.4V317l-2.3-0.4v-1.8h4.8l0.2,2c0.5-0.7,1.1-1.3,1.9-1.7s1.7-0.6,2.7-0.6s1.9,0.2,2.6,0.7
			c0.7,0.5,1.3,1.2,1.6,2.1c0.5-0.9,1.1-1.6,1.9-2.1s1.7-0.8,2.8-0.8c1.6,0,2.8,0.5,3.7,1.6c0.9,1.1,1.4,2.7,1.4,4.8v7l2.3,0.4v1.8
			h-7.4v-1.8l2.3-0.4v-7c0-1.5-0.3-2.6-0.8-3.2c-0.5-0.6-1.3-0.9-2.3-0.9c-1,0-1.8,0.3-2.3,1c-0.6,0.7-0.9,1.5-1,2.6v7.5l2.3,0.4
			v1.8h-7.4v-1.8l2.3-0.4v-7c0-1.4-0.3-2.5-0.8-3.2c-0.5-0.7-1.3-1-2.3-1c-0.8,0-1.5,0.2-2.1,0.5s-1,0.8-1.3,1.5v9.2l2.3,0.4v1.8
			h-7.4V328.3z"/>
		<path class="st2" d="M108.9,330.4c-2.1,0-3.8-0.7-5.1-2.1c-1.3-1.4-1.9-3.3-1.9-5.5v-0.6c0-2.2,0.6-4,1.9-5.4
			c1.3-1.4,2.8-2.2,4.6-2.2c2.1,0,3.6,0.6,4.7,1.9c1.1,1.2,1.6,2.9,1.6,5v1.7h-9.9l0,0.1c0,1.5,0.4,2.7,1.1,3.6
			c0.7,0.9,1.7,1.4,3,1.4c0.9,0,1.8-0.1,2.5-0.4c0.7-0.3,1.3-0.6,1.8-1.1l1.1,1.8c-0.5,0.5-1.3,1-2.2,1.3
			C111.2,330.2,110.2,330.4,108.9,330.4z M108.5,316.7c-0.9,0-1.7,0.4-2.4,1.2c-0.7,0.8-1.1,1.8-1.2,3l0,0.1h7.1v-0.4
			c0-1.1-0.3-2-0.9-2.7S109.6,316.7,108.5,316.7z"/>
		<path class="st2" d="M129.2,319.6h-2.1l-0.5-1.8c-0.3-0.3-0.8-0.6-1.3-0.8c-0.5-0.2-1.1-0.3-1.7-0.3c-1,0-1.7,0.2-2.2,0.7
			s-0.7,1-0.7,1.6c0,0.6,0.2,1.1,0.6,1.4s1.3,0.7,2.6,0.9c1.9,0.4,3.4,1,4.3,1.7c0.9,0.7,1.4,1.7,1.4,2.9c0,1.4-0.5,2.5-1.6,3.3
			c-1.1,0.8-2.5,1.3-4.3,1.3c-1.2,0-2.2-0.1-3.1-0.4c-0.9-0.3-1.8-0.7-2.5-1.2l0-3.5h2.1l0.5,2.1c0.3,0.3,0.8,0.5,1.3,0.6
			c0.6,0.1,1.1,0.2,1.7,0.2c1,0,1.8-0.2,2.3-0.6c0.6-0.4,0.8-0.9,0.8-1.6c0-0.6-0.2-1.1-0.7-1.5c-0.5-0.4-1.4-0.7-2.7-1
			c-1.9-0.4-3.3-1-4.2-1.7s-1.4-1.6-1.4-2.8c0-1.2,0.5-2.3,1.6-3.2c1.1-0.9,2.4-1.3,4.1-1.3c1.2,0,2.2,0.2,3.1,0.5s1.7,0.7,2.3,1.3
			L129.2,319.6z"/>
		<path class="st2" d="M137.1,311.1v3.7h2.9v2.1h-2.9v9.3c0,0.7,0.1,1.2,0.4,1.5c0.3,0.3,0.7,0.4,1.2,0.4c0.2,0,0.5,0,0.8-0.1
			c0.3,0,0.6-0.1,0.8-0.1l0.4,1.9c-0.3,0.2-0.7,0.3-1.2,0.4c-0.5,0.1-1,0.2-1.5,0.2c-1.1,0-2-0.3-2.7-1c-0.7-0.7-1-1.8-1-3.2v-9.3
			h-2.4v-2.1h2.4v-3.7H137.1z"/>
		<path class="st2" d="M149.9,330.4c-2.1,0-3.8-0.7-5.1-2.1c-1.3-1.4-1.9-3.3-1.9-5.5v-0.6c0-2.2,0.6-4,1.9-5.4
			c1.3-1.4,2.8-2.2,4.6-2.2c2.1,0,3.6,0.6,4.7,1.9c1.1,1.2,1.6,2.9,1.6,5v1.7h-9.9l0,0.1c0,1.5,0.4,2.7,1.1,3.6
			c0.7,0.9,1.7,1.4,3,1.4c0.9,0,1.8-0.1,2.5-0.4c0.7-0.3,1.3-0.6,1.8-1.1l1.1,1.8c-0.5,0.5-1.3,1-2.2,1.3
			C152.2,330.2,151.2,330.4,149.9,330.4z M149.5,316.7c-0.9,0-1.7,0.4-2.4,1.2c-0.7,0.8-1.1,1.8-1.2,3l0,0.1h7.1v-0.4
			c0-1.1-0.3-2-0.9-2.7S150.6,316.7,149.5,316.7z"/>
		<path class="st2" d="M158.5,316.6v-1.8h4.8l0.3,2.2c0.4-0.8,1-1.4,1.6-1.8c0.6-0.4,1.4-0.7,2.2-0.7c0.2,0,0.4,0,0.7,0
			c0.2,0,0.4,0.1,0.5,0.1l-0.4,2.6l-1.6-0.1c-0.7,0-1.4,0.2-1.9,0.5c-0.5,0.3-0.9,0.8-1.2,1.5v8.8l2.3,0.4v1.8h-7.4v-1.8l2.3-0.4
			V317L158.5,316.6z"/>
		<path class="st2" d="M187.7,330.1c-0.1-0.4-0.2-0.8-0.2-1.1s-0.1-0.7-0.1-1c-0.5,0.7-1.2,1.3-2,1.7c-0.8,0.5-1.7,0.7-2.6,0.7
			c-1.6,0-2.8-0.4-3.6-1.2c-0.8-0.8-1.2-1.9-1.2-3.3c0-1.5,0.6-2.6,1.8-3.4c1.2-0.8,2.8-1.2,4.8-1.2h2.9v-1.8c0-0.9-0.3-1.6-0.8-2.1
			c-0.6-0.5-1.4-0.8-2.4-0.8c-0.7,0-1.3,0.1-1.8,0.3c-0.5,0.2-1,0.4-1.3,0.7l-0.3,1.6h-2.2v-3c0.7-0.6,1.5-1,2.5-1.3
			c1-0.3,2.1-0.5,3.2-0.5c1.7,0,3.1,0.4,4.2,1.3s1.6,2.2,1.6,3.8v7.4c0,0.2,0,0.4,0,0.6c0,0.2,0,0.4,0,0.6l1.1,0.2v1.8H187.7z
			 M183.2,328.1c0.9,0,1.8-0.2,2.5-0.7s1.3-1,1.6-1.6v-2.5h-3c-1.1,0-2,0.3-2.7,0.8c-0.7,0.5-1,1.2-1,1.9c0,0.7,0.2,1.2,0.6,1.5
			C181.7,327.9,182.4,328.1,183.2,328.1z"/>
		<path class="st2" d="M198.5,311.1v3.7h2.9v2.1h-2.9v9.3c0,0.7,0.1,1.2,0.4,1.5c0.3,0.3,0.7,0.4,1.2,0.4c0.2,0,0.5,0,0.8-0.1
			c0.3,0,0.6-0.1,0.8-0.1l0.4,1.9c-0.3,0.2-0.7,0.3-1.2,0.4c-0.5,0.1-1,0.2-1.5,0.2c-1.1,0-2-0.3-2.7-1c-0.7-0.7-1-1.8-1-3.2v-9.3
			h-2.4v-2.1h2.4v-3.7H198.5z"/>
		<path class="st2" d="M218.5,309.5v1.8l-2.3,0.4v11.8c0,1.6,0.4,2.7,1.3,3.5c0.9,0.8,2.1,1.2,3.5,1.2c1.5,0,2.8-0.4,3.7-1.2
			s1.4-2,1.4-3.6v-11.8l-2.3-0.4v-1.8h5.1h2.3v1.8l-2.3,0.4v11.8c0,2.2-0.7,4-2.2,5.1c-1.5,1.2-3.4,1.8-5.7,1.8
			c-2.3,0-4.1-0.6-5.5-1.8c-1.4-1.2-2.1-2.9-2.1-5.1v-11.8l-2.3-0.4v-1.8h2.3H218.5z"/>
		<path class="st2" d="M232.8,328.3l2.3-0.4V317l-2.3-0.4v-1.8h4.8l0.2,2c0.5-0.7,1.1-1.3,1.9-1.7s1.7-0.6,2.7-0.6s1.9,0.2,2.6,0.7
			c0.7,0.5,1.3,1.2,1.6,2.1c0.5-0.9,1.1-1.6,1.9-2.1s1.7-0.8,2.8-0.8c1.6,0,2.8,0.5,3.7,1.6c0.9,1.1,1.4,2.7,1.4,4.8v7l2.3,0.4v1.8
			h-7.4v-1.8l2.3-0.4v-7c0-1.5-0.3-2.6-0.8-3.2c-0.5-0.6-1.3-0.9-2.3-0.9c-1,0-1.8,0.3-2.3,1c-0.6,0.7-0.9,1.5-1,2.6v7.5l2.3,0.4
			v1.8H242v-1.8l2.3-0.4v-7c0-1.4-0.3-2.5-0.8-3.2c-0.5-0.7-1.3-1-2.3-1c-0.8,0-1.5,0.2-2.1,0.5s-1,0.8-1.3,1.5v9.2l2.3,0.4v1.8
			h-7.4V328.3z"/>
		<path class="st2" d="M270.7,330.1c-0.1-0.4-0.2-0.8-0.2-1.1s-0.1-0.7-0.1-1c-0.5,0.7-1.2,1.3-2,1.7c-0.8,0.5-1.7,0.7-2.6,0.7
			c-1.6,0-2.8-0.4-3.6-1.2c-0.8-0.8-1.2-1.9-1.2-3.3c0-1.5,0.6-2.6,1.8-3.4c1.2-0.8,2.8-1.2,4.8-1.2h2.9v-1.8c0-0.9-0.3-1.6-0.8-2.1
			c-0.6-0.5-1.4-0.8-2.4-0.8c-0.7,0-1.3,0.1-1.8,0.3c-0.5,0.2-1,0.4-1.3,0.7l-0.3,1.6h-2.2v-3c0.7-0.6,1.5-1,2.5-1.3
			c1-0.3,2.1-0.5,3.2-0.5c1.7,0,3.1,0.4,4.2,1.3s1.6,2.2,1.6,3.8v7.4c0,0.2,0,0.4,0,0.6c0,0.2,0,0.4,0,0.6l1.1,0.2v1.8H270.7z
			 M266.2,328.1c0.9,0,1.8-0.2,2.5-0.7s1.3-1,1.6-1.6v-2.5h-3c-1.1,0-2,0.3-2.7,0.8c-0.7,0.5-1,1.2-1,1.9c0,0.7,0.2,1.2,0.6,1.5
			C264.7,327.9,265.4,328.1,266.2,328.1z"/>
		<path class="st2" d="M288.4,319.6h-2.1l-0.5-1.8c-0.3-0.3-0.8-0.6-1.3-0.8c-0.5-0.2-1.1-0.3-1.7-0.3c-1,0-1.7,0.2-2.2,0.7
			s-0.7,1-0.7,1.6c0,0.6,0.2,1.1,0.6,1.4s1.3,0.7,2.6,0.9c1.9,0.4,3.4,1,4.3,1.7c0.9,0.7,1.4,1.7,1.4,2.9c0,1.4-0.5,2.5-1.6,3.3
			c-1.1,0.8-2.5,1.3-4.3,1.3c-1.2,0-2.2-0.1-3.1-0.4c-0.9-0.3-1.8-0.7-2.5-1.2l0-3.5h2.1l0.5,2.1c0.3,0.3,0.8,0.5,1.3,0.6
			c0.6,0.1,1.1,0.2,1.7,0.2c1,0,1.8-0.2,2.3-0.6c0.6-0.4,0.8-0.9,0.8-1.6c0-0.6-0.2-1.1-0.7-1.5c-0.5-0.4-1.4-0.7-2.7-1
			c-1.9-0.4-3.3-1-4.2-1.7s-1.4-1.6-1.4-2.8c0-1.2,0.5-2.3,1.6-3.2c1.1-0.9,2.4-1.3,4.1-1.3c1.2,0,2.2,0.2,3.1,0.5s1.7,0.7,2.3,1.3
			L288.4,319.6z"/>
		<path class="st2" d="M303.2,319.6h-2.1l-0.5-1.8c-0.3-0.3-0.8-0.6-1.3-0.8c-0.5-0.2-1.1-0.3-1.7-0.3c-1,0-1.7,0.2-2.2,0.7
			s-0.7,1-0.7,1.6c0,0.6,0.2,1.1,0.6,1.4s1.3,0.7,2.6,0.9c1.9,0.4,3.4,1,4.3,1.7c0.9,0.7,1.4,1.7,1.4,2.9c0,1.4-0.5,2.5-1.6,3.3
			s-2.5,1.3-4.3,1.3c-1.2,0-2.2-0.1-3.1-0.4c-0.9-0.3-1.8-0.7-2.5-1.2l0-3.5h2.1l0.5,2.1c0.3,0.3,0.8,0.5,1.3,0.6
			c0.6,0.1,1.1,0.2,1.7,0.2c1,0,1.8-0.2,2.3-0.6c0.6-0.4,0.8-0.9,0.8-1.6c0-0.6-0.2-1.1-0.7-1.5c-0.5-0.4-1.4-0.7-2.7-1
			c-1.9-0.4-3.3-1-4.2-1.7c-0.9-0.7-1.4-1.6-1.4-2.8c0-1.2,0.5-2.3,1.6-3.2c1.1-0.9,2.4-1.3,4.1-1.3c1.2,0,2.2,0.2,3.1,0.5
			c0.9,0.3,1.7,0.7,2.3,1.3L303.2,319.6z"/>
		<path class="st2" d="M321.8,309.5c2.7,0,4.9,0.8,6.5,2.5c1.6,1.7,2.5,3.8,2.5,6.4v2.8c0,2.6-0.8,4.8-2.5,6.4
			c-1.6,1.6-3.8,2.5-6.5,2.5h-8.6v-1.8l2.3-0.4v-16.2l-2.3-0.4v-1.8h2.3H321.8z M318.3,311.7v16.2h3.5c1.9,0,3.4-0.6,4.5-1.9
			s1.6-2.9,1.6-4.8v-2.8c0-1.9-0.5-3.5-1.6-4.8s-2.6-1.9-4.5-1.9H318.3z"/>
		<path class="st2" d="M343.5,330.1c-0.1-0.4-0.2-0.8-0.2-1.1c0-0.3-0.1-0.7-0.1-1c-0.5,0.7-1.2,1.3-2,1.7c-0.8,0.5-1.7,0.7-2.6,0.7
			c-1.6,0-2.8-0.4-3.6-1.2c-0.8-0.8-1.2-1.9-1.2-3.3c0-1.5,0.6-2.6,1.8-3.4c1.2-0.8,2.8-1.2,4.8-1.2h2.9v-1.8c0-0.9-0.3-1.6-0.8-2.1
			c-0.6-0.5-1.4-0.8-2.4-0.8c-0.7,0-1.3,0.1-1.8,0.3c-0.5,0.2-1,0.4-1.3,0.7l-0.3,1.6h-2.2v-3c0.7-0.6,1.5-1,2.5-1.3
			c1-0.3,2.1-0.5,3.2-0.5c1.7,0,3.1,0.4,4.2,1.3s1.6,2.2,1.6,3.8v7.4c0,0.2,0,0.4,0,0.6s0,0.4,0,0.6l1.1,0.2v1.8H343.5z
			 M339.1,328.1c0.9,0,1.8-0.2,2.5-0.7s1.3-1,1.6-1.6v-2.5h-3c-1.1,0-2,0.3-2.7,0.8c-0.7,0.5-1,1.2-1,1.9c0,0.7,0.2,1.2,0.6,1.5
			C337.6,327.9,338.2,328.1,339.1,328.1z"/>
		<path class="st2" d="M349.5,316.6v-1.8h4.8l0.3,2.2c0.4-0.8,1-1.4,1.6-1.8c0.6-0.4,1.4-0.7,2.2-0.7c0.2,0,0.4,0,0.7,0
			c0.2,0,0.4,0.1,0.5,0.1l-0.4,2.6l-1.6-0.1c-0.7,0-1.4,0.2-1.9,0.5c-0.5,0.3-0.9,0.8-1.2,1.5v8.8l2.3,0.4v1.8h-7.4v-1.8l2.3-0.4
			V317L349.5,316.6z"/>
		<path class="st2" d="M366.8,311.1v3.7h2.9v2.1h-2.9v9.3c0,0.7,0.1,1.2,0.4,1.5c0.3,0.3,0.7,0.4,1.2,0.4c0.2,0,0.5,0,0.8-0.1
			c0.3,0,0.6-0.1,0.8-0.1l0.4,1.9c-0.3,0.2-0.7,0.3-1.2,0.4c-0.5,0.1-1,0.2-1.5,0.2c-1.1,0-2-0.3-2.7-1c-0.7-0.7-1-1.8-1-3.2v-9.3
			h-2.4v-2.1h2.4v-3.7H366.8z"/>
		<path class="st2" d="M372,328.3l2.3-0.4V317l-2.3-0.4v-1.8h4.8l0.2,2c0.5-0.7,1.1-1.3,1.9-1.7c0.8-0.4,1.7-0.6,2.7-0.6
			s1.9,0.2,2.6,0.7c0.7,0.5,1.3,1.2,1.7,2.1c0.5-0.9,1.1-1.6,1.9-2.1s1.7-0.8,2.8-0.8c1.6,0,2.8,0.5,3.7,1.6
			c0.9,1.1,1.4,2.7,1.4,4.8v7l2.3,0.4v1.8h-7.4v-1.8l2.3-0.4v-7c0-1.5-0.3-2.6-0.8-3.2c-0.5-0.6-1.3-0.9-2.3-0.9c-1,0-1.8,0.3-2.3,1
			c-0.6,0.7-0.9,1.5-1,2.6v7.5l2.3,0.4v1.8h-7.4v-1.8l2.3-0.4v-7c0-1.4-0.3-2.5-0.8-3.2c-0.5-0.7-1.3-1-2.3-1
			c-0.8,0-1.5,0.2-2.1,0.5c-0.5,0.3-1,0.8-1.3,1.5v9.2l2.3,0.4v1.8H372V328.3z"/>
		<path class="st2" d="M399.9,322.3c0-2.3,0.6-4.1,1.8-5.6c1.2-1.5,2.9-2.2,5-2.2c2.1,0,3.8,0.7,5,2.2c1.2,1.5,1.8,3.3,1.8,5.6v0.3
			c0,2.3-0.6,4.2-1.8,5.6c-1.2,1.5-2.9,2.2-5,2.2c-2.1,0-3.8-0.7-5-2.2c-1.2-1.5-1.8-3.3-1.8-5.6V322.3z M402.6,322.6
			c0,1.6,0.3,3,1,4c0.7,1.1,1.7,1.6,3.1,1.6c1.3,0,2.3-0.5,3-1.6c0.7-1.1,1-2.4,1-4v-0.3c0-1.6-0.3-2.9-1-4c-0.7-1.1-1.7-1.6-3-1.6
			c-1.3,0-2.4,0.5-3,1.6s-1,2.4-1,4V322.6z"/>
		<path class="st2" d="M427.1,327.8c-0.5,0.8-1.1,1.5-1.9,1.9s-1.6,0.7-2.6,0.7c-1.7,0-3-0.5-3.9-1.6s-1.4-2.7-1.4-5V317l-1.8-0.4
			v-1.8h1.8h2.8v9.1c0,1.6,0.2,2.8,0.7,3.4s1.2,0.9,2.3,0.9c1,0,1.8-0.2,2.5-0.6c0.6-0.4,1.1-1,1.5-1.7V317l-2.1-0.4v-1.8h2.1h2.8
			v13.1l1.8,0.4v1.8h-4.3L427.1,327.8z"/>
		<path class="st2" d="M438.6,311.1v3.7h2.9v2.1h-2.9v9.3c0,0.7,0.1,1.2,0.4,1.5c0.3,0.3,0.7,0.4,1.2,0.4c0.2,0,0.5,0,0.8-0.1
			c0.3,0,0.6-0.1,0.8-0.1l0.4,1.9c-0.3,0.2-0.7,0.3-1.2,0.4c-0.5,0.1-1,0.2-1.5,0.2c-1.1,0-2-0.3-2.7-1c-0.7-0.7-1-1.8-1-3.2v-9.3
			h-2.4v-2.1h2.4v-3.7H438.6z"/>
		<path class="st2" d="M444,328.3l2.3-0.4v-17.7l-2.3-0.4V308h5.1v8.8c0.5-0.7,1.2-1.3,1.9-1.7s1.6-0.6,2.5-0.6
			c1.6,0,2.9,0.5,3.8,1.5s1.4,2.5,1.4,4.5v7.4l2.3,0.4v1.8h-7.4v-1.8l2.3-0.4v-7.4c0-1.3-0.3-2.2-0.8-2.8c-0.5-0.6-1.4-0.9-2.4-0.9
			c-0.8,0-1.5,0.2-2.1,0.5c-0.6,0.4-1.1,0.9-1.6,1.5v9.1l2.3,0.4v1.8H444V328.3z"/>
		<path class="st2" d="M466.6,330.1h-2.8v-2.9h2.8V330.1z"/>
		<path class="st2" d="M477,311.3v-1.8h7.4v1.8l-2.3,0.4v16.2l2.3,0.4v1.8H477v-1.8l2.3-0.4v-16.2L477,311.3z"/>
		<path class="st2" d="M503.8,330.1c-0.1-0.4-0.2-0.8-0.2-1.1c0-0.3-0.1-0.7-0.1-1c-0.5,0.7-1.2,1.3-2,1.7c-0.8,0.5-1.7,0.7-2.6,0.7
			c-1.6,0-2.8-0.4-3.6-1.2c-0.8-0.8-1.2-1.9-1.2-3.3c0-1.5,0.6-2.6,1.8-3.4c1.2-0.8,2.8-1.2,4.8-1.2h2.9v-1.8c0-0.9-0.3-1.6-0.8-2.1
			c-0.6-0.5-1.4-0.8-2.4-0.8c-0.7,0-1.3,0.1-1.8,0.3c-0.5,0.2-1,0.4-1.3,0.7l-0.3,1.6h-2.2v-3c0.7-0.6,1.5-1,2.5-1.3
			c1-0.3,2.1-0.5,3.2-0.5c1.7,0,3.1,0.4,4.2,1.3s1.6,2.2,1.6,3.8v7.4c0,0.2,0,0.4,0,0.6s0,0.4,0,0.6l1.1,0.2v1.8H503.8z
			 M499.3,328.1c0.9,0,1.8-0.2,2.5-0.7s1.3-1,1.6-1.6v-2.5h-3c-1.1,0-2,0.3-2.7,0.8c-0.7,0.5-1,1.2-1,1.9c0,0.7,0.2,1.2,0.6,1.5
			C497.9,327.9,498.5,328.1,499.3,328.1z"/>
		<path class="st2" d="M509.3,328.3l2.3-0.4V317l-2.3-0.4v-1.8h4.8l0.2,2c0.5-0.7,1.1-1.3,1.9-1.7c0.8-0.4,1.7-0.6,2.7-0.6
			s1.9,0.2,2.6,0.7s1.3,1.2,1.6,2.1c0.5-0.9,1.1-1.6,1.9-2.1s1.7-0.8,2.8-0.8c1.6,0,2.8,0.5,3.7,1.6c0.9,1.1,1.4,2.7,1.4,4.8v7
			l2.3,0.4v1.8h-7.4v-1.8l2.3-0.4v-7c0-1.5-0.3-2.6-0.8-3.2c-0.5-0.6-1.3-0.9-2.3-0.9c-1,0-1.8,0.3-2.3,1c-0.6,0.7-0.9,1.5-1,2.6
			v7.5l2.3,0.4v1.8h-7.4v-1.8l2.3-0.4v-7c0-1.4-0.3-2.5-0.8-3.2c-0.5-0.7-1.3-1-2.3-1c-0.8,0-1.5,0.2-2.1,0.5
			c-0.5,0.3-1,0.8-1.3,1.5v9.2l2.3,0.4v1.8h-7.4V328.3z"/>
		<path class="st2" d="M56,362.6h-2.1l-0.5-1.8c-0.3-0.3-0.8-0.6-1.3-0.8c-0.5-0.2-1.1-0.3-1.7-0.3c-1,0-1.7,0.2-2.2,0.7
			s-0.7,1-0.7,1.6c0,0.6,0.2,1.1,0.6,1.4s1.3,0.7,2.6,0.9c1.9,0.4,3.4,1,4.3,1.7c0.9,0.7,1.4,1.7,1.4,2.9c0,1.4-0.5,2.5-1.6,3.3
			c-1.1,0.8-2.5,1.3-4.3,1.3c-1.2,0-2.2-0.1-3.1-0.4c-0.9-0.3-1.8-0.7-2.5-1.2l0-3.5H47l0.5,2.1c0.3,0.3,0.8,0.5,1.3,0.6
			c0.6,0.1,1.1,0.2,1.7,0.2c1,0,1.8-0.2,2.3-0.6c0.6-0.4,0.8-0.9,0.8-1.6c0-0.6-0.2-1.1-0.7-1.5c-0.5-0.4-1.4-0.7-2.7-1
			c-1.9-0.4-3.3-1-4.2-1.7s-1.4-1.6-1.4-2.8c0-1.2,0.5-2.3,1.6-3.2c1.1-0.9,2.4-1.3,4.1-1.3c1.2,0,2.2,0.2,3.1,0.5s1.7,0.7,2.3,1.3
			L56,362.6z"/>
		<path class="st2" d="M58.7,352.8V351h5.1v12.8h1.8l3.3-4l-1.4-0.2v-1.8h6.4v1.8L72,360l-4,4.8l4.9,6.2l1.7,0.3v1.8h-6.4v-1.8
			l1.4-0.2l-4.1-5.1h-1.8v4.9l2.3,0.4v1.8h-7.4v-1.8l2.3-0.4v-17.7L58.7,352.8z"/>
		<path class="st2" d="M76.7,371.3l2.3-0.4V360l-2.3-0.4v-1.8h5.1v13.1l2.3,0.4v1.8h-7.4V371.3z M81.8,353.9H79V351h2.8V353.9z"/>
		<path class="st2" d="M85.8,352.8V351h5.1v19.9l2.3,0.4v1.8h-7.4v-1.8l2.3-0.4v-17.7L85.8,352.8z"/>
		<path class="st2" d="M95,352.8V351h5.1v19.9l2.3,0.4v1.8H95v-1.8l2.3-0.4v-17.7L95,352.8z"/>
		<path class="st2" d="M111.5,373.4c-2.1,0-3.8-0.7-5.1-2.1c-1.3-1.4-1.9-3.3-1.9-5.5v-0.6c0-2.2,0.6-4,1.9-5.4
			c1.3-1.4,2.8-2.2,4.6-2.2c2.1,0,3.6,0.6,4.7,1.9c1.1,1.2,1.6,2.9,1.6,5v1.7h-9.9l0,0.1c0,1.5,0.4,2.7,1.1,3.6
			c0.7,0.9,1.7,1.4,3,1.4c0.9,0,1.8-0.1,2.5-0.4c0.7-0.3,1.3-0.6,1.8-1.1l1.1,1.8c-0.5,0.5-1.3,1-2.2,1.3
			C113.8,373.2,112.7,373.4,111.5,373.4z M111,359.7c-0.9,0-1.7,0.4-2.4,1.2c-0.7,0.8-1.1,1.8-1.2,3l0,0.1h7.1v-0.4
			c0-1.1-0.3-2-0.9-2.7S112.2,359.7,111,359.7z"/>
		<path class="st2" d="M130.4,371.3c-0.5,0.7-1.1,1.2-1.8,1.6c-0.7,0.4-1.6,0.5-2.5,0.5c-1.9,0-3.3-0.7-4.4-2
			c-1.1-1.4-1.6-3.1-1.6-5.3v-0.3c0-2.5,0.5-4.5,1.6-6c1.1-1.5,2.5-2.3,4.4-2.3c0.9,0,1.7,0.2,2.4,0.5c0.7,0.3,1.3,0.8,1.8,1.5v-6.2
			l-2.3-0.4V351h2.3h2.8v19.9l2.3,0.4v1.8h-4.7L130.4,371.3z M122.9,366c0,1.5,0.3,2.8,0.9,3.7s1.6,1.4,2.9,1.4
			c0.8,0,1.5-0.2,2.1-0.6s1-0.9,1.4-1.6v-7.1c-0.4-0.6-0.8-1.2-1.4-1.5s-1.3-0.6-2.1-0.6c-1.3,0-2.3,0.6-3,1.7c-0.6,1.1-1,2.5-1,4.3
			V366z"/>
		<path class="st2" d="M144.7,371.3l2.3-0.4V360l-2.3-0.4v-1.8h5.1v13.1l2.3,0.4v1.8h-7.4V371.3z M149.8,353.9H147V351h2.8V353.9z"
			/>
		<path class="st2" d="M153.8,371.3l2.3-0.4V360l-2.3-0.4v-1.8h4.8l0.2,2.3c0.5-0.8,1.1-1.4,1.9-1.9c0.8-0.4,1.6-0.7,2.6-0.7
			c1.7,0,2.9,0.5,3.8,1.5c0.9,1,1.4,2.5,1.4,4.5v7.5l2.3,0.4v1.8h-7.4v-1.8l2.3-0.4v-7.4c0-1.4-0.3-2.3-0.8-2.9
			c-0.5-0.6-1.3-0.8-2.4-0.8c-0.8,0-1.5,0.2-2.1,0.6c-0.6,0.4-1.1,0.9-1.5,1.6v9l2.3,0.4v1.8h-7.4V371.3z"/>
		<path class="st2" d="M179.6,371.3l1.5-0.2l7.2-18.6h2.4l7.1,18.6l1.5,0.2v1.8h-5.9v-1.8l1.6-0.3l-1.4-3.8h-8.3l-1.4,3.8l1.6,0.3
			v1.8h-5.9V371.3z M186.2,364.9h6.5l-3.2-8.9h-0.1L186.2,364.9z"/>
		<path class="st2" d="M211.6,371.3c-0.5,0.7-1.1,1.2-1.8,1.6c-0.7,0.4-1.6,0.5-2.5,0.5c-1.9,0-3.3-0.7-4.4-2
			c-1.1-1.4-1.6-3.1-1.6-5.3v-0.3c0-2.5,0.5-4.5,1.6-6c1.1-1.5,2.5-2.3,4.4-2.3c0.9,0,1.7,0.2,2.4,0.5c0.7,0.3,1.3,0.8,1.8,1.5v-6.2
			l-2.3-0.4V351h2.3h2.8v19.9l2.3,0.4v1.8h-4.7L211.6,371.3z M204.1,366c0,1.5,0.3,2.8,0.9,3.7s1.6,1.4,2.9,1.4
			c0.8,0,1.5-0.2,2.1-0.6s1-0.9,1.4-1.6v-7.1c-0.4-0.6-0.8-1.2-1.4-1.5s-1.3-0.6-2.1-0.6c-1.3,0-2.3,0.6-3,1.7c-0.6,1.1-1,2.5-1,4.3
			V366z"/>
		<path class="st2" d="M218.7,365.3c0-2.3,0.6-4.1,1.8-5.6c1.2-1.5,2.9-2.2,5-2.2c2.1,0,3.8,0.7,5,2.2c1.2,1.5,1.8,3.3,1.8,5.6v0.3
			c0,2.3-0.6,4.2-1.8,5.6s-2.9,2.2-5,2.2c-2.1,0-3.8-0.7-5-2.2c-1.2-1.5-1.8-3.3-1.8-5.6V365.3z M221.5,365.6c0,1.6,0.3,3,1,4
			c0.7,1.1,1.7,1.6,3.1,1.6c1.3,0,2.3-0.5,3-1.6s1-2.4,1-4v-0.3c0-1.6-0.3-2.9-1-4s-1.7-1.6-3-1.6s-2.4,0.5-3,1.6s-1,2.4-1,4V365.6z
			"/>
		<path class="st2" d="M249,366c0,2.2-0.5,4-1.6,5.3c-1.1,1.4-2.5,2-4.4,2c-1,0-1.9-0.2-2.6-0.6c-0.7-0.4-1.4-0.9-1.8-1.7l-0.3,2
			h-2.4v-19.9l-2.3-0.4V351h5.1v8.6c0.5-0.7,1.1-1.2,1.8-1.6c0.7-0.4,1.5-0.5,2.5-0.5c1.9,0,3.4,0.8,4.4,2.3s1.6,3.5,1.6,6V366z
			 M246.2,365.7c0-1.8-0.3-3.2-1-4.3s-1.6-1.7-2.9-1.7c-0.9,0-1.6,0.2-2.2,0.6c-0.6,0.4-1.1,1-1.4,1.7v6.8c0.3,0.7,0.8,1.3,1.4,1.7
			c0.6,0.4,1.3,0.6,2.2,0.6c1.3,0,2.3-0.5,2.9-1.4c0.6-0.9,1-2.2,1-3.7V365.7z"/>
		<path class="st2" d="M258.8,373.4c-2.1,0-3.8-0.7-5.1-2.1c-1.3-1.4-1.9-3.3-1.9-5.5v-0.6c0-2.2,0.6-4,1.9-5.4
			c1.3-1.4,2.8-2.2,4.6-2.2c2.1,0,3.6,0.6,4.7,1.9c1.1,1.2,1.6,2.9,1.6,5v1.7h-9.9l0,0.1c0,1.5,0.4,2.7,1.1,3.6
			c0.7,0.9,1.7,1.4,3,1.4c0.9,0,1.8-0.1,2.5-0.4c0.7-0.3,1.3-0.6,1.8-1.1l1.1,1.8c-0.5,0.5-1.3,1-2.2,1.3
			C261.1,373.2,260,373.4,258.8,373.4z M258.4,359.7c-0.9,0-1.7,0.4-2.4,1.2c-0.7,0.8-1.1,1.8-1.2,3l0,0.1h7.1v-0.4
			c0-1.1-0.3-2-0.9-2.7S259.5,359.7,258.4,359.7z"/>
		<path class="st2" d="M283.8,352.5c2.2,0,3.9,0.6,5.1,1.7c1.2,1.1,1.8,2.6,1.8,4.5c0,1.9-0.6,3.4-1.8,4.5c-1.2,1.1-2.9,1.7-5.1,1.7
			h-4.4v6.1l2.3,0.4v1.8h-7.4v-1.8l2.3-0.4v-16.2l-2.3-0.4v-1.8h2.3H283.8z M279.4,362.7h4.4c1.4,0,2.4-0.4,3.1-1.1
			c0.7-0.8,1-1.7,1-2.8s-0.3-2.1-1-2.9c-0.7-0.8-1.7-1.1-3.1-1.1h-4.4V362.7z"/>
		<path class="st2" d="M292.6,371.3l2.3-0.4v-17.7l-2.3-0.4V351h5.1v8.8c0.5-0.7,1.2-1.3,1.9-1.7s1.6-0.6,2.5-0.6
			c1.6,0,2.9,0.5,3.8,1.5s1.4,2.5,1.4,4.5v7.4l2.3,0.4v1.8h-7.4v-1.8l2.3-0.4v-7.4c0-1.3-0.3-2.2-0.8-2.8c-0.5-0.6-1.4-0.9-2.4-0.9
			c-0.8,0-1.5,0.2-2.1,0.5c-0.6,0.4-1.1,0.9-1.6,1.5v9.1l2.3,0.4v1.8h-7.4V371.3z"/>
		<path class="st2" d="M311.6,365.3c0-2.3,0.6-4.1,1.8-5.6c1.2-1.5,2.9-2.2,5-2.2c2.1,0,3.8,0.7,5,2.2c1.2,1.5,1.8,3.3,1.8,5.6v0.3
			c0,2.3-0.6,4.2-1.8,5.6c-1.2,1.5-2.9,2.2-5,2.2c-2.1,0-3.8-0.7-5-2.2c-1.2-1.5-1.8-3.3-1.8-5.6V365.3z M314.4,365.6
			c0,1.6,0.3,3,1,4s1.7,1.6,3.1,1.6c1.3,0,2.3-0.5,3-1.6c0.7-1.1,1-2.4,1-4v-0.3c0-1.6-0.3-2.9-1-4c-0.7-1.1-1.7-1.6-3-1.6
			c-1.3,0-2.4,0.5-3,1.6s-1,2.4-1,4V365.6z"/>
		<path class="st2" d="M332.7,354.1v3.7h2.9v2.1h-2.9v9.3c0,0.7,0.1,1.2,0.4,1.5c0.3,0.3,0.7,0.4,1.2,0.4c0.2,0,0.5,0,0.8-0.1
			c0.3,0,0.6-0.1,0.8-0.1l0.4,1.9c-0.3,0.2-0.7,0.3-1.2,0.4c-0.5,0.1-1,0.2-1.5,0.2c-1.1,0-2-0.3-2.7-1c-0.7-0.7-1-1.8-1-3.2v-9.3
			h-2.4v-2.1h2.4v-3.7H332.7z"/>
		<path class="st2" d="M338.2,365.3c0-2.3,0.6-4.1,1.8-5.6c1.2-1.5,2.9-2.2,5-2.2c2.1,0,3.8,0.7,5,2.2c1.2,1.5,1.8,3.3,1.8,5.6v0.3
			c0,2.3-0.6,4.2-1.8,5.6c-1.2,1.5-2.9,2.2-5,2.2c-2.1,0-3.8-0.7-5-2.2c-1.2-1.5-1.8-3.3-1.8-5.6V365.3z M341,365.6c0,1.6,0.3,3,1,4
			c0.7,1.1,1.7,1.6,3.1,1.6c1.3,0,2.3-0.5,3-1.6c0.7-1.1,1-2.4,1-4v-0.3c0-1.6-0.3-2.9-1-4c-0.7-1.1-1.7-1.6-3-1.6
			c-1.3,0-2.4,0.5-3,1.6s-1,2.4-1,4V365.6z"/>
		<path class="st2" d="M366.2,362.6h-2.1l-0.5-1.8c-0.3-0.3-0.8-0.6-1.3-0.8c-0.5-0.2-1.1-0.3-1.7-0.3c-1,0-1.7,0.2-2.2,0.7
			s-0.7,1-0.7,1.6c0,0.6,0.2,1.1,0.6,1.4s1.3,0.7,2.6,0.9c1.9,0.4,3.4,1,4.3,1.7c0.9,0.7,1.4,1.7,1.4,2.9c0,1.4-0.5,2.5-1.7,3.3
			c-1.1,0.8-2.5,1.3-4.3,1.3c-1.2,0-2.2-0.1-3.1-0.4c-0.9-0.3-1.8-0.7-2.5-1.2l0-3.5h2.1l0.5,2.1c0.3,0.3,0.8,0.5,1.3,0.6
			c0.6,0.1,1.1,0.2,1.7,0.2c1,0,1.8-0.2,2.3-0.6c0.6-0.4,0.8-0.9,0.8-1.6c0-0.6-0.2-1.1-0.7-1.5c-0.5-0.4-1.4-0.7-2.7-1
			c-1.9-0.4-3.3-1-4.2-1.7c-0.9-0.7-1.4-1.6-1.4-2.8c0-1.2,0.5-2.3,1.6-3.2c1.1-0.9,2.4-1.3,4.1-1.3c1.2,0,2.2,0.2,3.1,0.5
			c0.9,0.3,1.7,0.7,2.3,1.3L366.2,362.6z"/>
		<path class="st2" d="M368.9,371.3l2.3-0.4v-17.7l-2.3-0.4V351h5.1v8.8c0.5-0.7,1.2-1.3,1.9-1.7s1.6-0.6,2.5-0.6
			c1.6,0,2.9,0.5,3.8,1.5s1.4,2.5,1.4,4.5v7.4l2.3,0.4v1.8h-7.4v-1.8l2.3-0.4v-7.4c0-1.3-0.3-2.2-0.8-2.8c-0.5-0.6-1.4-0.9-2.4-0.9
			c-0.8,0-1.5,0.2-2.1,0.5c-0.6,0.4-1.1,0.9-1.6,1.5v9.1l2.3,0.4v1.8h-7.4V371.3z"/>
		<path class="st2" d="M387.8,365.3c0-2.3,0.6-4.1,1.8-5.6c1.2-1.5,2.9-2.2,5-2.2c2.1,0,3.8,0.7,5,2.2c1.2,1.5,1.8,3.3,1.8,5.6v0.3
			c0,2.3-0.6,4.2-1.8,5.6c-1.2,1.5-2.9,2.2-5,2.2c-2.1,0-3.8-0.7-5-2.2c-1.2-1.5-1.8-3.3-1.8-5.6V365.3z M390.6,365.6
			c0,1.6,0.3,3,1,4s1.7,1.6,3.1,1.6c1.3,0,2.3-0.5,3-1.6c0.7-1.1,1-2.4,1-4v-0.3c0-1.6-0.3-2.9-1-4c-0.7-1.1-1.7-1.6-3-1.6
			c-1.3,0-2.4,0.5-3,1.6s-1,2.4-1,4V365.6z"/>
		<path class="st2" d="M403.7,377.2l2.3-0.4V360l-2.3-0.4v-1.8h4.7l0.3,1.9c0.5-0.7,1.1-1.2,1.9-1.6s1.6-0.6,2.5-0.6
			c1.9,0,3.4,0.8,4.4,2.3c1.1,1.5,1.6,3.5,1.6,6v0.3c0,2.2-0.5,4-1.6,5.3c-1.1,1.4-2.5,2-4.4,2c-0.9,0-1.8-0.2-2.5-0.5
			c-0.7-0.3-1.3-0.8-1.8-1.4v5.3l2.3,0.4v1.8h-7.4V377.2z M416.3,365.7c0-1.7-0.3-3.2-1-4.3s-1.7-1.7-3-1.7c-0.8,0-1.5,0.2-2,0.5
			s-1,0.8-1.4,1.5v7.5c0.3,0.6,0.8,1.1,1.4,1.5c0.6,0.3,1.3,0.5,2.1,0.5c1.3,0,2.3-0.5,3-1.4s1-2.2,1-3.8V365.7z"/>
		<path class="st2" d="M424.8,372.1c0,0.9-0.2,1.9-0.7,2.9c-0.5,1-1.1,1.9-1.9,2.5l-1.6-1c0.4-0.7,0.8-1.4,1-2.1s0.3-1.5,0.3-2.3
			V370h2.8V372.1z"/>
		<path class="st2" d="M44,397.3v-1.8h7.4v1.8l-2.3,0.4v16.2l2.3,0.4v1.8H44v-1.8l2.3-0.4v-16.2L44,397.3z"/>
		<path class="st2" d="M53.3,395.8V394h5.1v19.9l2.3,0.4v1.8h-7.4v-1.8l2.3-0.4v-17.7L53.3,395.8z"/>
		<path class="st2" d="M62.4,395.8V394h5.1v19.9l2.3,0.4v1.8h-7.4v-1.8l2.3-0.4v-17.7L62.4,395.8z"/>
		<path class="st2" d="M82.9,413.8c-0.5,0.8-1.1,1.5-1.9,1.9c-0.8,0.4-1.6,0.7-2.6,0.7c-1.7,0-3-0.5-3.9-1.6s-1.4-2.7-1.4-5V403
			l-1.8-0.4v-1.8h1.8h2.8v9.1c0,1.6,0.2,2.8,0.7,3.4s1.2,0.9,2.3,0.9c1,0,1.8-0.2,2.5-0.6c0.6-0.4,1.1-1,1.5-1.7V403l-2.1-0.4v-1.8
			h2.1h2.8v13.1l1.8,0.4v1.8h-4.3L82.9,413.8z"/>
		<path class="st2" d="M101.2,405.6h-2.1l-0.5-1.8c-0.3-0.3-0.8-0.6-1.3-0.8c-0.5-0.2-1.1-0.3-1.7-0.3c-1,0-1.7,0.2-2.2,0.7
			s-0.7,1-0.7,1.6c0,0.6,0.2,1.1,0.6,1.4s1.3,0.7,2.6,0.9c1.9,0.4,3.4,1,4.3,1.7c0.9,0.7,1.4,1.7,1.4,2.9c0,1.4-0.5,2.5-1.6,3.3
			c-1.1,0.8-2.5,1.3-4.3,1.3c-1.2,0-2.2-0.1-3.1-0.4c-0.9-0.3-1.8-0.7-2.5-1.2l0-3.5h2.1l0.5,2.1c0.3,0.3,0.8,0.5,1.3,0.6
			c0.6,0.1,1.1,0.2,1.7,0.2c1,0,1.8-0.2,2.3-0.6c0.6-0.4,0.8-0.9,0.8-1.6c0-0.6-0.2-1.1-0.7-1.5c-0.5-0.4-1.4-0.7-2.7-1
			c-1.9-0.4-3.3-1-4.2-1.7s-1.4-1.6-1.4-2.8c0-1.2,0.5-2.3,1.6-3.2c1.1-0.9,2.4-1.3,4.1-1.3c1.2,0,2.2,0.2,3.1,0.5s1.7,0.7,2.3,1.3
			L101.2,405.6z"/>
		<path class="st2" d="M109.2,397.1v3.7h2.9v2.1h-2.9v9.3c0,0.7,0.1,1.2,0.4,1.5c0.3,0.3,0.7,0.4,1.2,0.4c0.2,0,0.5,0,0.8-0.1
			c0.3,0,0.6-0.1,0.8-0.1l0.4,1.9c-0.3,0.2-0.7,0.3-1.2,0.4c-0.5,0.1-1,0.2-1.5,0.2c-1.1,0-2-0.3-2.7-1c-0.7-0.7-1-1.8-1-3.2v-9.3
			H104v-2.1h2.4v-3.7H109.2z"/>
		<path class="st2" d="M114.9,402.6v-1.8h4.8l0.3,2.2c0.4-0.8,1-1.4,1.6-1.8c0.6-0.4,1.4-0.7,2.2-0.7c0.2,0,0.4,0,0.7,0
			c0.2,0,0.4,0.1,0.5,0.1l-0.4,2.6l-1.6-0.1c-0.7,0-1.4,0.2-1.9,0.5c-0.5,0.3-0.9,0.8-1.2,1.5v8.8l2.3,0.4v1.8h-7.4v-1.8l2.3-0.4
			V403L114.9,402.6z"/>
		<path class="st2" d="M136.9,416.1c-0.1-0.4-0.2-0.8-0.2-1.1s-0.1-0.7-0.1-1c-0.5,0.7-1.2,1.3-2,1.7c-0.8,0.5-1.7,0.7-2.6,0.7
			c-1.6,0-2.8-0.4-3.6-1.2c-0.8-0.8-1.2-1.9-1.2-3.3c0-1.5,0.6-2.6,1.8-3.4c1.2-0.8,2.8-1.2,4.8-1.2h2.9v-1.8c0-0.9-0.3-1.6-0.8-2.1
			c-0.6-0.5-1.4-0.8-2.4-0.8c-0.7,0-1.3,0.1-1.8,0.3c-0.5,0.2-1,0.4-1.3,0.7l-0.3,1.6h-2.2v-3c0.7-0.6,1.5-1,2.5-1.3
			c1-0.3,2.1-0.5,3.2-0.5c1.7,0,3.1,0.4,4.2,1.3s1.6,2.2,1.6,3.8v7.4c0,0.2,0,0.4,0,0.6c0,0.2,0,0.4,0,0.6l1.1,0.2v1.8H136.9z
			 M132.4,414.1c0.9,0,1.8-0.2,2.5-0.7s1.3-1,1.6-1.6v-2.5h-3c-1.1,0-2,0.3-2.7,0.8c-0.7,0.5-1,1.2-1,1.9c0,0.7,0.2,1.2,0.6,1.5
			C131,413.9,131.6,414.1,132.4,414.1z"/>
		<path class="st2" d="M147.8,397.1v3.7h2.9v2.1h-2.9v9.3c0,0.7,0.1,1.2,0.4,1.5c0.3,0.3,0.7,0.4,1.2,0.4c0.2,0,0.5,0,0.8-0.1
			c0.3,0,0.6-0.1,0.8-0.1l0.4,1.9c-0.3,0.2-0.7,0.3-1.2,0.4c-0.5,0.1-1,0.2-1.5,0.2c-1.1,0-2-0.3-2.7-1c-0.7-0.7-1-1.8-1-3.2v-9.3
			h-2.4v-2.1h2.4v-3.7H147.8z"/>
		<path class="st2" d="M153.2,408.3c0-2.3,0.6-4.1,1.8-5.6c1.2-1.5,2.9-2.2,5-2.2c2.1,0,3.8,0.7,5,2.2c1.2,1.5,1.8,3.3,1.8,5.6v0.3
			c0,2.3-0.6,4.2-1.8,5.6s-2.9,2.2-5,2.2c-2.1,0-3.8-0.7-5-2.2c-1.2-1.5-1.8-3.3-1.8-5.6V408.3z M156,408.6c0,1.6,0.3,3,1,4
			c0.7,1.1,1.7,1.6,3.1,1.6c1.3,0,2.3-0.5,3-1.6s1-2.4,1-4v-0.3c0-1.6-0.3-2.9-1-4s-1.7-1.6-3-1.6s-2.4,0.5-3,1.6s-1,2.4-1,4V408.6z
			"/>
		<path class="st2" d="M169.5,402.6v-1.8h4.8l0.3,2.2c0.4-0.8,1-1.4,1.6-1.8c0.6-0.4,1.4-0.7,2.2-0.7c0.2,0,0.4,0,0.7,0
			c0.2,0,0.4,0.1,0.5,0.1l-0.4,2.6l-1.6-0.1c-0.7,0-1.4,0.2-1.9,0.5c-0.5,0.3-0.9,0.8-1.2,1.5v8.8l2.3,0.4v1.8h-7.4v-1.8l2.3-0.4
			V403L169.5,402.6z"/>
		<path class="st2" d="M183,415.1c0,0.9-0.2,1.9-0.7,2.9s-1.1,1.9-1.9,2.5l-1.6-1c0.4-0.7,0.8-1.4,1-2.1s0.3-1.5,0.3-2.3V413h2.8
			V415.1z"/>
		<path class="st2" d="M202.7,416.1c-0.1-0.4-0.2-0.8-0.2-1.1s-0.1-0.7-0.1-1c-0.5,0.7-1.2,1.3-2,1.7c-0.8,0.5-1.7,0.7-2.6,0.7
			c-1.6,0-2.8-0.4-3.6-1.2c-0.8-0.8-1.2-1.9-1.2-3.3c0-1.5,0.6-2.6,1.8-3.4c1.2-0.8,2.8-1.2,4.8-1.2h2.9v-1.8c0-0.9-0.3-1.6-0.8-2.1
			c-0.6-0.5-1.4-0.8-2.4-0.8c-0.7,0-1.3,0.1-1.8,0.3c-0.5,0.2-1,0.4-1.3,0.7l-0.3,1.6h-2.2v-3c0.7-0.6,1.5-1,2.5-1.3
			c1-0.3,2.1-0.5,3.2-0.5c1.7,0,3.1,0.4,4.2,1.3s1.6,2.2,1.6,3.8v7.4c0,0.2,0,0.4,0,0.6c0,0.2,0,0.4,0,0.6l1.1,0.2v1.8H202.7z
			 M198.2,414.1c0.9,0,1.8-0.2,2.5-0.7s1.3-1,1.6-1.6v-2.5h-3c-1.1,0-2,0.3-2.7,0.8c-0.7,0.5-1,1.2-1,1.9c0,0.7,0.2,1.2,0.6,1.5
			C196.7,413.9,197.3,414.1,198.2,414.1z"/>
		<path class="st2" d="M208.2,414.3l2.3-0.4V403l-2.3-0.4v-1.8h4.8l0.2,2.3c0.5-0.8,1.1-1.4,1.9-1.9c0.8-0.4,1.6-0.7,2.6-0.7
			c1.7,0,2.9,0.5,3.8,1.5c0.9,1,1.4,2.5,1.4,4.5v7.5l2.3,0.4v1.8h-7.4v-1.8l2.3-0.4v-7.4c0-1.4-0.3-2.3-0.8-2.9
			c-0.5-0.6-1.3-0.8-2.4-0.8c-0.8,0-1.5,0.2-2.1,0.6c-0.6,0.4-1.1,0.9-1.5,1.6v9l2.3,0.4v1.8h-7.4V414.3z"/>
		<path class="st2" d="M237.5,414.3c-0.5,0.7-1.1,1.2-1.8,1.6c-0.7,0.4-1.6,0.5-2.5,0.5c-1.9,0-3.3-0.7-4.4-2
			c-1.1-1.4-1.6-3.1-1.6-5.3v-0.3c0-2.5,0.5-4.5,1.6-6c1.1-1.5,2.5-2.3,4.4-2.3c0.9,0,1.7,0.2,2.4,0.5c0.7,0.3,1.3,0.8,1.8,1.5v-6.2
			l-2.3-0.4V394h2.3h2.8v19.9l2.3,0.4v1.8h-4.7L237.5,414.3z M230,409c0,1.5,0.3,2.8,0.9,3.7s1.6,1.4,2.9,1.4c0.8,0,1.5-0.2,2.1-0.6
			s1-0.9,1.4-1.6v-7.1c-0.4-0.6-0.8-1.2-1.4-1.5s-1.3-0.6-2.1-0.6c-1.3,0-2.3,0.6-3,1.7c-0.6,1.1-1,2.5-1,4.3V409z"/>
		<path class="st2" d="M251.5,397.3v-1.8h7.4v1.8l-2.3,0.4v16.2l2.3,0.4v1.8h-7.4v-1.8l2.3-0.4v-16.2L251.5,397.3z"/>
		<path class="st2" d="M260.7,414.3l2.3-0.4V403l-2.3-0.4v-1.8h4.8l0.2,2.3c0.5-0.8,1.1-1.4,1.9-1.9c0.8-0.4,1.6-0.7,2.6-0.7
			c1.7,0,2.9,0.5,3.8,1.5c0.9,1,1.4,2.5,1.4,4.5v7.5l2.3,0.4v1.8h-7.4v-1.8l2.3-0.4v-7.4c0-1.4-0.3-2.3-0.8-2.9
			c-0.5-0.6-1.3-0.8-2.4-0.8c-0.8,0-1.5,0.2-2.1,0.6c-0.6,0.4-1.1,0.9-1.5,1.6v9l2.3,0.4v1.8h-7.4V414.3z"/>
		<path class="st2" d="M288.2,395.5c2.7,0,4.9,0.8,6.5,2.5c1.6,1.7,2.5,3.8,2.5,6.4v2.8c0,2.6-0.8,4.8-2.5,6.4
			c-1.6,1.6-3.8,2.5-6.5,2.5h-8.6v-1.8l2.3-0.4v-16.2l-2.3-0.4v-1.8h2.3H288.2z M284.7,397.7v16.2h3.5c1.9,0,3.4-0.6,4.5-1.9
			c1.1-1.3,1.6-2.9,1.6-4.8v-2.8c0-1.9-0.5-3.5-1.6-4.8c-1.1-1.3-2.6-1.9-4.5-1.9H284.7z"/>
		<path class="st2" d="M306.9,416.4c-2.1,0-3.8-0.7-5.1-2.1c-1.3-1.4-1.9-3.3-1.9-5.5v-0.6c0-2.2,0.6-4,1.9-5.4
			c1.3-1.4,2.8-2.2,4.6-2.2c2.1,0,3.6,0.6,4.7,1.9c1.1,1.2,1.6,2.9,1.6,5v1.7h-9.9l0,0.1c0,1.5,0.4,2.7,1.1,3.6
			c0.7,0.9,1.7,1.4,3,1.4c0.9,0,1.8-0.1,2.5-0.4c0.7-0.3,1.3-0.6,1.8-1.1l1.1,1.8c-0.5,0.5-1.3,1-2.2,1.3
			C309.3,416.2,308.2,416.4,306.9,416.4z M306.5,402.7c-0.9,0-1.7,0.4-2.4,1.2c-0.7,0.8-1.1,1.8-1.2,3l0,0.1h7.1v-0.4
			c0-1.1-0.3-2-0.9-2.7C308.5,403.1,307.6,402.7,306.5,402.7z"/>
		<path class="st2" d="M327.2,405.6h-2.1l-0.5-1.8c-0.3-0.3-0.8-0.6-1.3-0.8c-0.5-0.2-1.1-0.3-1.7-0.3c-1,0-1.7,0.2-2.2,0.7
			s-0.7,1-0.7,1.6c0,0.6,0.2,1.1,0.6,1.4s1.3,0.7,2.6,0.9c1.9,0.4,3.4,1,4.3,1.7c0.9,0.7,1.4,1.7,1.4,2.9c0,1.4-0.5,2.5-1.6,3.3
			s-2.5,1.3-4.3,1.3c-1.2,0-2.2-0.1-3.1-0.4c-0.9-0.3-1.8-0.7-2.5-1.2l0-3.5h2.1l0.5,2.1c0.3,0.3,0.8,0.5,1.3,0.6
			c0.6,0.1,1.1,0.2,1.7,0.2c1,0,1.8-0.2,2.3-0.6c0.6-0.4,0.8-0.9,0.8-1.6c0-0.6-0.2-1.1-0.7-1.5c-0.5-0.4-1.4-0.7-2.7-1
			c-1.9-0.4-3.3-1-4.2-1.7c-0.9-0.7-1.4-1.6-1.4-2.8c0-1.2,0.5-2.3,1.6-3.2c1.1-0.9,2.4-1.3,4.1-1.3c1.2,0,2.2,0.2,3.1,0.5
			c0.9,0.3,1.7,0.7,2.3,1.3L327.2,405.6z"/>
		<path class="st2" d="M330.3,414.3l2.3-0.4V403l-2.3-0.4v-1.8h5.1v13.1l2.3,0.4v1.8h-7.4V414.3z M335.4,396.9h-2.8V394h2.8V396.9z"
			/>
		<path class="st2" d="M339.8,408.7c0-2.5,0.5-4.5,1.6-6s2.6-2.3,4.5-2.3c1,0,1.8,0.2,2.5,0.6c0.7,0.4,1.3,0.9,1.8,1.6l0.3-1.9h2.4
			v15.1c0,2-0.6,3.5-1.7,4.7c-1.1,1.1-2.7,1.7-4.7,1.7c-0.7,0-1.5-0.1-2.4-0.3c-0.9-0.2-1.6-0.5-2.3-0.8l0.7-2.2
			c0.5,0.3,1.1,0.5,1.8,0.7s1.4,0.3,2.1,0.3c1.2,0,2.2-0.3,2.7-1c0.6-0.7,0.9-1.7,0.9-3v-1.5c-0.5,0.6-1.1,1.1-1.8,1.5
			c-0.7,0.3-1.5,0.5-2.4,0.5c-1.9,0-3.4-0.7-4.4-2s-1.6-3.1-1.6-5.3V408.7z M342.6,409c0,1.5,0.3,2.8,1,3.7s1.6,1.4,3,1.4
			c0.8,0,1.5-0.2,2.1-0.6c0.6-0.4,1-0.9,1.4-1.6v-7.1c-0.4-0.7-0.8-1.2-1.4-1.6c-0.6-0.4-1.3-0.6-2.1-0.6c-1.3,0-2.3,0.6-3,1.7
			c-0.7,1.1-1,2.5-1,4.3V409z"/>
		<path class="st2" d="M355.8,414.3l2.3-0.4V403l-2.3-0.4v-1.8h4.8l0.2,2.3c0.5-0.8,1.1-1.4,1.9-1.9c0.8-0.4,1.6-0.7,2.6-0.7
			c1.7,0,2.9,0.5,3.8,1.5c0.9,1,1.4,2.5,1.4,4.5v7.5l2.3,0.4v1.8h-7.4v-1.8l2.3-0.4v-7.4c0-1.4-0.3-2.3-0.8-2.9
			c-0.5-0.6-1.3-0.8-2.4-0.8c-0.8,0-1.5,0.2-2.1,0.6s-1.1,0.9-1.5,1.6v9l2.3,0.4v1.8h-7.4V414.3z"/>
		<path class="st2" d="M378.5,416.1h-2.8v-2.9h2.8V416.1z"/>
		<path class="st2" d="M409,399.6L409,399.6l-6.7,16.5h-1.9l-6.7-16.5l-0.1,0l0.3,8.3v6l2.3,0.4v1.8h-7.4v-1.8l2.3-0.4v-16.2
			l-2.3-0.4v-1.8h2.3h3.6l6.6,16.8h0.1l6.6-16.8h5.9v1.8l-2.3,0.4v16.2l2.3,0.4v1.8h-7.4v-1.8l2.3-0.4v-6L409,399.6z"/>
		<path class="st2" d="M416.1,414.3l2.3-0.4V403l-2.3-0.4v-1.8h5.1v13.1l2.3,0.4v1.8h-7.4V414.3z M421.2,396.9h-2.8V394h2.8V396.9z"
			/>
		<path class="st2" d="M432.5,414.2c0.9,0,1.7-0.3,2.4-0.9c0.7-0.6,1.1-1.3,1.1-2.1h2.5l0,0.1c0,1.3-0.5,2.5-1.8,3.5
			c-1.2,1-2.6,1.5-4.3,1.5c-2.2,0-3.9-0.7-5.1-2.2c-1.2-1.5-1.8-3.3-1.8-5.5v-0.6c0-2.2,0.6-4,1.8-5.5c1.2-1.5,2.9-2.2,5.1-2.2
			c1.2,0,2.3,0.2,3.3,0.6c1,0.4,1.8,1,2.4,1.7l0.1,3.4h-2.2l-0.6-2.4c-0.3-0.3-0.8-0.6-1.3-0.8c-0.5-0.2-1.1-0.3-1.8-0.3
			c-1.5,0-2.5,0.5-3.1,1.6c-0.6,1.1-0.9,2.3-0.9,3.9v0.6c0,1.6,0.3,2.9,0.9,3.9C429.9,413.7,431,414.2,432.5,414.2z"/>
		<path class="st2" d="M441.2,402.6v-1.8h4.8l0.3,2.2c0.4-0.8,1-1.4,1.6-1.8c0.6-0.4,1.4-0.7,2.2-0.7c0.2,0,0.4,0,0.7,0
			c0.2,0,0.4,0.1,0.5,0.1l-0.4,2.6l-1.6-0.1c-0.7,0-1.4,0.2-1.9,0.5c-0.5,0.3-0.9,0.8-1.2,1.5v8.8l2.3,0.4v1.8h-7.4v-1.8l2.3-0.4
			V403L441.2,402.6z"/>
		<path class="st2" d="M452.9,408.3c0-2.3,0.6-4.1,1.8-5.6c1.2-1.5,2.9-2.2,5-2.2c2.1,0,3.8,0.7,5,2.2c1.2,1.5,1.8,3.3,1.8,5.6v0.3
			c0,2.3-0.6,4.2-1.8,5.6c-1.2,1.5-2.9,2.2-5,2.2c-2.1,0-3.8-0.7-5-2.2c-1.2-1.5-1.8-3.3-1.8-5.6V408.3z M455.7,408.6
			c0,1.6,0.3,3,1,4s1.7,1.6,3.1,1.6c1.3,0,2.3-0.5,3-1.6c0.7-1.1,1-2.4,1-4v-0.3c0-1.6-0.3-2.9-1-4c-0.7-1.1-1.7-1.6-3-1.6
			c-1.3,0-2.4,0.5-3,1.6s-1,2.4-1,4V408.6z"/>
		<path class="st2" d="M480.9,405.6h-2.1l-0.5-1.8c-0.3-0.3-0.8-0.6-1.3-0.8c-0.5-0.2-1.1-0.3-1.7-0.3c-1,0-1.7,0.2-2.2,0.7
			s-0.7,1-0.7,1.6c0,0.6,0.2,1.1,0.6,1.4s1.3,0.7,2.6,0.9c1.9,0.4,3.4,1,4.3,1.7c0.9,0.7,1.4,1.7,1.4,2.9c0,1.4-0.5,2.5-1.6,3.3
			s-2.5,1.3-4.3,1.3c-1.2,0-2.2-0.1-3.1-0.4c-0.9-0.3-1.8-0.7-2.5-1.2l0-3.5h2.1l0.5,2.1c0.3,0.3,0.8,0.5,1.3,0.6
			c0.6,0.1,1.1,0.2,1.7,0.2c1,0,1.8-0.2,2.3-0.6c0.6-0.4,0.8-0.9,0.8-1.6c0-0.6-0.2-1.1-0.7-1.5c-0.5-0.4-1.4-0.7-2.7-1
			c-1.9-0.4-3.3-1-4.2-1.7c-0.9-0.7-1.4-1.6-1.4-2.8c0-1.2,0.5-2.3,1.6-3.2c1.1-0.9,2.4-1.3,4.1-1.3c1.2,0,2.2,0.2,3.1,0.5
			c0.9,0.3,1.7,0.7,2.3,1.3L480.9,405.6z"/>
		<path class="st2" d="M484,408.3c0-2.3,0.6-4.1,1.8-5.6c1.2-1.5,2.9-2.2,5-2.2c2.1,0,3.8,0.7,5,2.2c1.2,1.5,1.8,3.3,1.8,5.6v0.3
			c0,2.3-0.6,4.2-1.8,5.6c-1.2,1.5-2.9,2.2-5,2.2c-2.1,0-3.8-0.7-5-2.2c-1.2-1.5-1.8-3.3-1.8-5.6V408.3z M486.8,408.6
			c0,1.6,0.3,3,1,4c0.7,1.1,1.7,1.6,3.1,1.6c1.3,0,2.3-0.5,3-1.6c0.7-1.1,1-2.4,1-4v-0.3c0-1.6-0.3-2.9-1-4c-0.7-1.1-1.7-1.6-3-1.6
			c-1.3,0-2.4,0.5-3,1.6s-1,2.4-1,4V408.6z"/>
		<path class="st2" d="M500,402.9v-2.1h2.4v-1.9c0-1.6,0.4-2.9,1.3-3.8c0.9-0.9,2-1.3,3.6-1.3c0.3,0,0.6,0,1,0.1
			c0.3,0.1,0.7,0.1,1.1,0.2l-0.3,2.1c-0.2,0-0.4-0.1-0.6-0.1c-0.2,0-0.5,0-0.7,0c-0.8,0-1.4,0.2-1.8,0.7c-0.4,0.5-0.6,1.2-0.6,2.1
			v1.9h3.2v2.1h-3.2v11.1l2.3,0.4v1.8h-7.4v-1.8l2.3-0.4v-11.1H500z"/>
		<path class="st2" d="M515.4,397.1v3.7h2.9v2.1h-2.9v9.3c0,0.7,0.1,1.2,0.4,1.5c0.3,0.3,0.7,0.4,1.2,0.4c0.2,0,0.5,0,0.8-0.1
			c0.3,0,0.6-0.1,0.8-0.1l0.4,1.9c-0.3,0.2-0.7,0.3-1.2,0.4c-0.5,0.1-1,0.2-1.5,0.2c-1.1,0-2-0.3-2.7-1c-0.7-0.7-1-1.8-1-3.2v-9.3
			h-2.4v-2.1h2.4v-3.7H515.4z"/>
		<path class="st2" d="M49.9,440.3l-2.1,0.3l2.6,11.4l0.4,2.6l0.1,0l0.6-2.6l3.8-13.5h2.5l3.8,13.5l0.6,2.6h0.1l0.4-2.6l2.6-11.4
			l-2.1-0.3v-1.8h6.6v1.8l-1.7,0.2l-4.5,18.6H61L57,444.8l-0.4-1.9h-0.1l-0.4,1.9L52,459.1h-2.5L45,440.5l-1.7-0.2v-1.8h6.5V440.3z"
			/>
		<path class="st2" d="M70.9,451.3c0-2.3,0.6-4.1,1.8-5.6c1.2-1.5,2.9-2.2,5-2.2c2.1,0,3.8,0.7,5,2.2c1.2,1.5,1.8,3.3,1.8,5.6v0.3
			c0,2.3-0.6,4.2-1.8,5.6s-2.9,2.2-5,2.2c-2.1,0-3.8-0.7-5-2.2c-1.2-1.5-1.8-3.3-1.8-5.6V451.3z M73.7,451.6c0,1.6,0.3,3,1,4
			c0.7,1.1,1.7,1.6,3.1,1.6c1.3,0,2.3-0.5,3-1.6s1-2.4,1-4v-0.3c0-1.6-0.3-2.9-1-4s-1.7-1.6-3-1.6s-2.4,0.5-3,1.6s-1,2.4-1,4V451.6z
			"/>
		<path class="st2" d="M87.1,445.6v-1.8h4.8l0.3,2.2c0.4-0.8,1-1.4,1.6-1.8c0.6-0.4,1.4-0.7,2.2-0.7c0.2,0,0.4,0,0.7,0
			c0.2,0,0.4,0.1,0.5,0.1l-0.4,2.6l-1.6-0.1c-0.7,0-1.4,0.2-1.9,0.5c-0.5,0.3-0.9,0.8-1.2,1.5v8.8l2.3,0.4v1.8h-7.4v-1.8l2.3-0.4
			V446L87.1,445.6z"/>
		<path class="st2" d="M109.2,457.3c-0.5,0.7-1.1,1.2-1.8,1.6c-0.7,0.4-1.6,0.5-2.5,0.5c-1.9,0-3.3-0.7-4.4-2
			c-1.1-1.4-1.6-3.1-1.6-5.3v-0.3c0-2.5,0.5-4.5,1.6-6c1.1-1.5,2.5-2.3,4.4-2.3c0.9,0,1.7,0.2,2.4,0.5c0.7,0.3,1.3,0.8,1.8,1.5v-6.2
			l-2.3-0.4V437h2.3h2.8v19.9l2.3,0.4v1.8h-4.7L109.2,457.3z M101.7,452c0,1.5,0.3,2.8,0.9,3.7s1.6,1.4,2.9,1.4
			c0.8,0,1.5-0.2,2.1-0.6s1-0.9,1.4-1.6v-7.1c-0.4-0.6-0.8-1.2-1.4-1.5s-1.3-0.6-2.1-0.6c-1.3,0-2.3,0.6-3,1.7c-0.6,1.1-1,2.5-1,4.3
			V452z"/>
		<path class="st2" d="M119.5,458.1c0,0.9-0.2,1.9-0.7,2.9s-1.1,1.9-1.9,2.5l-1.6-1c0.4-0.7,0.8-1.4,1-2.1s0.3-1.5,0.3-2.3V456h2.8
			V458.1z"/>
		<path class="st2" d="M128.9,459.1v-1.8l2.3-0.4v-16.2l-2.3-0.4v-1.8h15.8v5h-2.4l-0.2-2.8H134v6.7h7.9v2.2H134v7.4h8.3l0.2-2.8
			h2.4v4.9H128.9z"/>
		<path class="st2" d="M147.3,457.3l1.6-0.3l4.5-5.6l-4.4-5.5l-1.6-0.3v-1.8h6v1.8l-1.4,0.2l2.9,3.7l2.9-3.7l-1.4-0.2v-1.8h6v1.8
			l-1.6,0.3l-4.4,5.5l4.5,5.6l1.7,0.3v1.8h-6v-1.8l1.4-0.2l-3-3.9l-3,3.9l1.4,0.2v1.8h-6V457.3z"/>
		<path class="st2" d="M171.2,457.2c0.9,0,1.7-0.3,2.4-0.9c0.7-0.6,1.1-1.3,1.1-2.1h2.5l0,0.1c0,1.3-0.5,2.5-1.8,3.5
			c-1.2,1-2.6,1.5-4.3,1.5c-2.2,0-3.9-0.7-5.1-2.2c-1.2-1.5-1.8-3.3-1.8-5.5v-0.6c0-2.2,0.6-4,1.8-5.5c1.2-1.5,2.9-2.2,5.1-2.2
			c1.2,0,2.3,0.2,3.3,0.6c1,0.4,1.8,1,2.4,1.7l0.1,3.4h-2.2l-0.6-2.4c-0.3-0.3-0.8-0.6-1.3-0.8s-1.1-0.3-1.8-0.3
			c-1.5,0-2.5,0.5-3.1,1.6c-0.6,1.1-0.9,2.3-0.9,3.9v0.6c0,1.6,0.3,2.9,0.9,3.9C168.6,456.7,169.7,457.2,171.2,457.2z"/>
		<path class="st2" d="M186.9,459.4c-2.1,0-3.8-0.7-5.1-2.1c-1.3-1.4-1.9-3.3-1.9-5.5v-0.6c0-2.2,0.6-4,1.9-5.4
			c1.3-1.4,2.8-2.2,4.6-2.2c2.1,0,3.6,0.6,4.7,1.9c1.1,1.2,1.6,2.9,1.6,5v1.7h-9.9l0,0.1c0,1.5,0.4,2.7,1.1,3.6
			c0.7,0.9,1.7,1.4,3,1.4c0.9,0,1.8-0.1,2.5-0.4c0.7-0.3,1.3-0.6,1.8-1.1l1.1,1.8c-0.5,0.5-1.3,1-2.2,1.3
			C189.3,459.2,188.2,459.4,186.9,459.4z M186.5,445.7c-0.9,0-1.7,0.4-2.4,1.2c-0.7,0.8-1.1,1.8-1.2,3l0,0.1h7.1v-0.4
			c0-1.1-0.3-2-0.9-2.7S187.6,445.7,186.5,445.7z"/>
		<path class="st2" d="M195.1,438.8V437h5.1v19.9l2.3,0.4v1.8h-7.4v-1.8l2.3-0.4v-17.7L195.1,438.8z"/>
		<path class="st2" d="M207.8,458.1c0,0.9-0.2,1.9-0.7,2.9s-1.1,1.9-1.9,2.5l-1.6-1c0.4-0.7,0.8-1.4,1-2.1s0.3-1.5,0.3-2.3V456h2.8
			V458.1z"/>
		<path class="st2" d="M226.8,438.5c2.2,0,3.9,0.6,5.1,1.7c1.2,1.1,1.8,2.6,1.8,4.5c0,1.9-0.6,3.4-1.8,4.5c-1.2,1.1-2.9,1.7-5.1,1.7
			h-4.4v6.1l2.3,0.4v1.8h-7.4v-1.8l2.3-0.4v-16.2l-2.3-0.4v-1.8h2.3H226.8z M222.4,448.7h4.4c1.4,0,2.4-0.4,3.1-1.1
			c0.7-0.8,1-1.7,1-2.8s-0.3-2.1-1-2.9c-0.7-0.8-1.7-1.1-3.1-1.1h-4.4V448.7z"/>
		<path class="st2" d="M235.8,451.3c0-2.3,0.6-4.1,1.8-5.6c1.2-1.5,2.9-2.2,5-2.2c2.1,0,3.8,0.7,5,2.2c1.2,1.5,1.8,3.3,1.8,5.6v0.3
			c0,2.3-0.6,4.2-1.8,5.6s-2.9,2.2-5,2.2c-2.1,0-3.8-0.7-5-2.2c-1.2-1.5-1.8-3.3-1.8-5.6V451.3z M238.6,451.6c0,1.6,0.3,3,1,4
			c0.7,1.1,1.7,1.6,3.1,1.6c1.3,0,2.3-0.5,3-1.6s1-2.4,1-4v-0.3c0-1.6-0.3-2.9-1-4s-1.7-1.6-3-1.6s-2.4,0.5-3,1.6s-1,2.4-1,4V451.6z
			"/>
		<path class="st2" d="M257.5,445.6l-1.8,0.3l2,7.6l0.3,1.9h0.1l0.4-1.9l3.1-9.7h2.2l3.1,9.7l0.4,2.1h0.1l0.4-2.1l1.9-7.6l-1.8-0.3
			v-1.8h5.8v1.8l-1.3,0.2l-3.9,13.3h-2.3l-3-9.3l-0.6-2.6l-0.1,0l-0.6,2.6l-2.9,9.3h-2.3l-3.9-13.3l-1.3-0.2v-1.8h5.8V445.6z"/>
		<path class="st2" d="M283,459.4c-2.1,0-3.8-0.7-5.1-2.1c-1.3-1.4-1.9-3.3-1.9-5.5v-0.6c0-2.2,0.6-4,1.9-5.4
			c1.3-1.4,2.8-2.2,4.6-2.2c2.1,0,3.6,0.6,4.7,1.9c1.1,1.2,1.6,2.9,1.6,5v1.7H279l0,0.1c0,1.5,0.4,2.7,1.1,3.6
			c0.7,0.9,1.7,1.4,3,1.4c0.9,0,1.8-0.1,2.5-0.4c0.7-0.3,1.3-0.6,1.8-1.1l1.1,1.8c-0.5,0.5-1.3,1-2.2,1.3
			C285.4,459.2,284.3,459.4,283,459.4z M282.6,445.7c-0.9,0-1.7,0.4-2.4,1.2c-0.7,0.8-1.1,1.8-1.2,3l0,0.1h7.1v-0.4
			c0-1.1-0.3-2-0.9-2.7S283.8,445.7,282.6,445.7z"/>
		<path class="st2" d="M291.6,445.6v-1.8h4.8l0.3,2.2c0.4-0.8,1-1.4,1.6-1.8c0.6-0.4,1.4-0.7,2.2-0.7c0.2,0,0.4,0,0.7,0
			c0.2,0,0.4,0.1,0.5,0.1l-0.4,2.6l-1.6-0.1c-0.7,0-1.4,0.2-1.9,0.5c-0.5,0.3-0.9,0.8-1.2,1.5v8.8l2.3,0.4v1.8h-7.4v-1.8l2.3-0.4
			V446L291.6,445.6z"/>
		<path class="st2" d="M310.5,463.2l2.3-0.4V446l-2.3-0.4v-1.8h4.7l0.3,1.9c0.5-0.7,1.1-1.2,1.9-1.6c0.7-0.4,1.6-0.6,2.5-0.6
			c1.9,0,3.4,0.8,4.4,2.3c1.1,1.5,1.6,3.5,1.6,6v0.3c0,2.2-0.5,4-1.6,5.3c-1.1,1.4-2.5,2-4.4,2c-0.9,0-1.8-0.2-2.5-0.5
			c-0.7-0.3-1.3-0.8-1.8-1.4v5.3l2.3,0.4v1.8h-7.4V463.2z M323.1,451.7c0-1.7-0.3-3.2-1-4.3s-1.7-1.7-3-1.7c-0.8,0-1.5,0.2-2,0.5
			s-1,0.8-1.4,1.5v7.5c0.3,0.6,0.8,1.1,1.4,1.5c0.6,0.3,1.3,0.5,2.1,0.5c1.3,0,2.3-0.5,3-1.4s1-2.2,1-3.8V451.7z"/>
		<path class="st2" d="M328.4,451.3c0-2.3,0.6-4.1,1.8-5.6c1.2-1.5,2.9-2.2,5-2.2c2.1,0,3.8,0.7,5,2.2c1.2,1.5,1.8,3.3,1.8,5.6v0.3
			c0,2.3-0.6,4.2-1.8,5.6c-1.2,1.5-2.9,2.2-5,2.2c-2.1,0-3.8-0.7-5-2.2c-1.2-1.5-1.8-3.3-1.8-5.6V451.3z M331.2,451.6
			c0,1.6,0.3,3,1,4s1.7,1.6,3.1,1.6c1.3,0,2.3-0.5,3-1.6c0.7-1.1,1-2.4,1-4v-0.3c0-1.6-0.3-2.9-1-4c-0.7-1.1-1.7-1.6-3-1.6
			c-1.3,0-2.4,0.5-3,1.6s-1,2.4-1,4V451.6z"/>
		<path class="st2" d="M344.7,457.3l2.3-0.4V446l-2.3-0.4v-1.8h5.1v13.1l2.3,0.4v1.8h-7.4V457.3z M349.8,439.9H347V437h2.8V439.9z"
			/>
		<path class="st2" d="M353.8,457.3l2.3-0.4V446l-2.3-0.4v-1.8h4.8l0.2,2.3c0.5-0.8,1.1-1.4,1.9-1.9c0.8-0.4,1.6-0.7,2.6-0.7
			c1.7,0,2.9,0.5,3.8,1.5c0.9,1,1.4,2.5,1.4,4.5v7.5l2.3,0.4v1.8h-7.4v-1.8l2.3-0.4v-7.4c0-1.4-0.3-2.3-0.8-2.9s-1.3-0.8-2.4-0.8
			c-0.8,0-1.5,0.2-2.1,0.6c-0.6,0.4-1.1,0.9-1.5,1.6v9l2.3,0.4v1.8h-7.4V457.3z"/>
		<path class="st2" d="M377.7,440.1v3.7h2.9v2.1h-2.9v9.3c0,0.7,0.1,1.2,0.4,1.5c0.3,0.3,0.7,0.4,1.2,0.4c0.2,0,0.5,0,0.8-0.1
			c0.3,0,0.6-0.1,0.8-0.1l0.4,1.9c-0.3,0.2-0.7,0.3-1.2,0.4c-0.5,0.1-1,0.2-1.5,0.2c-1.1,0-2-0.3-2.7-1c-0.7-0.7-1-1.8-1-3.2v-9.3
			h-2.4v-2.1h2.4v-3.7H377.7z"/>
		<path class="st2" d="M400.7,459.1c-0.1-0.4-0.2-0.8-0.2-1.1c0-0.3-0.1-0.7-0.1-1c-0.5,0.7-1.2,1.3-2,1.7c-0.8,0.5-1.7,0.7-2.6,0.7
			c-1.6,0-2.8-0.4-3.6-1.2c-0.8-0.8-1.2-1.9-1.2-3.3c0-1.5,0.6-2.6,1.8-3.4c1.2-0.8,2.8-1.2,4.8-1.2h2.9v-1.8c0-0.9-0.3-1.6-0.8-2.1
			c-0.6-0.5-1.4-0.8-2.4-0.8c-0.7,0-1.3,0.1-1.8,0.3c-0.5,0.2-1,0.4-1.3,0.7l-0.3,1.6h-2.2v-3c0.7-0.6,1.5-1,2.5-1.3
			c1-0.3,2.1-0.5,3.2-0.5c1.7,0,3.1,0.4,4.2,1.3s1.6,2.2,1.6,3.8v7.4c0,0.2,0,0.4,0,0.6s0,0.4,0,0.6l1.1,0.2v1.8H400.7z
			 M396.2,457.1c0.9,0,1.8-0.2,2.5-0.7s1.3-1,1.6-1.6v-2.5h-3c-1.1,0-2,0.3-2.7,0.8c-0.7,0.5-1,1.2-1,1.9c0,0.7,0.2,1.2,0.6,1.5
			C394.7,456.9,395.4,457.1,396.2,457.1z"/>
		<path class="st2" d="M406.3,457.3l2.3-0.4V446l-2.3-0.4v-1.8h4.8l0.2,2.3c0.5-0.8,1.1-1.4,1.9-1.9c0.8-0.4,1.6-0.7,2.6-0.7
			c1.7,0,2.9,0.5,3.8,1.5c0.9,1,1.4,2.5,1.4,4.5v7.5l2.3,0.4v1.8h-7.4v-1.8l2.3-0.4v-7.4c0-1.4-0.3-2.3-0.8-2.9
			c-0.5-0.6-1.3-0.8-2.4-0.8c-0.8,0-1.5,0.2-2.1,0.6s-1.1,0.9-1.5,1.6v9l2.3,0.4v1.8h-7.4V457.3z"/>
		<path class="st2" d="M435.5,457.3c-0.5,0.7-1.1,1.2-1.8,1.6c-0.7,0.4-1.6,0.5-2.5,0.5c-1.9,0-3.3-0.7-4.4-2
			c-1.1-1.4-1.6-3.1-1.6-5.3v-0.3c0-2.5,0.5-4.5,1.6-6c1.1-1.5,2.5-2.3,4.4-2.3c0.9,0,1.7,0.2,2.4,0.5c0.7,0.3,1.3,0.8,1.8,1.5v-6.2
			l-2.3-0.4V437h2.3h2.8v19.9l2.3,0.4v1.8h-4.7L435.5,457.3z M428,452c0,1.5,0.3,2.8,0.9,3.7c0.6,0.9,1.6,1.4,2.9,1.4
			c0.8,0,1.5-0.2,2.1-0.6s1-0.9,1.4-1.6v-7.1c-0.4-0.6-0.8-1.2-1.4-1.5c-0.6-0.4-1.3-0.6-2.1-0.6c-1.3,0-2.3,0.6-3,1.7
			c-0.6,1.1-1,2.5-1,4.3V452z"/>
		<path class="st2" d="M62.4,492c0,3-0.9,5.5-2.6,7.5c-1.7,2-4,3-6.7,3c-2.7,0-4.8-1-6.5-3s-2.5-4.5-2.5-7.5v-0.3
			c0-3,0.8-5.5,2.5-7.5s3.8-3,6.5-3c2.7,0,5,1,6.7,3c1.7,2,2.6,4.5,2.6,7.5V492z M59.6,491.6c0-2.4-0.6-4.4-1.7-5.9
			c-1.1-1.5-2.7-2.3-4.8-2.3c-1.9,0-3.5,0.8-4.6,2.3c-1.1,1.5-1.6,3.5-1.6,5.9v0.3c0,2.4,0.5,4.4,1.6,5.9c1.1,1.5,2.6,2.3,4.6,2.3
			c2.1,0,3.7-0.8,4.8-2.3s1.7-3.5,1.7-5.9V491.6z"/>
		<path class="st2" d="M75.7,499.8c-0.5,0.8-1.1,1.5-1.9,1.9c-0.8,0.4-1.6,0.7-2.6,0.7c-1.7,0-3-0.5-3.9-1.6s-1.4-2.7-1.4-5V489
			l-1.8-0.4v-1.8h1.8h2.8v9.1c0,1.6,0.2,2.8,0.7,3.4s1.2,0.9,2.3,0.9c1,0,1.8-0.2,2.5-0.6c0.6-0.4,1.1-1,1.5-1.7V489l-2.1-0.4v-1.8
			h2.1h2.8v13.1l1.8,0.4v1.8h-4.3L75.7,499.8z"/>
		<path class="st2" d="M87.2,483.1v3.7h2.9v2.1h-2.9v9.3c0,0.7,0.1,1.2,0.4,1.5c0.3,0.3,0.7,0.4,1.2,0.4c0.2,0,0.5,0,0.8-0.1
			c0.3,0,0.6-0.1,0.8-0.1l0.4,1.9c-0.3,0.2-0.7,0.3-1.2,0.4c-0.5,0.1-1,0.2-1.5,0.2c-1.1,0-2-0.3-2.7-1c-0.7-0.7-1-1.8-1-3.2v-9.3
			H82v-2.1h2.4v-3.7H87.2z"/>
		<path class="st2" d="M92.6,481.8V480h5.1v19.9l2.3,0.4v1.8h-7.4v-1.8l2.3-0.4v-17.7L92.6,481.8z"/>
		<path class="st2" d="M101.8,494.3c0-2.3,0.6-4.1,1.8-5.6c1.2-1.5,2.9-2.2,5-2.2c2.1,0,3.8,0.7,5,2.2c1.2,1.5,1.8,3.3,1.8,5.6v0.3
			c0,2.3-0.6,4.2-1.8,5.6s-2.9,2.2-5,2.2c-2.1,0-3.8-0.7-5-2.2c-1.2-1.5-1.8-3.3-1.8-5.6V494.3z M104.6,494.6c0,1.6,0.3,3,1,4
			c0.7,1.1,1.7,1.6,3.1,1.6c1.3,0,2.3-0.5,3-1.6s1-2.4,1-4v-0.3c0-1.6-0.3-2.9-1-4s-1.7-1.6-3-1.6s-2.4,0.5-3,1.6s-1,2.4-1,4V494.6z
			"/>
		<path class="st2" d="M118.1,494.3c0-2.3,0.6-4.1,1.8-5.6c1.2-1.5,2.9-2.2,5-2.2c2.1,0,3.8,0.7,5,2.2c1.2,1.5,1.8,3.3,1.8,5.6v0.3
			c0,2.3-0.6,4.2-1.8,5.6s-2.9,2.2-5,2.2c-2.1,0-3.8-0.7-5-2.2c-1.2-1.5-1.8-3.3-1.8-5.6V494.3z M120.9,494.6c0,1.6,0.3,3,1,4
			c0.7,1.1,1.7,1.6,3.1,1.6c1.3,0,2.3-0.5,3-1.6s1-2.4,1-4v-0.3c0-1.6-0.3-2.9-1-4s-1.7-1.6-3-1.6s-2.4,0.5-3,1.6s-1,2.4-1,4V494.6z
			"/>
		<path class="st2" d="M133.7,481.8V480h5.1v12.8h1.8l3.3-4l-1.4-0.2v-1.8h6.4v1.8L147,489l-4,4.8l4.9,6.2l1.7,0.3v1.8h-6.4v-1.8
			l1.4-0.2l-4.1-5.1h-1.8v4.9l2.3,0.4v1.8h-7.4v-1.8l2.3-0.4v-17.7L133.7,481.8z"/>
		<path class="st2" d="M155.3,502.1h-2.8v-2.9h2.8V502.1z"/>
		<path class="st2" d="M165.6,483.3v-1.8h7.4v1.8l-2.3,0.4v16.2l2.3,0.4v1.8h-7.4v-1.8l2.3-0.4v-16.2L165.6,483.3z"/>
		<path class="st2" d="M192.5,502.1c-0.1-0.4-0.2-0.8-0.2-1.1s-0.1-0.7-0.1-1c-0.5,0.7-1.2,1.3-2,1.7c-0.8,0.5-1.7,0.7-2.6,0.7
			c-1.6,0-2.8-0.4-3.6-1.2c-0.8-0.8-1.2-1.9-1.2-3.3c0-1.5,0.6-2.6,1.8-3.4c1.2-0.8,2.8-1.2,4.8-1.2h2.9v-1.8c0-0.9-0.3-1.6-0.8-2.1
			c-0.6-0.5-1.4-0.8-2.4-0.8c-0.7,0-1.3,0.1-1.8,0.3c-0.5,0.2-1,0.4-1.3,0.7l-0.3,1.6h-2.2v-3c0.7-0.6,1.5-1,2.5-1.3
			c1-0.3,2.1-0.5,3.2-0.5c1.7,0,3.1,0.4,4.2,1.3s1.6,2.2,1.6,3.8v7.4c0,0.2,0,0.4,0,0.6c0,0.2,0,0.4,0,0.6l1.1,0.2v1.8H192.5z
			 M188,500.1c0.9,0,1.8-0.2,2.5-0.7s1.3-1,1.6-1.6v-2.5h-3c-1.1,0-2,0.3-2.7,0.8c-0.7,0.5-1,1.2-1,1.9c0,0.7,0.2,1.2,0.6,1.5
			C186.5,499.9,187.1,500.1,188,500.1z"/>
		<path class="st2" d="M197.9,500.3l2.3-0.4V489l-2.3-0.4v-1.8h4.8l0.2,2c0.5-0.7,1.1-1.3,1.9-1.7s1.7-0.6,2.7-0.6s1.9,0.2,2.6,0.7
			c0.7,0.5,1.3,1.2,1.6,2.1c0.5-0.9,1.1-1.6,1.9-2.1s1.7-0.8,2.8-0.8c1.6,0,2.8,0.5,3.7,1.6c0.9,1.1,1.4,2.7,1.4,4.8v7l2.3,0.4v1.8
			h-7.4v-1.8l2.3-0.4v-7c0-1.5-0.3-2.6-0.8-3.2c-0.5-0.6-1.3-0.9-2.3-0.9c-1,0-1.8,0.3-2.3,1c-0.6,0.7-0.9,1.5-1,2.6v7.5l2.3,0.4
			v1.8h-7.4v-1.8l2.3-0.4v-7c0-1.4-0.3-2.5-0.8-3.2c-0.5-0.7-1.3-1-2.3-1c-0.8,0-1.5,0.2-2.1,0.5s-1,0.8-1.3,1.5v9.2l2.3,0.4v1.8
			h-7.4V500.3z"/>
		<path class="st2" d="M243,502.1c-0.1-0.4-0.2-0.8-0.2-1.1s-0.1-0.7-0.1-1c-0.5,0.7-1.2,1.3-2,1.7c-0.8,0.5-1.7,0.7-2.6,0.7
			c-1.6,0-2.8-0.4-3.6-1.2c-0.8-0.8-1.2-1.9-1.2-3.3c0-1.5,0.6-2.6,1.8-3.4c1.2-0.8,2.8-1.2,4.8-1.2h2.9v-1.8c0-0.9-0.3-1.6-0.8-2.1
			c-0.6-0.5-1.4-0.8-2.4-0.8c-0.7,0-1.3,0.1-1.8,0.3c-0.5,0.2-1,0.4-1.3,0.7l-0.3,1.6h-2.2v-3c0.7-0.6,1.5-1,2.5-1.3
			c1-0.3,2.1-0.5,3.2-0.5c1.7,0,3.1,0.4,4.2,1.3s1.6,2.2,1.6,3.8v7.4c0,0.2,0,0.4,0,0.6c0,0.2,0,0.4,0,0.6l1.1,0.2v1.8H243z
			 M238.6,500.1c0.9,0,1.8-0.2,2.5-0.7s1.3-1,1.6-1.6v-2.5h-3c-1.1,0-2,0.3-2.7,0.8c-0.7,0.5-1,1.2-1,1.9c0,0.7,0.2,1.2,0.6,1.5
			C237.1,499.9,237.7,500.1,238.6,500.1z"/>
		<path class="st2" d="M248.6,481.8V480h5.1v19.9l2.3,0.4v1.8h-7.4v-1.8l2.3-0.4v-17.7L248.6,481.8z"/>
		<path class="st2" d="M269.9,491.6h-2.1l-0.5-1.8c-0.3-0.3-0.8-0.6-1.3-0.8c-0.5-0.2-1.1-0.3-1.7-0.3c-1,0-1.7,0.2-2.2,0.7
			s-0.7,1-0.7,1.6c0,0.6,0.2,1.1,0.6,1.4s1.3,0.7,2.6,0.9c1.9,0.4,3.4,1,4.3,1.7c0.9,0.7,1.4,1.7,1.4,2.9c0,1.4-0.5,2.5-1.6,3.3
			c-1.1,0.8-2.5,1.3-4.3,1.3c-1.2,0-2.2-0.1-3.1-0.4c-0.9-0.3-1.8-0.7-2.5-1.2l0-3.5h2.1l0.5,2.1c0.3,0.3,0.8,0.5,1.3,0.6
			c0.6,0.1,1.1,0.2,1.7,0.2c1,0,1.8-0.2,2.3-0.6c0.6-0.4,0.8-0.9,0.8-1.6c0-0.6-0.2-1.1-0.7-1.5c-0.5-0.4-1.4-0.7-2.7-1
			c-1.9-0.4-3.3-1-4.2-1.7s-1.4-1.6-1.4-2.8c0-1.2,0.5-2.3,1.6-3.2c1.1-0.9,2.4-1.3,4.1-1.3c1.2,0,2.2,0.2,3.1,0.5s1.7,0.7,2.3,1.3
			L269.9,491.6z"/>
		<path class="st2" d="M273,494.3c0-2.3,0.6-4.1,1.8-5.6c1.2-1.5,2.9-2.2,5-2.2c2.1,0,3.8,0.7,5,2.2c1.2,1.5,1.8,3.3,1.8,5.6v0.3
			c0,2.3-0.6,4.2-1.8,5.6s-2.9,2.2-5,2.2c-2.1,0-3.8-0.7-5-2.2c-1.2-1.5-1.8-3.3-1.8-5.6V494.3z M275.7,494.6c0,1.6,0.3,3,1,4
			c0.7,1.1,1.7,1.6,3.1,1.6c1.3,0,2.3-0.5,3-1.6s1-2.4,1-4v-0.3c0-1.6-0.3-2.9-1-4s-1.7-1.6-3-1.6s-2.4,0.5-3,1.6s-1,2.4-1,4V494.6z
			"/>
		<path class="st2" d="M303.4,502.4c-2.1,0-3.8-0.7-5.1-2.1c-1.3-1.4-1.9-3.3-1.9-5.5v-0.6c0-2.2,0.6-4,1.9-5.4
			c1.3-1.4,2.8-2.2,4.6-2.2c2.1,0,3.6,0.6,4.7,1.9c1.1,1.2,1.6,2.9,1.6,5v1.7h-9.9l0,0.1c0,1.5,0.4,2.7,1.1,3.6
			c0.7,0.9,1.7,1.4,3,1.4c0.9,0,1.8-0.1,2.5-0.4c0.7-0.3,1.3-0.6,1.8-1.1l1.1,1.8c-0.5,0.5-1.3,1-2.2,1.3
			C305.8,502.2,304.7,502.4,303.4,502.4z M303,488.7c-0.9,0-1.7,0.4-2.4,1.2c-0.7,0.8-1.1,1.8-1.2,3l0,0.1h7.1v-0.4
			c0-1.1-0.3-2-0.9-2.7C305,489.1,304.1,488.7,303,488.7z"/>
		<path class="st2" d="M311.7,488.9v-2.1h2.4v-1.9c0-1.6,0.4-2.9,1.3-3.8c0.9-0.9,2-1.3,3.6-1.3c0.3,0,0.6,0,1,0.1
			c0.3,0.1,0.7,0.1,1.1,0.2l-0.3,2.1c-0.2,0-0.4-0.1-0.6-0.1c-0.2,0-0.5,0-0.7,0c-0.8,0-1.4,0.2-1.8,0.7c-0.4,0.5-0.6,1.2-0.6,2.1
			v1.9h3.2v2.1h-3.2v11.1l2.3,0.4v1.8h-7.4v-1.8l2.3-0.4v-11.1H311.7z"/>
		<path class="st2" d="M322,488.9v-2.1h2.4v-1.9c0-1.6,0.4-2.9,1.3-3.8c0.9-0.9,2-1.3,3.6-1.3c0.3,0,0.6,0,1,0.1
			c0.3,0.1,0.7,0.1,1.1,0.2l-0.3,2.1c-0.2,0-0.4-0.1-0.6-0.1c-0.2,0-0.5,0-0.7,0c-0.8,0-1.4,0.2-1.8,0.7c-0.4,0.5-0.6,1.2-0.6,2.1
			v1.9h3.2v2.1h-3.2v11.1l2.3,0.4v1.8h-7.4v-1.8l2.3-0.4v-11.1H322z"/>
		<path class="st2" d="M332,488.9v-2.1h2.4v-1.7c0-1.7,0.5-3,1.5-4c1-0.9,2.4-1.4,4.2-1.4c0.6,0,1.2,0.1,1.9,0.2s1.3,0.4,2.2,0.6
			l-0.5,2.3c-0.5-0.2-1-0.4-1.6-0.5s-1.1-0.2-1.7-0.2c-1.1,0-1.9,0.2-2.4,0.7c-0.5,0.5-0.7,1.2-0.7,2.3v1.7h8.7v13.1l2.3,0.4v1.8
			h-7.4v-1.8l2.3-0.4v-11.1h-5.9v11.1l2.3,0.4v1.8h-7.4v-1.8l2.3-0.4v-11.1H332z"/>
		<path class="st2" d="M357,500.2c0.9,0,1.7-0.3,2.4-0.9c0.7-0.6,1.1-1.3,1.1-2.1h2.5l0,0.1c0,1.3-0.5,2.5-1.8,3.5
			c-1.2,1-2.6,1.5-4.3,1.5c-2.2,0-3.9-0.7-5.1-2.2c-1.2-1.5-1.8-3.3-1.8-5.5v-0.6c0-2.2,0.6-4,1.8-5.5c1.2-1.5,2.9-2.2,5.1-2.2
			c1.2,0,2.3,0.2,3.3,0.6c1,0.4,1.8,1,2.4,1.7l0.1,3.4h-2.2l-0.6-2.4c-0.3-0.3-0.8-0.6-1.3-0.8c-0.5-0.2-1.1-0.3-1.8-0.3
			c-1.5,0-2.5,0.5-3.1,1.6c-0.6,1.1-0.9,2.3-0.9,3.9v0.6c0,1.6,0.3,2.9,0.9,3.9C354.5,499.7,355.6,500.2,357,500.2z"/>
		<path class="st2" d="M365.8,500.3l2.3-0.4V489l-2.3-0.4v-1.8h5.1v13.1l2.3,0.4v1.8h-7.4V500.3z M370.9,482.9h-2.8V480h2.8V482.9z"
			/>
		<path class="st2" d="M382.3,502.4c-2.1,0-3.8-0.7-5.1-2.1c-1.3-1.4-1.9-3.3-1.9-5.5v-0.6c0-2.2,0.6-4,1.9-5.4
			c1.3-1.4,2.8-2.2,4.6-2.2c2.1,0,3.6,0.6,4.7,1.9c1.1,1.2,1.6,2.9,1.6,5v1.7h-9.9l0,0.1c0,1.5,0.4,2.7,1.1,3.6
			c0.7,0.9,1.7,1.4,3,1.4c0.9,0,1.8-0.1,2.5-0.4c0.7-0.3,1.3-0.6,1.8-1.1l1.1,1.8c-0.5,0.5-1.3,1-2.2,1.3
			C384.7,502.2,383.6,502.4,382.3,502.4z M381.9,488.7c-0.9,0-1.7,0.4-2.4,1.2c-0.7,0.8-1.1,1.8-1.2,3l0,0.1h7.1v-0.4
			c0-1.1-0.3-2-0.9-2.7C383.9,489.1,383.1,488.7,381.9,488.7z"/>
		<path class="st2" d="M390.5,500.3l2.3-0.4V489l-2.3-0.4v-1.8h4.8l0.2,2.3c0.5-0.8,1.1-1.4,1.9-1.9c0.8-0.4,1.6-0.7,2.6-0.7
			c1.7,0,2.9,0.5,3.8,1.5c0.9,1,1.4,2.5,1.4,4.5v7.5l2.3,0.4v1.8h-7.4v-1.8l2.3-0.4v-7.4c0-1.4-0.3-2.3-0.8-2.9
			c-0.5-0.6-1.3-0.8-2.4-0.8c-0.8,0-1.5,0.2-2.1,0.6s-1.1,0.9-1.5,1.6v9l2.3,0.4v1.8h-7.4V500.3z"/>
		<path class="st2" d="M414.5,483.1v3.7h2.9v2.1h-2.9v9.3c0,0.7,0.1,1.2,0.4,1.5c0.3,0.3,0.7,0.4,1.2,0.4c0.2,0,0.5,0,0.8-0.1
			c0.3,0,0.6-0.1,0.8-0.1l0.4,1.9c-0.3,0.2-0.7,0.3-1.2,0.4c-0.5,0.1-1,0.2-1.5,0.2c-1.1,0-2-0.3-2.7-1c-0.7-0.7-1-1.8-1-3.2v-9.3
			h-2.4v-2.1h2.4v-3.7H414.5z"/>
		<path class="st2" d="M427.4,500.3l2.3-0.4V489l-2.3-0.4v-1.8h5.1v13.1l2.3,0.4v1.8h-7.4V500.3z M432.5,482.9h-2.8V480h2.8V482.9z"
			/>
		<path class="st2" d="M436.5,500.3l2.3-0.4V489l-2.3-0.4v-1.8h4.8l0.2,2.3c0.5-0.8,1.1-1.4,1.9-1.9c0.8-0.4,1.6-0.7,2.6-0.7
			c1.7,0,2.9,0.5,3.8,1.5c0.9,1,1.4,2.5,1.4,4.5v7.5l2.3,0.4v1.8h-7.4v-1.8l2.3-0.4v-7.4c0-1.4-0.3-2.3-0.8-2.9
			c-0.5-0.6-1.3-0.8-2.4-0.8c-0.8,0-1.5,0.2-2.1,0.6s-1.1,0.9-1.5,1.6v9l2.3,0.4v1.8h-7.4V500.3z"/>
		<path class="st2" d="M53.5,524.5c2.2,0,3.9,0.6,5.1,1.7c1.2,1.1,1.8,2.6,1.8,4.5c0,1.9-0.6,3.4-1.8,4.5c-1.2,1.1-2.9,1.7-5.1,1.7
			h-4.4v6.1l2.3,0.4v1.8H44v-1.8l2.3-0.4v-16.2l-2.3-0.4v-1.8h2.3H53.5z M49.1,534.7h4.4c1.4,0,2.4-0.4,3.1-1.1c0.7-0.8,1-1.7,1-2.8
			s-0.3-2.1-1-2.9c-0.7-0.8-1.7-1.1-3.1-1.1h-4.4V534.7z"/>
		<path class="st2" d="M62.3,543.3l2.3-0.4v-17.7l-2.3-0.4V523h5.1v8.8c0.5-0.7,1.2-1.3,1.9-1.7s1.6-0.6,2.5-0.6
			c1.6,0,2.9,0.5,3.8,1.5s1.4,2.5,1.4,4.5v7.4l2.3,0.4v1.8H72v-1.8l2.3-0.4v-7.4c0-1.3-0.3-2.2-0.8-2.8c-0.5-0.6-1.4-0.9-2.4-0.9
			c-0.8,0-1.5,0.2-2.1,0.5c-0.6,0.4-1.1,0.9-1.6,1.5v9.1l2.3,0.4v1.8h-7.4V543.3z"/>
		<path class="st2" d="M81.3,537.3c0-2.3,0.6-4.1,1.8-5.6c1.2-1.5,2.9-2.2,5-2.2c2.1,0,3.8,0.7,5,2.2c1.2,1.5,1.8,3.3,1.8,5.6v0.3
			c0,2.3-0.6,4.2-1.8,5.6s-2.9,2.2-5,2.2c-2.1,0-3.8-0.7-5-2.2c-1.2-1.5-1.8-3.3-1.8-5.6V537.3z M84.1,537.6c0,1.6,0.3,3,1,4
			c0.7,1.1,1.7,1.6,3.1,1.6c1.3,0,2.3-0.5,3-1.6s1-2.4,1-4v-0.3c0-1.6-0.3-2.9-1-4s-1.7-1.6-3-1.6s-2.4,0.5-3,1.6s-1,2.4-1,4V537.6z
			"/>
		<path class="st2" d="M102.4,526.1v3.7h2.9v2.1h-2.9v9.3c0,0.7,0.1,1.2,0.4,1.5c0.3,0.3,0.7,0.4,1.2,0.4c0.2,0,0.5,0,0.8-0.1
			c0.3,0,0.6-0.1,0.8-0.1l0.4,1.9c-0.3,0.2-0.7,0.3-1.2,0.4c-0.5,0.1-1,0.2-1.5,0.2c-1.1,0-2-0.3-2.7-1c-0.7-0.7-1-1.8-1-3.2v-9.3
			h-2.4v-2.1h2.4v-3.7H102.4z"/>
		<path class="st2" d="M107.9,537.3c0-2.3,0.6-4.1,1.8-5.6c1.2-1.5,2.9-2.2,5-2.2c2.1,0,3.8,0.7,5,2.2c1.2,1.5,1.8,3.3,1.8,5.6v0.3
			c0,2.3-0.6,4.2-1.8,5.6s-2.9,2.2-5,2.2c-2.1,0-3.8-0.7-5-2.2c-1.2-1.5-1.8-3.3-1.8-5.6V537.3z M110.7,537.6c0,1.6,0.3,3,1,4
			c0.7,1.1,1.7,1.6,3.1,1.6c1.3,0,2.3-0.5,3-1.6s1-2.4,1-4v-0.3c0-1.6-0.3-2.9-1-4s-1.7-1.6-3-1.6s-2.4,0.5-3,1.6s-1,2.4-1,4V537.6z
			"/>
		<path class="st2" d="M124.2,537.7c0-2.5,0.5-4.5,1.6-6s2.6-2.3,4.5-2.3c1,0,1.8,0.2,2.5,0.6s1.3,0.9,1.8,1.6l0.3-1.9h2.4v15.1
			c0,2-0.6,3.5-1.7,4.7c-1.1,1.1-2.7,1.7-4.7,1.7c-0.7,0-1.5-0.1-2.4-0.3c-0.9-0.2-1.6-0.5-2.3-0.8l0.7-2.2c0.5,0.3,1.1,0.5,1.8,0.7
			s1.4,0.3,2.1,0.3c1.2,0,2.2-0.3,2.7-1c0.6-0.7,0.9-1.7,0.9-3v-1.5c-0.5,0.6-1.1,1.1-1.8,1.5s-1.5,0.5-2.4,0.5
			c-1.9,0-3.4-0.7-4.4-2s-1.6-3.1-1.6-5.3V537.7z M126.9,538c0,1.5,0.3,2.8,1,3.7s1.6,1.4,3,1.4c0.8,0,1.5-0.2,2.1-0.6
			c0.6-0.4,1-0.9,1.4-1.6v-7.1c-0.4-0.7-0.8-1.2-1.4-1.6c-0.6-0.4-1.3-0.6-2.1-0.6c-1.3,0-2.3,0.6-3,1.7s-1,2.5-1,4.3V538z"/>
		<path class="st2" d="M140.6,531.6v-1.8h4.8l0.3,2.2c0.4-0.8,1-1.4,1.6-1.8c0.6-0.4,1.4-0.7,2.2-0.7c0.2,0,0.4,0,0.7,0
			c0.2,0,0.4,0.1,0.5,0.1l-0.4,2.6l-1.6-0.1c-0.7,0-1.4,0.2-1.9,0.5c-0.5,0.3-0.9,0.8-1.2,1.5v8.8l2.3,0.4v1.8h-7.4v-1.8l2.3-0.4
			V532L140.6,531.6z"/>
		<path class="st2" d="M162.5,545.1c-0.1-0.4-0.2-0.8-0.2-1.1s-0.1-0.7-0.1-1c-0.5,0.7-1.2,1.3-2,1.7c-0.8,0.5-1.7,0.7-2.6,0.7
			c-1.6,0-2.8-0.4-3.6-1.2c-0.8-0.8-1.2-1.9-1.2-3.3c0-1.5,0.6-2.6,1.8-3.4c1.2-0.8,2.8-1.2,4.8-1.2h2.9v-1.8c0-0.9-0.3-1.6-0.8-2.1
			c-0.6-0.5-1.4-0.8-2.4-0.8c-0.7,0-1.3,0.1-1.8,0.3c-0.5,0.2-1,0.4-1.3,0.7l-0.3,1.6h-2.2v-3c0.7-0.6,1.5-1,2.5-1.3
			c1-0.3,2.1-0.5,3.2-0.5c1.7,0,3.1,0.4,4.2,1.3s1.6,2.2,1.6,3.8v7.4c0,0.2,0,0.4,0,0.6c0,0.2,0,0.4,0,0.6l1.1,0.2v1.8H162.5z
			 M158.1,543.1c0.9,0,1.8-0.2,2.5-0.7s1.3-1,1.6-1.6v-2.5h-3c-1.1,0-2,0.3-2.7,0.8c-0.7,0.5-1,1.2-1,1.9c0,0.7,0.2,1.2,0.6,1.5
			C156.6,542.9,157.2,543.1,158.1,543.1z"/>
		<path class="st2" d="M168.2,549.2l2.3-0.4V532l-2.3-0.4v-1.8h4.7l0.3,1.9c0.5-0.7,1.1-1.2,1.9-1.6c0.7-0.4,1.6-0.6,2.5-0.6
			c1.9,0,3.4,0.8,4.4,2.3c1.1,1.5,1.6,3.5,1.6,6v0.3c0,2.2-0.5,4-1.6,5.3c-1.1,1.4-2.5,2-4.4,2c-0.9,0-1.8-0.2-2.5-0.5
			c-0.7-0.3-1.3-0.8-1.8-1.4v5.3l2.3,0.4v1.8h-7.4V549.2z M180.7,537.7c0-1.7-0.3-3.2-1-4.3s-1.7-1.7-3-1.7c-0.8,0-1.5,0.2-2,0.5
			s-1,0.8-1.4,1.5v7.5c0.3,0.6,0.8,1.1,1.4,1.5c0.6,0.3,1.3,0.5,2.1,0.5c1.3,0,2.3-0.5,3-1.4s1-2.2,1-3.8V537.7z"/>
		<path class="st2" d="M185.6,543.3l2.3-0.4v-17.7l-2.3-0.4V523h5.1v8.8c0.5-0.7,1.2-1.3,1.9-1.7s1.6-0.6,2.5-0.6
			c1.6,0,2.9,0.5,3.8,1.5s1.4,2.5,1.4,4.5v7.4l2.3,0.4v1.8h-7.4v-1.8l2.3-0.4v-7.4c0-1.3-0.3-2.2-0.8-2.8c-0.5-0.6-1.4-0.9-2.4-0.9
			c-0.8,0-1.5,0.2-2.1,0.5c-0.6,0.4-1.1,0.9-1.6,1.5v9.1l2.3,0.4v1.8h-7.4V543.3z"/>
		<path class="st2" d="M219.2,531.6l-1.4,0.2l-5.8,15.7c-0.4,1-0.9,1.9-1.7,2.7s-1.7,1.1-2.9,1.1c-0.2,0-0.5,0-0.8-0.1
			c-0.3-0.1-0.6-0.1-0.8-0.1l0.3-2.2c-0.1,0,0.1,0,0.5,0c0.4,0,0.6,0,0.7,0c0.6,0,1.1-0.3,1.4-0.8c0.4-0.5,0.7-1.1,1-1.8l0.7-1.6
			l-5.1-13l-1.4-0.2v-1.8h6.2v1.8l-1.7,0.3l2.6,7.6l0.5,2h0.1l3.2-9.5l-1.7-0.3v-1.8h6.2V531.6z"/>
		<path class="st2" d="M238.3,545.1c-0.1-0.4-0.2-0.8-0.2-1.1s-0.1-0.7-0.1-1c-0.5,0.7-1.2,1.3-2,1.7c-0.8,0.5-1.7,0.7-2.6,0.7
			c-1.6,0-2.8-0.4-3.6-1.2c-0.8-0.8-1.2-1.9-1.2-3.3c0-1.5,0.6-2.6,1.8-3.4c1.2-0.8,2.8-1.2,4.8-1.2h2.9v-1.8c0-0.9-0.3-1.6-0.8-2.1
			c-0.6-0.5-1.4-0.8-2.4-0.8c-0.7,0-1.3,0.1-1.8,0.3c-0.5,0.2-1,0.4-1.3,0.7l-0.3,1.6h-2.2v-3c0.7-0.6,1.5-1,2.5-1.3
			c1-0.3,2.1-0.5,3.2-0.5c1.7,0,3.1,0.4,4.2,1.3s1.6,2.2,1.6,3.8v7.4c0,0.2,0,0.4,0,0.6c0,0.2,0,0.4,0,0.6l1.1,0.2v1.8H238.3z
			 M233.8,543.1c0.9,0,1.8-0.2,2.5-0.7s1.3-1,1.6-1.6v-2.5h-3c-1.1,0-2,0.3-2.7,0.8c-0.7,0.5-1,1.2-1,1.9c0,0.7,0.2,1.2,0.6,1.5
			C232.4,542.9,233,543.1,233.8,543.1z"/>
		<path class="st2" d="M243.9,543.3l2.3-0.4V532l-2.3-0.4v-1.8h4.8l0.2,2.3c0.5-0.8,1.1-1.4,1.9-1.9c0.8-0.4,1.6-0.7,2.6-0.7
			c1.7,0,2.9,0.5,3.8,1.5c0.9,1,1.4,2.5,1.4,4.5v7.5l2.3,0.4v1.8h-7.4v-1.8l2.3-0.4v-7.4c0-1.4-0.3-2.3-0.8-2.9
			c-0.5-0.6-1.3-0.8-2.4-0.8c-0.8,0-1.5,0.2-2.1,0.6c-0.6,0.4-1.1,0.9-1.5,1.6v9l2.3,0.4v1.8h-7.4V543.3z"/>
		<path class="st2" d="M273.1,543.3c-0.5,0.7-1.1,1.2-1.8,1.6c-0.7,0.4-1.6,0.5-2.5,0.5c-1.9,0-3.3-0.7-4.4-2
			c-1.1-1.4-1.6-3.1-1.6-5.3v-0.3c0-2.5,0.5-4.5,1.6-6c1.1-1.5,2.5-2.3,4.4-2.3c0.9,0,1.7,0.2,2.4,0.5c0.7,0.3,1.3,0.8,1.8,1.5v-6.2
			l-2.3-0.4V523h2.3h2.8v19.9l2.3,0.4v1.8h-4.7L273.1,543.3z M265.6,538c0,1.5,0.3,2.8,0.9,3.7s1.6,1.4,2.9,1.4
			c0.8,0,1.5-0.2,2.1-0.6s1-0.9,1.4-1.6v-7.1c-0.4-0.6-0.8-1.2-1.4-1.5s-1.3-0.6-2.1-0.6c-1.3,0-2.3,0.6-3,1.7c-0.6,1.1-1,2.5-1,4.3
			V538z"/>
		<path class="st2" d="M302.1,530.6H300l-0.5-2.9c-0.4-0.4-1-0.7-1.7-0.9s-1.5-0.4-2.5-0.4c-1.5,0-2.6,0.3-3.4,0.9
			c-0.8,0.6-1.2,1.4-1.2,2.5c0,0.9,0.4,1.6,1.2,2.2c0.8,0.6,2.1,1.1,3.9,1.6c2.2,0.5,3.8,1.3,4.9,2.4s1.7,2.3,1.7,3.9
			c0,1.7-0.7,3-2,4s-3.1,1.5-5.3,1.5c-1.6,0-3-0.3-4.2-0.8c-1.2-0.5-2.2-1.2-3-2v-3.8h2.1l0.5,3c0.5,0.4,1.2,0.8,1.9,1.1
			c0.7,0.3,1.6,0.4,2.7,0.4c1.4,0,2.5-0.3,3.3-0.9s1.2-1.4,1.2-2.4c0-0.9-0.4-1.7-1.1-2.4c-0.7-0.6-2-1.2-3.8-1.6
			c-2.2-0.5-3.9-1.3-5.1-2.3c-1.2-1-1.8-2.3-1.8-3.8c0-1.6,0.7-3,2.1-4c1.4-1.1,3.1-1.6,5.3-1.6c1.4,0,2.8,0.2,3.9,0.7
			c1.2,0.5,2.1,1.1,2.9,1.8V530.6z"/>
		<path class="st2" d="M304.7,524.8V523h5.1v12.8h1.8l3.3-4l-1.4-0.2v-1.8h6.4v1.8L318,532l-4,4.8l4.9,6.2l1.7,0.3v1.8h-6.4v-1.8
			l1.4-0.2l-4.1-5.1h-1.8v4.9l2.3,0.4v1.8h-7.4v-1.8l2.3-0.4v-17.7L304.7,524.8z"/>
		<path class="st2" d="M329.4,545.4c-2.1,0-3.8-0.7-5.1-2.1c-1.3-1.4-1.9-3.3-1.9-5.5v-0.6c0-2.2,0.6-4,1.9-5.4
			c1.3-1.4,2.8-2.2,4.6-2.2c2.1,0,3.6,0.6,4.7,1.9c1.1,1.2,1.6,2.9,1.6,5v1.7h-9.9l0,0.1c0,1.5,0.4,2.7,1.1,3.6
			c0.7,0.9,1.7,1.4,3,1.4c0.9,0,1.8-0.1,2.5-0.4c0.7-0.3,1.3-0.6,1.8-1.1l1.1,1.8c-0.5,0.5-1.3,1-2.2,1.3
			C331.8,545.2,330.7,545.4,329.4,545.4z M329,531.7c-0.9,0-1.7,0.4-2.4,1.2c-0.7,0.8-1.1,1.8-1.2,3l0,0.1h7.1v-0.4
			c0-1.1-0.3-2-0.9-2.7C331,532.1,330.1,531.7,329,531.7z"/>
		<path class="st2" d="M342.9,526.1v3.7h2.9v2.1h-2.9v9.3c0,0.7,0.1,1.2,0.4,1.5c0.3,0.3,0.7,0.4,1.2,0.4c0.2,0,0.5,0,0.8-0.1
			c0.3,0,0.6-0.1,0.8-0.1l0.4,1.9c-0.3,0.2-0.7,0.3-1.2,0.4c-0.5,0.1-1,0.2-1.5,0.2c-1.1,0-2-0.3-2.7-1c-0.7-0.7-1-1.8-1-3.2v-9.3
			h-2.4v-2.1h2.4v-3.7H342.9z"/>
		<path class="st2" d="M355.5,543.2c0.9,0,1.7-0.3,2.4-0.9c0.7-0.6,1.1-1.3,1.1-2.1h2.5l0,0.1c0,1.3-0.5,2.5-1.8,3.5
			c-1.2,1-2.6,1.5-4.3,1.5c-2.2,0-3.9-0.7-5.1-2.2c-1.2-1.5-1.8-3.3-1.8-5.5v-0.6c0-2.2,0.6-4,1.8-5.5c1.2-1.5,2.9-2.2,5.1-2.2
			c1.2,0,2.3,0.2,3.3,0.6c1,0.4,1.8,1,2.4,1.7l0.1,3.4h-2.2l-0.6-2.4c-0.3-0.3-0.8-0.6-1.3-0.8c-0.5-0.2-1.1-0.3-1.8-0.3
			c-1.5,0-2.5,0.5-3.1,1.6c-0.6,1.1-0.9,2.3-0.9,3.9v0.6c0,1.6,0.3,2.9,0.9,3.9C353,542.7,354,543.2,355.5,543.2z"/>
		<path class="st2" d="M363.9,543.3l2.3-0.4v-17.7l-2.3-0.4V523h5.1v8.8c0.5-0.7,1.2-1.3,1.9-1.7s1.6-0.6,2.5-0.6
			c1.6,0,2.9,0.5,3.8,1.5s1.4,2.5,1.4,4.5v7.4l2.3,0.4v1.8h-7.4v-1.8l2.3-0.4v-7.4c0-1.3-0.3-2.2-0.8-2.8s-1.4-0.9-2.4-0.9
			c-0.8,0-1.5,0.2-2.1,0.5c-0.6,0.4-1.1,0.9-1.6,1.5v9.1l2.3,0.4v1.8h-7.4V543.3z"/>
		<path class="st2" d="M383,543.3l2.3-0.4V532l-2.3-0.4v-1.8h5.1v13.1l2.3,0.4v1.8H383V543.3z M388.1,525.9h-2.8V523h2.8V525.9z"/>
		<path class="st2" d="M392.1,543.3l2.3-0.4V532l-2.3-0.4v-1.8h4.8l0.2,2.3c0.5-0.8,1.1-1.4,1.9-1.9c0.8-0.4,1.6-0.7,2.6-0.7
			c1.7,0,2.9,0.5,3.8,1.5c0.9,1,1.4,2.5,1.4,4.5v7.5l2.3,0.4v1.8h-7.4v-1.8l2.3-0.4v-7.4c0-1.4-0.3-2.3-0.8-2.9s-1.3-0.8-2.4-0.8
			c-0.8,0-1.5,0.2-2.1,0.6c-0.6,0.4-1.1,0.9-1.5,1.6v9l2.3,0.4v1.8h-7.4V543.3z"/>
		<path class="st2" d="M411.1,537.7c0-2.5,0.5-4.5,1.6-6s2.6-2.3,4.5-2.3c1,0,1.8,0.2,2.5,0.6c0.7,0.4,1.3,0.9,1.8,1.6l0.3-1.9h2.4
			v15.1c0,2-0.6,3.5-1.7,4.7c-1.1,1.1-2.7,1.7-4.7,1.7c-0.7,0-1.5-0.1-2.4-0.3c-0.9-0.2-1.6-0.5-2.3-0.8l0.7-2.2
			c0.5,0.3,1.1,0.5,1.8,0.7s1.4,0.3,2.1,0.3c1.2,0,2.2-0.3,2.7-1c0.6-0.7,0.9-1.7,0.9-3v-1.5c-0.5,0.6-1.1,1.1-1.8,1.5
			c-0.7,0.3-1.5,0.5-2.4,0.5c-1.9,0-3.4-0.7-4.4-2s-1.6-3.1-1.6-5.3V537.7z M413.8,538c0,1.5,0.3,2.8,1,3.7s1.6,1.4,3,1.4
			c0.8,0,1.5-0.2,2.1-0.6c0.6-0.4,1-0.9,1.4-1.6v-7.1c-0.4-0.7-0.8-1.2-1.4-1.6c-0.6-0.4-1.3-0.6-2.1-0.6c-1.3,0-2.3,0.6-3,1.7
			c-0.7,1.1-1,2.5-1,4.3V538z"/>
		<path class="st2" d="M431,545.1h-2.8v-2.9h2.8V545.1z"/>
	</g>
</g>
<g>
	<g>
		<path class="st2" d="M32.7,230.6l3.5-0.5l14.7-42h9.9l14.6,42l3.5,0.5v5.8H62.4v-5.8l3.4-0.6l-2.1-6.6H47.9l-2.1,6.6l3.4,0.6v5.8
			H32.7V230.6z M50.2,216.3h11.1l-5.4-17h-0.2L50.2,216.3z"/>
		<path class="st2" d="M117,219.5c0,5.4-1.2,9.6-3.6,12.8c-2.4,3.2-5.8,4.8-10.4,4.8c-2.1,0-3.9-0.4-5.5-1.3
			c-1.5-0.9-2.9-2.1-3.9-3.8l-0.7,4.4h-8.4v-45l-5.1-1v-5.8h14.8v19.7c1-1.4,2.3-2.5,3.7-3.3c1.4-0.8,3.1-1.2,5-1.2
			c4.6,0,8,1.7,10.4,5.2c2.4,3.4,3.6,8,3.6,13.8V219.5z M107.3,218.8c0-3.5-0.5-6.3-1.5-8.3c-1-2-2.8-3.1-5.3-3.1
			c-1.5,0-2.8,0.3-3.8,0.9c-1,0.6-1.9,1.5-2.5,2.7v15.2c0.6,1.1,1.4,1.9,2.5,2.5c1.1,0.6,2.3,0.9,3.9,0.9c2.5,0,4.2-0.9,5.2-2.6
			s1.5-4.3,1.5-7.5V218.8z"/>
		<path class="st2" d="M121.5,218.1c0-5.4,1.5-9.7,4.5-13.2c3-3.4,7.1-5.1,12.4-5.1c5.3,0,9.5,1.7,12.5,5.1c3,3.4,4.5,7.8,4.5,13.2
			v0.7c0,5.4-1.5,9.8-4.5,13.2c-3,3.4-7.1,5.1-12.4,5.1c-5.3,0-9.5-1.7-12.5-5.1c-3-3.4-4.5-7.8-4.5-13.2V218.1z M131.2,218.8
			c0,3.3,0.6,5.9,1.7,7.9c1.2,2,3,3,5.6,3c2.5,0,4.3-1,5.5-3s1.7-4.6,1.7-7.9v-0.7c0-3.2-0.6-5.8-1.8-7.8c-1.2-2-3-3-5.5-3
			s-4.4,1-5.5,3c-1.2,2-1.7,4.6-1.7,7.8V218.8z"/>
		<path class="st2" d="M184.7,231.9c-1.2,1.7-2.6,3-4.3,3.9s-3.6,1.4-5.8,1.4c-3.8,0-6.8-1.2-8.9-3.6c-2.1-2.4-3.2-6.2-3.2-11.3
			v-14.8l-4-1v-5.8h4h9.7v21.7c0,2.6,0.4,4.5,1.3,5.6c0.9,1.1,2.2,1.7,3.9,1.7c1.5,0,2.8-0.2,4-0.7c1.1-0.5,2-1.2,2.7-2.1v-19.4
			l-4.2-1v-5.8h4.2h9.7v29.1l4.3,1v5.8h-12.8L184.7,231.9z"/>
		<path class="st2" d="M216.4,191.7v8.8h6.3v6.8h-6.3v18.3c0,1.4,0.3,2.4,0.9,3c0.6,0.6,1.4,0.9,2.3,0.9c0.7,0,1.2,0,1.7-0.1
			c0.5-0.1,1.1-0.1,1.7-0.3l0.8,7c-1.1,0.3-2.2,0.6-3.2,0.7s-2.2,0.2-3.5,0.2c-3.3,0-5.9-0.9-7.7-2.8c-1.8-1.8-2.7-4.7-2.7-8.7
			v-18.3h-5.3v-6.8h5.3v-8.8H216.4z"/>
		<path class="st2" d="M290.5,200.7l-0.2,0l-12.9,35.8h-6.5L258,200.8l-0.2,0l0.9,21.2v7.6l5.2,1v5.8h-20v-5.8l5.1-1v-34.7l-5.1-1
			v-5.8h5.1h12.7l12.3,35.6h0.2l12.4-35.6h17.9v5.8l-5.2,1v34.7l5.2,1v5.8h-20v-5.8l5.1-1V222L290.5,200.7z"/>
		<path class="st2" d="M325.3,237.1c-5.2,0-9.3-1.7-12.4-5c-3.1-3.3-4.6-7.5-4.6-12.7v-1.3c0-5.3,1.5-9.7,4.4-13.2
			c2.9-3.5,6.9-5.2,11.8-5.1c4.8,0,8.6,1.5,11.3,4.4c2.7,2.9,4,6.9,4,11.9v5.3h-21.4l-0.1,0.2c0.2,2.4,1,4.3,2.4,5.8
			c1.4,1.5,3.3,2.3,5.7,2.3c2.1,0,3.9-0.2,5.3-0.6c1.4-0.4,3-1.1,4.6-2l2.6,6c-1.5,1.2-3.4,2.2-5.8,3S328.2,237.1,325.3,237.1z
			 M324.5,207.3c-1.8,0-3.2,0.7-4.2,2.1c-1,1.4-1.7,3.2-1.9,5.4l0.1,0.2h11.9v-0.9c0-2.1-0.5-3.7-1.4-4.9S326.4,207.3,324.5,207.3z"
			/>
	</g>
</g>
<g>
	<g>
		<path class="st2" d="M72.8,732.6h-7.2l-1-6.4c-1-1-2.2-1.7-3.6-2.3c-1.5-0.6-3.2-0.8-5.1-0.8c-4.2,0-7.4,1.5-9.7,4.6
			c-2.3,3.1-3.4,7-3.4,12v1.7c0,4.9,1.1,8.9,3.4,12c2.3,3.1,5.4,4.6,9.6,4.6c1.9,0,3.6-0.3,5.2-0.8c1.6-0.6,2.8-1.3,3.7-2.3l1-6.4
			h7.2v9.6c-1.9,2.3-4.4,4.1-7.5,5.4s-6.4,2-10.1,2c-6.5,0-11.8-2.2-15.9-6.7c-4.1-4.5-6.2-10.3-6.2-17.3v-1.6
			c0-7,2.1-12.8,6.2-17.3s9.4-6.8,16-6.8c3.7,0,7.1,0.7,10.1,2c3,1.4,5.5,3.2,7.5,5.4V732.6z"/>
		<path class="st2" d="M77.5,746.4c0-5.4,1.5-9.7,4.5-13.2c3-3.4,7.1-5.1,12.4-5.1c5.3,0,9.5,1.7,12.5,5.1c3,3.4,4.5,7.8,4.5,13.2
			v0.7c0,5.4-1.5,9.8-4.5,13.2c-3,3.4-7.1,5.1-12.4,5.1c-5.3,0-9.5-1.7-12.5-5.1c-3-3.4-4.5-7.8-4.5-13.2V746.4z M87.2,747.1
			c0,3.3,0.6,5.9,1.7,7.9c1.2,2,3,3,5.6,3c2.5,0,4.3-1,5.5-3s1.7-4.6,1.7-7.9v-0.7c0-3.2-0.6-5.8-1.8-7.8c-1.2-2-3-3-5.5-3
			s-4.4,1-5.5,3c-1.2,2-1.7,4.6-1.7,7.8V747.1z"/>
		<path class="st2" d="M115.1,758.8l4.6-1v-22.3l-5.1-1v-5.8h14.2l0.4,5.1c1.2-1.8,2.7-3.3,4.4-4.3c1.7-1,3.7-1.5,5.9-1.5
			c3.6,0,6.5,1.1,8.5,3.4c2,2.3,3.1,5.9,3.1,10.7v15.6l4.6,1v5.8h-18.5v-5.8l4.2-1v-15.6c0-2.4-0.5-4.1-1.5-5.1
			c-1-1-2.4-1.5-4.4-1.5c-1.3,0-2.4,0.3-3.5,0.8c-1,0.5-1.9,1.3-2.6,2.2v19.3l3.9,1v5.8h-18.3V758.8z"/>
		<path class="st2" d="M173.1,719.9v8.8h6.3v6.8h-6.3v18.3c0,1.4,0.3,2.4,0.9,3c0.6,0.6,1.4,0.9,2.3,0.9c0.7,0,1.2,0,1.7-0.1
			c0.5-0.1,1.1-0.1,1.7-0.3l0.8,7c-1.1,0.3-2.2,0.6-3.2,0.7s-2.2,0.2-3.5,0.2c-3.3,0-5.9-0.9-7.7-2.8c-1.8-1.8-2.7-4.7-2.7-8.7
			v-18.3h-5.3v-6.8h5.3v-8.8H173.1z"/>
		<path class="st2" d="M207,764.7c-0.3-0.6-0.5-1.2-0.7-1.8s-0.4-1.3-0.5-1.9c-1.2,1.3-2.6,2.4-4.2,3.2c-1.6,0.8-3.5,1.2-5.7,1.2
			c-3.5,0-6.3-1-8.4-2.9c-2.1-1.9-3.1-4.5-3.1-7.8c0-3.4,1.4-6,4.1-7.8c2.7-1.8,6.7-2.8,11.9-2.8h4.9v-3.5c0-1.7-0.5-3.1-1.5-4
			c-1-1-2.5-1.4-4.4-1.4c-1.1,0-2.1,0.1-3,0.4c-0.9,0.3-1.6,0.6-2.1,0.9l-0.6,3.9h-7.3l0-8c1.8-1.2,3.8-2.2,6.1-3
			c2.3-0.8,4.8-1.2,7.5-1.2c4.4,0,8.1,1.1,10.8,3.3c2.8,2.2,4.2,5.3,4.2,9.3v14.8c0,0.6,0,1.1,0,1.6c0,0.5,0,1,0.1,1.4l3,0.4v5.8
			H207z M198.6,758.2c1.5,0,2.8-0.3,4-0.9s2.1-1.4,2.8-2.4v-5.5h-4.9c-2.1,0-3.6,0.5-4.7,1.4s-1.6,2.1-1.6,3.5
			c0,1.2,0.4,2.2,1.2,2.9C196.1,757.8,197.2,758.2,198.6,758.2z"/>
		<path class="st2" d="M238.4,757.9c1.7,0,3.1-0.5,4.2-1.5c1-1,1.6-2.4,1.6-4h8.8l0.1,0.2c0.1,3.6-1.3,6.7-4.1,9.1
			c-2.8,2.4-6.3,3.7-10.5,3.7c-5.4,0-9.5-1.7-12.4-5.1c-2.9-3.4-4.3-7.7-4.3-13v-1c0-5.3,1.5-9.6,4.5-13c3-3.4,7.2-5.1,12.7-5.1
			c2.9,0,5.5,0.4,7.8,1.3c2.3,0.9,4.2,2.1,5.7,3.7l0.1,9.6h-7.9L243,737c-0.5-0.4-1.1-0.8-1.8-1c-0.7-0.3-1.5-0.4-2.4-0.4
			c-2.7,0-4.7,1-5.8,3s-1.7,4.6-1.7,7.7v1c0,3.2,0.5,5.8,1.6,7.8C233.9,756.9,235.8,757.9,238.4,757.9z"/>
		<path class="st2" d="M271.6,719.9v8.8h6.3v6.8h-6.3v18.3c0,1.4,0.3,2.4,0.9,3c0.6,0.6,1.4,0.9,2.3,0.9c0.7,0,1.2,0,1.7-0.1
			c0.5-0.1,1.1-0.1,1.7-0.3l0.8,7c-1.1,0.3-2.2,0.6-3.2,0.7s-2.2,0.2-3.5,0.2c-3.3,0-5.9-0.9-7.7-2.8c-1.8-1.8-2.7-4.7-2.7-8.7
			v-18.3h-5.3v-6.8h5.3v-8.8H271.6z"/>
	</g>
</g>
<g>
	<g>
		<path class="st2" d="M44.3,820.1v-1.8h4.8l0.3,2.2c0.4-0.8,1-1.4,1.6-1.8c0.6-0.4,1.4-0.7,2.2-0.7c0.2,0,0.4,0,0.7,0
			c0.2,0,0.4,0.1,0.5,0.1l-0.4,2.6l-1.6-0.1c-0.7,0-1.4,0.2-1.9,0.5s-0.9,0.8-1.2,1.5v8.8l2.3,0.4v1.8h-7.4v-1.8l2.3-0.4v-10.9
			L44.3,820.1z"/>
		<path class="st2" d="M66.3,831.8c-0.5,0.7-1.1,1.2-1.8,1.6c-0.7,0.4-1.6,0.5-2.5,0.5c-1.9,0-3.3-0.7-4.4-2
			c-1.1-1.4-1.6-3.1-1.6-5.3v-0.3c0-2.5,0.5-4.5,1.6-6c1.1-1.5,2.5-2.3,4.4-2.3c0.9,0,1.7,0.2,2.4,0.5c0.7,0.3,1.3,0.8,1.8,1.5v-6.2
			l-2.3-0.4v-1.8h2.3H69v19.9l2.3,0.4v1.8h-4.7L66.3,831.8z M58.8,826.5c0,1.5,0.3,2.8,0.9,3.7s1.6,1.4,2.9,1.4
			c0.8,0,1.5-0.2,2.1-0.6c0.6-0.4,1-0.9,1.4-1.6v-7.1c-0.4-0.6-0.8-1.2-1.4-1.5c-0.6-0.4-1.3-0.6-2.1-0.6c-1.3,0-2.3,0.6-3,1.7
			c-0.6,1.1-1,2.5-1,4.3V826.5z"/>
		<path class="st2" d="M84.4,831.3c-0.5,0.8-1.1,1.5-1.9,1.9c-0.8,0.4-1.6,0.7-2.6,0.7c-1.7,0-3-0.5-3.9-1.6s-1.4-2.7-1.4-5v-6.8
			l-1.8-0.4v-1.8h1.8h2.8v9.1c0,1.6,0.2,2.8,0.7,3.4c0.5,0.6,1.2,0.9,2.3,0.9c1,0,1.8-0.2,2.5-0.6c0.6-0.4,1.1-1,1.5-1.7v-8.9
			l-2.1-0.4v-1.8h2.1H87v13.1l1.8,0.4v1.8h-4.3L84.4,831.3z"/>
		<path class="st2" d="M90.7,837.7l2.3-0.4v-16.8l-2.3-0.4v-1.8h4.7l0.3,1.9c0.5-0.7,1.1-1.2,1.9-1.6c0.7-0.4,1.6-0.6,2.5-0.6
			c1.9,0,3.4,0.8,4.4,2.3c1.1,1.5,1.6,3.5,1.6,6v0.3c0,2.2-0.5,4-1.6,5.3c-1.1,1.4-2.5,2-4.4,2c-0.9,0-1.8-0.2-2.5-0.5
			c-0.7-0.3-1.3-0.8-1.8-1.4v5.3l2.3,0.4v1.8h-7.4V837.7z M103.2,826.2c0-1.7-0.3-3.2-1-4.3c-0.7-1.1-1.7-1.7-3-1.7
			c-0.8,0-1.5,0.2-2,0.5c-0.6,0.4-1,0.8-1.4,1.5v7.5c0.3,0.6,0.8,1.1,1.4,1.5c0.6,0.3,1.3,0.5,2.1,0.5c1.3,0,2.3-0.5,3-1.4
			s1-2.2,1-3.8V826.2z"/>
		<path class="st2" d="M115.6,833.9c-2.1,0-3.8-0.7-5.1-2.1c-1.3-1.4-1.9-3.3-1.9-5.5v-0.6c0-2.2,0.6-4,1.9-5.4
			c1.3-1.4,2.8-2.2,4.6-2.2c2.1,0,3.6,0.6,4.7,1.9c1.1,1.2,1.6,2.9,1.6,5v1.7h-9.9l0,0.1c0,1.5,0.4,2.7,1.1,3.6
			c0.7,0.9,1.7,1.4,3,1.4c0.9,0,1.8-0.1,2.5-0.4c0.7-0.3,1.3-0.6,1.8-1.1l1.1,1.8c-0.5,0.5-1.3,1-2.2,1.3
			C117.9,833.7,116.8,833.9,115.6,833.9z M115.1,820.2c-0.9,0-1.7,0.4-2.4,1.2s-1.1,1.8-1.2,3l0,0.1h7.1v-0.4c0-1.1-0.3-2-0.9-2.7
			S116.3,820.2,115.1,820.2z"/>
		<path class="st2" d="M135.9,823.1h-2.1l-0.5-1.8c-0.3-0.3-0.8-0.6-1.3-0.8c-0.5-0.2-1.1-0.3-1.7-0.3c-1,0-1.7,0.2-2.2,0.7
			c-0.5,0.4-0.7,1-0.7,1.6c0,0.6,0.2,1.1,0.6,1.4c0.4,0.3,1.3,0.7,2.6,0.9c1.9,0.4,3.4,1,4.3,1.7s1.4,1.7,1.4,2.9
			c0,1.4-0.5,2.5-1.6,3.3c-1.1,0.8-2.5,1.3-4.3,1.3c-1.2,0-2.2-0.1-3.1-0.4c-0.9-0.3-1.8-0.7-2.5-1.2l0-3.5h2.1l0.5,2.1
			c0.3,0.3,0.8,0.5,1.3,0.6c0.6,0.1,1.1,0.2,1.7,0.2c1,0,1.8-0.2,2.3-0.6c0.6-0.4,0.8-0.9,0.8-1.6c0-0.6-0.2-1.1-0.7-1.5
			c-0.5-0.4-1.4-0.7-2.7-1c-1.9-0.4-3.3-1-4.2-1.7c-0.9-0.7-1.4-1.6-1.4-2.8c0-1.2,0.5-2.3,1.6-3.2c1.1-0.9,2.4-1.3,4.1-1.3
			c1.2,0,2.2,0.2,3.1,0.5c0.9,0.3,1.7,0.7,2.3,1.3L135.9,823.1z"/>
		<path class="st2" d="M152.7,815.2c-2.5,3-4.2,5.6-5,7.9c-0.9,2.3-1.5,5.1-1.9,8.3l-0.2,2.2h-2.8l0.2-2.2c0.4-3.2,1.2-6.2,2.3-8.7
			c1.1-2.6,2.7-5.1,4.7-7.5h-8.6l-0.2,2.4h-2.4V813h13.9V815.2z"/>
		<path class="st2" d="M168.7,815.2c-2.5,3-4.2,5.6-5,7.9c-0.9,2.3-1.5,5.1-1.9,8.3l-0.2,2.2h-2.8l0.2-2.2c0.4-3.2,1.2-6.2,2.3-8.7
			c1.1-2.6,2.7-5.1,4.7-7.5h-8.6l-0.2,2.4h-2.4V813h13.9V815.2z"/>
		<path class="st2" d="M193.8,826.5c-0.1,2-0.7,3.8-1.7,5.2c-1,1.5-2.6,2.2-4.7,2.2c-0.7,0-1.3-0.2-1.8-0.6
			c-0.5-0.4-0.9-0.9-1.1-1.6c-0.5,0.8-1,1.3-1.7,1.7s-1.5,0.6-2.4,0.6c-1.2,0-2.1-0.6-2.7-1.7s-0.9-2.6-0.7-4.5
			c0.2-2.4,0.9-4.4,1.9-5.9c1.1-1.5,2.4-2.2,3.9-2.2c1,0,1.8,0.1,2.4,0.4c0.6,0.2,1.3,0.6,2,1.1l-0.1,0.1h0.1l-0.7,8.3
			c-0.1,1,0,1.8,0.3,2.1c0.3,0.4,0.7,0.6,1.2,0.6c1.2,0,2.1-0.5,2.8-1.6c0.7-1.1,1.1-2.4,1.2-4.1c0.2-3.6-0.5-6.4-2-8.4
			c-1.5-2-3.9-3-7-3c-2.9,0-5.3,1.1-7,3.3s-2.7,5-2.9,8.5c-0.2,3.5,0.5,6.4,2.1,8.4s3.9,3.1,6.8,3.1c0.8,0,1.7-0.1,2.5-0.3
			s1.6-0.5,2.2-0.8l0.6,1.5c-0.6,0.4-1.5,0.7-2.4,0.9c-1,0.2-1.9,0.3-2.9,0.3c-3.6,0-6.4-1.2-8.3-3.5s-2.9-5.6-2.7-9.7
			c0.2-4,1.4-7.2,3.5-9.7c2.2-2.5,5-3.8,8.5-3.8c3.6,0,6.3,1.2,8.2,3.5C193,819.2,193.9,822.5,193.8,826.5z M179.4,827.7
			c-0.1,1.3,0,2.3,0.3,3.1c0.3,0.7,0.8,1.1,1.5,1.1c0.6,0,1.1-0.1,1.6-0.4c0.5-0.2,1-0.7,1.4-1.2c0-0.1,0-0.2,0-0.4
			c0-0.1,0-0.3,0-0.4l0.7-7.6c-0.2-0.1-0.5-0.2-0.8-0.3c-0.3-0.1-0.5-0.1-0.8-0.1c-1.2,0-2.1,0.5-2.7,1.5
			C180,824,179.6,825.6,179.4,827.7z"/>
		<path class="st2" d="M211.2,820.1l-1.4,0.2L204,836c-0.4,1-0.9,1.9-1.7,2.7s-1.7,1.1-2.9,1.1c-0.2,0-0.5,0-0.8-0.1
			s-0.6-0.1-0.8-0.1l0.3-2.2c-0.1,0,0.1,0,0.5,0c0.4,0,0.6,0,0.7,0c0.6,0,1.1-0.3,1.4-0.8s0.7-1.1,1-1.8l0.7-1.6l-5.1-13l-1.4-0.2
			v-1.8h6.2v1.8l-1.7,0.3l2.6,7.6l0.5,2h0.1l3.2-9.5l-1.7-0.3v-1.8h6.2V820.1z"/>
		<path class="st2" d="M222.9,833.6c-0.1-0.4-0.2-0.8-0.2-1.1c0-0.3-0.1-0.7-0.1-1c-0.5,0.7-1.2,1.3-2,1.7c-0.8,0.5-1.7,0.7-2.6,0.7
			c-1.6,0-2.8-0.4-3.6-1.2c-0.8-0.8-1.2-1.9-1.2-3.3c0-1.5,0.6-2.6,1.8-3.4c1.2-0.8,2.8-1.2,4.8-1.2h2.9v-1.8c0-0.9-0.3-1.6-0.8-2.1
			c-0.6-0.5-1.4-0.8-2.4-0.8c-0.7,0-1.3,0.1-1.8,0.3c-0.5,0.2-1,0.4-1.3,0.7l-0.3,1.6h-2.2v-3c0.7-0.6,1.5-1,2.5-1.3
			c1-0.3,2.1-0.5,3.2-0.5c1.7,0,3.1,0.4,4.2,1.3c1.1,0.9,1.6,2.2,1.6,3.8v7.4c0,0.2,0,0.4,0,0.6c0,0.2,0,0.4,0,0.6l1.1,0.2v1.8
			H222.9z M218.4,831.6c0.9,0,1.8-0.2,2.5-0.7c0.8-0.4,1.3-1,1.6-1.6v-2.5h-3c-1.1,0-2,0.3-2.7,0.8c-0.7,0.5-1,1.2-1,1.9
			c0,0.7,0.2,1.2,0.6,1.5C217,831.4,217.6,831.6,218.4,831.6z"/>
		<path class="st2" d="M228.5,831.8l2.3-0.4v-17.7l-2.3-0.4v-1.8h5.1v8.8c0.5-0.7,1.2-1.3,1.9-1.7c0.8-0.4,1.6-0.6,2.5-0.6
			c1.6,0,2.9,0.5,3.8,1.5c0.9,1,1.4,2.5,1.4,4.5v7.4l2.3,0.4v1.8h-7.4v-1.8l2.3-0.4V824c0-1.3-0.3-2.2-0.8-2.8
			c-0.5-0.6-1.4-0.9-2.4-0.9c-0.8,0-1.5,0.2-2.1,0.5c-0.6,0.4-1.1,0.9-1.6,1.5v9.1l2.3,0.4v1.8h-7.4V831.8z"/>
		<path class="st2" d="M247.5,825.8c0-2.3,0.6-4.1,1.8-5.6c1.2-1.5,2.9-2.2,5-2.2c2.1,0,3.8,0.7,5,2.2c1.2,1.5,1.8,3.3,1.8,5.6v0.3
			c0,2.3-0.6,4.2-1.8,5.6c-1.2,1.5-2.9,2.2-5,2.2c-2.1,0-3.8-0.7-5-2.2c-1.2-1.5-1.8-3.3-1.8-5.6V825.8z M250.3,826.1
			c0,1.6,0.3,3,1,4c0.7,1.1,1.7,1.6,3.1,1.6c1.3,0,2.3-0.5,3-1.6c0.7-1.1,1-2.4,1-4v-0.3c0-1.6-0.3-2.9-1-4c-0.7-1.1-1.7-1.6-3-1.6
			s-2.4,0.5-3,1.6c-0.7,1.1-1,2.4-1,4V826.1z"/>
		<path class="st2" d="M263.7,825.8c0-2.3,0.6-4.1,1.8-5.6c1.2-1.5,2.9-2.2,5-2.2c2.1,0,3.8,0.7,5,2.2c1.2,1.5,1.8,3.3,1.8,5.6v0.3
			c0,2.3-0.6,4.2-1.8,5.6c-1.2,1.5-2.9,2.2-5,2.2c-2.1,0-3.8-0.7-5-2.2c-1.2-1.5-1.8-3.3-1.8-5.6V825.8z M266.5,826.1
			c0,1.6,0.3,3,1,4c0.7,1.1,1.7,1.6,3.1,1.6c1.3,0,2.3-0.5,3-1.6c0.7-1.1,1-2.4,1-4v-0.3c0-1.6-0.3-2.9-1-4c-0.7-1.1-1.7-1.6-3-1.6
			s-2.4,0.5-3,1.6c-0.7,1.1-1,2.4-1,4V826.1z"/>
		<path class="st2" d="M283.6,833.6h-2.8v-2.9h2.8V833.6z"/>
		<path class="st2" d="M293.9,831.7c0.9,0,1.7-0.3,2.4-0.9c0.7-0.6,1.1-1.3,1.1-2.1h2.5l0,0.1c0,1.3-0.5,2.5-1.8,3.5
			c-1.2,1-2.6,1.5-4.3,1.5c-2.2,0-3.9-0.7-5.1-2.2c-1.2-1.5-1.8-3.3-1.8-5.5v-0.6c0-2.2,0.6-4,1.8-5.5c1.2-1.5,2.9-2.2,5.1-2.2
			c1.2,0,2.3,0.2,3.3,0.6c1,0.4,1.8,1,2.4,1.7l0.1,3.4h-2.2l-0.6-2.4c-0.3-0.3-0.8-0.6-1.3-0.8c-0.5-0.2-1.1-0.3-1.8-0.3
			c-1.5,0-2.5,0.5-3.1,1.6s-0.9,2.3-0.9,3.9v0.6c0,1.6,0.3,2.9,0.9,3.9S292.4,831.7,293.9,831.7z"/>
		<path class="st2" d="M302.6,825.8c0-2.3,0.6-4.1,1.8-5.6c1.2-1.5,2.9-2.2,5-2.2c2.1,0,3.8,0.7,5,2.2c1.2,1.5,1.8,3.3,1.8,5.6v0.3
			c0,2.3-0.6,4.2-1.8,5.6c-1.2,1.5-2.9,2.2-5,2.2c-2.1,0-3.8-0.7-5-2.2c-1.2-1.5-1.8-3.3-1.8-5.6V825.8z M305.4,826.1
			c0,1.6,0.3,3,1,4c0.7,1.1,1.7,1.6,3.1,1.6c1.3,0,2.3-0.5,3-1.6c0.7-1.1,1-2.4,1-4v-0.3c0-1.6-0.3-2.9-1-4c-0.7-1.1-1.7-1.6-3-1.6
			c-1.3,0-2.4,0.5-3,1.6c-0.7,1.1-1,2.4-1,4V826.1z"/>
		<path class="st2" d="M318.3,831.8l2.3-0.4v-10.9l-2.3-0.4v-1.8h4.8l0.2,2c0.5-0.7,1.1-1.3,1.9-1.7c0.8-0.4,1.7-0.6,2.7-0.6
			s1.9,0.2,2.6,0.7c0.7,0.5,1.3,1.2,1.6,2.1c0.5-0.9,1.1-1.6,1.9-2.1s1.7-0.8,2.8-0.8c1.6,0,2.8,0.5,3.7,1.6
			c0.9,1.1,1.4,2.7,1.4,4.8v7l2.3,0.4v1.8h-7.4v-1.8l2.3-0.4v-7c0-1.5-0.3-2.6-0.8-3.2c-0.5-0.6-1.3-0.9-2.3-0.9c-1,0-1.8,0.3-2.3,1
			s-0.9,1.5-1,2.6v7.5l2.3,0.4v1.8h-7.4v-1.8l2.3-0.4v-7c0-1.4-0.3-2.5-0.8-3.2c-0.5-0.7-1.3-1-2.3-1c-0.8,0-1.5,0.2-2.1,0.5
			c-0.5,0.3-1,0.8-1.3,1.5v9.2l2.3,0.4v1.8h-7.4V831.8z"/>
		<path class="st2" d="M54.6,860.1l-0.3-1.6h-6.2l-0.7,5.8c0.4-0.3,0.9-0.6,1.4-0.8c0.5-0.2,1.1-0.3,1.8-0.3c1.9,0,3.4,0.6,4.5,1.9
			c1.1,1.3,1.6,2.9,1.6,5.1c0,2.1-0.6,3.7-1.7,5c-1.1,1.3-2.7,1.9-4.8,1.9c-1.7,0-3.2-0.5-4.4-1.4c-1.2-1-1.7-2.4-1.7-4.2l0-0.1h2.5
			c0,1.1,0.3,2,1,2.6c0.6,0.6,1.5,0.9,2.5,0.9c1.2,0,2.1-0.4,2.7-1.2c0.7-0.8,1-2,1-3.4c0-1.3-0.3-2.4-1-3.3
			c-0.7-0.8-1.6-1.3-2.7-1.3c-1.1,0-1.9,0.2-2.4,0.5c-0.5,0.3-0.9,0.8-1.1,1.5l-2.3-0.2l1.2-11.3h10.9v4.1H54.6z"/>
		<path class="st2" d="M73.2,868.8c0,2.6-0.6,4.7-1.8,6.1c-1.2,1.4-2.8,2.1-4.8,2.1c-2,0-3.6-0.7-4.8-2.1s-1.8-3.4-1.8-6v-4.9
			c0-2.6,0.6-4.6,1.8-6.1s2.8-2.1,4.8-2.1c2,0,3.6,0.7,4.8,2.1s1.8,3.4,1.8,6.1V868.8z M70.4,863.3c0-1.8-0.3-3.1-1-4
			c-0.6-0.9-1.6-1.4-2.8-1.4c-1.2,0-2.1,0.5-2.8,1.4s-1,2.2-1,4v6c0,1.8,0.3,3.1,1,4s1.6,1.4,2.8,1.4c1.2,0,2.2-0.5,2.8-1.4
			c0.6-0.9,1-2.3,1-4.1V863.3z"/>
		<path class="st2" d="M89,861.4c0,1.1-0.3,2-0.9,2.8c-0.6,0.8-1.4,1.4-2.4,1.8c1.2,0.4,2.1,1.1,2.9,2c0.7,0.9,1.1,1.9,1.1,3.1
			c0,1.9-0.6,3.4-1.9,4.4c-1.2,1-2.9,1.5-4.8,1.5c-2,0-3.6-0.5-4.9-1.5c-1.2-1-1.8-2.5-1.8-4.4c0-1.2,0.3-2.2,1-3.1
			c0.7-0.9,1.6-1.5,2.8-2c-1-0.4-1.8-1-2.4-1.8c-0.6-0.8-0.9-1.7-0.9-2.8c0-1.8,0.6-3.2,1.7-4.2c1.1-1,2.6-1.5,4.4-1.5
			c1.8,0,3.3,0.5,4.4,1.5C88.4,858.2,89,859.6,89,861.4z M86.8,871c0-1.1-0.4-2.1-1.1-2.8c-0.7-0.7-1.7-1.1-2.8-1.1
			c-1.2,0-2.1,0.4-2.8,1.1c-0.7,0.7-1.1,1.7-1.1,2.8c0,1.2,0.4,2.1,1.1,2.8c0.7,0.7,1.7,1,2.9,1c1.2,0,2.1-0.3,2.8-1
			S86.8,872.1,86.8,871z M86.2,861.4c0-1-0.3-1.9-1-2.5c-0.6-0.7-1.4-1-2.4-1c-1,0-1.8,0.3-2.4,1c-0.6,0.6-0.9,1.5-0.9,2.6
			c0,1,0.3,1.9,0.9,2.5s1.4,0.9,2.4,0.9c1,0,1.8-0.3,2.4-0.9S86.2,862.5,86.2,861.4z"/>
		<path class="st2" d="M100,869H93v-2.2h6.9V869z"/>
		<path class="st2" d="M113.7,860.1l-0.3-1.6h-6.2l-0.7,5.8c0.4-0.3,0.9-0.6,1.4-0.8c0.5-0.2,1.1-0.3,1.8-0.3c1.9,0,3.4,0.6,4.5,1.9
			c1.1,1.3,1.6,2.9,1.6,5.1c0,2.1-0.6,3.7-1.7,5c-1.1,1.3-2.7,1.9-4.8,1.9c-1.7,0-3.2-0.5-4.4-1.4c-1.2-1-1.7-2.4-1.7-4.2l0-0.1h2.5
			c0,1.1,0.3,2,1,2.6c0.6,0.6,1.5,0.9,2.5,0.9c1.2,0,2.1-0.4,2.7-1.2c0.7-0.8,1-2,1-3.4c0-1.3-0.3-2.4-1-3.3
			c-0.7-0.8-1.6-1.3-2.7-1.3c-1.1,0-1.9,0.2-2.4,0.5c-0.5,0.3-0.9,0.8-1.1,1.5l-2.3-0.2L105,856h10.9v4.1H113.7z"/>
		<path class="st2" d="M131.6,861.4c0,1.1-0.3,2-0.9,2.8c-0.6,0.8-1.4,1.4-2.4,1.8c1.2,0.4,2.1,1.1,2.9,2c0.7,0.9,1.1,1.9,1.1,3.1
			c0,1.9-0.6,3.4-1.9,4.4c-1.2,1-2.9,1.5-4.8,1.5c-2,0-3.6-0.5-4.9-1.5c-1.2-1-1.8-2.5-1.8-4.4c0-1.2,0.3-2.2,1-3.1
			c0.7-0.9,1.6-1.5,2.8-2c-1-0.4-1.8-1-2.4-1.8c-0.6-0.8-0.9-1.7-0.9-2.8c0-1.8,0.6-3.2,1.7-4.2c1.1-1,2.6-1.5,4.4-1.5
			c1.8,0,3.3,0.5,4.4,1.5C131,858.2,131.6,859.6,131.6,861.4z M129.4,871c0-1.1-0.4-2.1-1.1-2.8c-0.7-0.7-1.7-1.1-2.8-1.1
			c-1.2,0-2.1,0.4-2.8,1.1c-0.7,0.7-1.1,1.7-1.1,2.8c0,1.2,0.4,2.1,1.1,2.8c0.7,0.7,1.7,1,2.9,1c1.2,0,2.1-0.3,2.8-1
			S129.4,872.1,129.4,871z M128.8,861.4c0-1-0.3-1.9-1-2.5c-0.6-0.7-1.4-1-2.4-1c-1,0-1.8,0.3-2.4,1c-0.6,0.6-0.9,1.5-0.9,2.6
			c0,1,0.3,1.9,0.9,2.5s1.4,0.9,2.4,0.9c1,0,1.8-0.3,2.4-0.9S128.8,862.5,128.8,861.4z"/>
		<path class="st2" d="M135.2,874.8l3.2-0.4V859l-3.2,0.1v-1.7l6-1.3v18.4l3.2,0.4v1.8h-9.1V874.8z"/>
		<path class="st2" d="M154.5,869h-6.9v-2.2h6.9V869z"/>
		<path class="st2" d="M171.6,868.8c0,2.6-0.6,4.7-1.8,6.1c-1.2,1.4-2.8,2.1-4.8,2.1c-2,0-3.6-0.7-4.8-2.1s-1.8-3.4-1.8-6v-4.9
			c0-2.6,0.6-4.6,1.8-6.1s2.8-2.1,4.8-2.1c2,0,3.6,0.7,4.8,2.1s1.8,3.4,1.8,6.1V868.8z M168.8,863.3c0-1.8-0.3-3.1-1-4
			c-0.6-0.9-1.6-1.4-2.8-1.4c-1.2,0-2.1,0.5-2.8,1.4s-1,2.2-1,4v6c0,1.8,0.3,3.1,1,4s1.6,1.4,2.8,1.4c1.2,0,2.2-0.5,2.8-1.4
			c0.6-0.9,1-2.3,1-4.1V863.3z"/>
		<path class="st2" d="M174.6,876.6v-1.9l6.8-7.5c1.2-1.4,2-2.4,2.5-3.2c0.4-0.8,0.6-1.6,0.6-2.4c0-1-0.3-1.9-0.9-2.6
			s-1.4-1.1-2.4-1.1c-1.4,0-2.5,0.4-3.1,1.1c-0.7,0.7-1,1.8-1,3.1h-2.7l0-0.1c0-1.8,0.5-3.3,1.8-4.5c1.2-1.2,2.9-1.8,5.1-1.8
			c1.9,0,3.3,0.5,4.4,1.6c1.1,1.1,1.6,2.5,1.6,4.1c0,1.1-0.3,2.2-1,3.4c-0.7,1.1-1.6,2.3-2.8,3.6l-5.4,5.9l0,0.1h7.3l0.2-2.4h2.4
			v4.5H174.6z"/>
		<path class="st2" d="M204.1,868.8c0,2.6-0.6,4.7-1.8,6.1c-1.2,1.4-2.8,2.1-4.8,2.1c-2,0-3.6-0.7-4.8-2.1s-1.8-3.4-1.8-6v-4.9
			c0-2.6,0.6-4.6,1.8-6.1s2.8-2.1,4.8-2.1c2,0,3.6,0.7,4.8,2.1s1.8,3.4,1.8,6.1V868.8z M201.3,863.3c0-1.8-0.3-3.1-1-4
			c-0.6-0.9-1.6-1.4-2.8-1.4c-1.2,0-2.1,0.5-2.8,1.4s-1,2.2-1,4v6c0,1.8,0.3,3.1,1,4s1.6,1.4,2.8,1.4c1.2,0,2.2-0.5,2.8-1.4
			c0.6-0.9,1-2.3,1-4.1V863.3z"/>
		<path class="st2" d="M210.9,865h2.4c1.2,0,2.1-0.3,2.6-0.9c0.5-0.6,0.8-1.5,0.8-2.6c0-1.2-0.3-2.1-0.9-2.7
			c-0.6-0.6-1.4-0.9-2.6-0.9c-1.1,0-2,0.3-2.6,1c-0.7,0.6-1,1.5-1,2.5H207l0-0.1c0-1.6,0.5-2.9,1.7-4c1.2-1.1,2.7-1.6,4.6-1.6
			c1.9,0,3.4,0.5,4.6,1.5s1.7,2.5,1.7,4.3c0,0.8-0.3,1.7-0.8,2.5c-0.5,0.8-1.3,1.5-2.3,1.9c1.2,0.4,2.1,1,2.6,1.9
			c0.5,0.9,0.8,1.8,0.8,2.9c0,1.9-0.6,3.4-1.8,4.4c-1.2,1.1-2.8,1.6-4.7,1.6c-1.9,0-3.4-0.5-4.7-1.5s-1.8-2.4-1.8-4.1l0-0.1h2.7
			c0,1.1,0.3,1.9,1,2.6c0.7,0.6,1.6,1,2.7,1c1.2,0,2.1-0.3,2.8-1c0.7-0.6,1-1.6,1-2.8c0-1.3-0.3-2.2-0.9-2.8
			c-0.6-0.6-1.5-0.9-2.8-0.9h-2.4V865z"/>
		<path class="st2" d="M44.7,917.8l3.2-0.4V902l-3.2,0.1v-1.7l6-1.3v18.4l3.2,0.4v1.8h-9.1V917.8z"/>
		<path class="st2" d="M56.3,919.6v-1.9l6.8-7.5c1.2-1.4,2-2.4,2.5-3.2c0.4-0.8,0.6-1.6,0.6-2.4c0-1-0.3-1.9-0.9-2.6
			s-1.4-1.1-2.4-1.1c-1.4,0-2.5,0.4-3.1,1.1c-0.7,0.7-1,1.8-1,3.1h-2.7l0-0.1c0-1.8,0.5-3.3,1.8-4.5c1.2-1.2,2.9-1.8,5.1-1.8
			c1.9,0,3.3,0.5,4.4,1.6c1.1,1.1,1.6,2.5,1.6,4.1c0,1.1-0.3,2.2-1,3.4c-0.7,1.1-1.6,2.3-2.8,3.6l-5.4,5.9l0,0.1h7.3l0.2-2.4h2.4
			v4.5H56.3z"/>
		<path class="st2" d="M94.1,905.1H92l-0.5-2.9c-0.4-0.4-1-0.7-1.7-0.9c-0.7-0.2-1.5-0.4-2.5-0.4c-1.5,0-2.6,0.3-3.4,0.9
			s-1.2,1.4-1.2,2.5c0,0.9,0.4,1.6,1.2,2.2c0.8,0.6,2.1,1.1,3.9,1.6c2.2,0.5,3.8,1.3,4.9,2.4c1.1,1,1.7,2.3,1.7,3.9c0,1.7-0.7,3-2,4
			c-1.4,1-3.1,1.5-5.3,1.5c-1.6,0-3-0.3-4.2-0.8c-1.2-0.5-2.2-1.2-3-2v-3.8H82l0.5,3c0.5,0.4,1.2,0.8,1.9,1.1s1.6,0.4,2.7,0.4
			c1.4,0,2.5-0.3,3.3-0.9c0.8-0.6,1.2-1.4,1.2-2.4c0-0.9-0.4-1.7-1.1-2.4c-0.7-0.6-2-1.2-3.8-1.6c-2.2-0.5-3.9-1.3-5.1-2.3
			s-1.8-2.3-1.8-3.8c0-1.6,0.7-3,2.1-4s3.1-1.6,5.3-1.6c1.4,0,2.8,0.2,3.9,0.7c1.2,0.5,2.1,1.1,2.9,1.8V905.1z"/>
		<path class="st2" d="M108.1,917.3c-0.5,0.8-1.1,1.5-1.9,1.9c-0.8,0.4-1.6,0.7-2.6,0.7c-1.7,0-3-0.5-3.9-1.6s-1.4-2.7-1.4-5v-6.8
			l-1.8-0.4v-1.8h1.8h2.8v9.1c0,1.6,0.2,2.8,0.7,3.4s1.2,0.9,2.3,0.9c1,0,1.8-0.2,2.5-0.6c0.6-0.4,1.1-1,1.5-1.7v-8.9l-2.1-0.4v-1.8
			h2.1h2.8v13.1l1.8,0.4v1.8h-4.3L108.1,917.3z"/>
		<path class="st2" d="M114.3,899.3v-1.8h5.1v19.9l2.3,0.4v1.8h-7.4v-1.8l2.3-0.4v-17.7L114.3,899.3z"/>
		<path class="st2" d="M123.5,899.3v-1.8h5.1v19.9l2.3,0.4v1.8h-7.4v-1.8l2.3-0.4v-17.7L123.5,899.3z"/>
		<path class="st2" d="M133,917.8l2.3-0.4v-10.9l-2.3-0.4v-1.8h5.1v13.1l2.3,0.4v1.8H133V917.8z M138.1,900.4h-2.8v-2.8h2.8V900.4z"
			/>
		<path class="st2" d="M147.8,906.1l-1.8,0.3l3.2,8.7l0.3,1.1h0.1l0.3-1.1l3.1-8.7l-1.9-0.3v-1.8h5.9v1.8l-1.3,0.2l-5.1,13.3h-2.1
			l-5.2-13.3l-1.3-0.2v-1.8h5.9V906.1z"/>
		<path class="st2" d="M168.5,919.6c-0.1-0.4-0.2-0.8-0.2-1.1c0-0.3-0.1-0.7-0.1-1c-0.5,0.7-1.2,1.3-2,1.7c-0.8,0.5-1.7,0.7-2.6,0.7
			c-1.6,0-2.8-0.4-3.6-1.2c-0.8-0.8-1.2-1.9-1.2-3.3c0-1.5,0.6-2.6,1.8-3.4c1.2-0.8,2.8-1.2,4.8-1.2h2.9v-1.8c0-0.9-0.3-1.6-0.8-2.1
			c-0.6-0.5-1.4-0.8-2.4-0.8c-0.7,0-1.3,0.1-1.8,0.3c-0.5,0.2-1,0.4-1.3,0.7l-0.3,1.6h-2.2v-3c0.7-0.6,1.5-1,2.5-1.3
			s2.1-0.5,3.2-0.5c1.7,0,3.1,0.4,4.2,1.3s1.6,2.2,1.6,3.8v7.4c0,0.2,0,0.4,0,0.6c0,0.2,0,0.4,0,0.6l1.1,0.2v1.8H168.5z M164,917.6
			c0.9,0,1.8-0.2,2.5-0.7c0.8-0.4,1.3-1,1.6-1.6v-2.5h-3c-1.1,0-2,0.3-2.7,0.8c-0.7,0.5-1,1.2-1,1.9c0,0.7,0.2,1.2,0.6,1.5
			C162.5,917.4,163.1,917.6,164,917.6z"/>
		<path class="st2" d="M174,917.8l2.3-0.4v-10.9l-2.3-0.4v-1.8h4.8l0.2,2.3c0.5-0.8,1.1-1.4,1.9-1.9c0.8-0.4,1.6-0.7,2.6-0.7
			c1.7,0,2.9,0.5,3.8,1.5s1.4,2.5,1.4,4.5v7.5l2.3,0.4v1.8h-7.4v-1.8l2.3-0.4V910c0-1.3-0.3-2.3-0.8-2.9c-0.5-0.6-1.3-0.8-2.4-0.8
			c-0.8,0-1.5,0.2-2.1,0.6c-0.6,0.4-1.1,0.9-1.5,1.6v9l2.3,0.4v1.8H174V917.8z"/>
		<path class="st2" d="M209.1,899c2.2,0,3.8,0.5,5,1.4c1.2,0.9,1.8,2.3,1.8,4.2c0,0.9-0.3,1.7-0.9,2.5c-0.6,0.7-1.3,1.3-2.3,1.6
			c1.2,0.3,2.2,0.9,2.9,1.8s1.1,2.1,1.1,3.3c0,1.9-0.6,3.3-1.8,4.3s-2.9,1.5-5,1.5h-9.9v-1.8l2.3-0.4v-16.2l-2.3-0.4V899h2.3H209.1z
			 M205.2,907.8h4.7c1,0,1.8-0.3,2.4-0.9c0.6-0.6,0.9-1.3,0.9-2.4c0-1.1-0.3-1.9-1-2.5c-0.7-0.6-1.7-0.8-3-0.8h-3.9V907.8z
			 M205.2,909.9v7.5h4.8c1.3,0,2.3-0.3,3-0.9c0.7-0.6,1.1-1.5,1.1-2.7c0-1.2-0.3-2.2-0.9-2.8c-0.6-0.7-1.5-1-2.7-1H205.2z"/>
		<path class="st2" d="M219,899.3v-1.8h5.1v19.9l2.3,0.4v1.8H219v-1.8l2.3-0.4v-17.7L219,899.3z"/>
		<path class="st2" d="M233.8,906.1l-1.8,0.3l3.2,8.7l0.3,1.1h0.1l0.3-1.1l3.1-8.7l-1.9-0.3v-1.8h5.9v1.8l-1.3,0.2l-5.1,13.3h-2.1
			l-5.2-13.3l-1.3-0.2v-1.8h5.9V906.1z"/>
		<path class="st2" d="M254.8,917.8c-0.5,0.7-1.1,1.2-1.8,1.6c-0.7,0.4-1.6,0.5-2.5,0.5c-1.9,0-3.3-0.7-4.4-2
			c-1.1-1.4-1.6-3.1-1.6-5.3v-0.3c0-2.5,0.5-4.5,1.6-6c1.1-1.5,2.5-2.3,4.4-2.3c0.9,0,1.7,0.2,2.4,0.5c0.7,0.3,1.3,0.8,1.8,1.5v-6.2
			l-2.3-0.4v-1.8h2.3h2.8v19.9l2.3,0.4v1.8h-4.7L254.8,917.8z M247.3,912.5c0,1.5,0.3,2.8,0.9,3.7s1.6,1.4,2.9,1.4
			c0.8,0,1.5-0.2,2.1-0.6c0.6-0.4,1-0.9,1.4-1.6v-7.1c-0.4-0.6-0.8-1.2-1.4-1.5s-1.3-0.6-2.1-0.6c-1.3,0-2.3,0.6-3,1.7
			c-0.6,1.1-1,2.5-1,4.3V912.5z"/>
		<path class="st2" d="M265.5,919.6h-2.8v-2.9h2.8V919.6z"/>
		<path class="st2" d="M62.4,952.5c0,3-0.9,5.5-2.6,7.5c-1.7,2-4,3-6.7,3c-2.7,0-4.8-1-6.5-3s-2.5-4.5-2.5-7.5v-0.3
			c0-3,0.8-5.5,2.5-7.5s3.8-3,6.5-3c2.7,0,5,1,6.7,3c1.7,2,2.6,4.5,2.6,7.5V952.5z M59.6,952.1c0-2.4-0.6-4.4-1.7-5.9
			c-1.1-1.5-2.7-2.3-4.8-2.3c-1.9,0-3.5,0.8-4.6,2.3c-1.1,1.5-1.6,3.5-1.6,5.9v0.3c0,2.4,0.5,4.4,1.6,5.9c1.1,1.5,2.6,2.3,4.6,2.3
			c2.1,0,3.7-0.8,4.8-2.3s1.7-3.5,1.7-5.9V952.1z"/>
		<path class="st2" d="M64.3,960.8l1.6-0.3l4.5-5.6l-4.4-5.5l-1.6-0.3v-1.8h6v1.8l-1.4,0.2l2.9,3.7l2.9-3.7l-1.4-0.2v-1.8h6v1.8
			l-1.6,0.3l-4.4,5.5l4.5,5.6l1.7,0.3v1.8h-6v-1.8l1.4-0.2l-3-3.9l-3,3.9l1.4,0.2v1.8h-6V960.8z"/>
		<path class="st2" d="M81.3,949.4v-2.1h2.4v-1.9c0-1.6,0.4-2.9,1.3-3.8c0.9-0.9,2-1.3,3.6-1.3c0.3,0,0.6,0,1,0.1
			c0.3,0.1,0.7,0.1,1.1,0.2l-0.3,2.1c-0.2,0-0.4-0.1-0.6-0.1c-0.2,0-0.5,0-0.7,0c-0.8,0-1.4,0.2-1.8,0.7s-0.6,1.2-0.6,2.1v1.9h3.2
			v2.1h-3.2v11.1l2.3,0.4v1.8h-7.4v-1.8l2.3-0.4v-11.1H81.3z"/>
		<path class="st2" d="M91.9,954.8c0-2.3,0.6-4.1,1.8-5.6s2.9-2.2,5-2.2c2.1,0,3.8,0.7,5,2.2c1.2,1.5,1.8,3.3,1.8,5.6v0.3
			c0,2.3-0.6,4.2-1.8,5.6c-1.2,1.5-2.9,2.2-5,2.2c-2.1,0-3.8-0.7-5-2.2c-1.2-1.5-1.8-3.3-1.8-5.6V954.8z M94.7,955.1
			c0,1.6,0.3,3,1,4c0.7,1.1,1.7,1.6,3.1,1.6c1.3,0,2.3-0.5,3-1.6c0.7-1.1,1-2.4,1-4v-0.3c0-1.6-0.3-2.9-1-4s-1.7-1.6-3-1.6
			s-2.4,0.5-3,1.6s-1,2.4-1,4V955.1z"/>
		<path class="st2" d="M108.2,949.1v-1.8h4.8l0.3,2.2c0.4-0.8,1-1.4,1.6-1.8c0.6-0.4,1.4-0.7,2.2-0.7c0.2,0,0.4,0,0.7,0
			c0.2,0,0.4,0.1,0.5,0.1l-0.4,2.6l-1.6-0.1c-0.7,0-1.4,0.2-1.9,0.5s-0.9,0.8-1.2,1.5v8.8l2.3,0.4v1.8h-7.4v-1.8l2.3-0.4v-10.9
			L108.2,949.1z"/>
		<path class="st2" d="M130.2,960.8c-0.5,0.7-1.1,1.2-1.8,1.6c-0.7,0.4-1.6,0.5-2.5,0.5c-1.9,0-3.3-0.7-4.4-2
			c-1.1-1.4-1.6-3.1-1.6-5.3v-0.3c0-2.5,0.5-4.5,1.6-6c1.1-1.5,2.5-2.3,4.4-2.3c0.9,0,1.7,0.2,2.4,0.5c0.7,0.3,1.3,0.8,1.8,1.5v-6.2
			l-2.3-0.4v-1.8h2.3h2.8v19.9l2.3,0.4v1.8h-4.7L130.2,960.8z M122.7,955.5c0,1.5,0.3,2.8,0.9,3.7s1.6,1.4,2.9,1.4
			c0.8,0,1.5-0.2,2.1-0.6c0.6-0.4,1-0.9,1.4-1.6v-7.1c-0.4-0.6-0.8-1.2-1.4-1.5s-1.3-0.6-2.1-0.6c-1.3,0-2.3,0.6-3,1.7
			c-0.6,1.1-1,2.5-1,4.3V955.5z"/>
		<path class="st2" d="M164.4,946.1L164.4,946.1l-6.7,16.5h-1.9l-6.7-16.5l-0.1,0l0.3,8.3v6l2.3,0.4v1.8h-7.4v-1.8l2.3-0.4v-16.2
			l-2.3-0.4V942h2.3h3.6l6.6,16.8h0.1l6.6-16.8h5.9v1.8l-2.3,0.4v16.2l2.3,0.4v1.8h-7.4v-1.8l2.3-0.4v-6L164.4,946.1z"/>
		<path class="st2" d="M171,960.8l1.5-0.2l7.2-18.6h2.4l7.1,18.6l1.5,0.2v1.8h-5.9v-1.8l1.6-0.3l-1.4-3.8h-8.3l-1.4,3.8l1.6,0.3v1.8
			H171V960.8z M177.6,954.4h6.5l-3.2-8.9h-0.1L177.6,954.4z"/>
		<path class="st2" d="M195.9,961.6c0,0.9-0.2,1.9-0.7,2.9c-0.5,1-1.1,1.9-1.9,2.5l-1.6-1c0.4-0.7,0.8-1.4,1-2.1s0.3-1.5,0.3-2.3
			v-2.2h2.8V961.6z"/>
		<path class="st2" d="M219.2,954.8c0,2.6-0.6,4.7-1.8,6.1c-1.2,1.4-2.8,2.1-4.8,2.1c-2,0-3.6-0.7-4.8-2.1s-1.8-3.4-1.8-6v-4.9
			c0-2.6,0.6-4.6,1.8-6.1s2.8-2.1,4.8-2.1c2,0,3.6,0.7,4.8,2.1s1.8,3.4,1.8,6.1V954.8z M216.5,949.3c0-1.8-0.3-3.1-1-4
			c-0.6-0.9-1.6-1.4-2.8-1.4c-1.2,0-2.1,0.5-2.8,1.4s-1,2.2-1,4v6c0,1.8,0.3,3.1,1,4s1.6,1.4,2.8,1.4c1.2,0,2.2-0.5,2.8-1.4
			c0.6-0.9,1-2.3,1-4.1V949.3z"/>
		<path class="st2" d="M222.7,960.8l3.2-0.4V945l-3.2,0.1v-1.7l6-1.3v18.4l3.2,0.4v1.8h-9.1V960.8z"/>
		<path class="st2" d="M244.5,946.1l-0.3-1.6h-6.2l-0.7,5.8c0.4-0.3,0.9-0.6,1.4-0.8c0.5-0.2,1.1-0.3,1.8-0.3c1.9,0,3.4,0.6,4.5,1.9
			c1.1,1.3,1.6,2.9,1.6,5.1c0,2.1-0.6,3.7-1.7,5c-1.1,1.3-2.7,1.9-4.8,1.9c-1.7,0-3.2-0.5-4.4-1.4c-1.2-1-1.7-2.4-1.7-4.2l0-0.1h2.5
			c0,1.1,0.3,2,1,2.6c0.6,0.6,1.5,0.9,2.5,0.9c1.2,0,2.1-0.4,2.7-1.2c0.7-0.8,1-2,1-3.4c0-1.3-0.3-2.4-1-3.3
			c-0.7-0.8-1.6-1.3-2.7-1.3c-1.1,0-1.9,0.2-2.4,0.5c-0.5,0.3-0.9,0.8-1.1,1.5l-2.3-0.2l1.2-11.3h10.9v4.1H244.5z"/>
		<path class="st2" d="M261.1,955.7h2.8v2.2h-2.8v2.6l2.3,0.4v1.8H256v-1.8l2.3-0.4v-2.6h-9.3v-1.6l9.1-14.3h2.9V955.7z
			 M252.1,955.7h6.3V946l-0.1,0l-0.3,0.8L252.1,955.7z"/>
		<path class="st2" d="M279.8,954.8c0,2.6-0.6,4.7-1.8,6.1c-1.2,1.4-2.8,2.1-4.8,2.1c-2,0-3.6-0.7-4.8-2.1s-1.8-3.4-1.8-6v-4.9
			c0-2.6,0.6-4.6,1.8-6.1s2.8-2.1,4.8-2.1c2,0,3.6,0.7,4.8,2.1s1.8,3.4,1.8,6.1V954.8z M277.1,949.3c0-1.8-0.3-3.1-1-4
			c-0.6-0.9-1.6-1.4-2.8-1.4c-1.2,0-2.1,0.5-2.8,1.4s-1,2.2-1,4v6c0,1.8,0.3,3.1,1,4s1.6,1.4,2.8,1.4c1.2,0,2.2-0.5,2.8-1.4
			c0.6-0.9,1-2.3,1-4.1V949.3z"/>
	</g>
</g>
</svg>
