<?xml version="1.0" encoding="utf-8"?>
<!-- Generator: Adobe Illustrator 23.0.4, SVG Export Plug-In . SVG Version: 6.00 Build 0)  -->
<svg version="1.1" xmlns="http://www.w3.org/2000/svg" xmlns:xlink="http://www.w3.org/1999/xlink" x="0px" y="0px"
	 viewBox="0 0 576.9 1576.4" style="enable-background:new 0 0 576.9 1576.4;" xml:space="preserve">
<style type="text/css">
	.st0{fill:#353535;}
	.st1{fill:#FF0000;}
	.st2{fill:#FFFFFF;}
</style>
<g id="Layer_1">
	<g id="banner">
		<polygon class="st0" points="0,0 0,1454.9 288.5,1573.9 576.9,1454.9 576.9,0 		"/>
		<polygon class="st1" points="0,1389.9 0,1464 288.5,1576.4 576.9,1464 576.9,1389.9 		"/>
	</g>
</g>
<g id="Layer_2">
	<g>
		<path class="st2" d="M54.7,227.4H39l-2.5,8H24.7l16.2-46.3h12.1l16.2,46.3H57.3L54.7,227.4z M51.8,218.2l-5-15.4l-5,15.4H51.8z"/>
		<path class="st2" d="M83.8,184.5v22.6c2.4-2.7,5.4-4.1,9-4.1c2.1,0,4.1,0.4,5.9,1.3c1.8,0.9,3.3,2.1,4.6,3.6
			c1.3,1.5,2.2,3.3,3,5.3c0.7,2,1.1,4.2,1.1,6.5c0,2.3-0.4,4.5-1.1,6.6c-0.7,2-1.8,3.8-3.1,5.3c-1.3,1.5-2.9,2.7-4.6,3.6
			c-1.8,0.9-3.7,1.3-5.8,1.3c-3.8,0-6.7-1.5-8.9-4.5v3.5H73.6v-50.9H83.8z M96.6,219.8c0-1-0.2-1.9-0.5-2.8
			c-0.3-0.9-0.8-1.6-1.4-2.3c-0.6-0.7-1.3-1.2-2.1-1.6c-0.8-0.4-1.7-0.6-2.6-0.6c-0.9,0-1.7,0.2-2.5,0.6c-0.8,0.4-1.5,0.9-2.1,1.5
			c-0.6,0.7-1.1,1.4-1.4,2.3c-0.4,0.9-0.5,1.8-0.5,2.8c0,1,0.2,1.9,0.5,2.8c0.3,0.9,0.8,1.6,1.4,2.2c0.6,0.6,1.3,1.1,2.1,1.5
			c0.8,0.4,1.7,0.6,2.6,0.6c0.9,0,1.7-0.2,2.5-0.6c0.8-0.4,1.5-0.9,2.1-1.5c0.6-0.7,1.1-1.4,1.4-2.3
			C96.4,221.6,96.6,220.7,96.6,219.8z"/>
		<path class="st2" d="M111.9,219.4c0-2.3,0.4-4.5,1.3-6.5c0.9-2,2.1-3.8,3.6-5.3c1.5-1.5,3.4-2.7,5.5-3.5c2.1-0.9,4.4-1.3,7-1.3
			c2.5,0,4.8,0.4,6.9,1.3c2.1,0.8,4,2,5.5,3.5c1.6,1.5,2.8,3.3,3.6,5.3c0.9,2.1,1.3,4.3,1.3,6.8c0,2.5-0.4,4.8-1.3,6.8
			c-0.9,2.1-2.1,3.8-3.6,5.3c-1.5,1.5-3.4,2.6-5.5,3.5c-2.2,0.8-4.5,1.2-7,1.2c-2.5,0-4.8-0.4-6.9-1.2c-2.1-0.8-3.9-2-5.4-3.5
			c-1.5-1.5-2.7-3.3-3.6-5.4C112.4,224.3,111.9,222,111.9,219.4z M122.7,219.5c0,1.1,0.2,2,0.5,2.9c0.4,0.9,0.8,1.6,1.4,2.3
			c0.6,0.7,1.3,1.2,2.1,1.5c0.8,0.4,1.7,0.6,2.6,0.6s1.8-0.2,2.6-0.6c0.8-0.4,1.5-0.9,2.1-1.5c0.6-0.7,1.1-1.4,1.4-2.3
			c0.4-0.9,0.5-1.8,0.5-2.9c0-1-0.2-1.9-0.5-2.8c-0.4-0.9-0.8-1.6-1.4-2.3c-0.6-0.7-1.3-1.2-2.1-1.5c-0.8-0.4-1.7-0.6-2.6-0.6
			s-1.8,0.2-2.6,0.6c-0.8,0.4-1.5,0.9-2.1,1.5c-0.6,0.7-1.1,1.4-1.4,2.3C122.9,217.6,122.7,218.5,122.7,219.5z"/>
		<path class="st2" d="M162.7,203.9v17.7c0,3.9,1.7,5.8,5.2,5.8c3.5,0,5.2-1.9,5.2-5.8v-17.7h10.2v19.9c0,4.3-1.3,7.4-3.9,9.6
			c-2.6,2.1-6.4,3.2-11.5,3.2c-5.1,0-8.9-1.1-11.5-3.2c-2.6-2.1-3.9-5.3-3.9-9.6v-19.9H162.7z"/>
		<path class="st2" d="M201.6,213.2v22.2h-10.2v-22.2H188v-9.3h3.4v-9.5h10.2v9.5h5.8v9.3H201.6z"/>
		<path class="st2" d="M229.4,235.4l7.2-46.3h10.9l8.5,24.7l8.5-24.7h10.9l7.2,46.3h-11l-3.7-26.6l-10,26.6h-4.4l-9.5-26.6
			l-3.7,26.6H229.4z"/>
		<path class="st2" d="M296.3,221.5c0,4.8,2.1,7.2,6.2,7.2c2.2,0,3.9-1,5-2.9h9.9c-2,7.2-7,10.8-14.9,10.8c-2.4,0-4.7-0.4-6.7-1.2
			c-2-0.8-3.8-1.9-5.2-3.4c-1.4-1.5-2.6-3.2-3.4-5.3c-0.8-2-1.2-4.3-1.2-6.9c0-2.6,0.4-5,1.1-7.1c0.8-2.1,1.8-3.9,3.2-5.4
			c1.4-1.5,3.1-2.6,5-3.4s4.2-1.2,6.7-1.2c2.4,0,4.6,0.4,6.6,1.2c2,0.8,3.6,2,5,3.5c1.4,1.5,2.4,3.4,3.1,5.6
			c0.7,2.2,1.1,4.7,1.1,7.4v1.2H296.3z M308.3,215.1c-0.3-1.6-1-2.8-2.1-3.7c-1.1-0.9-2.3-1.4-3.8-1.4c-1.6,0-2.9,0.5-3.9,1.4
			c-1,0.9-1.6,2.2-1.9,3.8H308.3z"/>
	</g>
	<g>
		<path class="st2" d="M55.3,296.1h-9.8l-2.5,5.5h-3.7l11.3-24.2l10.9,24.2h-3.8L55.3,296.1z M53.9,292.8l-3.4-7.8l-3.5,7.8H53.9z"
			/>
		<path class="st2" d="M72,289.7l-2.7,1.5c-0.4-0.9-1-1.3-1.6-1.3c-0.3,0-0.6,0.1-0.8,0.3c-0.2,0.2-0.3,0.5-0.3,0.8
			c0,0.6,0.6,1.1,1.9,1.6c1.8,0.8,2.9,1.5,3.6,2.1c0.6,0.6,0.9,1.5,0.9,2.6c0,1.4-0.5,2.6-1.5,3.5c-1,0.9-2.2,1.3-3.6,1.3
			c-2.4,0-4.1-1.2-5.1-3.5l2.8-1.3c0.4,0.7,0.7,1.1,0.9,1.3c0.4,0.4,0.9,0.6,1.4,0.6c1.1,0,1.7-0.5,1.7-1.5c0-0.6-0.4-1.1-1.3-1.7
			c-0.3-0.2-0.7-0.3-1-0.5c-0.3-0.2-0.7-0.3-1-0.5c-1-0.5-1.6-0.9-2-1.4c-0.5-0.6-0.8-1.4-0.8-2.3c0-1.3,0.4-2.3,1.3-3.1
			c0.9-0.8,1.9-1.2,3.2-1.2C69.7,286.8,71.1,287.8,72,289.7z"/>
		<path class="st2" d="M95.8,287.2h3.3v14.4h-3.3v-1.5c-1.4,1.3-2.8,1.9-4.4,1.9c-2,0-3.6-0.7-4.9-2.2c-1.3-1.5-1.9-3.3-1.9-5.5
			c0-2.2,0.6-4,1.9-5.4c1.3-1.4,2.9-2.2,4.8-2.2c1.7,0,3.2,0.7,4.5,2.1V287.2z M88,294.4c0,1.4,0.4,2.5,1.1,3.4
			c0.8,0.9,1.7,1.3,2.9,1.3c1.2,0,2.2-0.4,3-1.3c0.8-0.9,1.1-2,1.1-3.3c0-1.3-0.4-2.5-1.1-3.3c-0.8-0.9-1.7-1.3-3-1.3
			c-1.1,0-2.1,0.4-2.9,1.3C88.3,292,88,293.1,88,294.4z"/>
		<path class="st2" d="M121.1,289.7l-2.7,1.5c-0.4-0.9-1-1.3-1.6-1.3c-0.3,0-0.6,0.1-0.8,0.3c-0.2,0.2-0.3,0.5-0.3,0.8
			c0,0.6,0.6,1.1,1.9,1.6c1.8,0.8,2.9,1.5,3.6,2.1c0.6,0.6,0.9,1.5,0.9,2.6c0,1.4-0.5,2.6-1.5,3.5c-1,0.9-2.2,1.3-3.6,1.3
			c-2.4,0-4.1-1.2-5.1-3.5l2.8-1.3c0.4,0.7,0.7,1.1,0.9,1.3c0.4,0.4,0.9,0.6,1.4,0.6c1.1,0,1.7-0.5,1.7-1.5c0-0.6-0.4-1.1-1.3-1.7
			c-0.3-0.2-0.7-0.3-1-0.5c-0.3-0.2-0.7-0.3-1-0.5c-1-0.5-1.6-0.9-2-1.4c-0.5-0.6-0.8-1.4-0.8-2.3c0-1.3,0.4-2.3,1.3-3.1
			c0.9-0.8,1.9-1.2,3.2-1.2C118.8,286.8,120.2,287.8,121.1,289.7z"/>
		<path class="st2" d="M124.3,294.3c0-2.1,0.7-3.8,2.2-5.3c1.5-1.5,3.3-2.2,5.4-2.2c2.1,0,4,0.7,5.5,2.2c1.5,1.5,2.2,3.3,2.2,5.4
			c0,2.2-0.7,4-2.2,5.4c-1.5,1.4-3.3,2.2-5.5,2.2c-2.2,0-4-0.7-5.4-2.2C125,298.3,124.3,296.5,124.3,294.3z M127.7,294.4
			c0,1.4,0.4,2.6,1.2,3.4c0.8,0.8,1.8,1.3,3.1,1.3c1.3,0,2.3-0.4,3.1-1.3c0.8-0.8,1.2-2,1.2-3.4c0-1.4-0.4-2.5-1.2-3.4
			c-0.8-0.8-1.8-1.3-3.1-1.3c-1.3,0-2.3,0.4-3.1,1.3C128.1,291.9,127.7,293,127.7,294.4z"/>
		<path class="st2" d="M146.5,309.4h-3.3v-22.2h3.3v1.6c1.3-1.3,2.8-2,4.5-2c2,0,3.6,0.7,4.9,2.2c1.3,1.4,1.9,3.3,1.9,5.5
			c0,2.2-0.6,4-1.9,5.4c-1.3,1.4-2.9,2.1-4.8,2.1c-1.7,0-3.2-0.7-4.5-2V309.4z M154.4,294.5c0-1.4-0.4-2.5-1.1-3.4
			c-0.8-0.9-1.7-1.3-2.9-1.3c-1.2,0-2.2,0.4-3,1.3c-0.8,0.8-1.1,2-1.1,3.3c0,1.3,0.4,2.5,1.1,3.3c0.7,0.9,1.7,1.3,3,1.3
			c1.2,0,2.1-0.4,2.9-1.3C154,296.9,154.4,295.8,154.4,294.5z"/>
		<path class="st2" d="M161.3,276.7h3.3v11.8c1.2-1.1,2.5-1.6,3.9-1.6c1.6,0,2.9,0.5,3.9,1.6c0.8,0.9,1.2,2.4,1.2,4.4v8.8h-3.3v-8.5
			c0-1.2-0.2-2-0.6-2.5c-0.4-0.5-1.1-0.8-2-0.8c-1.2,0-2,0.4-2.5,1.1c-0.5,0.7-0.7,2-0.7,3.8v7h-3.3V276.7z"/>
		<path class="st2" d="M177.2,294.3c0-2.1,0.7-3.8,2.2-5.3c1.5-1.5,3.3-2.2,5.4-2.2c2.1,0,4,0.7,5.5,2.2c1.5,1.5,2.2,3.3,2.2,5.4
			c0,2.2-0.7,4-2.2,5.4c-1.5,1.4-3.3,2.2-5.5,2.2c-2.2,0-4-0.7-5.4-2.2C177.9,298.3,177.2,296.5,177.2,294.3z M180.6,294.4
			c0,1.4,0.4,2.6,1.2,3.4c0.8,0.8,1.8,1.3,3.1,1.3c1.3,0,2.3-0.4,3.1-1.3c0.8-0.8,1.2-2,1.2-3.4c0-1.4-0.4-2.5-1.2-3.4
			c-0.8-0.8-1.8-1.3-3.1-1.3c-1.3,0-2.3,0.4-3.1,1.3C181,291.9,180.6,293,180.6,294.4z"/>
		<path class="st2" d="M196.1,287.2h3.3v1.3c0.6-0.7,1.2-1.1,1.6-1.4c0.5-0.2,1.1-0.4,1.8-0.4c1.6,0,2.9,0.7,3.9,2.1
			c1-1.4,2.5-2.1,4.2-2.1c3.2,0,4.9,2,4.9,5.9v8.9h-3.3v-8c0-1.4-0.2-2.4-0.5-2.9c-0.3-0.6-0.9-0.9-1.7-0.9c-0.9,0-1.6,0.3-2,1
			c-0.4,0.7-0.6,1.8-0.6,3.3v7.4h-3.3v-7.9c0-2.6-0.7-3.8-2.2-3.8c-0.9,0-1.6,0.3-2,1c-0.4,0.7-0.6,1.8-0.6,3.3v7.4h-3.3V287.2z"/>
		<path class="st2" d="M219.3,294.3c0-2.1,0.7-3.8,2.2-5.3c1.5-1.5,3.3-2.2,5.4-2.2c2.1,0,4,0.7,5.5,2.2c1.5,1.5,2.2,3.3,2.2,5.4
			c0,2.2-0.7,4-2.2,5.4c-1.5,1.4-3.3,2.2-5.5,2.2c-2.2,0-4-0.7-5.4-2.2C220,298.3,219.3,296.5,219.3,294.3z M222.7,294.4
			c0,1.4,0.4,2.6,1.2,3.4c0.8,0.8,1.8,1.3,3.1,1.3c1.3,0,2.3-0.4,3.1-1.3c0.8-0.8,1.2-2,1.2-3.4c0-1.4-0.4-2.5-1.2-3.4
			c-0.8-0.8-1.8-1.3-3.1-1.3c-1.3,0-2.3,0.4-3.1,1.3C223.1,291.9,222.7,293,222.7,294.4z"/>
		<path class="st2" d="M238.2,287.2h3.3v1.3c0.6-0.6,1.2-1.1,1.6-1.3c0.5-0.2,1.1-0.4,1.7-0.4c0.9,0,1.8,0.3,2.7,0.9l-1.5,3
			c-0.6-0.5-1.2-0.7-1.8-0.7c-1.8,0-2.7,1.4-2.7,4.1v7.5h-3.3V287.2z"/>
		<path class="st2" d="M262.4,295.2h-10.3c0.1,1.2,0.5,2.1,1.2,2.8c0.7,0.7,1.6,1,2.6,1c0.8,0,1.5-0.2,2.1-0.6
			c0.5-0.4,1.1-1.1,1.8-2.2l2.8,1.6c-0.4,0.7-0.9,1.4-1.4,1.9c-0.5,0.5-1,1-1.6,1.3c-0.6,0.3-1.1,0.6-1.8,0.7
			c-0.6,0.2-1.3,0.2-2.1,0.2c-2.1,0-3.9-0.7-5.2-2.1c-1.3-1.4-1.9-3.2-1.9-5.5c0-2.3,0.6-4.1,1.9-5.5c1.3-1.4,3-2.1,5.1-2.1
			c2.1,0,3.8,0.7,5,2c1.2,1.3,1.8,3.2,1.8,5.6L262.4,295.2z M259,292.5c-0.5-1.8-1.6-2.7-3.4-2.7c-0.4,0-0.8,0.1-1.1,0.2
			c-0.4,0.1-0.7,0.3-1,0.5c-0.3,0.2-0.5,0.5-0.7,0.8c-0.2,0.3-0.4,0.7-0.5,1.1H259z"/>
		<path class="st2" d="M274.8,281.2c0-0.6,0.2-1.1,0.6-1.5c0.4-0.4,0.9-0.6,1.5-0.6c0.6,0,1.1,0.2,1.5,0.6c0.4,0.4,0.6,0.9,0.6,1.5
			c0,0.6-0.2,1.1-0.6,1.5c-0.4,0.4-0.9,0.6-1.5,0.6c-0.6,0-1.1-0.2-1.5-0.6C275,282.4,274.8,281.8,274.8,281.2z M278.7,287.2v14.4
			h-3.3v-14.4H278.7z"/>
		<path class="st2" d="M282.9,287.2h3.3v1.3c1.2-1.2,2.5-1.7,3.9-1.7c1.7,0,3,0.5,3.9,1.6c0.8,0.9,1.2,2.4,1.2,4.4v8.8h-3.3v-8
			c0-1.4-0.2-2.4-0.6-2.9c-0.4-0.6-1.1-0.8-2.1-0.8c-1.1,0-1.9,0.4-2.3,1.1c-0.5,0.7-0.7,2-0.7,3.8v6.9h-3.3V287.2z"/>
		<path class="st2" d="M308.8,287.2h3.3v1.3c0.6-0.7,1.2-1.1,1.6-1.4c0.5-0.2,1.1-0.4,1.8-0.4c1.6,0,2.9,0.7,3.9,2.1
			c1-1.4,2.5-2.1,4.2-2.1c3.2,0,4.9,2,4.9,5.9v8.9h-3.3v-8c0-1.4-0.2-2.4-0.5-2.9c-0.3-0.6-0.9-0.9-1.7-0.9c-0.9,0-1.6,0.3-2,1
			c-0.4,0.7-0.6,1.8-0.6,3.3v7.4H317v-7.9c0-2.6-0.7-3.8-2.2-3.8c-0.9,0-1.6,0.3-2,1c-0.4,0.7-0.6,1.8-0.6,3.3v7.4h-3.3V287.2z"/>
		<path class="st2" d="M336.8,298.9l-6.5-11.7h3.9l4.4,8.3l4.1-8.3h3.8l-11.5,22.2h-3.8L336.8,298.9z"/>
		<path class="st2" d="M366.4,289.7l-2.7,1.5c-0.4-0.9-1-1.3-1.6-1.3c-0.3,0-0.6,0.1-0.8,0.3c-0.2,0.2-0.3,0.5-0.3,0.8
			c0,0.6,0.6,1.1,1.9,1.6c1.8,0.8,2.9,1.5,3.6,2.1c0.6,0.6,0.9,1.5,0.9,2.6c0,1.4-0.5,2.6-1.5,3.5c-1,0.9-2.2,1.3-3.6,1.3
			c-2.4,0-4.1-1.2-5.1-3.5l2.8-1.3c0.4,0.7,0.7,1.1,0.9,1.3c0.4,0.4,0.9,0.6,1.4,0.6c1.1,0,1.7-0.5,1.7-1.5c0-0.6-0.4-1.1-1.3-1.7
			c-0.3-0.2-0.7-0.3-1-0.5c-0.3-0.2-0.7-0.3-1-0.5c-1-0.5-1.6-0.9-2-1.4c-0.5-0.6-0.8-1.4-0.8-2.3c0-1.3,0.4-2.3,1.3-3.1
			c0.9-0.8,1.9-1.2,3.2-1.2C364.1,286.8,365.5,287.8,366.4,289.7z"/>
		<path class="st2" d="M383.4,295.2h-10.3c0.1,1.2,0.5,2.1,1.2,2.8c0.7,0.7,1.6,1,2.6,1c0.8,0,1.5-0.2,2.1-0.6
			c0.5-0.4,1.1-1.1,1.8-2.2l2.8,1.6c-0.4,0.7-0.9,1.4-1.4,1.9c-0.5,0.5-1,1-1.6,1.3c-0.6,0.3-1.1,0.6-1.8,0.7
			c-0.6,0.2-1.3,0.2-2.1,0.2c-2.1,0-3.9-0.7-5.2-2.1c-1.3-1.4-1.9-3.2-1.9-5.5c0-2.3,0.6-4.1,1.9-5.5c1.3-1.4,3-2.1,5.1-2.1
			c2.1,0,3.8,0.7,5,2c1.2,1.3,1.8,3.2,1.8,5.6L383.4,295.2z M380,292.5c-0.5-1.8-1.6-2.7-3.4-2.7c-0.4,0-0.8,0.1-1.1,0.2
			c-0.4,0.1-0.7,0.3-1,0.5c-0.3,0.2-0.5,0.5-0.7,0.8s-0.4,0.7-0.5,1.1H380z"/>
		<path class="st2" d="M398.2,287.8v4.4c-0.8-0.9-1.4-1.6-2-1.9c-0.6-0.4-1.3-0.5-2.1-0.5c-1.3,0-2.3,0.4-3.1,1.3
			c-0.8,0.9-1.2,2-1.2,3.3c0,1.3,0.4,2.5,1.2,3.3c0.8,0.9,1.8,1.3,3.1,1.3c0.8,0,1.5-0.2,2.1-0.5c0.6-0.3,1.3-1,2.1-1.9v4.4
			c-1.3,0.7-2.7,1-4,1c-2.2,0-4.1-0.7-5.6-2.2c-1.5-1.4-2.2-3.2-2.2-5.4c0-2.1,0.8-4,2.3-5.4c1.5-1.5,3.4-2.2,5.6-2.2
			C395.6,286.8,396.9,287.2,398.2,287.8z"/>
		<path class="st2" d="M400.7,294.3c0-2.1,0.7-3.8,2.2-5.3c1.5-1.5,3.3-2.2,5.4-2.2c2.1,0,4,0.7,5.5,2.2c1.5,1.5,2.2,3.3,2.2,5.4
			c0,2.2-0.7,4-2.2,5.4c-1.5,1.4-3.3,2.2-5.5,2.2c-2.2,0-4-0.7-5.4-2.2C401.5,298.3,400.7,296.5,400.7,294.3z M404.1,294.4
			c0,1.4,0.4,2.6,1.2,3.4c0.8,0.8,1.8,1.3,3.1,1.3c1.3,0,2.3-0.4,3.1-1.3c0.8-0.8,1.2-2,1.2-3.4c0-1.4-0.4-2.5-1.2-3.4
			c-0.8-0.8-1.8-1.3-3.1-1.3c-1.3,0-2.3,0.4-3.1,1.3C404.5,291.9,404.1,293,404.1,294.4z"/>
		<path class="st2" d="M419.6,287.2h3.3v1.3c1.2-1.2,2.5-1.7,3.9-1.7c1.7,0,3,0.5,3.9,1.6c0.8,0.9,1.2,2.4,1.2,4.4v8.8h-3.3v-8
			c0-1.4-0.2-2.4-0.6-2.9c-0.4-0.6-1.1-0.8-2.1-0.8c-1.1,0-1.9,0.4-2.3,1.1c-0.5,0.7-0.7,2-0.7,3.8v6.9h-3.3V287.2z"/>
		<path class="st2" d="M446.8,276.7h3.3v24.9h-3.3v-1.5c-1.3,1.3-2.8,1.9-4.4,1.9c-2,0-3.6-0.7-4.9-2.2c-1.3-1.5-1.9-3.3-1.9-5.5
			c0-2.1,0.6-3.9,1.9-5.4c1.3-1.4,2.9-2.2,4.8-2.2c1.7,0,3.2,0.7,4.5,2.1V276.7z M438.9,294.4c0,1.4,0.4,2.5,1.1,3.4
			c0.8,0.9,1.7,1.3,2.9,1.3c1.2,0,2.2-0.4,3-1.3c0.8-0.9,1.1-2,1.1-3.3c0-1.3-0.4-2.5-1.1-3.3c-0.8-0.9-1.7-1.3-3-1.3
			c-1.1,0-2.1,0.4-2.9,1.3C439.3,292,438.9,293.1,438.9,294.4z"/>
		<path class="st2" d="M49.6,326l-2.7,1.5c-0.4-0.9-1-1.3-1.6-1.3c-0.3,0-0.6,0.1-0.8,0.3c-0.2,0.2-0.3,0.5-0.3,0.8
			c0,0.6,0.6,1.1,1.9,1.6c1.8,0.8,2.9,1.5,3.6,2.1c0.6,0.6,0.9,1.5,0.9,2.6c0,1.4-0.5,2.6-1.5,3.5c-1,0.9-2.2,1.3-3.6,1.3
			c-2.4,0-4.1-1.2-5.1-3.5l2.8-1.3c0.4,0.7,0.7,1.1,0.9,1.3c0.4,0.4,0.9,0.6,1.4,0.6c1.1,0,1.7-0.5,1.7-1.5c0-0.6-0.4-1.1-1.3-1.7
			c-0.3-0.2-0.7-0.3-1-0.5c-0.3-0.2-0.7-0.3-1-0.5c-1-0.5-1.6-0.9-2-1.4c-0.5-0.6-0.8-1.4-0.8-2.3c0-1.3,0.4-2.3,1.3-3.1
			c0.9-0.8,1.9-1.2,3.2-1.2C47.3,323.1,48.7,324.1,49.6,326z"/>
		<path class="st2" d="M66.6,331.5H56.3c0.1,1.2,0.5,2.1,1.2,2.8c0.7,0.7,1.6,1,2.6,1c0.8,0,1.5-0.2,2.1-0.6
			c0.5-0.4,1.1-1.1,1.8-2.2l2.8,1.6c-0.4,0.7-0.9,1.4-1.4,1.9c-0.5,0.5-1,1-1.6,1.3c-0.6,0.3-1.1,0.6-1.8,0.7
			c-0.6,0.2-1.3,0.2-2.1,0.2c-2.1,0-3.9-0.7-5.2-2.1c-1.3-1.4-1.9-3.2-1.9-5.5c0-2.3,0.6-4.1,1.9-5.5c1.3-1.4,3-2.1,5.1-2.1
			c2.1,0,3.8,0.7,5,2c1.2,1.3,1.8,3.2,1.8,5.6L66.6,331.5z M63.2,328.8c-0.5-1.8-1.6-2.7-3.4-2.7c-0.4,0-0.8,0.1-1.1,0.2
			c-0.4,0.1-0.7,0.3-1,0.5c-0.3,0.2-0.5,0.5-0.7,0.8c-0.2,0.3-0.4,0.7-0.5,1.1H63.2z"/>
		<path class="st2" d="M70.2,323.5h3.3v1.3c0.6-0.7,1.2-1.1,1.6-1.4c0.5-0.2,1.1-0.4,1.8-0.4c1.6,0,2.9,0.7,3.9,2.1
			c1-1.4,2.5-2.1,4.2-2.1c3.2,0,4.9,2,4.9,5.9v8.9h-3.3v-8c0-1.4-0.2-2.4-0.5-2.9c-0.3-0.6-0.9-0.9-1.7-0.9c-0.9,0-1.6,0.3-2,1
			c-0.4,0.7-0.6,1.8-0.6,3.3v7.4h-3.3v-7.9c0-2.6-0.7-3.8-2.2-3.8c-0.9,0-1.6,0.3-2,1c-0.4,0.7-0.6,1.8-0.6,3.3v7.4h-3.3V323.5z"/>
		<path class="st2" d="M107.3,331.5H96.9c0.1,1.2,0.5,2.1,1.2,2.8c0.7,0.7,1.6,1,2.6,1c0.8,0,1.5-0.2,2.1-0.6
			c0.5-0.4,1.1-1.1,1.8-2.2l2.8,1.6c-0.4,0.7-0.9,1.4-1.4,1.9c-0.5,0.5-1,1-1.6,1.3c-0.6,0.3-1.1,0.6-1.8,0.7
			c-0.6,0.2-1.3,0.2-2.1,0.2c-2.1,0-3.9-0.7-5.2-2.1c-1.3-1.4-1.9-3.2-1.9-5.5c0-2.3,0.6-4.1,1.9-5.5c1.3-1.4,3-2.1,5.1-2.1
			c2.1,0,3.8,0.7,5,2c1.2,1.3,1.8,3.2,1.8,5.6L107.3,331.5z M103.8,328.8c-0.5-1.8-1.6-2.7-3.4-2.7c-0.4,0-0.8,0.1-1.1,0.2
			c-0.4,0.1-0.7,0.3-1,0.5c-0.3,0.2-0.5,0.5-0.7,0.8c-0.2,0.3-0.4,0.7-0.5,1.1H103.8z"/>
		<path class="st2" d="M119.2,326l-2.7,1.5c-0.4-0.9-1-1.3-1.6-1.3c-0.3,0-0.6,0.1-0.8,0.3c-0.2,0.2-0.3,0.5-0.3,0.8
			c0,0.6,0.6,1.1,1.9,1.6c1.8,0.8,2.9,1.5,3.6,2.1c0.6,0.6,0.9,1.5,0.9,2.6c0,1.4-0.5,2.6-1.5,3.5c-1,0.9-2.2,1.3-3.6,1.3
			c-2.4,0-4.1-1.2-5.1-3.5l2.8-1.3c0.4,0.7,0.7,1.1,0.9,1.3c0.4,0.4,0.9,0.6,1.4,0.6c1.1,0,1.7-0.5,1.7-1.5c0-0.6-0.4-1.1-1.3-1.7
			c-0.3-0.2-0.7-0.3-1-0.5c-0.3-0.2-0.7-0.3-1-0.5c-1-0.5-1.6-0.9-2-1.4c-0.5-0.6-0.8-1.4-0.8-2.3c0-1.3,0.4-2.3,1.3-3.1
			c0.9-0.8,1.9-1.2,3.2-1.2C117,323.1,118.4,324.1,119.2,326z"/>
		<path class="st2" d="M126.6,326.6v11.3h-3.3v-11.3h-1.4v-3.1h1.4v-5.3h3.3v5.3h2.6v3.1H126.6z"/>
		<path class="st2" d="M144.8,331.5h-10.3c0.1,1.2,0.5,2.1,1.2,2.8c0.7,0.7,1.6,1,2.6,1c0.8,0,1.5-0.2,2.1-0.6
			c0.5-0.4,1.1-1.1,1.8-2.2l2.8,1.6c-0.4,0.7-0.9,1.4-1.4,1.9c-0.5,0.5-1,1-1.6,1.3c-0.6,0.3-1.1,0.6-1.8,0.7
			c-0.6,0.2-1.3,0.2-2.1,0.2c-2.1,0-3.9-0.7-5.2-2.1c-1.3-1.4-1.9-3.2-1.9-5.5c0-2.3,0.6-4.1,1.9-5.5c1.3-1.4,3-2.1,5.1-2.1
			c2.1,0,3.8,0.7,5,2c1.2,1.3,1.8,3.2,1.8,5.6L144.8,331.5z M141.4,328.8c-0.5-1.8-1.6-2.7-3.4-2.7c-0.4,0-0.8,0.1-1.1,0.2
			c-0.4,0.1-0.7,0.3-1,0.5c-0.3,0.2-0.5,0.5-0.7,0.8c-0.2,0.3-0.4,0.7-0.5,1.1H141.4z"/>
		<path class="st2" d="M148.4,323.5h3.3v1.3c0.6-0.6,1.2-1.1,1.6-1.3c0.5-0.2,1.1-0.4,1.7-0.4c0.9,0,1.8,0.3,2.7,0.9l-1.5,3
			c-0.6-0.5-1.2-0.7-1.8-0.7c-1.8,0-2.7,1.4-2.7,4.1v7.5h-3.3V323.5z"/>
		<path class="st2" d="M179.7,323.5h3.3v14.4h-3.3v-1.5c-1.4,1.3-2.8,1.9-4.4,1.9c-2,0-3.6-0.7-4.9-2.2c-1.3-1.5-1.9-3.3-1.9-5.5
			c0-2.2,0.6-4,1.9-5.4c1.3-1.4,2.9-2.2,4.8-2.2c1.7,0,3.2,0.7,4.5,2.1V323.5z M171.8,330.7c0,1.4,0.4,2.5,1.1,3.4
			c0.8,0.9,1.7,1.3,2.9,1.3c1.2,0,2.2-0.4,3-1.3c0.8-0.9,1.1-2,1.1-3.3c0-1.3-0.4-2.5-1.1-3.3c-0.8-0.9-1.7-1.3-3-1.3
			c-1.1,0-2.1,0.4-2.9,1.3C172.2,328.3,171.8,329.4,171.8,330.7z"/>
		<path class="st2" d="M190.6,326.6v11.3h-3.3v-11.3h-1.4v-3.1h1.4v-5.3h3.3v5.3h2.6v3.1H190.6z"/>
		<path class="st2" d="M208.9,315.1v13.7c0,2,0.3,3.4,1,4.3c1,1.3,2.3,2,4,2c1.7,0,3.1-0.7,4-2c0.6-0.9,1-2.3,1-4.3v-13.7h3.4v14.7
			c0,2.4-0.7,4.4-2.2,5.9c-1.7,1.7-3.8,2.6-6.2,2.6s-4.5-0.9-6.2-2.6c-1.5-1.6-2.2-3.5-2.2-5.9v-14.7H208.9z"/>
		<path class="st2" d="M227.4,323.5h3.3v1.3c0.6-0.7,1.2-1.1,1.6-1.4c0.5-0.2,1.1-0.4,1.8-0.4c1.6,0,2.9,0.7,3.9,2.1
			c1-1.4,2.5-2.1,4.2-2.1c3.2,0,4.9,2,4.9,5.9v8.9h-3.3v-8c0-1.4-0.2-2.4-0.5-2.9c-0.3-0.6-0.9-0.9-1.7-0.9c-0.9,0-1.6,0.3-2,1
			c-0.4,0.7-0.6,1.8-0.6,3.3v7.4h-3.3v-7.9c0-2.6-0.7-3.8-2.2-3.8c-0.9,0-1.6,0.3-2,1c-0.4,0.7-0.6,1.8-0.6,3.3v7.4h-3.3V323.5z"/>
		<path class="st2" d="M261.9,323.5h3.3v14.4h-3.3v-1.5c-1.4,1.3-2.8,1.9-4.4,1.9c-2,0-3.6-0.7-4.9-2.2c-1.3-1.5-1.9-3.3-1.9-5.5
			c0-2.2,0.6-4,1.9-5.4c1.3-1.4,2.9-2.2,4.8-2.2c1.7,0,3.2,0.7,4.5,2.1V323.5z M254,330.7c0,1.4,0.4,2.5,1.1,3.4
			c0.8,0.9,1.7,1.3,2.9,1.3c1.2,0,2.2-0.4,3-1.3c0.8-0.9,1.1-2,1.1-3.3c0-1.3-0.4-2.5-1.1-3.3c-0.8-0.9-1.7-1.3-3-1.3
			c-1.1,0-2.1,0.4-2.9,1.3C254.4,328.3,254,329.4,254,330.7z"/>
		<path class="st2" d="M277.8,326l-2.7,1.5c-0.4-0.9-1-1.3-1.6-1.3c-0.3,0-0.6,0.1-0.8,0.3c-0.2,0.2-0.3,0.5-0.3,0.8
			c0,0.6,0.6,1.1,1.9,1.6c1.8,0.8,2.9,1.5,3.6,2.1c0.6,0.6,0.9,1.5,0.9,2.6c0,1.4-0.5,2.6-1.5,3.5c-1,0.9-2.2,1.3-3.6,1.3
			c-2.4,0-4.1-1.2-5.1-3.5l2.8-1.3c0.4,0.7,0.7,1.1,0.9,1.3c0.4,0.4,0.9,0.6,1.4,0.6c1.1,0,1.7-0.5,1.7-1.5c0-0.6-0.4-1.1-1.3-1.7
			c-0.3-0.2-0.7-0.3-1-0.5c-0.3-0.2-0.7-0.3-1-0.5c-1-0.5-1.6-0.9-2-1.4c-0.5-0.6-0.8-1.4-0.8-2.3c0-1.3,0.4-2.3,1.3-3.1
			c0.9-0.8,1.9-1.2,3.2-1.2C275.6,323.1,276.9,324.1,277.8,326z"/>
		<path class="st2" d="M290.1,326l-2.7,1.5c-0.4-0.9-1-1.3-1.6-1.3c-0.3,0-0.6,0.1-0.8,0.3c-0.2,0.2-0.3,0.5-0.3,0.8
			c0,0.6,0.6,1.1,1.9,1.6c1.8,0.8,2.9,1.5,3.6,2.1c0.6,0.6,0.9,1.5,0.9,2.6c0,1.4-0.5,2.6-1.5,3.5c-1,0.9-2.2,1.3-3.6,1.3
			c-2.4,0-4.1-1.2-5.1-3.5l2.8-1.3c0.4,0.7,0.7,1.1,0.9,1.3c0.4,0.4,0.9,0.6,1.4,0.6c1.1,0,1.7-0.5,1.7-1.5c0-0.6-0.4-1.1-1.3-1.7
			c-0.3-0.2-0.7-0.3-1-0.5c-0.3-0.2-0.7-0.3-1-0.5c-1-0.5-1.6-0.9-2-1.4c-0.5-0.6-0.8-1.4-0.8-2.3c0-1.3,0.4-2.3,1.3-3.1
			c0.9-0.8,1.9-1.2,3.2-1.2C287.8,323.1,289.2,324.1,290.1,326z"/>
		<path class="st2" d="M304,337.9v-22.8h4.8c2.3,0,4.1,0.2,5.4,0.7c1.4,0.4,2.7,1.2,3.9,2.3c2.4,2.1,3.5,5,3.5,8.5
			c0,3.5-1.2,6.3-3.7,8.5c-1.2,1.1-2.5,1.8-3.9,2.3c-1.3,0.4-3,0.6-5.4,0.6H304z M307.4,334.7h1.6c1.5,0,2.8-0.2,3.9-0.5
			c1-0.3,1.9-0.9,2.8-1.6c1.7-1.5,2.5-3.6,2.5-6c0-2.5-0.8-4.5-2.5-6.1c-1.5-1.4-3.7-2.1-6.7-2.1h-1.6V334.7z"/>
		<path class="st2" d="M335.9,323.5h3.3v14.4h-3.3v-1.5c-1.4,1.3-2.8,1.9-4.4,1.9c-2,0-3.6-0.7-4.9-2.2c-1.3-1.5-1.9-3.3-1.9-5.5
			c0-2.2,0.6-4,1.9-5.4c1.3-1.4,2.9-2.2,4.8-2.2c1.7,0,3.2,0.7,4.5,2.1V323.5z M328,330.7c0,1.4,0.4,2.5,1.1,3.4
			c0.8,0.9,1.7,1.3,2.9,1.3c1.2,0,2.2-0.4,3-1.3c0.8-0.9,1.1-2,1.1-3.3c0-1.3-0.4-2.5-1.1-3.3c-0.8-0.9-1.7-1.3-3-1.3
			c-1.1,0-2.1,0.4-2.9,1.3C328.4,328.3,328,329.4,328,330.7z"/>
		<path class="st2" d="M343.4,323.5h3.3v1.3c0.6-0.6,1.2-1.1,1.6-1.3c0.5-0.2,1.1-0.4,1.7-0.4c0.9,0,1.8,0.3,2.7,0.9l-1.5,3
			c-0.6-0.5-1.2-0.7-1.8-0.7c-1.8,0-2.7,1.4-2.7,4.1v7.5h-3.3V323.5z"/>
		<path class="st2" d="M359.3,326.6v11.3h-3.3v-11.3h-1.4v-3.1h1.4v-5.3h3.3v5.3h2.6v3.1H359.3z"/>
		<path class="st2" d="M364.1,323.5h3.3v1.3c0.6-0.7,1.2-1.1,1.6-1.4c0.5-0.2,1.1-0.4,1.8-0.4c1.6,0,2.9,0.7,3.9,2.1
			c1-1.4,2.5-2.1,4.2-2.1c3.2,0,4.9,2,4.9,5.9v8.9h-3.3v-8c0-1.4-0.2-2.4-0.5-2.9c-0.3-0.6-0.9-0.9-1.7-0.9c-0.9,0-1.6,0.3-2,1
			c-0.4,0.7-0.6,1.8-0.6,3.3v7.4h-3.3v-7.9c0-2.6-0.7-3.8-2.2-3.8c-0.9,0-1.6,0.3-2,1c-0.4,0.7-0.6,1.8-0.6,3.3v7.4h-3.3V323.5z"/>
		<path class="st2" d="M387.4,330.6c0-2.1,0.7-3.8,2.2-5.3c1.5-1.5,3.3-2.2,5.4-2.2c2.1,0,4,0.7,5.5,2.2c1.5,1.5,2.2,3.3,2.2,5.4
			c0,2.2-0.7,4-2.2,5.4c-1.5,1.4-3.3,2.2-5.5,2.2c-2.2,0-4-0.7-5.4-2.2C388.1,334.6,387.4,332.8,387.4,330.6z M390.8,330.7
			c0,1.4,0.4,2.6,1.2,3.4c0.8,0.8,1.8,1.3,3.1,1.3c1.3,0,2.3-0.4,3.1-1.3c0.8-0.8,1.2-2,1.2-3.4c0-1.4-0.4-2.5-1.2-3.4
			c-0.8-0.8-1.8-1.3-3.1-1.3c-1.3,0-2.3,0.4-3.1,1.3C391.1,328.2,390.8,329.3,390.8,330.7z"/>
		<path class="st2" d="M409.5,323.5v8.3c0,2.4,0.9,3.6,2.8,3.6c1.9,0,2.8-1.2,2.8-3.6v-8.3h3.3v8.3c0,1.2-0.1,2.1-0.4,3
			c-0.3,0.7-0.8,1.4-1.4,2c-1.1,1-2.6,1.5-4.3,1.5c-1.7,0-3.1-0.5-4.3-1.5c-0.7-0.6-1.2-1.3-1.5-2c-0.3-0.7-0.4-1.7-0.4-3v-8.3
			H409.5z"/>
		<path class="st2" d="M426.1,326.6v11.3h-3.3v-11.3h-1.4v-3.1h1.4v-5.3h3.3v5.3h2.6v3.1H426.1z"/>
		<path class="st2" d="M431.6,312.9h3.3v11.8c1.2-1.1,2.5-1.6,3.9-1.6c1.6,0,2.9,0.5,3.9,1.6c0.8,0.9,1.2,2.4,1.2,4.4v8.8h-3.3v-8.5
			c0-1.2-0.2-2-0.6-2.5c-0.4-0.5-1.1-0.8-2-0.8c-1.2,0-2,0.4-2.5,1.1c-0.5,0.7-0.7,2-0.7,3.8v7h-3.3V312.9z"/>
		<path class="st2" d="M448.7,336.2c0-0.6,0.2-1,0.6-1.4c0.4-0.4,0.9-0.6,1.4-0.6s1,0.2,1.4,0.6c0.4,0.4,0.6,0.9,0.6,1.4
			c0,0.6-0.2,1.1-0.6,1.5c-0.4,0.4-0.9,0.6-1.4,0.6c-0.6,0-1.1-0.2-1.5-0.6C448.9,337.3,448.7,336.8,448.7,336.2z"/>
		<path class="st2" d="M470.9,315.1v22.8h-3.4v-22.8H470.9z"/>
		<path class="st2" d="M495.7,323.5h3.3v14.4h-3.3v-1.5c-1.4,1.3-2.8,1.9-4.4,1.9c-2,0-3.6-0.7-4.9-2.2c-1.3-1.5-1.9-3.3-1.9-5.5
			c0-2.2,0.6-4,1.9-5.4c1.3-1.4,2.9-2.2,4.8-2.2c1.7,0,3.2,0.7,4.5,2.1V323.5z M487.8,330.7c0,1.4,0.4,2.5,1.1,3.4
			c0.8,0.9,1.7,1.3,2.9,1.3c1.2,0,2.2-0.4,3-1.3c0.8-0.9,1.1-2,1.1-3.3c0-1.3-0.4-2.5-1.1-3.3c-0.8-0.9-1.7-1.3-3-1.3
			c-1.1,0-2.1,0.4-2.9,1.3C488.2,328.3,487.8,329.4,487.8,330.7z"/>
		<path class="st2" d="M503.2,323.5h3.3v1.3c0.6-0.7,1.2-1.1,1.6-1.4c0.5-0.2,1.1-0.4,1.8-0.4c1.6,0,2.9,0.7,3.9,2.1
			c1-1.4,2.5-2.1,4.2-2.1c3.2,0,4.9,2,4.9,5.9v8.9h-3.3v-8c0-1.4-0.2-2.4-0.5-2.9c-0.3-0.6-0.9-0.9-1.7-0.9c-0.9,0-1.6,0.3-2,1
			c-0.4,0.7-0.6,1.8-0.6,3.3v7.4h-3.3v-7.9c0-2.6-0.7-3.8-2.2-3.8c-0.9,0-1.6,0.3-2,1c-0.4,0.7-0.6,1.8-0.6,3.3v7.4h-3.3V323.5z"/>
		<path class="st2" d="M49.6,362.3l-2.7,1.5c-0.4-0.9-1-1.3-1.6-1.3c-0.3,0-0.6,0.1-0.8,0.3c-0.2,0.2-0.3,0.5-0.3,0.8
			c0,0.6,0.6,1.1,1.9,1.6c1.8,0.8,2.9,1.5,3.6,2.1c0.6,0.6,0.9,1.5,0.9,2.6c0,1.4-0.5,2.6-1.5,3.5c-1,0.9-2.2,1.3-3.6,1.3
			c-2.4,0-4.1-1.2-5.1-3.5l2.8-1.3c0.4,0.7,0.7,1.1,0.9,1.3c0.4,0.4,0.9,0.6,1.4,0.6c1.1,0,1.7-0.5,1.7-1.5c0-0.6-0.4-1.1-1.3-1.7
			c-0.3-0.2-0.7-0.3-1-0.5c-0.3-0.2-0.7-0.3-1-0.5c-1-0.5-1.6-0.9-2-1.4c-0.5-0.6-0.8-1.4-0.8-2.3c0-1.3,0.4-2.3,1.3-3.1
			c0.9-0.8,1.9-1.2,3.2-1.2C47.3,359.4,48.7,360.4,49.6,362.3z"/>
		<path class="st2" d="M56.8,349.2v15.2l4.7-4.7H66l-6.2,6l6.7,8.3h-4.3l-4.8-6.1l-0.5,0.5v5.5h-3.3v-24.9H56.8z"/>
		<path class="st2" d="M68.1,353.8c0-0.6,0.2-1.1,0.6-1.5c0.4-0.4,0.9-0.6,1.5-0.6c0.6,0,1.1,0.2,1.5,0.6c0.4,0.4,0.6,0.9,0.6,1.5
			c0,0.6-0.2,1.1-0.6,1.5c-0.4,0.4-0.9,0.6-1.5,0.6c-0.6,0-1.1-0.2-1.5-0.6C68.3,354.9,68.1,354.4,68.1,353.8z M71.9,359.8v14.4
			h-3.3v-14.4H71.9z"/>
		<path class="st2" d="M79.4,349.2v24.9h-3.3v-24.9H79.4z"/>
		<path class="st2" d="M86.9,349.2v24.9h-3.3v-24.9H86.9z"/>
		<path class="st2" d="M104.3,367.8H93.9c0.1,1.2,0.5,2.1,1.2,2.8c0.7,0.7,1.6,1,2.6,1c0.8,0,1.5-0.2,2.1-0.6
			c0.5-0.4,1.1-1.1,1.8-2.2l2.8,1.6c-0.4,0.7-0.9,1.4-1.4,1.9c-0.5,0.5-1,1-1.6,1.3c-0.6,0.3-1.1,0.6-1.8,0.7
			c-0.6,0.2-1.3,0.2-2.1,0.2c-2.1,0-3.9-0.7-5.2-2.1c-1.3-1.4-1.9-3.2-1.9-5.5c0-2.3,0.6-4.1,1.9-5.5c1.3-1.4,3-2.1,5.1-2.1
			c2.1,0,3.8,0.7,5,2c1.2,1.3,1.8,3.2,1.8,5.6L104.3,367.8z M100.8,365.1c-0.5-1.8-1.6-2.7-3.4-2.7c-0.4,0-0.8,0.1-1.1,0.2
			c-0.4,0.1-0.7,0.3-1,0.5c-0.3,0.2-0.5,0.5-0.7,0.8c-0.2,0.3-0.4,0.7-0.5,1.1H100.8z"/>
		<path class="st2" d="M118.5,349.2h3.3v24.9h-3.3v-1.5c-1.3,1.3-2.8,1.9-4.4,1.9c-2,0-3.6-0.7-4.9-2.2c-1.3-1.5-1.9-3.3-1.9-5.5
			c0-2.1,0.6-3.9,1.9-5.4c1.3-1.4,2.9-2.2,4.8-2.2c1.7,0,3.2,0.7,4.5,2.1V349.2z M110.6,366.9c0,1.4,0.4,2.5,1.1,3.4
			c0.8,0.9,1.7,1.3,2.9,1.3c1.2,0,2.2-0.4,3-1.3c0.8-0.9,1.1-2,1.1-3.3c0-1.3-0.4-2.5-1.1-3.3c-0.8-0.9-1.7-1.3-3-1.3
			c-1.1,0-2.1,0.4-2.9,1.3C111,364.6,110.6,365.7,110.6,366.9z"/>
		<path class="st2" d="M134.9,353.8c0-0.6,0.2-1.1,0.6-1.5c0.4-0.4,0.9-0.6,1.5-0.6c0.6,0,1.1,0.2,1.5,0.6c0.4,0.4,0.6,0.9,0.6,1.5
			c0,0.6-0.2,1.1-0.6,1.5c-0.4,0.4-0.9,0.6-1.5,0.6c-0.6,0-1.1-0.2-1.5-0.6C135.1,354.9,134.9,354.4,134.9,353.8z M138.7,359.8v14.4
			h-3.3v-14.4H138.7z"/>
		<path class="st2" d="M142.9,359.8h3.3v1.3c1.2-1.2,2.5-1.7,3.9-1.7c1.7,0,3,0.5,3.9,1.6c0.8,0.9,1.2,2.4,1.2,4.4v8.8h-3.3v-8
			c0-1.4-0.2-2.4-0.6-2.9c-0.4-0.6-1.1-0.8-2.1-0.8c-1.1,0-1.9,0.4-2.3,1.1c-0.5,0.7-0.7,2-0.7,3.8v6.9h-3.3V359.8z"/>
		<path class="st2" d="M182.8,368.6h-9.8l-2.5,5.5h-3.7l11.3-24.2l10.9,24.2h-3.8L182.8,368.6z M181.4,365.4l-3.4-7.8l-3.5,7.8
			H181.4z"/>
		<path class="st2" d="M201.8,349.2h3.3v24.9h-3.3v-1.5c-1.3,1.3-2.8,1.9-4.4,1.9c-2,0-3.6-0.7-4.9-2.2c-1.3-1.5-1.9-3.3-1.9-5.5
			c0-2.1,0.6-3.9,1.9-5.4c1.3-1.4,2.9-2.2,4.8-2.2c1.7,0,3.2,0.7,4.5,2.1V349.2z M193.9,366.9c0,1.4,0.4,2.5,1.1,3.4
			c0.8,0.9,1.7,1.3,2.9,1.3c1.2,0,2.2-0.4,3-1.3c0.8-0.9,1.1-2,1.1-3.3c0-1.3-0.4-2.5-1.1-3.3c-0.8-0.9-1.7-1.3-3-1.3
			c-1.1,0-2.1,0.4-2.9,1.3C194.3,364.6,193.9,365.7,193.9,366.9z"/>
		<path class="st2" d="M208.6,366.9c0-2.1,0.7-3.8,2.2-5.3c1.5-1.5,3.3-2.2,5.4-2.2c2.1,0,4,0.7,5.5,2.2c1.5,1.5,2.2,3.3,2.2,5.4
			c0,2.2-0.7,4-2.2,5.4c-1.5,1.4-3.3,2.2-5.5,2.2c-2.2,0-4-0.7-5.4-2.2C209.4,370.9,208.6,369.1,208.6,366.9z M212,366.9
			c0,1.4,0.4,2.6,1.2,3.4c0.8,0.8,1.8,1.3,3.1,1.3c1.3,0,2.3-0.4,3.1-1.3c0.8-0.8,1.2-2,1.2-3.4c0-1.4-0.4-2.5-1.2-3.4
			c-0.8-0.8-1.8-1.3-3.1-1.3c-1.3,0-2.3,0.4-3.1,1.3C212.4,364.5,212,365.6,212,366.9z"/>
		<path class="st2" d="M230.8,349.2v12.2c1.3-1.4,2.8-2.1,4.5-2.1c1.9,0,3.6,0.7,4.8,2.2c1.3,1.4,1.9,3.2,1.9,5.4
			c0,2.2-0.6,4-1.9,5.5c-1.3,1.4-2.9,2.2-4.9,2.2c-1.7,0-3.2-0.6-4.5-1.9v1.5h-3.3v-24.9H230.8z M238.7,367.1c0-1.4-0.4-2.5-1.1-3.4
			c-0.8-0.9-1.7-1.3-2.9-1.3c-1.2,0-2.2,0.4-3,1.3c-0.8,0.8-1.1,1.9-1.1,3.3c0,1.4,0.4,2.5,1.1,3.4c0.7,0.9,1.7,1.3,3,1.3
			c1.2,0,2.1-0.4,2.9-1.3C238.3,369.5,238.7,368.4,238.7,367.1z"/>
		<path class="st2" d="M258.7,367.8h-10.3c0.1,1.2,0.5,2.1,1.2,2.8c0.7,0.7,1.6,1,2.6,1c0.8,0,1.5-0.2,2.1-0.6
			c0.5-0.4,1.1-1.1,1.8-2.2l2.8,1.6c-0.4,0.7-0.9,1.4-1.4,1.9c-0.5,0.5-1,1-1.6,1.3c-0.6,0.3-1.1,0.6-1.8,0.7
			c-0.6,0.2-1.3,0.2-2.1,0.2c-2.1,0-3.9-0.7-5.2-2.1c-1.3-1.4-1.9-3.2-1.9-5.5c0-2.3,0.6-4.1,1.9-5.5c1.3-1.4,3-2.1,5.1-2.1
			c2.1,0,3.8,0.7,5,2c1.2,1.3,1.8,3.2,1.8,5.6L258.7,367.8z M255.3,365.1c-0.5-1.8-1.6-2.7-3.4-2.7c-0.4,0-0.8,0.1-1.1,0.2
			c-0.4,0.1-0.7,0.3-1,0.5c-0.3,0.2-0.5,0.5-0.7,0.8c-0.2,0.3-0.4,0.7-0.5,1.1H255.3z"/>
		<path class="st2" d="M275.8,364.9v9.3h-3.4v-22.8h3.9c1.9,0,3.4,0.1,4.3,0.4c1,0.3,1.9,0.8,2.6,1.5c1.3,1.3,2,2.9,2,4.8
			c0,2.1-0.7,3.7-2.1,5c-1.4,1.2-3.3,1.8-5.7,1.8H275.8z M275.8,361.7h1.3c3.2,0,4.7-1.2,4.7-3.6c0-2.4-1.6-3.5-4.9-3.5h-1.1V361.7z
			"/>
		<path class="st2" d="M288,349.2h3.3V361c1.2-1.1,2.5-1.6,3.9-1.6c1.6,0,2.9,0.5,3.9,1.6c0.8,0.9,1.2,2.4,1.2,4.4v8.8h-3.3v-8.5
			c0-1.2-0.2-2-0.6-2.5c-0.4-0.5-1.1-0.8-2-0.8c-1.2,0-2,0.4-2.5,1.1c-0.5,0.7-0.7,2-0.7,3.8v7H288V349.2z"/>
		<path class="st2" d="M303.9,366.9c0-2.1,0.7-3.8,2.2-5.3c1.5-1.5,3.3-2.2,5.4-2.2c2.1,0,4,0.7,5.5,2.2c1.5,1.5,2.2,3.3,2.2,5.4
			c0,2.2-0.7,4-2.2,5.4c-1.5,1.4-3.3,2.2-5.5,2.2c-2.2,0-4-0.7-5.4-2.2C304.7,370.9,303.9,369.1,303.9,366.9z M307.3,366.9
			c0,1.4,0.4,2.6,1.2,3.4c0.8,0.8,1.8,1.3,3.1,1.3c1.3,0,2.3-0.4,3.1-1.3c0.8-0.8,1.2-2,1.2-3.4c0-1.4-0.4-2.5-1.2-3.4
			c-0.8-0.8-1.8-1.3-3.1-1.3c-1.3,0-2.3,0.4-3.1,1.3C307.7,364.5,307.3,365.6,307.3,366.9z"/>
		<path class="st2" d="M326.4,362.9v11.3h-3.3v-11.3h-1.4v-3.1h1.4v-5.3h3.3v5.3h2.6v3.1H326.4z"/>
		<path class="st2" d="M330.8,366.9c0-2.1,0.7-3.8,2.2-5.3c1.5-1.5,3.3-2.2,5.4-2.2c2.1,0,4,0.7,5.5,2.2c1.5,1.5,2.2,3.3,2.2,5.4
			c0,2.2-0.7,4-2.2,5.4c-1.5,1.4-3.3,2.2-5.5,2.2c-2.2,0-4-0.7-5.4-2.2C331.5,370.9,330.8,369.1,330.8,366.9z M334.2,366.9
			c0,1.4,0.4,2.6,1.2,3.4c0.8,0.8,1.8,1.3,3.1,1.3c1.3,0,2.3-0.4,3.1-1.3c0.8-0.8,1.2-2,1.2-3.4c0-1.4-0.4-2.5-1.2-3.4
			c-0.8-0.8-1.8-1.3-3.1-1.3c-1.3,0-2.3,0.4-3.1,1.3C334.6,364.5,334.2,365.6,334.2,366.9z"/>
		<path class="st2" d="M358,362.3l-2.7,1.5c-0.4-0.9-1-1.3-1.6-1.3c-0.3,0-0.6,0.1-0.8,0.3c-0.2,0.2-0.3,0.5-0.3,0.8
			c0,0.6,0.6,1.1,1.9,1.6c1.8,0.8,2.9,1.5,3.6,2.1c0.6,0.6,0.9,1.5,0.9,2.6c0,1.4-0.5,2.6-1.5,3.5c-1,0.9-2.2,1.3-3.6,1.3
			c-2.4,0-4.1-1.2-5.1-3.5l2.8-1.3c0.4,0.7,0.7,1.1,0.9,1.3c0.4,0.4,0.9,0.6,1.4,0.6c1.1,0,1.7-0.5,1.7-1.5c0-0.6-0.4-1.1-1.3-1.7
			c-0.3-0.2-0.7-0.3-1-0.5c-0.3-0.2-0.7-0.3-1-0.5c-1-0.5-1.6-0.9-2-1.4c-0.5-0.6-0.8-1.4-0.8-2.3c0-1.3,0.4-2.3,1.3-3.1
			c0.9-0.8,1.9-1.2,3.2-1.2C355.7,359.4,357.1,360.4,358,362.3z"/>
		<path class="st2" d="M361.9,349.2h3.3V361c1.2-1.1,2.5-1.6,3.9-1.6c1.6,0,2.9,0.5,3.9,1.6c0.8,0.9,1.2,2.4,1.2,4.4v8.8H371v-8.5
			c0-1.2-0.2-2-0.6-2.5c-0.4-0.5-1.1-0.8-2-0.8c-1.2,0-2,0.4-2.5,1.1c-0.5,0.7-0.7,2-0.7,3.8v7h-3.3V349.2z"/>
		<path class="st2" d="M377.8,366.9c0-2.1,0.7-3.8,2.2-5.3c1.5-1.5,3.3-2.2,5.4-2.2c2.1,0,4,0.7,5.5,2.2c1.5,1.5,2.2,3.3,2.2,5.4
			c0,2.2-0.7,4-2.2,5.4c-1.5,1.4-3.3,2.2-5.5,2.2c-2.2,0-4-0.7-5.4-2.2C378.5,370.9,377.8,369.1,377.8,366.9z M381.2,366.9
			c0,1.4,0.4,2.6,1.2,3.4c0.8,0.8,1.8,1.3,3.1,1.3c1.3,0,2.3-0.4,3.1-1.3c0.8-0.8,1.2-2,1.2-3.4c0-1.4-0.4-2.5-1.2-3.4
			c-0.8-0.8-1.8-1.3-3.1-1.3c-1.3,0-2.3,0.4-3.1,1.3C381.6,364.5,381.2,365.6,381.2,366.9z"/>
		<path class="st2" d="M400,382h-3.3v-22.2h3.3v1.6c1.3-1.3,2.8-2,4.5-2c2,0,3.6,0.7,4.9,2.2c1.3,1.4,1.9,3.3,1.9,5.5
			c0,2.2-0.6,4-1.9,5.4c-1.3,1.4-2.9,2.1-4.8,2.1c-1.7,0-3.2-0.7-4.5-2V382z M407.9,367.1c0-1.4-0.4-2.5-1.1-3.4
			c-0.8-0.9-1.7-1.3-2.9-1.3c-1.2,0-2.2,0.4-3,1.3c-0.8,0.8-1.1,2-1.1,3.3c0,1.3,0.4,2.5,1.1,3.3c0.7,0.9,1.7,1.3,3,1.3
			c1.2,0,2.1-0.4,2.9-1.3C407.5,369.5,407.9,368.4,407.9,367.1z"/>
		<path class="st2" d="M416.9,369.9l3,1.2l-4.2,8.4l-2.2-0.9L416.9,369.9z"/>
		<path class="st2" d="M45.3,387.7v22.8h-3.4v-22.8H45.3z"/>
		<path class="st2" d="M53.5,385.5v24.9h-3.3v-24.9H53.5z"/>
		<path class="st2" d="M61,385.5v24.9h-3.3v-24.9H61z"/>
		<path class="st2" d="M68.5,396.1v8.3c0,2.4,0.9,3.6,2.8,3.6c1.9,0,2.8-1.2,2.8-3.6v-8.3h3.3v8.3c0,1.2-0.1,2.1-0.4,3
			c-0.3,0.7-0.8,1.4-1.4,2c-1.1,1-2.6,1.5-4.3,1.5c-1.7,0-3.1-0.5-4.3-1.5c-0.7-0.6-1.2-1.3-1.5-2c-0.3-0.7-0.4-1.7-0.4-3v-8.3H68.5
			z"/>
		<path class="st2" d="M90.1,398.5l-2.7,1.5c-0.4-0.9-1-1.3-1.6-1.3c-0.3,0-0.6,0.1-0.8,0.3c-0.2,0.2-0.3,0.5-0.3,0.8
			c0,0.6,0.6,1.1,1.9,1.6c1.8,0.8,2.9,1.5,3.6,2.1c0.6,0.6,0.9,1.5,0.9,2.6c0,1.4-0.5,2.6-1.5,3.5c-1,0.9-2.2,1.3-3.6,1.3
			c-2.4,0-4.1-1.2-5.1-3.5l2.8-1.3c0.4,0.7,0.7,1.1,0.9,1.3c0.4,0.4,0.9,0.6,1.4,0.6c1.1,0,1.7-0.5,1.7-1.5c0-0.6-0.4-1.1-1.3-1.7
			c-0.3-0.2-0.7-0.3-1-0.5c-0.3-0.2-0.7-0.3-1-0.5c-1-0.5-1.6-0.9-2-1.4c-0.5-0.6-0.8-1.4-0.8-2.3c0-1.3,0.4-2.3,1.3-3.1
			c0.9-0.8,1.9-1.2,3.2-1.2C87.8,395.7,89.2,396.6,90.1,398.5z"/>
		<path class="st2" d="M97.4,399.2v11.3h-3.3v-11.3h-1.4v-3.1h1.4v-5.3h3.3v5.3h2.6v3.1H97.4z"/>
		<path class="st2" d="M102.2,396.1h3.3v1.3c0.6-0.6,1.2-1.1,1.6-1.3c0.5-0.2,1.1-0.4,1.7-0.4c0.9,0,1.8,0.3,2.7,0.9l-1.5,3
			c-0.6-0.5-1.2-0.7-1.8-0.7c-1.8,0-2.7,1.4-2.7,4.1v7.5h-3.3V396.1z"/>
		<path class="st2" d="M123.9,396.1h3.3v14.4h-3.3V409c-1.4,1.3-2.8,1.9-4.4,1.9c-2,0-3.6-0.7-4.9-2.2c-1.3-1.5-1.9-3.3-1.9-5.5
			c0-2.2,0.6-4,1.9-5.4c1.3-1.4,2.9-2.2,4.8-2.2c1.7,0,3.2,0.7,4.5,2.1V396.1z M116.1,403.2c0,1.4,0.4,2.5,1.1,3.4
			c0.8,0.9,1.7,1.3,2.9,1.3c1.2,0,2.2-0.4,3-1.3c0.8-0.9,1.1-2,1.1-3.3c0-1.3-0.4-2.5-1.1-3.3c-0.8-0.9-1.7-1.3-3-1.3
			c-1.1,0-2.1,0.4-2.9,1.3C116.4,400.9,116.1,402,116.1,403.2z"/>
		<path class="st2" d="M134.9,399.2v11.3h-3.3v-11.3h-1.4v-3.1h1.4v-5.3h3.3v5.3h2.6v3.1H134.9z"/>
		<path class="st2" d="M139.3,403.2c0-2.1,0.7-3.8,2.2-5.3c1.5-1.5,3.3-2.2,5.4-2.2c2.1,0,4,0.7,5.5,2.2c1.5,1.5,2.2,3.3,2.2,5.4
			c0,2.2-0.7,4-2.2,5.4c-1.5,1.4-3.3,2.2-5.5,2.2c-2.2,0-4-0.7-5.4-2.2C140,407.2,139.3,405.4,139.3,403.2z M142.7,403.2
			c0,1.4,0.4,2.6,1.2,3.4c0.8,0.8,1.8,1.3,3.1,1.3c1.3,0,2.3-0.4,3.1-1.3c0.8-0.8,1.2-2,1.2-3.4c0-1.4-0.4-2.5-1.2-3.4
			c-0.8-0.8-1.8-1.3-3.1-1.3c-1.3,0-2.3,0.4-3.1,1.3C143.1,400.8,142.7,401.9,142.7,403.2z"/>
		<path class="st2" d="M158.1,396.1h3.3v1.3c0.6-0.6,1.2-1.1,1.6-1.3c0.5-0.2,1.1-0.4,1.7-0.4c0.9,0,1.8,0.3,2.7,0.9l-1.5,3
			c-0.6-0.5-1.2-0.7-1.8-0.7c-1.8,0-2.7,1.4-2.7,4.1v7.5h-3.3V396.1z"/>
		<path class="st2" d="M170.3,406.2l3,1.2l-4.2,8.4l-2.2-0.9L170.3,406.2z"/>
		<path class="st2" d="M197.5,396.1h3.3v14.4h-3.3V409c-1.4,1.3-2.8,1.9-4.4,1.9c-2,0-3.6-0.7-4.9-2.2c-1.3-1.5-1.9-3.3-1.9-5.5
			c0-2.2,0.6-4,1.9-5.4c1.3-1.4,2.9-2.2,4.8-2.2c1.7,0,3.2,0.7,4.5,2.1V396.1z M189.6,403.2c0,1.4,0.4,2.5,1.1,3.4
			c0.8,0.9,1.7,1.3,2.9,1.3c1.2,0,2.2-0.4,3-1.3c0.8-0.9,1.1-2,1.1-3.3c0-1.3-0.4-2.5-1.1-3.3c-0.8-0.9-1.7-1.3-3-1.3
			c-1.1,0-2.1,0.4-2.9,1.3C190,400.9,189.6,402,189.6,403.2z"/>
		<path class="st2" d="M205,396.1h3.3v1.3c1.2-1.2,2.5-1.7,3.9-1.7c1.7,0,3,0.5,3.9,1.6c0.8,0.9,1.2,2.4,1.2,4.4v8.8h-3.3v-8
			c0-1.4-0.2-2.4-0.6-2.9c-0.4-0.6-1.1-0.8-2.1-0.8c-1.1,0-1.9,0.4-2.3,1.1c-0.5,0.7-0.7,2-0.7,3.8v6.9H205V396.1z"/>
		<path class="st2" d="M232.2,385.5h3.3v24.9h-3.3V409c-1.3,1.3-2.8,1.9-4.4,1.9c-2,0-3.6-0.7-4.9-2.2c-1.3-1.5-1.9-3.3-1.9-5.5
			c0-2.1,0.6-3.9,1.9-5.4c1.3-1.4,2.9-2.2,4.8-2.2c1.7,0,3.2,0.7,4.5,2.1V385.5z M224.3,403.2c0,1.4,0.4,2.5,1.1,3.4
			c0.8,0.9,1.7,1.3,2.9,1.3c1.2,0,2.2-0.4,3-1.3c0.8-0.9,1.1-2,1.1-3.3c0-1.3-0.4-2.5-1.1-3.3c-0.8-0.9-1.7-1.3-3-1.3
			c-1.1,0-2.1,0.4-2.9,1.3C224.7,400.9,224.3,402,224.3,403.2z"/>
		<path class="st2" d="M253.2,387.7v22.8h-3.4v-22.8H253.2z"/>
		<path class="st2" d="M258,396.1h3.3v1.3c1.2-1.2,2.5-1.7,3.9-1.7c1.7,0,3,0.5,3.9,1.6c0.8,0.9,1.2,2.4,1.2,4.4v8.8h-3.3v-8
			c0-1.4-0.2-2.4-0.6-2.9c-0.4-0.6-1.1-0.8-2.1-0.8c-1.1,0-1.9,0.4-2.3,1.1c-0.5,0.7-0.7,2-0.7,3.8v6.9H258V396.1z"/>
		<path class="st2" d="M275.2,410.5v-22.8h4.8c2.3,0,4.1,0.2,5.4,0.7c1.4,0.4,2.7,1.2,3.9,2.3c2.4,2.1,3.5,5,3.5,8.5
			c0,3.5-1.2,6.3-3.7,8.5c-1.2,1.1-2.5,1.8-3.9,2.3c-1.3,0.4-3,0.6-5.4,0.6H275.2z M278.7,407.2h1.6c1.5,0,2.8-0.2,3.9-0.5
			c1-0.3,1.9-0.9,2.8-1.6c1.7-1.5,2.5-3.6,2.5-6c0-2.5-0.8-4.5-2.5-6.1c-1.5-1.4-3.7-2.1-6.7-2.1h-1.6V407.2z"/>
		<path class="st2" d="M309.7,404.1h-10.3c0.1,1.2,0.5,2.1,1.2,2.8c0.7,0.7,1.6,1,2.6,1c0.8,0,1.5-0.2,2.1-0.6
			c0.5-0.4,1.1-1.1,1.8-2.2l2.8,1.6c-0.4,0.7-0.9,1.4-1.4,1.9c-0.5,0.5-1,1-1.6,1.3c-0.6,0.3-1.1,0.6-1.8,0.7
			c-0.6,0.2-1.3,0.2-2.1,0.2c-2.1,0-3.9-0.7-5.2-2.1c-1.3-1.4-1.9-3.2-1.9-5.5c0-2.3,0.6-4.1,1.9-5.5c1.3-1.4,3-2.1,5.1-2.1
			c2.1,0,3.8,0.7,5,2c1.2,1.3,1.8,3.2,1.8,5.6L309.7,404.1z M306.2,401.4c-0.5-1.8-1.6-2.7-3.4-2.7c-0.4,0-0.8,0.1-1.1,0.2
			c-0.4,0.1-0.7,0.3-1,0.5c-0.3,0.2-0.5,0.5-0.7,0.8s-0.4,0.7-0.5,1.1H306.2z"/>
		<path class="st2" d="M321.7,398.5l-2.7,1.5c-0.4-0.9-1-1.3-1.6-1.3c-0.3,0-0.6,0.1-0.8,0.3c-0.2,0.2-0.3,0.5-0.3,0.8
			c0,0.6,0.6,1.1,1.9,1.6c1.8,0.8,2.9,1.5,3.6,2.1c0.6,0.6,0.9,1.5,0.9,2.6c0,1.4-0.5,2.6-1.5,3.5c-1,0.9-2.2,1.3-3.6,1.3
			c-2.4,0-4.1-1.2-5.1-3.5l2.8-1.3c0.4,0.7,0.7,1.1,0.9,1.3c0.4,0.4,0.9,0.6,1.4,0.6c1.1,0,1.7-0.5,1.7-1.5c0-0.6-0.4-1.1-1.3-1.7
			c-0.3-0.2-0.7-0.3-1-0.5c-0.3-0.2-0.7-0.3-1-0.5c-1-0.5-1.6-0.9-2-1.4c-0.5-0.6-0.8-1.4-0.8-2.3c0-1.3,0.4-2.3,1.3-3.1
			c0.9-0.8,1.9-1.2,3.2-1.2C319.4,395.7,320.8,396.6,321.7,398.5z"/>
		<path class="st2" d="M325.1,390.1c0-0.6,0.2-1.1,0.6-1.5c0.4-0.4,0.9-0.6,1.5-0.6c0.6,0,1.1,0.2,1.5,0.6c0.4,0.4,0.6,0.9,0.6,1.5
			c0,0.6-0.2,1.1-0.6,1.5c-0.4,0.4-0.9,0.6-1.5,0.6c-0.6,0-1.1-0.2-1.5-0.6C325.3,391.2,325.1,390.7,325.1,390.1z M328.9,396.1v14.4
			h-3.3v-14.4H328.9z"/>
		<path class="st2" d="M347,410.1c0,0.7,0,1.3-0.1,1.8c0,0.5-0.1,1-0.2,1.4c-0.2,1.1-0.7,2-1.4,2.8c-1.3,1.5-3.1,2.2-5.4,2.2
			c-1.9,0-3.5-0.5-4.7-1.6c-1.3-1.1-2-2.5-2.2-4.4h3.3c0.1,0.7,0.3,1.3,0.6,1.6c0.7,0.9,1.7,1.3,3,1.3c2.4,0,3.6-1.5,3.6-4.5v-2
			c-1.3,1.3-2.8,2-4.6,2c-2,0-3.6-0.7-4.8-2.1c-1.3-1.4-1.9-3.2-1.9-5.4c0-2.1,0.6-3.9,1.8-5.3c1.3-1.6,2.9-2.3,5-2.3
			c1.8,0,3.3,0.7,4.5,2v-1.6h3.3V410.1z M343.8,403.3c0-1.4-0.4-2.5-1.1-3.4c-0.8-0.9-1.7-1.3-2.9-1.3c-1.3,0-2.3,0.5-3,1.4
			c-0.7,0.8-1,1.9-1,3.2c0,1.3,0.3,2.4,1,3.2c0.7,0.9,1.7,1.4,3,1.4c1.3,0,2.3-0.5,3-1.4C343.5,405.7,343.8,404.6,343.8,403.3z"/>
		<path class="st2" d="M351.2,396.1h3.3v1.3c1.2-1.2,2.5-1.7,3.9-1.7c1.7,0,3,0.5,3.9,1.6c0.8,0.9,1.2,2.4,1.2,4.4v8.8h-3.3v-8
			c0-1.4-0.2-2.4-0.6-2.9c-0.4-0.6-1.1-0.8-2.1-0.8c-1.1,0-1.9,0.4-2.3,1.1c-0.5,0.7-0.7,2-0.7,3.8v6.9h-3.3V396.1z"/>
		<path class="st2" d="M368.3,408.8c0-0.6,0.2-1,0.6-1.4c0.4-0.4,0.9-0.6,1.4-0.6s1,0.2,1.4,0.6c0.4,0.4,0.6,0.9,0.6,1.4
			c0,0.6-0.2,1.1-0.6,1.5c-0.4,0.4-0.9,0.6-1.4,0.6c-0.6,0-1.1-0.2-1.5-0.6C368.5,409.9,368.3,409.4,368.3,408.8z"/>
		<path class="st2" d="M386.3,410.5l4.8-24.5l7.8,17.7L407,386l4.3,24.5h-3.5l-2.2-13.8l-6.7,14.8l-6.6-14.8l-2.5,13.8H386.3z"/>
		<path class="st2" d="M415,390.1c0-0.6,0.2-1.1,0.6-1.5c0.4-0.4,0.9-0.6,1.5-0.6c0.6,0,1.1,0.2,1.5,0.6c0.4,0.4,0.6,0.9,0.6,1.5
			c0,0.6-0.2,1.1-0.6,1.5c-0.4,0.4-0.9,0.6-1.5,0.6c-0.6,0-1.1-0.2-1.5-0.6C415.2,391.2,415,390.7,415,390.1z M418.9,396.1v14.4
			h-3.3v-14.4H418.9z"/>
		<path class="st2" d="M434.3,396.7v4.4c-0.8-0.9-1.4-1.6-2-1.9c-0.6-0.4-1.3-0.5-2.1-0.5c-1.3,0-2.3,0.4-3.1,1.3
			c-0.8,0.9-1.2,2-1.2,3.3c0,1.3,0.4,2.5,1.2,3.3c0.8,0.9,1.8,1.3,3.1,1.3c0.8,0,1.5-0.2,2.1-0.5c0.6-0.3,1.3-1,2.1-1.9v4.4
			c-1.3,0.7-2.7,1-4,1c-2.2,0-4.1-0.7-5.6-2.2c-1.5-1.4-2.2-3.2-2.2-5.4c0-2.1,0.8-4,2.3-5.4c1.5-1.5,3.4-2.2,5.6-2.2
			C431.7,395.7,433,396,434.3,396.7z"/>
		<path class="st2" d="M437.5,396.1h3.3v1.3c0.6-0.6,1.2-1.1,1.6-1.3c0.5-0.2,1.1-0.4,1.7-0.4c0.9,0,1.8,0.3,2.7,0.9l-1.5,3
			c-0.6-0.5-1.2-0.7-1.8-0.7c-1.8,0-2.7,1.4-2.7,4.1v7.5h-3.3V396.1z"/>
		<path class="st2" d="M447.9,403.2c0-2.1,0.7-3.8,2.2-5.3c1.5-1.5,3.3-2.2,5.4-2.2c2.1,0,4,0.7,5.5,2.2c1.5,1.5,2.2,3.3,2.2,5.4
			c0,2.2-0.7,4-2.2,5.4c-1.5,1.4-3.3,2.2-5.5,2.2c-2.2,0-4-0.7-5.4-2.2C448.6,407.2,447.9,405.4,447.9,403.2z M451.2,403.2
			c0,1.4,0.4,2.6,1.2,3.4c0.8,0.8,1.8,1.3,3.1,1.3c1.3,0,2.3-0.4,3.1-1.3c0.8-0.8,1.2-2,1.2-3.4c0-1.4-0.4-2.5-1.2-3.4
			c-0.8-0.8-1.8-1.3-3.1-1.3c-1.3,0-2.3,0.4-3.1,1.3C451.6,400.8,451.2,401.9,451.2,403.2z"/>
		<path class="st2" d="M475.1,398.5l-2.7,1.5c-0.4-0.9-1-1.3-1.6-1.3c-0.3,0-0.6,0.1-0.8,0.3c-0.2,0.2-0.3,0.5-0.3,0.8
			c0,0.6,0.6,1.1,1.9,1.6c1.8,0.8,2.9,1.5,3.6,2.1c0.6,0.6,0.9,1.5,0.9,2.6c0,1.4-0.5,2.6-1.5,3.5c-1,0.9-2.2,1.3-3.6,1.3
			c-2.4,0-4.1-1.2-5.1-3.5l2.8-1.3c0.4,0.7,0.7,1.1,0.9,1.3c0.4,0.4,0.9,0.6,1.4,0.6c1.1,0,1.7-0.5,1.7-1.5c0-0.6-0.4-1.1-1.3-1.7
			c-0.3-0.2-0.7-0.3-1-0.5c-0.3-0.2-0.7-0.3-1-0.5c-1-0.5-1.6-0.9-2-1.4c-0.5-0.6-0.8-1.4-0.8-2.3c0-1.3,0.4-2.3,1.3-3.1
			c0.9-0.8,1.9-1.2,3.2-1.2C472.8,395.7,474.2,396.6,475.1,398.5z"/>
		<path class="st2" d="M478.3,403.2c0-2.1,0.7-3.8,2.2-5.3c1.5-1.5,3.3-2.2,5.4-2.2c2.1,0,4,0.7,5.5,2.2c1.5,1.5,2.2,3.3,2.2,5.4
			c0,2.2-0.7,4-2.2,5.4c-1.5,1.4-3.3,2.2-5.5,2.2c-2.2,0-4-0.7-5.4-2.2C479,407.2,478.3,405.4,478.3,403.2z M481.7,403.2
			c0,1.4,0.4,2.6,1.2,3.4c0.8,0.8,1.8,1.3,3.1,1.3c1.3,0,2.3-0.4,3.1-1.3c0.8-0.8,1.2-2,1.2-3.4c0-1.4-0.4-2.5-1.2-3.4
			c-0.8-0.8-1.8-1.3-3.1-1.3c-1.3,0-2.3,0.4-3.1,1.3C482.1,400.8,481.7,401.9,481.7,403.2z"/>
		<path class="st2" d="M500.6,399.2v11.3h-3.3v-11.3h-1.2v-3.1h1.2v-5.6c0-1.8,0.3-3.1,0.9-3.8c0.9-1,2.1-1.6,3.8-1.6
			c0.6,0,1.3,0.2,2.2,0.5v3.4l-0.3-0.2c-0.7-0.4-1.3-0.5-1.8-0.5c-0.6,0-1,0.2-1.2,0.6c-0.2,0.4-0.3,1.2-0.3,2.4v4.7h3.6v3.1H500.6z
			"/>
		<path class="st2" d="M510.7,399.2v11.3h-3.3v-11.3h-1.4v-3.1h1.4v-5.3h3.3v5.3h2.6v3.1H510.7z"/>
		<path class="st2" d="M43,424l5.9,15.2l6.2-16.3l5.9,16.3l6.3-15.2h3.7l-10.2,24.3L55,432.1l-6.1,16.2L39.2,424H43z"/>
		<path class="st2" d="M70.7,439.5c0-2.1,0.7-3.8,2.2-5.3c1.5-1.5,3.3-2.2,5.4-2.2c2.1,0,4,0.7,5.5,2.2c1.5,1.5,2.2,3.3,2.2,5.4
			c0,2.2-0.7,4-2.2,5.4c-1.5,1.4-3.3,2.2-5.5,2.2c-2.2,0-4-0.7-5.4-2.2C71.5,443.5,70.7,441.7,70.7,439.5z M74.1,439.5
			c0,1.4,0.4,2.6,1.2,3.4c0.8,0.8,1.8,1.3,3.1,1.3c1.3,0,2.3-0.4,3.1-1.3c0.8-0.8,1.2-2,1.2-3.4c0-1.4-0.4-2.5-1.2-3.4
			c-0.8-0.8-1.8-1.3-3.1-1.3c-1.3,0-2.3,0.4-3.1,1.3C74.5,437.1,74.1,438.2,74.1,439.5z"/>
		<path class="st2" d="M89.6,432.4h3.3v1.3c0.6-0.6,1.2-1.1,1.6-1.3c0.5-0.2,1.1-0.4,1.7-0.4c0.9,0,1.8,0.3,2.7,0.9l-1.5,3
			c-0.6-0.5-1.2-0.7-1.8-0.7c-1.8,0-2.7,1.4-2.7,4.1v7.5h-3.3V432.4z"/>
		<path class="st2" d="M111.3,421.8h3.3v24.9h-3.3v-1.5c-1.3,1.3-2.8,1.9-4.4,1.9c-2,0-3.6-0.7-4.9-2.2c-1.3-1.5-1.9-3.3-1.9-5.5
			c0-2.1,0.6-3.9,1.9-5.4c1.3-1.4,2.9-2.2,4.8-2.2c1.7,0,3.2,0.7,4.5,2.1V421.8z M103.4,439.5c0,1.4,0.4,2.5,1.1,3.4
			c0.8,0.9,1.7,1.3,2.9,1.3c1.2,0,2.2-0.4,3-1.3c0.8-0.9,1.1-2,1.1-3.3c0-1.3-0.4-2.5-1.1-3.3c-0.8-0.9-1.7-1.3-3-1.3
			c-1.1,0-2.1,0.4-2.9,1.3C103.8,437.2,103.4,438.3,103.4,439.5z"/>
		<path class="st2" d="M120.9,442.5l3,1.2l-4.2,8.4l-2.2-0.9L120.9,442.5z"/>
		<path class="st2" d="M150.7,427.2h-9.1v5.5h8.9v3.2h-8.9v7.6h9.1v3.2h-12.6V424h12.6V427.2z"/>
		<path class="st2" d="M159.1,439l-5.2-6.6h4l3.2,4.2l3.3-4.2h4.1l-5.3,6.6l6.2,7.8h-4l-4.2-5.4l-4.3,5.4h-4.1L159.1,439z"/>
		<path class="st2" d="M182.1,433v4.4c-0.8-0.9-1.4-1.6-2-1.9c-0.6-0.4-1.3-0.5-2.1-0.5c-1.3,0-2.3,0.4-3.1,1.3
			c-0.8,0.9-1.2,2-1.2,3.3c0,1.3,0.4,2.5,1.2,3.3c0.8,0.9,1.8,1.3,3.1,1.3c0.8,0,1.5-0.2,2.1-0.5c0.6-0.3,1.3-1,2.1-1.9v4.4
			c-1.3,0.7-2.7,1-4,1c-2.2,0-4.1-0.7-5.6-2.2c-1.5-1.4-2.2-3.2-2.2-5.4c0-2.1,0.8-4,2.3-5.4c1.5-1.5,3.4-2.2,5.6-2.2
			C179.5,432,180.8,432.3,182.1,433z"/>
		<path class="st2" d="M198.4,440.4h-10.3c0.1,1.2,0.5,2.1,1.2,2.8c0.7,0.7,1.6,1,2.6,1c0.8,0,1.5-0.2,2.1-0.6
			c0.5-0.4,1.1-1.1,1.8-2.2l2.8,1.6c-0.4,0.7-0.9,1.4-1.4,1.9c-0.5,0.5-1,1-1.6,1.3c-0.6,0.3-1.1,0.6-1.8,0.7
			c-0.6,0.2-1.3,0.2-2.1,0.2c-2.1,0-3.9-0.7-5.2-2.1c-1.3-1.4-1.9-3.2-1.9-5.5c0-2.3,0.6-4.1,1.9-5.5c1.3-1.4,3-2.1,5.1-2.1
			c2.1,0,3.8,0.7,5,2c1.2,1.3,1.8,3.2,1.8,5.6L198.4,440.4z M195,437.6c-0.5-1.8-1.6-2.7-3.4-2.7c-0.4,0-0.8,0.1-1.1,0.2
			c-0.4,0.1-0.7,0.3-1,0.5c-0.3,0.2-0.5,0.5-0.7,0.8c-0.2,0.3-0.4,0.7-0.5,1.1H195z"/>
		<path class="st2" d="M205.4,421.8v24.9H202v-24.9H205.4z"/>
		<path class="st2" d="M211.6,442.5l3,1.2l-4.2,8.4l-2.2-0.9L211.6,442.5z"/>
		<path class="st2" d="M232.3,437.5v9.3h-3.4V424h3.9c1.9,0,3.4,0.1,4.3,0.4c1,0.3,1.9,0.8,2.6,1.5c1.3,1.3,2,2.9,2,4.8
			c0,2.1-0.7,3.7-2.1,5c-1.4,1.2-3.3,1.8-5.7,1.8H232.3z M232.3,434.3h1.3c3.2,0,4.7-1.2,4.7-3.6c0-2.4-1.6-3.5-4.9-3.5h-1.1V434.3z
			"/>
		<path class="st2" d="M243,439.5c0-2.1,0.7-3.8,2.2-5.3c1.5-1.5,3.3-2.2,5.4-2.2c2.1,0,4,0.7,5.5,2.2c1.5,1.5,2.2,3.3,2.2,5.4
			c0,2.2-0.7,4-2.2,5.4c-1.5,1.4-3.3,2.2-5.5,2.2c-2.2,0-4-0.7-5.4-2.2C243.8,443.5,243,441.7,243,439.5z M246.4,439.5
			c0,1.4,0.4,2.6,1.2,3.4c0.8,0.8,1.8,1.3,3.1,1.3c1.3,0,2.3-0.4,3.1-1.3c0.8-0.8,1.2-2,1.2-3.4c0-1.4-0.4-2.5-1.2-3.4
			c-0.8-0.8-1.8-1.3-3.1-1.3c-1.3,0-2.3,0.4-3.1,1.3C246.8,437.1,246.4,438.2,246.4,439.5z"/>
		<path class="st2" d="M263.1,432.4l3.8,8.2l4.1-9.5l4.1,9.5l3.7-8.2h3.7l-7.5,15.5l-4-9.3l-4,9.3l-7.5-15.5H263.1z"/>
		<path class="st2" d="M297.4,440.4H287c0.1,1.2,0.5,2.1,1.2,2.8c0.7,0.7,1.6,1,2.6,1c0.8,0,1.5-0.2,2.1-0.6
			c0.5-0.4,1.1-1.1,1.8-2.2l2.8,1.6c-0.4,0.7-0.9,1.4-1.4,1.9c-0.5,0.5-1,1-1.6,1.3c-0.6,0.3-1.1,0.6-1.8,0.7
			c-0.6,0.2-1.3,0.2-2.1,0.2c-2.1,0-3.9-0.7-5.2-2.1c-1.3-1.4-1.9-3.2-1.9-5.5c0-2.3,0.6-4.1,1.9-5.5c1.3-1.4,3-2.1,5.1-2.1
			c2.1,0,3.8,0.7,5,2c1.2,1.3,1.8,3.2,1.8,5.6L297.4,440.4z M293.9,437.6c-0.5-1.8-1.6-2.7-3.4-2.7c-0.4,0-0.8,0.1-1.1,0.2
			c-0.4,0.1-0.7,0.3-1,0.5c-0.3,0.2-0.5,0.5-0.7,0.8c-0.2,0.3-0.4,0.7-0.5,1.1H293.9z"/>
		<path class="st2" d="M301,432.4h3.3v1.3c0.6-0.6,1.2-1.1,1.6-1.3c0.5-0.2,1.1-0.4,1.7-0.4c0.9,0,1.8,0.3,2.7,0.9l-1.5,3
			c-0.6-0.5-1.2-0.7-1.8-0.7c-1.8,0-2.7,1.4-2.7,4.1v7.5H301V432.4z"/>
		<path class="st2" d="M325,454.6h-3.3v-22.2h3.3v1.6c1.3-1.3,2.8-2,4.5-2c2,0,3.6,0.7,4.9,2.2c1.3,1.4,1.9,3.3,1.9,5.5
			c0,2.2-0.6,4-1.9,5.4c-1.3,1.4-2.9,2.1-4.8,2.1c-1.7,0-3.2-0.7-4.5-2V454.6z M332.9,439.7c0-1.4-0.4-2.5-1.1-3.4
			c-0.8-0.9-1.7-1.3-2.9-1.3c-1.2,0-2.2,0.4-3,1.3c-0.8,0.8-1.1,2-1.1,3.3c0,1.3,0.4,2.5,1.1,3.3c0.7,0.9,1.7,1.3,3,1.3
			c1.2,0,2.1-0.4,2.9-1.3C332.5,442.1,332.9,441,332.9,439.7z"/>
		<path class="st2" d="M339.1,439.5c0-2.1,0.7-3.8,2.2-5.3c1.5-1.5,3.3-2.2,5.4-2.2c2.1,0,4,0.7,5.5,2.2c1.5,1.5,2.2,3.3,2.2,5.4
			c0,2.2-0.7,4-2.2,5.4c-1.5,1.4-3.3,2.2-5.5,2.2c-2.2,0-4-0.7-5.4-2.2C339.8,443.5,339.1,441.7,339.1,439.5z M342.5,439.5
			c0,1.4,0.4,2.6,1.2,3.4c0.8,0.8,1.8,1.3,3.1,1.3c1.3,0,2.3-0.4,3.1-1.3c0.8-0.8,1.2-2,1.2-3.4c0-1.4-0.4-2.5-1.2-3.4
			c-0.8-0.8-1.8-1.3-3.1-1.3c-1.3,0-2.3,0.4-3.1,1.3C342.9,437.1,342.5,438.2,342.5,439.5z"/>
		<path class="st2" d="M357.5,426.4c0-0.6,0.2-1.1,0.6-1.5c0.4-0.4,0.9-0.6,1.5-0.6c0.6,0,1.1,0.2,1.5,0.6c0.4,0.4,0.6,0.9,0.6,1.5
			c0,0.6-0.2,1.1-0.6,1.5c-0.4,0.4-0.9,0.6-1.5,0.6c-0.6,0-1.1-0.2-1.5-0.6C357.7,427.5,357.5,427,357.5,426.4z M361.3,432.4v14.4
			H358v-14.4H361.3z"/>
		<path class="st2" d="M365.5,432.4h3.3v1.3c1.2-1.2,2.5-1.7,3.9-1.7c1.7,0,3,0.5,3.9,1.6c0.8,0.9,1.2,2.4,1.2,4.4v8.8h-3.3v-8
			c0-1.4-0.2-2.4-0.6-2.9c-0.4-0.6-1.1-0.8-2.1-0.8c-1.1,0-1.9,0.4-2.3,1.1c-0.5,0.7-0.7,2-0.7,3.8v6.9h-3.3V432.4z"/>
		<path class="st2" d="M385.5,435.5v11.3h-3.3v-11.3h-1.4v-3.1h1.4v-5.3h3.3v5.3h2.6v3.1H385.5z"/>
		<path class="st2" d="M410.3,432.4h3.3v14.4h-3.3v-1.5c-1.4,1.3-2.8,1.9-4.4,1.9c-2,0-3.6-0.7-4.9-2.2c-1.3-1.5-1.9-3.3-1.9-5.5
			c0-2.2,0.6-4,1.9-5.4c1.3-1.4,2.9-2.2,4.8-2.2c1.7,0,3.2,0.7,4.5,2.1V432.4z M402.4,439.5c0,1.4,0.4,2.5,1.1,3.4
			c0.8,0.9,1.7,1.3,2.9,1.3c1.2,0,2.2-0.4,3-1.3c0.8-0.9,1.1-2,1.1-3.3c0-1.3-0.4-2.5-1.1-3.3c-0.8-0.9-1.7-1.3-3-1.3
			c-1.1,0-2.1,0.4-2.9,1.3C402.8,437.2,402.4,438.3,402.4,439.5z"/>
		<path class="st2" d="M417.8,432.4h3.3v1.3c1.2-1.2,2.5-1.7,3.9-1.7c1.7,0,3,0.5,3.9,1.6c0.8,0.9,1.2,2.4,1.2,4.4v8.8h-3.3v-8
			c0-1.4-0.2-2.4-0.6-2.9c-0.4-0.6-1.1-0.8-2.1-0.8c-1.1,0-1.9,0.4-2.3,1.1c-0.5,0.7-0.7,2-0.7,3.8v6.9h-3.3V432.4z"/>
		<path class="st2" d="M445,421.8h3.3v24.9H445v-1.5c-1.3,1.3-2.8,1.9-4.4,1.9c-2,0-3.6-0.7-4.9-2.2c-1.3-1.5-1.9-3.3-1.9-5.5
			c0-2.1,0.6-3.9,1.9-5.4c1.3-1.4,2.9-2.2,4.8-2.2c1.7,0,3.2,0.7,4.5,2.1V421.8z M437.1,439.5c0,1.4,0.4,2.5,1.1,3.4
			c0.8,0.9,1.7,1.3,2.9,1.3c1.2,0,2.2-0.4,3-1.3c0.8-0.9,1.1-2,1.1-3.3c0-1.3-0.4-2.5-1.1-3.3c-0.8-0.9-1.7-1.3-3-1.3
			c-1.1,0-2.1,0.4-2.9,1.3C437.5,437.2,437.1,438.3,437.1,439.5z"/>
		<path class="st2" d="M40.7,471.6c0-3.2,1.2-6,3.5-8.3c2.3-2.3,5.2-3.5,8.4-3.5c3.2,0,6,1.2,8.4,3.5c2.3,2.3,3.5,5.1,3.5,8.4
			c0,3.3-1.2,6.1-3.5,8.3c-2.4,2.3-5.2,3.4-8.5,3.4c-2.9,0-5.6-1-7.9-3.1C42,478.2,40.7,475.2,40.7,471.6z M44.2,471.6
			c0,2.5,0.8,4.6,2.5,6.2c1.7,1.6,3.6,2.4,5.8,2.4c2.4,0,4.4-0.8,6.1-2.5c1.6-1.7,2.5-3.7,2.5-6.1c0-2.4-0.8-4.5-2.4-6.1
			c-1.6-1.7-3.6-2.5-6-2.5c-2.4,0-4.4,0.8-6,2.5C45,467.2,44.2,469.2,44.2,471.6z"/>
		<path class="st2" d="M71.6,468.7v8.3c0,2.4,0.9,3.6,2.8,3.6c1.9,0,2.8-1.2,2.8-3.6v-8.3h3.3v8.3c0,1.2-0.1,2.1-0.4,3
			c-0.3,0.7-0.8,1.4-1.4,2c-1.1,1-2.6,1.5-4.3,1.5c-1.7,0-3.1-0.5-4.3-1.5c-0.7-0.6-1.2-1.3-1.5-2c-0.3-0.7-0.4-1.7-0.4-3v-8.3H71.6
			z"/>
		<path class="st2" d="M88.2,471.8v11.3h-3.3v-11.3h-1.4v-3.1h1.4v-5.3h3.3v5.3h2.6v3.1H88.2z"/>
		<path class="st2" d="M96.3,458.1v24.9H93v-24.9H96.3z"/>
		<path class="st2" d="M99.9,475.8c0-2.1,0.7-3.8,2.2-5.3c1.5-1.5,3.3-2.2,5.4-2.2c2.1,0,4,0.7,5.5,2.2c1.5,1.5,2.2,3.3,2.2,5.4
			c0,2.2-0.7,4-2.2,5.4c-1.5,1.4-3.3,2.2-5.5,2.2c-2.2,0-4-0.7-5.4-2.2C100.6,479.8,99.9,478,99.9,475.8z M103.3,475.8
			c0,1.4,0.4,2.6,1.2,3.4c0.8,0.8,1.8,1.3,3.1,1.3c1.3,0,2.3-0.4,3.1-1.3c0.8-0.8,1.2-2,1.2-3.4c0-1.4-0.4-2.5-1.2-3.4
			c-0.8-0.8-1.8-1.3-3.1-1.3c-1.3,0-2.3,0.4-3.1,1.3C103.6,473.4,103.3,474.5,103.3,475.8z"/>
		<path class="st2" d="M118,475.8c0-2.1,0.7-3.8,2.2-5.3c1.5-1.5,3.3-2.2,5.4-2.2c2.1,0,4,0.7,5.5,2.2c1.5,1.5,2.2,3.3,2.2,5.4
			c0,2.2-0.7,4-2.2,5.4c-1.5,1.4-3.3,2.2-5.5,2.2c-2.2,0-4-0.7-5.4-2.2C118.8,479.8,118,478,118,475.8z M121.4,475.8
			c0,1.4,0.4,2.6,1.2,3.4c0.8,0.8,1.8,1.3,3.1,1.3c1.3,0,2.3-0.4,3.1-1.3c0.8-0.8,1.2-2,1.2-3.4c0-1.4-0.4-2.5-1.2-3.4
			c-0.8-0.8-1.8-1.3-3.1-1.3c-1.3,0-2.3,0.4-3.1,1.3C121.8,473.4,121.4,474.5,121.4,475.8z"/>
		<path class="st2" d="M140.2,458.1v15.2l4.7-4.7h4.5l-6.2,6l6.7,8.3h-4.3l-4.8-6.1l-0.5,0.5v5.5h-3.3v-24.9H140.2z"/>
		<path class="st2" d="M152.9,481.4c0-0.6,0.2-1,0.6-1.4c0.4-0.4,0.9-0.6,1.4-0.6c0.6,0,1,0.2,1.4,0.6c0.4,0.4,0.6,0.9,0.6,1.4
			c0,0.6-0.2,1.1-0.6,1.5c-0.4,0.4-0.9,0.6-1.4,0.6c-0.6,0-1.1-0.2-1.5-0.6C153.1,482.5,152.9,482,152.9,481.4z"/>
		<path class="st2" d="M175.2,460.3v22.8h-3.4v-22.8H175.2z"/>
		<path class="st2" d="M199.9,468.7h3.3v14.4h-3.3v-1.5c-1.4,1.3-2.8,1.9-4.4,1.9c-2,0-3.6-0.7-4.9-2.2c-1.3-1.5-1.9-3.3-1.9-5.5
			c0-2.2,0.6-4,1.9-5.4c1.3-1.4,2.9-2.2,4.8-2.2c1.7,0,3.2,0.7,4.5,2.1V468.7z M192.1,475.8c0,1.4,0.4,2.5,1.1,3.4
			c0.8,0.9,1.7,1.3,2.9,1.3c1.2,0,2.2-0.4,3-1.3c0.8-0.9,1.1-2,1.1-3.3c0-1.3-0.4-2.5-1.1-3.3c-0.8-0.9-1.7-1.3-3-1.3
			c-1.1,0-2.1,0.4-2.9,1.3C192.4,473.5,192.1,474.5,192.1,475.8z"/>
		<path class="st2" d="M207.5,468.7h3.3v1.3c0.6-0.7,1.2-1.1,1.6-1.4c0.5-0.2,1.1-0.4,1.8-0.4c1.6,0,2.9,0.7,3.9,2.1
			c1-1.4,2.5-2.1,4.2-2.1c3.2,0,4.9,2,4.9,5.9v8.9h-3.3v-8c0-1.4-0.2-2.4-0.5-2.9c-0.3-0.6-0.9-0.9-1.7-0.9c-0.9,0-1.6,0.3-2,1
			c-0.4,0.7-0.6,1.8-0.6,3.3v7.4h-3.3v-7.9c0-2.6-0.7-3.8-2.2-3.8c-0.9,0-1.6,0.3-2,1c-0.4,0.7-0.6,1.8-0.6,3.3v7.4h-3.3V468.7z"/>
		<path class="st2" d="M251.3,468.7h3.3v14.4h-3.3v-1.5c-1.4,1.3-2.8,1.9-4.4,1.9c-2,0-3.6-0.7-4.9-2.2c-1.3-1.5-1.9-3.3-1.9-5.5
			c0-2.2,0.6-4,1.9-5.4c1.3-1.4,2.9-2.2,4.8-2.2c1.7,0,3.2,0.7,4.5,2.1V468.7z M243.5,475.8c0,1.4,0.4,2.5,1.1,3.4
			c0.8,0.9,1.7,1.3,2.9,1.3c1.2,0,2.2-0.4,3-1.3c0.8-0.9,1.1-2,1.1-3.3c0-1.3-0.4-2.5-1.1-3.3c-0.8-0.9-1.7-1.3-3-1.3
			c-1.1,0-2.1,0.4-2.9,1.3C243.8,473.5,243.5,474.5,243.5,475.8z"/>
		<path class="st2" d="M262.2,458.1v24.9h-3.3v-24.9H262.2z"/>
		<path class="st2" d="M274.8,471.1l-2.7,1.5c-0.4-0.9-1-1.3-1.6-1.3c-0.3,0-0.6,0.1-0.8,0.3c-0.2,0.2-0.3,0.5-0.3,0.8
			c0,0.6,0.6,1.1,1.9,1.6c1.8,0.8,2.9,1.5,3.6,2.1c0.6,0.6,0.9,1.5,0.9,2.6c0,1.4-0.5,2.6-1.5,3.5c-1,0.9-2.2,1.3-3.6,1.3
			c-2.4,0-4.1-1.2-5.1-3.5l2.8-1.3c0.4,0.7,0.7,1.1,0.9,1.3c0.4,0.4,0.9,0.6,1.4,0.6c1.1,0,1.7-0.5,1.7-1.5c0-0.6-0.4-1.1-1.3-1.7
			c-0.3-0.2-0.7-0.3-1-0.5c-0.3-0.2-0.7-0.3-1-0.5c-1-0.5-1.6-0.9-2-1.4c-0.5-0.6-0.8-1.4-0.8-2.3c0-1.3,0.4-2.3,1.3-3.1
			c0.9-0.8,1.9-1.2,3.2-1.2C272.5,468.3,273.9,469.2,274.8,471.1z"/>
		<path class="st2" d="M278,475.8c0-2.1,0.7-3.8,2.2-5.3c1.5-1.5,3.3-2.2,5.4-2.2c2.1,0,4,0.7,5.5,2.2c1.5,1.5,2.2,3.3,2.2,5.4
			c0,2.2-0.7,4-2.2,5.4c-1.5,1.4-3.3,2.2-5.5,2.2c-2.2,0-4-0.7-5.4-2.2C278.7,479.8,278,478,278,475.8z M281.4,475.8
			c0,1.4,0.4,2.6,1.2,3.4c0.8,0.8,1.8,1.3,3.1,1.3c1.3,0,2.3-0.4,3.1-1.3c0.8-0.8,1.2-2,1.2-3.4c0-1.4-0.4-2.5-1.2-3.4
			c-0.8-0.8-1.8-1.3-3.1-1.3c-1.3,0-2.3,0.4-3.1,1.3C281.8,473.4,281.4,474.5,281.4,475.8z"/>
		<path class="st2" d="M319.3,476.7H309c0.1,1.2,0.5,2.1,1.2,2.8c0.7,0.7,1.6,1,2.6,1c0.8,0,1.5-0.2,2.1-0.6
			c0.5-0.4,1.1-1.1,1.8-2.2l2.8,1.6c-0.4,0.7-0.9,1.4-1.4,1.9c-0.5,0.5-1,1-1.6,1.3c-0.6,0.3-1.1,0.6-1.8,0.7
			c-0.6,0.2-1.3,0.2-2.1,0.2c-2.1,0-3.9-0.7-5.2-2.1c-1.3-1.4-1.9-3.2-1.9-5.5c0-2.3,0.6-4.1,1.9-5.5c1.3-1.4,3-2.1,5.1-2.1
			c2.1,0,3.8,0.7,5,2c1.2,1.3,1.8,3.2,1.8,5.6L319.3,476.7z M315.9,473.9c-0.5-1.8-1.6-2.7-3.4-2.7c-0.4,0-0.8,0.1-1.1,0.2
			c-0.4,0.1-0.7,0.3-1,0.5c-0.3,0.2-0.5,0.5-0.7,0.8c-0.2,0.3-0.4,0.7-0.5,1.1H315.9z"/>
		<path class="st2" d="M326.4,471.8v11.3H323v-11.3h-1.2v-3.1h1.2v-5.6c0-1.8,0.3-3.1,0.9-3.8c0.9-1,2.1-1.6,3.8-1.6
			c0.6,0,1.3,0.2,2.2,0.5v3.4l-0.3-0.2c-0.7-0.4-1.3-0.5-1.8-0.5c-0.6,0-1,0.2-1.2,0.6c-0.2,0.4-0.3,1.2-0.3,2.4v4.7h3.6v3.1H326.4z
			"/>
		<path class="st2" d="M336.3,471.8v11.3H333v-11.3h-1.2v-3.1h1.2v-5.6c0-1.8,0.3-3.1,0.9-3.8c0.9-1,2.1-1.6,3.8-1.6
			c0.6,0,1.3,0.2,2.2,0.5v3.4l-0.3-0.2c-0.7-0.4-1.3-0.5-1.8-0.5c-0.6,0-1,0.2-1.2,0.6c-0.2,0.4-0.3,1.2-0.3,2.4v4.7h3.6v3.1H336.3z
			"/>
		<path class="st2" d="M346.3,471.8v11.3H343v-11.3h-1.2v-3.1h1.2v-5.6c0-1.8,0.3-3.1,0.9-3.8c0.9-1,2.1-1.6,3.8-1.6
			c0.6,0,1.3,0.2,2.2,0.5v3.4l-0.3-0.2c-0.7-0.4-1.3-0.5-1.8-0.5c-0.6,0-1,0.2-1.2,0.6c-0.2,0.4-0.3,1.2-0.3,2.4v4.7h3.6v3.1H346.3z
			"/>
		<path class="st2" d="M352,462.7c0-0.6,0.2-1.1,0.6-1.5c0.4-0.4,0.9-0.6,1.5-0.6c0.6,0,1.1,0.2,1.5,0.6c0.4,0.4,0.6,0.9,0.6,1.5
			c0,0.6-0.2,1.1-0.6,1.5c-0.4,0.4-0.9,0.6-1.5,0.6c-0.6,0-1.1-0.2-1.5-0.6C352.2,463.8,352,463.3,352,462.7z M355.8,468.7v14.4
			h-3.3v-14.4H355.8z"/>
		<path class="st2" d="M371.2,469.3v4.4c-0.8-0.9-1.4-1.6-2-1.9c-0.6-0.4-1.3-0.5-2.1-0.5c-1.3,0-2.3,0.4-3.1,1.3
			c-0.8,0.9-1.2,2-1.2,3.3c0,1.3,0.4,2.5,1.2,3.3c0.8,0.9,1.8,1.3,3.1,1.3c0.8,0,1.5-0.2,2.1-0.5c0.6-0.3,1.3-1,2.1-1.9v4.4
			c-1.3,0.7-2.7,1-4,1c-2.2,0-4.1-0.7-5.6-2.2c-1.5-1.4-2.2-3.2-2.2-5.4c0-2.1,0.8-4,2.3-5.4c1.5-1.5,3.4-2.2,5.6-2.2
			C368.6,468.3,370,468.6,371.2,469.3z"/>
		<path class="st2" d="M373.9,462.7c0-0.6,0.2-1.1,0.6-1.5c0.4-0.4,0.9-0.6,1.5-0.6c0.6,0,1.1,0.2,1.5,0.6c0.4,0.4,0.6,0.9,0.6,1.5
			c0,0.6-0.2,1.1-0.6,1.5c-0.4,0.4-0.9,0.6-1.5,0.6c-0.6,0-1.1-0.2-1.5-0.6C374.2,463.8,373.9,463.3,373.9,462.7z M377.8,468.7v14.4
			h-3.3v-14.4H377.8z"/>
		<path class="st2" d="M395.1,476.7h-10.3c0.1,1.2,0.5,2.1,1.2,2.8c0.7,0.7,1.6,1,2.6,1c0.8,0,1.5-0.2,2.1-0.6
			c0.5-0.4,1.1-1.1,1.8-2.2l2.8,1.6c-0.4,0.7-0.9,1.4-1.4,1.9c-0.5,0.5-1,1-1.6,1.3c-0.6,0.3-1.1,0.6-1.8,0.7
			c-0.6,0.2-1.3,0.2-2.1,0.2c-2.1,0-3.9-0.7-5.2-2.1c-1.3-1.4-1.9-3.2-1.9-5.5c0-2.3,0.6-4.1,1.9-5.5c1.3-1.4,3-2.1,5.1-2.1
			c2.1,0,3.8,0.7,5,2c1.2,1.3,1.8,3.2,1.8,5.6L395.1,476.7z M391.7,473.9c-0.5-1.8-1.6-2.7-3.4-2.7c-0.4,0-0.8,0.1-1.1,0.2
			c-0.4,0.1-0.7,0.3-1,0.5c-0.3,0.2-0.5,0.5-0.7,0.8c-0.2,0.3-0.4,0.7-0.5,1.1H391.7z"/>
		<path class="st2" d="M398.7,468.7h3.3v1.3c1.2-1.2,2.5-1.7,3.9-1.7c1.7,0,3,0.5,3.9,1.6c0.8,0.9,1.2,2.4,1.2,4.4v8.8h-3.3v-8
			c0-1.4-0.2-2.4-0.6-2.9c-0.4-0.6-1.1-0.8-2.1-0.8c-1.1,0-1.9,0.4-2.3,1.1c-0.5,0.7-0.7,2-0.7,3.8v6.9h-3.3V468.7z"/>
		<path class="st2" d="M418.7,471.8v11.3h-3.3v-11.3H414v-3.1h1.4v-5.3h3.3v5.3h2.6v3.1H418.7z"/>
		<path class="st2" d="M432.4,462.7c0-0.6,0.2-1.1,0.6-1.5c0.4-0.4,0.9-0.6,1.5-0.6c0.6,0,1.1,0.2,1.5,0.6c0.4,0.4,0.6,0.9,0.6,1.5
			c0,0.6-0.2,1.1-0.6,1.5c-0.4,0.4-0.9,0.6-1.5,0.6c-0.6,0-1.1-0.2-1.5-0.6C432.6,463.8,432.4,463.3,432.4,462.7z M436.2,468.7v14.4
			h-3.3v-14.4H436.2z"/>
		<path class="st2" d="M440.4,468.7h3.3v1.3c1.2-1.2,2.5-1.7,3.9-1.7c1.7,0,3,0.5,3.9,1.6c0.8,0.9,1.2,2.4,1.2,4.4v8.8h-3.3v-8
			c0-1.4-0.2-2.4-0.6-2.9c-0.4-0.6-1.1-0.8-2.1-0.8c-1.1,0-1.9,0.4-2.3,1.1c-0.5,0.7-0.7,2-0.7,3.8v6.9h-3.3V468.7z"/>
		<path class="st2" d="M45.3,510.1v9.3h-3.4v-22.8h3.9c1.9,0,3.4,0.1,4.3,0.4c1,0.3,1.9,0.8,2.6,1.5c1.3,1.3,2,2.9,2,4.8
			c0,2.1-0.7,3.7-2.1,5c-1.4,1.2-3.3,1.8-5.7,1.8H45.3z M45.3,506.9h1.3c3.2,0,4.7-1.2,4.7-3.6c0-2.4-1.6-3.5-4.9-3.5h-1.1V506.9z"
			/>
		<path class="st2" d="M57.6,494.4h3.3v11.8c1.2-1.1,2.5-1.6,3.9-1.6c1.6,0,2.9,0.5,3.9,1.6c0.8,0.9,1.2,2.4,1.2,4.4v8.8h-3.3v-8.5
			c0-1.2-0.2-2-0.6-2.5c-0.4-0.5-1.1-0.8-2-0.8c-1.2,0-2,0.4-2.5,1.1c-0.5,0.7-0.7,2-0.7,3.8v7h-3.3V494.4z"/>
		<path class="st2" d="M73.5,512.1c0-2.1,0.7-3.8,2.2-5.3c1.5-1.5,3.3-2.2,5.4-2.2c2.1,0,4,0.7,5.5,2.2c1.5,1.5,2.2,3.3,2.2,5.4
			c0,2.2-0.7,4-2.2,5.4c-1.5,1.4-3.3,2.2-5.5,2.2c-2.2,0-4-0.7-5.4-2.2C74.2,516.1,73.5,514.3,73.5,512.1z M76.9,512.1
			c0,1.4,0.4,2.6,1.2,3.4c0.8,0.8,1.8,1.3,3.1,1.3c1.3,0,2.3-0.4,3.1-1.3c0.8-0.8,1.2-2,1.2-3.4c0-1.4-0.4-2.5-1.2-3.4
			c-0.8-0.8-1.8-1.3-3.1-1.3c-1.3,0-2.3,0.4-3.1,1.3C77.3,509.7,76.9,510.8,76.9,512.1z"/>
		<path class="st2" d="M95.9,508.1v11.3h-3.3v-11.3h-1.4V505h1.4v-5.3h3.3v5.3h2.6v3.1H95.9z"/>
		<path class="st2" d="M100.3,512.1c0-2.1,0.7-3.8,2.2-5.3c1.5-1.5,3.3-2.2,5.4-2.2c2.1,0,4,0.7,5.5,2.2c1.5,1.5,2.2,3.3,2.2,5.4
			c0,2.2-0.7,4-2.2,5.4c-1.5,1.4-3.3,2.2-5.5,2.2c-2.2,0-4-0.7-5.4-2.2C101,516.1,100.3,514.3,100.3,512.1z M103.7,512.1
			c0,1.4,0.4,2.6,1.2,3.4c0.8,0.8,1.8,1.3,3.1,1.3c1.3,0,2.3-0.4,3.1-1.3c0.8-0.8,1.2-2,1.2-3.4c0-1.4-0.4-2.5-1.2-3.4
			c-0.8-0.8-1.8-1.3-3.1-1.3c-1.3,0-2.3,0.4-3.1,1.3C104.1,509.7,103.7,510.8,103.7,512.1z"/>
		<path class="st2" d="M133.1,519c0,0.7,0,1.3-0.1,1.8s-0.1,1-0.2,1.4c-0.2,1.1-0.7,2-1.4,2.8c-1.3,1.5-3.1,2.2-5.4,2.2
			c-1.9,0-3.5-0.5-4.7-1.6c-1.3-1.1-2-2.5-2.2-4.4h3.3c0.1,0.7,0.3,1.3,0.6,1.6c0.7,0.9,1.7,1.3,3,1.3c2.4,0,3.6-1.5,3.6-4.5v-2
			c-1.3,1.3-2.8,2-4.6,2c-2,0-3.6-0.7-4.8-2.1c-1.3-1.4-1.9-3.2-1.9-5.4c0-2.1,0.6-3.9,1.8-5.3c1.3-1.6,2.9-2.3,5-2.3
			c1.8,0,3.3,0.7,4.5,2V505h3.3V519z M129.9,512.2c0-1.4-0.4-2.5-1.1-3.4c-0.8-0.9-1.7-1.3-2.9-1.3c-1.3,0-2.3,0.5-3,1.4
			c-0.7,0.8-1,1.9-1,3.2c0,1.3,0.3,2.4,1,3.2c0.7,0.9,1.7,1.4,3,1.4s2.3-0.5,3-1.4C129.5,514.6,129.9,513.5,129.9,512.2z"/>
		<path class="st2" d="M137.3,505h3.3v1.3c0.6-0.6,1.2-1.1,1.6-1.3c0.5-0.2,1.1-0.4,1.7-0.4c0.9,0,1.8,0.3,2.7,0.9l-1.5,3
			c-0.6-0.5-1.2-0.7-1.8-0.7c-1.8,0-2.7,1.4-2.7,4.1v7.5h-3.3V505z"/>
		<path class="st2" d="M159,505h3.3v14.4H159v-1.5c-1.4,1.3-2.8,1.9-4.4,1.9c-2,0-3.6-0.7-4.9-2.2c-1.3-1.5-1.9-3.3-1.9-5.5
			c0-2.2,0.6-4,1.9-5.4c1.3-1.4,2.9-2.2,4.8-2.2c1.7,0,3.2,0.7,4.5,2.1V505z M151.1,512.1c0,1.4,0.4,2.5,1.1,3.4
			c0.8,0.9,1.7,1.3,2.9,1.3c1.2,0,2.2-0.4,3-1.3c0.8-0.9,1.1-2,1.1-3.3c0-1.3-0.4-2.5-1.1-3.3c-0.8-0.9-1.7-1.3-3-1.3
			c-1.1,0-2.1,0.4-2.9,1.3C151.5,509.8,151.1,510.8,151.1,512.1z"/>
		<path class="st2" d="M169.8,527.2h-3.3V505h3.3v1.6c1.3-1.3,2.8-2,4.5-2c2,0,3.6,0.7,4.9,2.2c1.3,1.4,1.9,3.3,1.9,5.5
			c0,2.2-0.6,4-1.9,5.4c-1.3,1.4-2.9,2.1-4.8,2.1c-1.7,0-3.2-0.7-4.5-2V527.2z M177.7,512.3c0-1.4-0.4-2.5-1.1-3.4
			c-0.8-0.9-1.7-1.3-2.9-1.3c-1.2,0-2.2,0.4-3,1.3c-0.8,0.8-1.1,2-1.1,3.3c0,1.3,0.4,2.5,1.1,3.3c0.7,0.9,1.7,1.3,3,1.3
			c1.2,0,2.1-0.4,2.9-1.3C177.3,514.6,177.7,513.6,177.7,512.3z"/>
		<path class="st2" d="M184.6,494.4h3.3v11.8c1.2-1.1,2.5-1.6,3.9-1.6c1.6,0,2.9,0.5,3.9,1.6c0.8,0.9,1.2,2.4,1.2,4.4v8.8h-3.3v-8.5
			c0-1.2-0.2-2-0.6-2.5c-0.4-0.5-1.1-0.8-2-0.8c-1.2,0-2,0.4-2.5,1.1c-0.5,0.7-0.7,2-0.7,3.8v7h-3.3V494.4z"/>
		<path class="st2" d="M205.3,516.7l-6.5-11.7h3.9l4.4,8.3l4.1-8.3h3.8l-11.5,22.2h-3.8L205.3,516.7z"/>
		<path class="st2" d="M237.1,505h3.3v14.4h-3.3v-1.5c-1.4,1.3-2.8,1.9-4.4,1.9c-2,0-3.6-0.7-4.9-2.2c-1.3-1.5-1.9-3.3-1.9-5.5
			c0-2.2,0.6-4,1.9-5.4c1.3-1.4,2.9-2.2,4.8-2.2c1.7,0,3.2,0.7,4.5,2.1V505z M229.2,512.1c0,1.4,0.4,2.5,1.1,3.4
			c0.8,0.9,1.7,1.3,2.9,1.3c1.2,0,2.2-0.4,3-1.3c0.8-0.9,1.1-2,1.1-3.3c0-1.3-0.4-2.5-1.1-3.3c-0.8-0.9-1.7-1.3-3-1.3
			c-1.1,0-2.1,0.4-2.9,1.3C229.6,509.8,229.2,510.8,229.2,512.1z"/>
		<path class="st2" d="M244.6,505h3.3v1.3c1.2-1.2,2.5-1.7,3.9-1.7c1.7,0,3,0.5,3.9,1.6c0.8,0.9,1.2,2.4,1.2,4.4v8.8h-3.3v-8
			c0-1.4-0.2-2.4-0.6-2.9c-0.4-0.6-1.1-0.8-2.1-0.8c-1.1,0-1.9,0.4-2.3,1.1c-0.5,0.7-0.7,2-0.7,3.8v6.9h-3.3V505z"/>
		<path class="st2" d="M271.8,494.4h3.3v24.9h-3.3v-1.5c-1.3,1.3-2.8,1.9-4.4,1.9c-2,0-3.6-0.7-4.9-2.2c-1.3-1.5-1.9-3.3-1.9-5.5
			c0-2.1,0.6-3.9,1.9-5.4c1.3-1.4,2.9-2.2,4.8-2.2c1.7,0,3.2,0.7,4.5,2.1V494.4z M264,512.1c0,1.4,0.4,2.5,1.1,3.4
			c0.8,0.9,1.7,1.3,2.9,1.3c1.2,0,2.2-0.4,3-1.3c0.8-0.9,1.1-2,1.1-3.3c0-1.3-0.4-2.5-1.1-3.3c-0.8-0.9-1.7-1.3-3-1.3
			c-1.1,0-2.1,0.4-2.9,1.3C264.3,509.8,264,510.8,264,512.1z"/>
		<path class="st2" d="M302.2,500l-2.8,1.7c-0.5-0.9-1-1.5-1.5-1.8c-0.5-0.3-1.1-0.5-1.9-0.5c-1,0-1.7,0.3-2.4,0.8
			c-0.6,0.5-0.9,1.2-0.9,2c0,1.1,0.8,2,2.5,2.7l2.3,0.9c1.9,0.7,3.2,1.7,4.1,2.7c0.9,1.1,1.3,2.4,1.3,4c0,2.1-0.7,3.8-2.1,5.2
			c-1.4,1.4-3.2,2.1-5.2,2.1c-2,0-3.6-0.6-4.9-1.8c-1.3-1.2-2.1-2.8-2.4-4.9l3.5-0.8c0.2,1.3,0.4,2.3,0.8,2.8c0.7,1,1.7,1.5,3.1,1.5
			c1.1,0,2-0.4,2.7-1.1c0.7-0.7,1.1-1.6,1.1-2.7c0-0.4-0.1-0.8-0.2-1.2c-0.1-0.4-0.3-0.7-0.6-1c-0.3-0.3-0.6-0.6-1-0.9
			c-0.4-0.3-0.9-0.5-1.5-0.8l-2.2-0.9c-3.1-1.3-4.7-3.2-4.7-5.8c0-1.7,0.7-3.1,2-4.3c1.3-1.2,2.9-1.7,4.9-1.7
			C298.7,496.1,300.8,497.4,302.2,500z"/>
		<path class="st2" d="M309.7,494.4v15.2l4.7-4.7h4.5l-6.2,6l6.7,8.3h-4.3l-4.8-6.1l-0.5,0.5v5.5h-3.3v-24.9H309.7z"/>
		<path class="st2" d="M334,513h-10.3c0.1,1.2,0.5,2.1,1.2,2.8c0.7,0.7,1.6,1,2.6,1c0.8,0,1.5-0.2,2.1-0.6c0.5-0.4,1.1-1.1,1.8-2.2
			l2.8,1.6c-0.4,0.7-0.9,1.4-1.4,1.9c-0.5,0.5-1,1-1.6,1.3c-0.6,0.3-1.1,0.6-1.8,0.7c-0.6,0.2-1.3,0.2-2.1,0.2
			c-2.1,0-3.9-0.7-5.2-2.1c-1.3-1.4-1.9-3.2-1.9-5.5c0-2.3,0.6-4.1,1.9-5.5c1.3-1.4,3-2.1,5.1-2.1c2.1,0,3.8,0.7,5,2
			c1.2,1.3,1.8,3.2,1.8,5.6L334,513z M330.6,510.2c-0.5-1.8-1.6-2.7-3.4-2.7c-0.4,0-0.8,0.1-1.1,0.2c-0.4,0.1-0.7,0.3-1,0.5
			c-0.3,0.2-0.5,0.5-0.7,0.8c-0.2,0.3-0.4,0.7-0.5,1.1H330.6z"/>
		<path class="st2" d="M341.3,508.1v11.3H338v-11.3h-1.4V505h1.4v-5.3h3.3v5.3h2.6v3.1H341.3z"/>
		<path class="st2" d="M357.4,505.6v4.4c-0.8-0.9-1.4-1.6-2-1.9c-0.6-0.4-1.3-0.5-2.1-0.5c-1.3,0-2.3,0.4-3.1,1.3
			c-0.8,0.9-1.2,2-1.2,3.3c0,1.3,0.4,2.5,1.2,3.3c0.8,0.9,1.8,1.3,3.1,1.3c0.8,0,1.5-0.2,2.1-0.5c0.6-0.3,1.3-1,2.1-1.9v4.4
			c-1.3,0.7-2.7,1-4,1c-2.2,0-4.1-0.7-5.6-2.2c-1.5-1.4-2.2-3.2-2.2-5.4c0-2.1,0.8-4,2.3-5.4c1.5-1.5,3.4-2.2,5.6-2.2
			C354.8,504.6,356.1,504.9,357.4,505.6z"/>
		<path class="st2" d="M361.4,494.4h3.3v11.8c1.2-1.1,2.5-1.6,3.9-1.6c1.6,0,2.9,0.5,3.9,1.6c0.8,0.9,1.2,2.4,1.2,4.4v8.8h-3.3v-8.5
			c0-1.2-0.2-2-0.6-2.5c-0.4-0.5-1.1-0.8-2-0.8c-1.2,0-2,0.4-2.5,1.1c-0.5,0.7-0.7,2-0.7,3.8v7h-3.3V494.4z"/>
		<path class="st2" d="M377.5,499c0-0.6,0.2-1.1,0.6-1.5c0.4-0.4,0.9-0.6,1.5-0.6c0.6,0,1.1,0.2,1.5,0.6c0.4,0.4,0.6,0.9,0.6,1.5
			c0,0.6-0.2,1.1-0.6,1.5c-0.4,0.4-0.9,0.6-1.5,0.6c-0.6,0-1.1-0.2-1.5-0.6C377.7,500.1,377.5,499.6,377.5,499z M381.3,505v14.4H378
			V505H381.3z"/>
		<path class="st2" d="M385.5,505h3.3v1.3c1.2-1.2,2.5-1.7,3.9-1.7c1.7,0,3,0.5,3.9,1.6c0.8,0.9,1.2,2.4,1.2,4.4v8.8h-3.3v-8
			c0-1.4-0.2-2.4-0.6-2.9c-0.4-0.6-1.1-0.8-2.1-0.8c-1.1,0-1.9,0.4-2.3,1.1c-0.5,0.7-0.7,2-0.7,3.8v6.9h-3.3V505z"/>
		<path class="st2" d="M416,519c0,0.7,0,1.3-0.1,1.8s-0.1,1-0.2,1.4c-0.2,1.1-0.7,2-1.4,2.8c-1.3,1.5-3.1,2.2-5.4,2.2
			c-1.9,0-3.5-0.5-4.7-1.6c-1.3-1.1-2-2.5-2.2-4.4h3.3c0.1,0.7,0.3,1.3,0.6,1.6c0.7,0.9,1.7,1.3,3,1.3c2.4,0,3.6-1.5,3.6-4.5v-2
			c-1.3,1.3-2.8,2-4.6,2c-2,0-3.6-0.7-4.8-2.1c-1.3-1.4-1.9-3.2-1.9-5.4c0-2.1,0.6-3.9,1.8-5.3c1.3-1.6,2.9-2.3,5-2.3
			c1.8,0,3.3,0.7,4.5,2V505h3.3V519z M412.8,512.2c0-1.4-0.4-2.5-1.1-3.4c-0.8-0.9-1.7-1.3-2.9-1.3c-1.3,0-2.3,0.5-3,1.4
			c-0.7,0.8-1,1.9-1,3.2c0,1.3,0.3,2.4,1,3.2c0.7,0.9,1.7,1.4,3,1.4s2.3-0.5,3-1.4C412.5,514.6,412.8,513.5,412.8,512.2z"/>
		<path class="st2" d="M420.7,517.7c0-0.6,0.2-1,0.6-1.4c0.4-0.4,0.9-0.6,1.4-0.6s1,0.2,1.4,0.6c0.4,0.4,0.6,0.9,0.6,1.4
			c0,0.6-0.2,1.1-0.6,1.5c-0.4,0.4-0.9,0.6-1.4,0.6c-0.6,0-1.1-0.2-1.5-0.6C420.9,518.8,420.7,518.3,420.7,517.7z"/>
	</g>
	<g>
		<path class="st2" d="M62.9,756.1c-2.6-3.4-5.7-5.1-9.5-5.1c-1.7,0-3.2,0.3-4.6,1c-1.4,0.7-2.6,1.5-3.6,2.7c-1,1.1-1.8,2.5-2.4,4
			c-0.6,1.6-0.9,3.2-0.9,5c0,1.8,0.3,3.5,0.9,5.1c0.6,1.6,1.4,2.9,2.4,4.1c1,1.1,2.2,2,3.6,2.7c1.4,0.7,2.9,1,4.5,1
			c3.5,0,6.7-1.6,9.5-4.9v14.2l-1.1,0.4c-1.7,0.7-3.3,1.1-4.7,1.4c-1.5,0.3-2.9,0.5-4.3,0.5c-2.9,0-5.7-0.6-8.4-1.8
			c-2.7-1.2-5.1-2.9-7.1-5.1c-2-2.2-3.7-4.8-4.9-7.8c-1.2-3-1.9-6.3-1.9-9.9s0.6-6.8,1.8-9.8c1.2-3,2.9-5.5,4.9-7.7
			c2-2.1,4.4-3.8,7.1-5c2.7-1.2,5.5-1.8,8.5-1.8c1.7,0,3.4,0.2,5,0.6c1.6,0.4,3.4,1,5.2,1.8V756.1z"/>
		<path class="st2" d="M71.3,770.9c0-2.3,0.4-4.5,1.3-6.5c0.9-2,2.1-3.8,3.6-5.3c1.5-1.5,3.4-2.7,5.5-3.5c2.1-0.9,4.4-1.3,7-1.3
			c2.5,0,4.8,0.4,6.9,1.3c2.1,0.8,4,2,5.5,3.5c1.6,1.5,2.8,3.3,3.6,5.3c0.9,2.1,1.3,4.3,1.3,6.8c0,2.5-0.4,4.8-1.3,6.8
			c-0.9,2.1-2.1,3.8-3.6,5.3c-1.5,1.5-3.4,2.6-5.5,3.5c-2.2,0.8-4.5,1.2-7,1.2c-2.5,0-4.8-0.4-6.9-1.2c-2.1-0.8-3.9-2-5.4-3.5
			c-1.5-1.5-2.7-3.3-3.6-5.4C71.7,775.8,71.3,773.5,71.3,770.9z M82,771.1c0,1.1,0.2,2,0.5,2.9c0.4,0.9,0.8,1.6,1.4,2.3
			c0.6,0.7,1.3,1.2,2.1,1.5c0.8,0.4,1.7,0.6,2.6,0.6s1.8-0.2,2.6-0.6c0.8-0.4,1.5-0.9,2.1-1.5c0.6-0.7,1.1-1.4,1.4-2.3
			c0.4-0.9,0.5-1.8,0.5-2.9c0-1-0.2-1.9-0.5-2.8c-0.4-0.9-0.8-1.6-1.4-2.3c-0.6-0.7-1.3-1.2-2.1-1.5c-0.8-0.4-1.7-0.6-2.6-0.6
			s-1.8,0.2-2.6,0.6c-0.8,0.4-1.5,0.9-2.1,1.5c-0.6,0.7-1.1,1.4-1.4,2.3C82.2,769.1,82,770.1,82,771.1z"/>
		<path class="st2" d="M115.3,755.5h10.2v4c1.4-1.8,2.8-3.1,4.2-3.7c1.4-0.6,3.1-1,5-1c2,0,3.8,0.4,5.2,1.1c1.4,0.7,2.7,1.7,3.7,3
			c0.8,1.1,1.4,2.3,1.7,3.6c0.3,1.3,0.5,2.8,0.5,4.5v20h-10.2v-15.9c0-1.6-0.1-2.8-0.3-3.8c-0.2-1-0.6-1.7-1.1-2.3
			c-0.5-0.5-1-0.8-1.5-1c-0.6-0.2-1.2-0.3-1.8-0.3c-1.7,0-3.1,0.6-4,1.7c-0.9,1.1-1.4,2.7-1.4,4.8v16.8h-10.2V755.5z"/>
		<path class="st2" d="M167.6,764.7v22.2h-10.2v-22.2H154v-9.3h3.4V746h10.2v9.5h5.8v9.3H167.6z"/>
		<path class="st2" d="M203.6,755.5h10.3v31.5h-10.3v-3.5c-2.2,3-5.1,4.5-8.8,4.5c-2.1,0-4-0.4-5.8-1.3c-1.8-0.8-3.3-2-4.6-3.5
			c-1.3-1.5-2.3-3.3-3.1-5.3c-0.7-2-1.1-4.3-1.1-6.7c0-2.3,0.4-4.4,1.1-6.4c0.7-2,1.7-3.8,3-5.3c1.3-1.5,2.8-2.7,4.6-3.6
			c1.8-0.9,3.7-1.3,5.9-1.3c3.6,0,6.6,1.4,9,4.1V755.5z M190.7,771.1c0,1,0.2,2,0.5,2.9c0.3,0.9,0.8,1.6,1.4,2.3
			c0.6,0.7,1.3,1.2,2.1,1.5c0.8,0.4,1.7,0.6,2.6,0.6c0.9,0,1.8-0.2,2.6-0.6c0.8-0.4,1.5-0.9,2.1-1.5c0.6-0.7,1.1-1.4,1.4-2.3
			c0.4-0.9,0.5-1.8,0.5-2.8s-0.2-1.9-0.5-2.8c-0.4-0.9-0.8-1.6-1.4-2.3c-0.6-0.7-1.3-1.2-2.1-1.5c-0.8-0.4-1.7-0.6-2.6-0.6
			c-0.9,0-1.8,0.2-2.6,0.6c-0.8,0.4-1.5,0.9-2.1,1.5c-0.6,0.7-1,1.4-1.4,2.2C190.9,769.2,190.7,770.1,190.7,771.1z"/>
		<path class="st2" d="M246.1,765.6c-1.8-1.3-3.5-2-5.4-2c-1,0-1.9,0.2-2.7,0.6c-0.8,0.4-1.6,0.9-2.2,1.6c-0.6,0.7-1.1,1.5-1.5,2.4
			c-0.4,0.9-0.5,2-0.5,3.1c0,1.1,0.2,2.1,0.5,3c0.4,0.9,0.8,1.7,1.5,2.4c0.6,0.7,1.4,1.2,2.2,1.6c0.9,0.4,1.8,0.6,2.8,0.6
			c1.9,0,3.7-0.7,5.4-2.1v9.5c-2.5,1.2-4.9,1.8-7.2,1.8c-2.1,0-4.1-0.4-6-1.2c-1.9-0.8-3.6-1.9-5-3.3c-1.4-1.5-2.6-3.2-3.5-5.2
			c-0.9-2-1.3-4.3-1.3-6.8c0-2.5,0.4-4.8,1.2-6.8c0.8-2.1,2-3.8,3.4-5.3c1.4-1.5,3.1-2.7,5.1-3.5c2-0.8,4.1-1.3,6.3-1.3
			c2.5,0,4.8,0.6,6.9,1.7V765.6z"/>
		<path class="st2" d="M266.7,764.7v22.2h-10.2v-22.2h-3.4v-9.3h3.4V746h10.2v9.5h5.8v9.3H266.7z"/>
	</g>
	<g>
		<path class="st2" d="M55.7,842.3H59v1.3c0.6-0.6,1.2-1.1,1.6-1.3c0.5-0.2,1.1-0.4,1.7-0.4c0.9,0,1.8,0.3,2.7,0.9l-1.5,3
			c-0.6-0.5-1.2-0.7-1.8-0.7c-1.8,0-2.7,1.4-2.7,4.1v7.5h-3.3V842.3z"/>
		<path class="st2" d="M77.4,831.7h3.3v24.9h-3.3v-1.5c-1.3,1.3-2.8,1.9-4.4,1.9c-2,0-3.6-0.7-4.9-2.2c-1.3-1.5-1.9-3.3-1.9-5.5
			c0-2.1,0.6-3.9,1.9-5.4c1.3-1.4,2.9-2.2,4.8-2.2c1.7,0,3.2,0.7,4.5,2.1V831.7z M69.5,849.4c0,1.4,0.4,2.5,1.1,3.4
			c0.8,0.9,1.7,1.3,2.9,1.3c1.2,0,2.2-0.4,3-1.3c0.8-0.9,1.1-2,1.1-3.3c0-1.3-0.4-2.5-1.1-3.3c-0.8-0.9-1.7-1.3-3-1.3
			c-1.1,0-2.1,0.4-2.9,1.3C69.9,847.1,69.5,848.2,69.5,849.4z"/>
		<path class="st2" d="M88.3,842.3v8.3c0,2.4,0.9,3.6,2.8,3.6c1.9,0,2.8-1.2,2.8-3.6v-8.3h3.3v8.3c0,1.2-0.1,2.1-0.4,3
			c-0.3,0.7-0.8,1.4-1.4,2c-1.1,1-2.6,1.5-4.3,1.5c-1.7,0-3.1-0.5-4.3-1.5c-0.7-0.6-1.2-1.3-1.5-2c-0.3-0.7-0.4-1.7-0.4-3v-8.3H88.3
			z"/>
		<path class="st2" d="M104.7,864.5h-3.3v-22.2h3.3v1.6c1.3-1.3,2.8-2,4.5-2c2,0,3.6,0.7,4.9,2.2c1.3,1.4,1.9,3.3,1.9,5.5
			c0,2.2-0.6,4-1.9,5.4c-1.3,1.4-2.9,2.1-4.8,2.1c-1.7,0-3.2-0.7-4.5-2V864.5z M112.7,849.6c0-1.4-0.4-2.5-1.1-3.4
			c-0.8-0.9-1.7-1.3-2.9-1.3c-1.2,0-2.2,0.4-3,1.3c-0.8,0.8-1.1,2-1.1,3.3c0,1.3,0.4,2.5,1.1,3.3c0.7,0.9,1.7,1.3,3,1.3
			c1.2,0,2.1-0.4,2.9-1.3C112.3,852,112.7,850.9,112.7,849.6z"/>
		<path class="st2" d="M132.7,850.3h-10.3c0.1,1.2,0.5,2.1,1.2,2.8c0.7,0.7,1.6,1,2.6,1c0.8,0,1.5-0.2,2.1-0.6
			c0.5-0.4,1.1-1.1,1.8-2.2l2.8,1.6c-0.4,0.7-0.9,1.4-1.4,1.9c-0.5,0.5-1,1-1.6,1.3c-0.6,0.3-1.1,0.6-1.8,0.7
			c-0.6,0.2-1.3,0.2-2.1,0.2c-2.1,0-3.9-0.7-5.2-2.1c-1.3-1.4-1.9-3.2-1.9-5.5c0-2.3,0.6-4.1,1.9-5.5c1.3-1.4,3-2.1,5.1-2.1
			c2.1,0,3.8,0.7,5,2c1.2,1.3,1.8,3.2,1.8,5.6L132.7,850.3z M129.3,847.6c-0.5-1.8-1.6-2.7-3.4-2.7c-0.4,0-0.8,0.1-1.1,0.2
			s-0.7,0.3-1,0.5c-0.3,0.2-0.5,0.5-0.7,0.8s-0.4,0.7-0.5,1.1H129.3z"/>
		<path class="st2" d="M144.7,844.8l-2.7,1.5c-0.4-0.9-1-1.3-1.6-1.3c-0.3,0-0.6,0.1-0.8,0.3c-0.2,0.2-0.3,0.5-0.3,0.8
			c0,0.6,0.6,1.1,1.9,1.6c1.8,0.8,2.9,1.5,3.6,2.1c0.6,0.6,0.9,1.5,0.9,2.6c0,1.4-0.5,2.6-1.5,3.5c-1,0.9-2.2,1.3-3.6,1.3
			c-2.4,0-4.1-1.2-5.1-3.5l2.8-1.3c0.4,0.7,0.7,1.1,0.9,1.3c0.4,0.4,0.9,0.6,1.4,0.6c1.1,0,1.7-0.5,1.7-1.5c0-0.6-0.4-1.1-1.3-1.7
			c-0.3-0.2-0.7-0.3-1-0.5c-0.3-0.2-0.7-0.3-1-0.5c-1-0.5-1.6-0.9-2-1.4c-0.5-0.6-0.8-1.4-0.8-2.3c0-1.3,0.4-2.3,1.3-3.1
			c0.9-0.8,1.9-1.2,3.2-1.2C142.4,841.9,143.8,842.9,144.7,844.8z"/>
		<path class="st2" d="M159.3,837.1H148v-3.2h17l-14.4,23.6l-2.7-1.7L159.3,837.1z"/>
		<path class="st2" d="M178.4,837.1h-11.3v-3.2h17l-14.4,23.6l-2.7-1.7L178.4,837.1z"/>
		<path class="st2" d="M203.8,839.3l-0.9,7.8c0,0.3-0.1,0.6-0.1,0.8s0,0.5,0,0.7c0,0.7,0.3,1.1,0.9,1.1c0.9,0,1.6-0.6,2.3-1.8
			c0.7-1.2,1-2.5,1-4.1c0-2.4-0.8-4.4-2.5-6c-1.7-1.6-3.8-2.3-6.5-2.3c-2.7,0-5,0.9-6.9,2.8c-1.9,1.9-2.8,4.2-2.8,6.9
			c0,1.5,0.3,3,1,4.5c0.7,1.4,1.6,2.5,2.9,3.4c1.6,1.2,3.7,1.8,6.1,1.8c2.3,0,4.7-0.6,7.2-1.8l0.2-0.1l0.8,2.1l-0.2,0.1
			c-2.6,1.2-5.2,1.9-8,1.9c-3.1,0-5.7-0.7-7.7-2.2c-1.5-1.1-2.7-2.5-3.6-4.2c-0.8-1.8-1.3-3.6-1.3-5.4c0-3.3,1.2-6.1,3.5-8.4
			c2.4-2.3,5.3-3.4,8.7-3.4c3.2,0,5.8,1,8,2.9c2.1,1.9,3.2,4.3,3.2,7.3c0,2.2-0.6,4.2-1.7,5.8c-1.2,1.6-2.5,2.4-4.1,2.4
			c-1.3,0-2.1-0.6-2.6-1.8c-1.2,1.2-2.6,1.9-4,1.9c-1.6,0-3-0.6-4.1-1.8c-1.1-1.2-1.6-2.6-1.6-4.4c0-1.9,0.6-3.5,1.8-4.8
			c1.2-1.3,2.7-1.9,4.5-1.9c1.7,0,3,0.6,4,1.9l0.2-1.6H203.8z M200.8,845c0-0.9-0.3-1.7-0.9-2.3c-0.6-0.6-1.4-0.9-2.3-0.9
			c-1,0-1.8,0.4-2.4,1.2c-0.6,0.8-1,1.7-1,2.9c0,1,0.3,1.9,0.8,2.5c0.5,0.7,1.2,1,2,1c1,0,1.9-0.4,2.7-1.3
			C200.4,847.2,200.8,846.2,200.8,845z"/>
		<path class="st2" d="M217.5,854l-6.5-11.7h3.9l4.4,8.3l4.1-8.3h3.8l-11.5,22.2h-3.8L217.5,854z"/>
		<path class="st2" d="M239.5,842.3h3.3v14.4h-3.3v-1.5c-1.4,1.3-2.8,1.9-4.4,1.9c-2,0-3.6-0.7-4.9-2.2c-1.3-1.5-1.9-3.3-1.9-5.5
			c0-2.2,0.6-4,1.9-5.4c1.3-1.4,2.9-2.2,4.8-2.2c1.7,0,3.2,0.7,4.5,2.1V842.3z M231.6,849.4c0,1.4,0.4,2.5,1.1,3.4
			c0.8,0.9,1.7,1.3,2.9,1.3c1.2,0,2.2-0.4,3-1.3c0.8-0.9,1.1-2,1.1-3.3c0-1.3-0.4-2.5-1.1-3.3c-0.8-0.9-1.7-1.3-3-1.3
			c-1.1,0-2.1,0.4-2.9,1.3C232,847.1,231.6,848.2,231.6,849.4z"/>
		<path class="st2" d="M247,831.7h3.3v11.8c1.2-1.1,2.5-1.6,3.9-1.6c1.6,0,2.9,0.5,3.9,1.6c0.8,0.9,1.2,2.4,1.2,4.4v8.8h-3.3v-8.5
			c0-1.2-0.2-2-0.6-2.5c-0.4-0.5-1.1-0.8-2-0.8c-1.2,0-2,0.4-2.5,1.1c-0.5,0.7-0.7,2-0.7,3.8v7H247V831.7z"/>
		<path class="st2" d="M262.9,849.4c0-2.1,0.7-3.8,2.2-5.3c1.5-1.5,3.3-2.2,5.4-2.2c2.1,0,4,0.7,5.5,2.2c1.5,1.5,2.2,3.3,2.2,5.4
			c0,2.2-0.7,4-2.2,5.4c-1.5,1.4-3.3,2.2-5.5,2.2c-2.2,0-4-0.7-5.4-2.2C263.7,853.4,262.9,851.6,262.9,849.4z M266.3,849.4
			c0,1.4,0.4,2.6,1.2,3.4c0.8,0.8,1.8,1.3,3.1,1.3c1.3,0,2.3-0.4,3.1-1.3c0.8-0.8,1.2-2,1.2-3.4c0-1.4-0.4-2.5-1.2-3.4
			c-0.8-0.8-1.8-1.3-3.1-1.3c-1.3,0-2.3,0.4-3.1,1.3C266.7,847,266.3,848.1,266.3,849.4z"/>
		<path class="st2" d="M281.1,849.4c0-2.1,0.7-3.8,2.2-5.3c1.5-1.5,3.3-2.2,5.4-2.2c2.1,0,4,0.7,5.5,2.2c1.5,1.5,2.2,3.3,2.2,5.4
			c0,2.2-0.7,4-2.2,5.4c-1.5,1.4-3.3,2.2-5.5,2.2c-2.2,0-4-0.7-5.4-2.2C281.8,853.4,281.1,851.6,281.1,849.4z M284.5,849.4
			c0,1.4,0.4,2.6,1.2,3.4c0.8,0.8,1.8,1.3,3.1,1.3c1.3,0,2.3-0.4,3.1-1.3c0.8-0.8,1.2-2,1.2-3.4c0-1.4-0.4-2.5-1.2-3.4
			c-0.8-0.8-1.8-1.3-3.1-1.3c-1.3,0-2.3,0.4-3.1,1.3C284.9,847,284.5,848.1,284.5,849.4z"/>
		<path class="st2" d="M300.5,855c0-0.6,0.2-1,0.6-1.4c0.4-0.4,0.9-0.6,1.4-0.6s1,0.2,1.4,0.6c0.4,0.4,0.6,0.9,0.6,1.4
			c0,0.6-0.2,1.1-0.6,1.5c-0.4,0.4-0.9,0.6-1.4,0.6c-0.6,0-1.1-0.2-1.5-0.6C300.7,856.1,300.5,855.6,300.5,855z"/>
		<path class="st2" d="M320.5,842.9v4.4c-0.8-0.9-1.4-1.6-2-1.9c-0.6-0.4-1.3-0.5-2.1-0.5c-1.3,0-2.3,0.4-3.1,1.3
			c-0.8,0.9-1.2,2-1.2,3.3c0,1.3,0.4,2.5,1.2,3.3c0.8,0.9,1.8,1.3,3.1,1.3c0.8,0,1.5-0.2,2.1-0.5c0.6-0.3,1.3-1,2.1-1.9v4.4
			c-1.3,0.7-2.7,1-4,1c-2.2,0-4.1-0.7-5.6-2.2c-1.5-1.4-2.2-3.2-2.2-5.4c0-2.1,0.8-4,2.3-5.4c1.5-1.5,3.4-2.2,5.6-2.2
			C317.9,841.9,319.2,842.2,320.5,842.9z"/>
		<path class="st2" d="M323,849.4c0-2.1,0.7-3.8,2.2-5.3c1.5-1.5,3.3-2.2,5.4-2.2c2.1,0,4,0.7,5.5,2.2c1.5,1.5,2.2,3.3,2.2,5.4
			c0,2.2-0.7,4-2.2,5.4c-1.5,1.4-3.3,2.2-5.5,2.2c-2.2,0-4-0.7-5.4-2.2C323.8,853.4,323,851.6,323,849.4z M326.4,849.4
			c0,1.4,0.4,2.6,1.2,3.4c0.8,0.8,1.8,1.3,3.1,1.3c1.3,0,2.3-0.4,3.1-1.3c0.8-0.8,1.2-2,1.2-3.4c0-1.4-0.4-2.5-1.2-3.4
			c-0.8-0.8-1.8-1.3-3.1-1.3c-1.3,0-2.3,0.4-3.1,1.3C326.8,847,326.4,848.1,326.4,849.4z"/>
		<path class="st2" d="M341.9,842.3h3.3v1.3c0.6-0.7,1.2-1.1,1.6-1.4c0.5-0.2,1.1-0.4,1.8-0.4c1.6,0,2.9,0.7,3.9,2.1
			c1-1.4,2.5-2.1,4.2-2.1c3.2,0,4.9,2,4.9,5.9v8.9h-3.3v-8c0-1.4-0.2-2.4-0.5-2.9c-0.3-0.6-0.9-0.9-1.7-0.9c-0.9,0-1.6,0.3-2,1
			c-0.4,0.7-0.6,1.8-0.6,3.3v7.4h-3.3v-7.9c0-2.6-0.7-3.8-2.2-3.8c-0.9,0-1.6,0.4-2,1c-0.4,0.7-0.6,1.8-0.6,3.3v7.4h-3.3V842.3z"/>
		<path class="st2" d="M69.5,881.6h-7l-1.1,3.8c0.2,0,0.3,0,0.5,0c0.2,0,0.3,0,0.4,0c2.2,0,4,0.7,5.4,2.2c1.4,1.5,2.1,3.4,2.1,5.7
			c0,2.4-0.8,4.4-2.4,5.9c-1.6,1.6-3.6,2.3-6.1,2.3c-3,0-5.4-1.4-7.1-4.3l2.6-2.2c0.7,1.2,1.4,2.1,2.2,2.6c0.7,0.5,1.6,0.7,2.7,0.7
			c1.4,0,2.5-0.5,3.5-1.4c0.9-1,1.4-2.2,1.4-3.6c0-1.5-0.5-2.6-1.4-3.6c-0.9-1-2.1-1.4-3.5-1.4c-1.5,0-2.9,0.7-4,2h-1.1l3.6-12h9.4
			V881.6z"/>
		<path class="st2" d="M73.6,889.6c0-3.6,0.8-6.5,2.5-8.7c1.5-2,3.4-2.9,5.5-2.9c2.2,0,4,1,5.5,2.9c1.7,2.2,2.5,5.1,2.5,8.8
			c0,3.7-0.8,6.7-2.5,8.8c-1.5,2-3.3,2.9-5.5,2.9c-2.1,0-4-1-5.5-2.9C74.4,896.4,73.6,893.4,73.6,889.6z M76.9,889.6
			c0,2.5,0.4,4.6,1.3,6.3c0.9,1.6,2,2.5,3.4,2.5c1.3,0,2.5-0.8,3.4-2.5c0.9-1.6,1.3-3.7,1.3-6.2c0-2.5-0.4-4.6-1.3-6.2
			c-0.9-1.6-2-2.5-3.4-2.5c-1.3,0-2.5,0.8-3.3,2.5C77.4,885.2,76.9,887.2,76.9,889.6z"/>
		<path class="st2" d="M96.2,889.3c-1.7-1.2-2.5-2.8-2.5-4.8c0-1.9,0.6-3.4,1.9-4.6c1.3-1.2,2.9-1.9,4.8-1.9c1.9,0,3.5,0.6,4.7,1.9
			c1.3,1.2,1.9,2.8,1.9,4.7c0,2-0.8,3.6-2.5,4.8c0.9,0.5,1.6,1.2,2.2,2.2c0.5,0.9,0.8,2,0.8,3.2c0,2-0.7,3.7-2,5
			c-1.3,1.3-3,1.9-5.1,1.9c-2.1,0-3.8-0.6-5.2-1.9c-1.4-1.3-2.1-2.9-2.1-4.9C93.1,892.1,94.1,890.3,96.2,889.3z M96.5,894.6
			c0,1.1,0.4,2,1.1,2.7c0.7,0.7,1.6,1.1,2.7,1.1c1,0,1.9-0.4,2.7-1.1c0.7-0.7,1.1-1.6,1.1-2.7c0-1.1-0.4-1.9-1.1-2.7
			c-0.7-0.7-1.6-1.1-2.7-1.1c-1,0-1.9,0.4-2.7,1.1C96.9,892.7,96.5,893.5,96.5,894.6z M96.9,884.5c0,1,0.3,1.8,1,2.5
			c0.7,0.7,1.5,1,2.4,1c0.9,0,1.7-0.3,2.4-1c0.7-0.7,1-1.5,1-2.4c0-0.9-0.3-1.7-1-2.4c-0.7-0.7-1.5-1-2.4-1c-0.9,0-1.7,0.3-2.4,1
			C97.3,882.8,96.9,883.6,96.9,884.5z"/>
		<path class="st2" d="M109.6,892.4h6.6v2.9h-6.6V892.4z"/>
		<path class="st2" d="M132.1,881.6h-7l-1.1,3.8c0.2,0,0.3,0,0.5,0c0.2,0,0.3,0,0.4,0c2.2,0,4,0.7,5.4,2.2c1.4,1.5,2.1,3.4,2.1,5.7
			c0,2.4-0.8,4.4-2.4,5.9c-1.6,1.6-3.6,2.3-6.1,2.3c-3,0-5.4-1.4-7.1-4.3l2.6-2.2c0.7,1.2,1.4,2.1,2.2,2.6c0.7,0.5,1.6,0.7,2.7,0.7
			c1.4,0,2.5-0.5,3.5-1.4c0.9-1,1.4-2.2,1.4-3.6c0-1.5-0.5-2.6-1.4-3.6c-0.9-1-2.1-1.4-3.5-1.4c-1.5,0-2.9,0.7-4,2h-1.1l3.6-12h9.4
			V881.6z"/>
		<path class="st2" d="M140.1,889.3c-1.7-1.2-2.5-2.8-2.5-4.8c0-1.9,0.6-3.4,1.9-4.6c1.3-1.2,2.9-1.9,4.8-1.9c1.9,0,3.5,0.6,4.7,1.9
			c1.3,1.2,1.9,2.8,1.9,4.7c0,2-0.8,3.6-2.5,4.8c0.9,0.5,1.6,1.2,2.2,2.2c0.5,0.9,0.8,2,0.8,3.2c0,2-0.7,3.7-2,5
			c-1.3,1.3-3,1.9-5.1,1.9c-2.1,0-3.8-0.6-5.2-1.9c-1.4-1.3-2.1-2.9-2.1-4.9C137,892.1,138.1,890.3,140.1,889.3z M140.4,894.6
			c0,1.1,0.4,2,1.1,2.7c0.7,0.7,1.6,1.1,2.7,1.1c1,0,1.9-0.4,2.7-1.1c0.7-0.7,1.1-1.6,1.1-2.7c0-1.1-0.4-1.9-1.1-2.7
			c-0.7-0.7-1.6-1.1-2.7-1.1c-1,0-1.9,0.4-2.7,1.1C140.8,892.7,140.4,893.5,140.4,894.6z M140.8,884.5c0,1,0.3,1.8,1,2.5
			c0.7,0.7,1.5,1,2.4,1c0.9,0,1.7-0.3,2.4-1c0.7-0.7,1-1.5,1-2.4c0-0.9-0.3-1.7-1-2.4c-0.7-0.7-1.5-1-2.4-1c-0.9,0-1.7,0.3-2.4,1
			C141.2,882.8,140.8,883.6,140.8,884.5z"/>
		<path class="st2" d="M159.3,881.6h-3.9l1.9-3.2h5.5v22.8h-3.4V881.6z"/>
		<path class="st2" d="M169.8,892.4h6.6v2.9h-6.6V892.4z"/>
		<path class="st2" d="M177.6,889.6c0-3.6,0.8-6.5,2.5-8.7c1.5-2,3.4-2.9,5.5-2.9c2.2,0,4,1,5.5,2.9c1.7,2.2,2.5,5.1,2.5,8.8
			c0,3.7-0.8,6.7-2.5,8.8c-1.5,2-3.3,2.9-5.5,2.9c-2.1,0-4-1-5.5-2.9C178.5,896.4,177.6,893.4,177.6,889.6z M181,889.6
			c0,2.5,0.4,4.6,1.3,6.3c0.9,1.6,2,2.5,3.4,2.5c1.3,0,2.5-0.8,3.4-2.5c0.9-1.6,1.3-3.7,1.3-6.2c0-2.5-0.4-4.6-1.3-6.2
			c-0.9-1.6-2-2.5-3.4-2.5c-1.3,0-2.5,0.8-3.3,2.5C181.5,885.2,181,887.2,181,889.6z"/>
		<path class="st2" d="M202.6,897.9h8.5v3.2h-15.3l7.9-9.6c0.8-1,1.4-1.8,2-2.5c0.5-0.7,0.9-1.3,1.2-1.8c0.6-0.9,0.8-1.8,0.8-2.5
			c0-1.1-0.4-2-1.1-2.7c-0.7-0.7-1.7-1.1-2.8-1.1c-2.3,0-3.6,1.4-4,4.1h-3.4c0.6-4.8,3-7.2,7.3-7.2c2.1,0,3.8,0.7,5.2,2
			c1.4,1.3,2.1,3,2.1,4.9c0,1.2-0.3,2.5-1,3.6c-0.3,0.6-0.8,1.4-1.5,2.2c-0.6,0.9-1.5,1.9-2.4,3L202.6,897.9z"/>
		<path class="st2" d="M215,889.6c0-3.6,0.8-6.5,2.5-8.7c1.5-2,3.4-2.9,5.5-2.9s4,1,5.5,2.9c1.7,2.2,2.5,5.1,2.5,8.8
			c0,3.7-0.8,6.7-2.5,8.8c-1.5,2-3.3,2.9-5.5,2.9c-2.1,0-4-1-5.5-2.9C215.8,896.4,215,893.4,215,889.6z M218.4,889.6
			c0,2.5,0.4,4.6,1.3,6.3c0.9,1.6,2,2.5,3.4,2.5c1.3,0,2.5-0.8,3.4-2.5c0.9-1.6,1.3-3.7,1.3-6.2c0-2.5-0.4-4.6-1.3-6.2
			c-0.9-1.6-2-2.5-3.4-2.5c-1.3,0-2.5,0.8-3.3,2.5C218.8,885.2,218.4,887.2,218.4,889.6z"/>
		<path class="st2" d="M240.2,890.6v-2.9c1.5,0,2.4-0.2,2.9-0.5c0.9-0.6,1.3-1.5,1.3-2.7c0-1-0.3-1.8-1-2.4
			c-0.6-0.6-1.5-0.9-2.5-0.9c-1,0-1.7,0.2-2.2,0.7c-0.5,0.5-0.9,1.3-1.1,2.4h-3.4c0.4-2.1,1.1-3.7,2.2-4.7c1.1-1,2.6-1.5,4.6-1.5
			c2,0,3.6,0.6,4.9,1.8c1.3,1.2,1.9,2.7,1.9,4.5c0,2.1-0.8,3.7-2.5,4.9c1.9,1.1,2.8,2.9,2.8,5.4c0,2-0.7,3.7-2.1,5
			c-1.4,1.3-3.1,1.9-5.3,1.9c-2.7,0-4.8-1-6.1-3c-0.6-0.8-0.9-2-1-3.5h3.3c0.2,1.1,0.6,1.9,1.3,2.5c0.7,0.6,1.6,0.9,2.7,0.9
			c1.1,0,2-0.4,2.8-1.1c0.7-0.8,1.1-1.7,1.1-2.9c0-1.5-0.5-2.6-1.6-3.3C242.5,890.8,241.5,890.6,240.2,890.6z"/>
		<path class="st2" d="M61.8,926.1h-3.9l1.9-3.2h5.5v22.8h-3.4V926.1z"/>
		<path class="st2" d="M77.5,942.4h8.5v3.2H70.6l7.9-9.6c0.8-1,1.4-1.8,2-2.5c0.5-0.7,0.9-1.3,1.2-1.8c0.6-0.9,0.8-1.8,0.8-2.5
			c0-1.1-0.4-2-1.1-2.7c-0.7-0.7-1.7-1.1-2.8-1.1c-2.3,0-3.6,1.4-4,4.1h-3.4c0.6-4.8,3-7.2,7.3-7.2c2.1,0,3.8,0.7,5.2,2
			c1.4,1.3,2.1,3,2.1,4.9c0,1.2-0.3,2.5-1,3.6c-0.3,0.6-0.8,1.4-1.5,2.2c-0.6,0.9-1.5,1.9-2.4,3L77.5,942.4z"/>
		<path class="st2" d="M113.5,926.2l-2.8,1.7c-0.5-0.9-1-1.5-1.5-1.8c-0.5-0.3-1.1-0.5-1.9-0.5c-1,0-1.7,0.3-2.4,0.8
			c-0.6,0.5-0.9,1.2-0.9,2c0,1.1,0.8,2,2.5,2.7l2.3,0.9c1.9,0.7,3.2,1.7,4.1,2.7c0.9,1.1,1.3,2.4,1.3,4c0,2.1-0.7,3.8-2.1,5.2
			c-1.4,1.4-3.2,2.1-5.2,2.1c-2,0-3.6-0.6-4.9-1.8c-1.3-1.2-2.1-2.8-2.4-4.9l3.5-0.8c0.2,1.3,0.4,2.3,0.8,2.8c0.7,1,1.7,1.5,3.1,1.5
			c1.1,0,2-0.4,2.7-1.1s1.1-1.6,1.1-2.7c0-0.4-0.1-0.8-0.2-1.2c-0.1-0.4-0.3-0.7-0.6-1c-0.3-0.3-0.6-0.6-1-0.9
			c-0.4-0.3-0.9-0.5-1.5-0.8l-2.2-0.9c-3.1-1.3-4.7-3.2-4.7-5.8c0-1.7,0.7-3.1,2-4.3c1.3-1.2,2.9-1.7,4.9-1.7
			C110,922.4,112,923.7,113.5,926.2z"/>
		<path class="st2" d="M120.9,931.3v8.3c0,2.4,0.9,3.6,2.8,3.6c1.9,0,2.8-1.2,2.8-3.6v-8.3h3.3v8.3c0,1.2-0.1,2.1-0.4,3
			c-0.3,0.7-0.8,1.4-1.4,2c-1.1,1-2.6,1.5-4.3,1.5c-1.7,0-3.1-0.5-4.3-1.5c-0.7-0.6-1.2-1.3-1.5-2c-0.3-0.7-0.4-1.7-0.4-3v-8.3
			H120.9z"/>
		<path class="st2" d="M137.4,920.7v24.9h-3.3v-24.9H137.4z"/>
		<path class="st2" d="M145,920.7v24.9h-3.3v-24.9H145z"/>
		<path class="st2" d="M148.7,925.3c0-0.6,0.2-1.1,0.6-1.5c0.4-0.4,0.9-0.6,1.5-0.6c0.6,0,1.1,0.2,1.5,0.6c0.4,0.4,0.6,0.9,0.6,1.5
			c0,0.6-0.2,1.1-0.6,1.5c-0.4,0.4-0.9,0.6-1.5,0.6c-0.6,0-1.1-0.2-1.5-0.6C148.9,926.4,148.7,925.9,148.7,925.3z M152.5,931.3v14.4
			h-3.3v-14.4H152.5z"/>
		<path class="st2" d="M158.5,931.3l3.7,8.1l3.7-8.1h3.7l-7.5,15.4l-7.4-15.4H158.5z"/>
		<path class="st2" d="M182,931.3h3.3v14.4H182v-1.5c-1.4,1.3-2.8,1.9-4.4,1.9c-2,0-3.6-0.7-4.9-2.2c-1.3-1.5-1.9-3.3-1.9-5.5
			c0-2.2,0.6-4,1.9-5.4c1.3-1.4,2.9-2.2,4.8-2.2c1.7,0,3.2,0.7,4.5,2.1V931.3z M174.1,938.4c0,1.4,0.4,2.5,1.1,3.4
			c0.8,0.9,1.7,1.3,2.9,1.3c1.2,0,2.2-0.4,3-1.3c0.8-0.9,1.1-2,1.1-3.3c0-1.3-0.4-2.5-1.1-3.3c-0.8-0.9-1.7-1.3-3-1.3
			c-1.1,0-2.1,0.4-2.9,1.3C174.5,936,174.1,937.1,174.1,938.4z"/>
		<path class="st2" d="M189.5,931.3h3.3v1.3c1.2-1.2,2.5-1.7,3.9-1.7c1.7,0,3,0.5,3.9,1.6c0.8,0.9,1.2,2.4,1.2,4.4v8.8h-3.3v-8
			c0-1.4-0.2-2.4-0.6-2.9c-0.4-0.6-1.1-0.8-2.1-0.8c-1.1,0-1.9,0.4-2.3,1.1c-0.5,0.7-0.7,2-0.7,3.8v6.9h-3.3V931.3z"/>
		<path class="st2" d="M216.1,945.6v-22.8h3.4c1.5,0,2.7,0.1,3.6,0.4c0.9,0.2,1.7,0.6,2.3,1.2c0.6,0.6,1.1,1.3,1.5,2.2
			c0.4,0.9,0.6,1.8,0.6,2.7c0,1.6-0.6,3-1.9,4.2c1.2,0.4,2.2,1.1,2.9,2.2c0.7,1,1.1,2.2,1.1,3.6c0,1.8-0.6,3.3-1.9,4.5
			c-0.8,0.8-1.6,1.3-2.6,1.6c-1,0.3-2.3,0.4-3.9,0.4H216.1z M219.5,932.6h1.1c1.3,0,2.2-0.3,2.8-0.8c0.6-0.6,0.9-1.4,0.9-2.5
			c0-1.1-0.3-1.9-0.9-2.4c-0.6-0.6-1.5-0.8-2.7-0.8h-1.2V932.6z M219.5,942.4h2.1c1.6,0,2.7-0.3,3.4-0.9c0.8-0.7,1.2-1.5,1.2-2.5
			c0-1-0.4-1.8-1.1-2.5c-0.7-0.7-2-1-3.9-1h-1.7V942.4z"/>
		<path class="st2" d="M236.6,920.7v24.9h-3.3v-24.9H236.6z"/>
		<path class="st2" d="M242.9,931.3l3.7,8.1l3.7-8.1h3.7l-7.5,15.4l-7.4-15.4H242.9z"/>
		<path class="st2" d="M266.9,920.7h3.3v24.9h-3.3v-1.5c-1.3,1.3-2.8,1.9-4.4,1.9c-2,0-3.6-0.7-4.9-2.2c-1.3-1.5-1.9-3.3-1.9-5.5
			c0-2.1,0.6-3.9,1.9-5.4c1.3-1.4,2.9-2.2,4.8-2.2c1.7,0,3.2,0.7,4.5,2.1V920.7z M259,938.4c0,1.4,0.4,2.5,1.1,3.4
			c0.8,0.9,1.7,1.3,2.9,1.3c1.2,0,2.2-0.4,3-1.3c0.8-0.9,1.1-2,1.1-3.3c0-1.3-0.4-2.5-1.1-3.3c-0.8-0.9-1.7-1.3-3-1.3
			c-1.1,0-2.1,0.4-2.9,1.3C259.4,936,259,937.1,259,938.4z"/>
		<path class="st2" d="M55.2,978.6c0-3.2,1.2-6,3.5-8.3c2.3-2.3,5.2-3.5,8.4-3.5c3.2,0,6,1.2,8.4,3.5c2.3,2.3,3.5,5.1,3.5,8.4
			c0,3.3-1.2,6.1-3.5,8.3c-2.4,2.3-5.2,3.4-8.5,3.4c-2.9,0-5.6-1-7.9-3.1C56.5,985.2,55.2,982.3,55.2,978.6z M58.7,978.7
			c0,2.5,0.8,4.6,2.5,6.2c1.7,1.6,3.6,2.4,5.8,2.4c2.4,0,4.4-0.8,6.1-2.5c1.6-1.7,2.5-3.7,2.5-6.1c0-2.4-0.8-4.5-2.4-6.1
			c-1.6-1.7-3.6-2.5-6-2.5c-2.4,0-4.4,0.8-6,2.5C59.5,974.2,58.7,976.3,58.7,978.7z"/>
		<path class="st2" d="M87.2,982.3l-5.2-6.6h4l3.2,4.2l3.3-4.2h4.1l-5.3,6.6l6.2,7.8h-4l-4.2-5.4l-4.3,5.4h-4.1L87.2,982.3z"/>
		<path class="st2" d="M103.1,978.8v11.3h-3.3v-11.3h-1.2v-3.1h1.2v-5.6c0-1.8,0.3-3.1,0.9-3.8c0.9-1,2.1-1.6,3.8-1.6
			c0.6,0,1.3,0.2,2.2,0.5v3.4l-0.3-0.2c-0.7-0.4-1.3-0.5-1.8-0.5c-0.6,0-1,0.2-1.2,0.6c-0.2,0.4-0.3,1.2-0.3,2.4v4.7h3.6v3.1H103.1z
			"/>
		<path class="st2" d="M108.3,982.8c0-2.1,0.7-3.8,2.2-5.3c1.5-1.5,3.3-2.2,5.4-2.2c2.1,0,4,0.7,5.5,2.2c1.5,1.5,2.2,3.3,2.2,5.4
			c0,2.2-0.7,4-2.2,5.4c-1.5,1.4-3.3,2.2-5.5,2.2c-2.2,0-4-0.7-5.4-2.2C109,986.9,108.3,985,108.3,982.8z M111.7,982.9
			c0,1.4,0.4,2.6,1.2,3.4c0.8,0.8,1.8,1.3,3.1,1.3c1.3,0,2.3-0.4,3.1-1.3c0.8-0.8,1.2-2,1.2-3.4c0-1.4-0.4-2.5-1.2-3.4
			c-0.8-0.8-1.8-1.3-3.1-1.3c-1.3,0-2.3,0.4-3.1,1.3C112.1,980.5,111.7,981.5,111.7,982.9z"/>
		<path class="st2" d="M127.1,975.7h3.3v1.3c0.6-0.6,1.2-1.1,1.6-1.3c0.5-0.2,1.1-0.4,1.7-0.4c0.9,0,1.8,0.3,2.7,0.9l-1.5,3
			c-0.6-0.5-1.2-0.7-1.8-0.7c-1.8,0-2.7,1.4-2.7,4.1v7.5h-3.3V975.7z"/>
		<path class="st2" d="M148.8,965.2h3.3v24.9h-3.3v-1.5c-1.3,1.3-2.8,1.9-4.4,1.9c-2,0-3.6-0.7-4.9-2.2c-1.3-1.5-1.9-3.3-1.9-5.5
			c0-2.1,0.6-3.9,1.9-5.4c1.3-1.4,2.9-2.2,4.8-2.2c1.7,0,3.2,0.7,4.5,2.1V965.2z M141,982.9c0,1.4,0.4,2.5,1.1,3.4
			c0.8,0.9,1.7,1.3,2.9,1.3c1.2,0,2.2-0.4,3-1.3c0.8-0.9,1.1-2,1.1-3.3c0-1.3-0.4-2.5-1.1-3.3c-0.8-0.9-1.7-1.3-3-1.3
			c-1.1,0-2.1,0.4-2.9,1.3C141.3,980.5,141,981.6,141,982.9z"/>
		<path class="st2" d="M165.6,990.1l4.8-24.5l7.8,17.7l8.1-17.7l4.3,24.5h-3.5l-2.2-13.8l-6.7,14.8l-6.6-14.8l-2.5,13.8H165.6z"/>
		<path class="st2" d="M208.8,984.6h-9.8l-2.5,5.5h-3.7l11.3-24.2l10.9,24.2h-3.8L208.8,984.6z M207.4,981.4l-3.4-7.8l-3.5,7.8
			H207.4z"/>
		<path class="st2" d="M220.8,985.9l3,1.2l-4.2,8.4l-2.2-0.9L220.8,985.9z"/>
		<path class="st2" d="M236.6,978.6c0-3.6,0.8-6.5,2.5-8.7c1.5-2,3.4-2.9,5.5-2.9c2.2,0,4,1,5.5,2.9c1.7,2.2,2.5,5.1,2.5,8.8
			c0,3.7-0.8,6.7-2.5,8.8c-1.5,2-3.3,2.9-5.5,2.9c-2.1,0-4-1-5.5-2.9C237.4,985.4,236.6,982.4,236.6,978.6z M239.9,978.6
			c0,2.5,0.4,4.6,1.3,6.3c0.9,1.6,2,2.5,3.4,2.5c1.3,0,2.5-0.8,3.4-2.5c0.9-1.6,1.3-3.7,1.3-6.2c0-2.5-0.4-4.6-1.3-6.2
			c-0.9-1.6-2-2.5-3.4-2.5c-1.3,0-2.5,0.8-3.3,2.5C240.4,974.1,239.9,976.2,239.9,978.6z"/>
		<path class="st2" d="M259.8,970.5h-3.9l1.9-3.2h5.5v22.8h-3.4V970.5z"/>
		<path class="st2" d="M283.8,970.5h-7l-1.1,3.8c0.2,0,0.3,0,0.5,0c0.2,0,0.3,0,0.4,0c2.2,0,4,0.7,5.4,2.2c1.4,1.5,2.1,3.4,2.1,5.7
			c0,2.4-0.8,4.4-2.4,5.9c-1.6,1.6-3.6,2.3-6.1,2.3c-3,0-5.4-1.4-7.1-4.3l2.6-2.2c0.7,1.2,1.4,2.1,2.2,2.6c0.7,0.5,1.6,0.7,2.7,0.7
			c1.4,0,2.5-0.5,3.5-1.4c0.9-1,1.4-2.2,1.4-3.6c0-1.5-0.5-2.6-1.4-3.6c-0.9-1-2.1-1.4-3.5-1.4c-1.5,0-2.9,0.7-4,2h-1.1l3.6-12h9.4
			V970.5z"/>
		<path class="st2" d="M300.8,983.8h2.4v3.1h-2.4v3.2h-3.4v-3.2h-11.2l14.6-21.3V983.8z M297.3,983.8v-7.6l-5.3,7.6H297.3z"/>
		<path class="st2" d="M305.8,978.6c0-3.6,0.8-6.5,2.5-8.7c1.5-2,3.4-2.9,5.5-2.9s4,1,5.5,2.9c1.7,2.2,2.5,5.1,2.5,8.8
			c0,3.7-0.8,6.7-2.5,8.8c-1.5,2-3.3,2.9-5.5,2.9c-2.1,0-4-1-5.5-2.9C306.7,985.4,305.8,982.4,305.8,978.6z M309.2,978.6
			c0,2.5,0.4,4.6,1.3,6.3c0.9,1.6,2,2.5,3.4,2.5c1.3,0,2.5-0.8,3.4-2.5c0.9-1.6,1.3-3.7,1.3-6.2c0-2.5-0.4-4.6-1.3-6.2
			c-0.9-1.6-2-2.5-3.4-2.5c-1.3,0-2.5,0.8-3.3,2.5C309.6,974.1,309.2,976.2,309.2,978.6z"/>
	</g>
</g>
</svg>
