<?xml version="1.0" encoding="utf-8"?>
<!-- Generator: Adobe Illustrator 24.0.3, SVG Export Plug-In . SVG Version: 6.00 Build 0)  -->
<svg version="1.1" id="Layer_1" xmlns="http://www.w3.org/2000/svg" xmlns:xlink="http://www.w3.org/1999/xlink" x="0px" y="0px"
	 viewBox="0 0 8192 604.8" style="enable-background:new 0 0 8192 604.8;" xml:space="preserve">
<style type="text/css">
	.st0{fill:#353535;}
	.st1{fill:#FF0000;}
	.st2{fill:#FFFFFF;}
</style>
<g>
	<polygon class="st0" points="6992.5,522.3 7589.5,300.9 6992.5,82 -0.2,82 -0.2,522.3 	"/>
	<polygon class="st1" points="7687.5,522.3 8191.8,300.9 7687.5,82 6277.6,82 6277.6,522.3 	"/>
</g>
<g>
	<path class="st2" d="M130.6,417l18.5-2.7l78.7-225H281l78.2,225l18.5,2.7v31.1h-88.2V417l18-3.2l-11.4-35.5h-83.9l-11.4,35.5
		l18,3.2v31.1h-88.2V417z M224.4,340h59.4l-29.1-91.2h-1.1L224.4,340z"/>
	<path class="st2" d="M486.2,412c9.2,0,16.6-2.7,22.2-8.1c5.6-5.4,8.4-12.6,8.4-21.6h46.9l0.5,1.1c0.5,19.4-6.8,35.7-21.9,48.8
		c-15,13.1-33.8,19.6-56.2,19.6c-28.7,0-50.8-9.1-66.3-27.2c-15.5-18.1-23.3-41.4-23.3-69.8v-5.3c0-28.3,8-51.6,23.9-69.8
		c15.9-18.2,38.7-27.4,68.2-27.4c15.5,0,29.4,2.3,41.8,6.9c12.3,4.6,22.6,11.1,30.7,19.6l0.7,51.4h-42.1l-8.5-30
		c-2.6-2.2-5.8-4.1-9.6-5.6c-3.8-1.5-8.1-2.2-13-2.2c-14.7,0-25.1,5.3-31.1,16s-9.1,24.4-9.1,41.2v5.3c0,17.2,2.8,31,8.4,41.5
		C462.5,406.8,472.3,412,486.2,412z"/>
	<path class="st2" d="M584.9,417l25.1-5.3V207.4l-27.7-5.3v-31.3h79.4v109.5c6-8.9,13.4-15.8,22.2-20.7c8.8-4.9,18.5-7.4,29.1-7.4
		c20.1,0,35.9,6.7,47.4,20c11.4,13.3,17.2,33.9,17.2,61.8v77.7l24.9,5.3v31.1h-99.2V417l22.4-5.3v-78c0-14.9-2.6-25.5-7.9-31.7
		c-5.3-6.2-13.1-9.3-23.5-9.3c-7.2,0-13.5,1.3-18.9,3.9c-5.4,2.6-9.9,6.3-13.6,11v104.2l22.4,5.3v31.1h-99.2V417z"/>
	<path class="st2" d="M817.5,417l25.1-5.3V292.4l-27.7-5.3v-31.3h79.6v155.9l24.9,5.3v31.1H817.5V417z M894.5,209.8h-51.9v-38.9
		h51.9V209.8z"/>
	<path class="st2" d="M1028.5,451.8c-27.7,0-49.9-8.9-66.5-26.7c-16.6-17.8-24.9-40.3-24.9-67.7v-7.1c0-28.6,7.8-52.1,23.5-70.6
		c15.7-18.5,36.8-27.7,63.2-27.5c25.9,0,46.1,7.8,60.4,23.5c14.3,15.6,21.5,36.8,21.5,63.5v28.3H991l-0.4,1.1
		c0.9,12.7,5.2,23.1,12.7,31.3c7.5,8.2,17.7,12.3,30.7,12.3c11.5,0,21-1.2,28.6-3.5c7.6-2.3,15.9-6,24.9-10.9l14,32
		c-7.9,6.3-18.2,11.6-30.8,15.8S1044,451.8,1028.5,451.8z M1023.9,292.2c-9.6,0-17.2,3.7-22.8,11c-5.6,7.3-9,17-10.3,29l0.5,0.9
		h63.6v-4.6c0-11-2.6-19.8-7.7-26.4S1034.3,292.2,1023.9,292.2z"/>
	<path class="st2" d="M1209.6,287.1l-18.1,3.4l25.4,86l3.4,18.1h1.1l3.7-18.1l25.1-85.8l-18.5-3.6v-31.3h87.3v31.3l-16.7,2.7
		l-56.7,158.4h-49.6l-56.9-158.4l-16.7-2.7v-31.3h87.3V287.1z"/>
	<path class="st2" d="M1425.2,451.8c-27.7,0-49.9-8.9-66.5-26.7c-16.6-17.8-24.9-40.3-24.9-67.7v-7.1c0-28.6,7.8-52.1,23.5-70.6
		c15.7-18.5,36.8-27.7,63.2-27.5c25.9,0,46.1,7.8,60.4,23.5c14.3,15.6,21.5,36.8,21.5,63.5v28.3h-114.8l-0.4,1.1
		c0.9,12.7,5.2,23.1,12.7,31.3c7.5,8.2,17.7,12.3,30.7,12.3c11.5,0,21-1.2,28.6-3.5c7.6-2.3,15.9-6,24.9-10.9l14,32
		c-7.9,6.3-18.2,11.6-30.8,15.8S1440.7,451.8,1425.2,451.8z M1420.6,292.2c-9.6,0-17.2,3.7-22.8,11c-5.6,7.3-9,17-10.3,29l0.5,0.9
		h63.6v-4.6c0-11-2.6-19.8-7.7-26.4S1431,292.2,1420.6,292.2z"/>
	<path class="st2" d="M1521,287.1v-31.3h75.9l2.1,25.4c6.2-9.2,13.9-16.4,23.2-21.4c9.3-5,20.1-7.6,32.3-7.6
		c12.3,0,22.9,2.7,31.6,8.2c8.8,5.5,15.4,13.7,19.9,24.7c5.9-10.3,13.6-18.4,23.1-24.2c9.5-5.8,20.6-8.7,33.4-8.7
		c19,0,33.9,6.5,44.9,19.6c11,13.1,16.4,33,16.4,59.8v80l25.1,5.3v31.1h-99.4V417l22.4-5.3v-80.2c0-14.6-2.4-24.7-7.1-30.4
		c-4.7-5.7-11.8-8.5-21.2-8.5c-7.3,0-13.7,1.6-19.1,4.9c-5.4,3.3-9.7,7.8-12.9,13.6c0,2.3,0.1,4.2,0.2,5.8c0.1,1.6,0.2,3.2,0.2,4.9
		v89.9l21,5.3v31.1h-93.7V417l21-5.3v-80.2c0-14.2-2.4-24.3-7.1-30.1c-4.7-5.9-11.9-8.8-21.3-8.8c-7,0-13.1,1.3-18.4,4
		c-5.3,2.7-9.6,6.4-13.1,11.3v103.8l22.4,5.3v31.1h-99.2V417l25.1-5.3V292.4L1521,287.1z"/>
	<path class="st2" d="M1955.9,451.8c-27.7,0-49.9-8.9-66.5-26.7c-16.6-17.8-24.9-40.3-24.9-67.7v-7.1c0-28.6,7.8-52.1,23.5-70.6
		c15.7-18.5,36.8-27.7,63.2-27.5c25.9,0,46.1,7.8,60.4,23.5c14.3,15.6,21.5,36.8,21.5,63.5v28.3h-114.8l-0.4,1.1
		c0.9,12.7,5.2,23.1,12.7,31.3c7.5,8.2,17.7,12.3,30.7,12.3c11.5,0,21-1.2,28.6-3.5c7.6-2.3,15.9-6,24.9-10.9l14,32
		c-7.9,6.3-18.2,11.6-30.8,15.8S1971.4,451.8,1955.9,451.8z M1951.3,292.2c-9.6,0-17.2,3.7-22.8,11c-5.6,7.3-9,17-10.3,29l0.5,0.9
		h63.6v-4.6c0-11-2.6-19.8-7.7-26.4S1961.7,292.2,1951.3,292.2z"/>
	<path class="st2" d="M2054.9,417l24.9-5.3V292.4l-27.5-5.3v-31.3h75.9l2.3,27.5c6.4-9.8,14.3-17.5,23.6-22.9
		c9.4-5.4,19.8-8.2,31.5-8.2c19.4,0,34.6,6.1,45.5,18.3c10.9,12.2,16.4,31.3,16.4,57.4v83.7l24.9,5.3v31.1h-99.2V417l22.2-5.3v-83.5
		c0-12.9-2.6-22.1-7.8-27.5c-5.2-5.4-13.1-8.1-23.6-8.1c-6.9,0-13,1.4-18.5,4.2c-5.5,2.8-10,6.7-13.7,11.8v103.1l21,5.3v31.1h-97.8
		V417z"/>
	<path class="st2" d="M2365.4,208.7v47.1h33.8v36.4h-33.8v97.9c0,7.5,1.5,12.8,4.6,16c3.1,3.2,7.2,4.8,12.4,4.8
		c3.6,0,6.7-0.1,9.3-0.4c2.7-0.3,5.7-0.8,9-1.5l4.4,37.5c-5.8,1.8-11.6,3.1-17.2,4s-11.9,1.3-18.5,1.3c-17.9,0-31.7-4.9-41.3-14.8
		c-9.7-9.8-14.5-25.4-14.5-46.7v-98.1h-28.3v-36.4h28.3v-47.1H2365.4z"/>
	<path class="st2" d="M2581.5,321.9h-34.8l-5.5-24c-3.6-2.8-8-5.2-13.4-7.1c-5.4-1.9-11.3-2.8-17.9-2.8c-9.1,0-16.4,2-21.7,6.1
		s-8,9.2-8,15.4c0,5.8,2.5,10.6,7.6,14.5c5.1,3.9,15.3,7.3,30.6,10.2c23.8,4.7,41.5,11.7,53,20.9c11.5,9.2,17.2,21.8,17.2,37.9
		c0,17.3-7.4,31.4-22.3,42.4c-14.9,11-34.5,16.4-58.7,16.4c-14.8,0-28.4-2.2-40.8-6.5c-12.4-4.3-23.4-10.5-33-18.6l-0.5-43.2h36.3
		l7.1,25.1c3.1,2.6,7.3,4.5,12.6,5.8s10.9,1.9,16.7,1.9c10.5,0,18.6-1.9,24.1-5.7c5.5-3.8,8.3-8.9,8.3-15.5c0-5.7-2.8-10.6-8.4-14.8
		c-5.6-4.1-15.8-7.8-30.7-11c-22.6-4.6-39.7-11.5-51.3-20.5s-17.3-21.4-17.3-37.1c0-16.1,6.6-30,19.9-41.7
		c13.3-11.7,32.2-17.5,56.7-17.5c14.9,0,29.1,2,42.4,6c13.3,4,23.8,9.2,31.4,15.5L2581.5,321.9z"/>
</g>
</svg>
