<?xml version="1.0" encoding="utf-8"?>
<!-- Generator: Adobe Illustrator 23.0.4, SVG Export Plug-In . SVG Version: 6.00 Build 0)  -->
<svg version="1.1" id="Layer_1" xmlns="http://www.w3.org/2000/svg" xmlns:xlink="http://www.w3.org/1999/xlink" x="0px" y="0px"
	 viewBox="0 0 8192 604.8" style="enable-background:new 0 0 8192 604.8;" xml:space="preserve">
<style type="text/css">
	.st0{fill:#353535;}
	.st1{fill:#FF0000;}
	.st2{enable-background:new    ;}
	.st3{fill:#FFFFFF;}
</style>
<g>
	<polygon class="st0" points="6992.5,522.3 7589.5,300.9 6992.5,82 -0.2,82 -0.2,522.3 	"/>
	<polygon class="st1" points="7687.5,522.3 8191.8,300.9 7687.5,82 6277.6,82 6277.6,522.3 	"/>
</g>
<g class="st2">
	<path class="st3" d="M304.8,374.3H194.1l-28.8,62.8h-42l127.9-274.7l123.4,274.7h-42.7L304.8,374.3z M288.9,337.7l-38.3-87.9
		l-40.2,87.9H288.9z"/>
	<path class="st3" d="M525,281.1v50.1c-8.6-10.5-16.3-17.7-23.1-21.6c-6.7-4-14.6-6-23.6-6c-14.2,0-26,5-35.3,14.9
		c-9.4,9.9-14.1,22.4-14.1,37.3c0,15.3,4.5,27.8,13.6,37.7c9.2,9.8,20.8,14.7,35,14.7c9,0,17-2,23.9-5.9
		c6.7-3.8,14.6-11.2,23.6-22.1v49.7c-15.3,7.9-30.6,11.9-45.9,11.9c-25.2,0-46.3-8.1-63.3-24.4c-17-16.4-25.4-36.8-25.4-61.1
		c0-24.3,8.6-44.9,25.8-61.6c17.2-16.7,38.3-25.1,63.3-25.1C495.5,269.5,510.7,273.4,525,281.1z"/>
	<path class="st3" d="M570.3,154.3H608v133.3c13.4-12.1,28.2-18.1,44.4-18.1c18.4,0,33.1,6,44.2,17.9c9.4,10.4,14.1,27,14.1,49.7
		v99.9h-37.7v-96.4c0-13.1-2.3-22.5-6.9-28.4c-4.6-5.9-12.1-8.8-22.4-8.8c-13.2,0-22.4,4.1-27.8,12.2c-5.2,8.3-7.9,22.4-7.9,42.5
		v78.9h-37.7V154.3z"/>
	<path class="st3" d="M752.6,206.2c0-6.6,2.4-12.3,7.2-17.1c4.8-4.8,10.5-7.2,17.2-7.2c6.8,0,12.6,2.4,17.4,7.2
		c4.8,4.7,7.2,10.4,7.2,17.2c0,6.8-2.4,12.6-7.2,17.4c-4.7,4.8-10.4,7.2-17.2,7.2c-6.8,0-12.6-2.4-17.4-7.2
		C755,219,752.6,213.2,752.6,206.2z M796,274.1v163.1h-37.7V274.1H796z"/>
	<path class="st3" d="M992.2,364.5H875.4c1,13.4,5.4,24.1,13.1,32c7.7,7.8,17.6,11.7,29.6,11.7c9.4,0,17.1-2.2,23.3-6.7
		c6-4.5,12.9-12.7,20.6-24.8l31.8,17.7c-4.9,8.4-10.1,15.5-15.6,21.5c-5.5,6-11.3,10.9-17.6,14.7c-6.3,3.9-13,6.7-20.3,8.5
		c-7.3,1.8-15.1,2.7-23.6,2.7c-24.3,0-43.9-7.8-58.6-23.4c-14.7-15.7-22.1-36.6-22.1-62.6c0-25.8,7.1-46.7,21.4-62.6
		c14.4-15.7,33.5-23.6,57.3-23.6c24,0,43,7.6,56.9,22.9c13.8,15.2,20.8,36.2,20.8,63.1L992.2,364.5z M953.5,333.7
		c-5.2-20.1-17.9-30.1-38-30.1c-4.6,0-8.9,0.7-12.9,2.1c-4,1.4-7.7,3.4-11,6c-3.3,2.6-6.1,5.8-8.5,9.5c-2.3,3.7-4.1,7.9-5.4,12.6
		H953.5z"/>
	<path class="st3" d="M1047.8,274.1l42.2,91.6l42-91.6h42.4l-84.7,174.3l-84-174.3H1047.8z"/>
	<path class="st3" d="M1342.5,364.5h-116.9c1,13.4,5.4,24.1,13.1,32c7.7,7.8,17.6,11.7,29.6,11.7c9.4,0,17.1-2.2,23.3-6.7
		c6-4.5,12.9-12.7,20.6-24.8l31.8,17.7c-4.9,8.4-10.1,15.5-15.6,21.5c-5.5,6-11.3,10.9-17.6,14.7c-6.3,3.9-13,6.7-20.3,8.5
		c-7.3,1.8-15.1,2.7-23.6,2.7c-24.3,0-43.9-7.8-58.6-23.4c-14.7-15.7-22.1-36.6-22.1-62.6c0-25.8,7.1-46.7,21.4-62.6
		c14.4-15.7,33.5-23.6,57.3-23.6c24,0,43,7.6,56.9,22.9c13.8,15.2,20.8,36.2,20.8,63.1L1342.5,364.5z M1303.8,333.7
		c-5.2-20.1-17.9-30.1-38-30.1c-4.6,0-8.9,0.7-12.9,2.1c-4,1.4-7.7,3.4-11,6c-3.3,2.6-6.1,5.8-8.5,9.5c-2.3,3.7-4.1,7.9-5.4,12.6
		H1303.8z"/>
	<path class="st3" d="M1383.6,274.1h37.7v15.1c7.3-7.6,13.4-12.7,18.6-15.4c5.5-2.8,12.3-4.2,20.6-4.2c18.4,0,33,8,43.7,24.1
		c11.8-16.1,27.8-24.1,48-24.1c36.7,0,55.1,22.3,55.1,66.8v100.8h-37.8v-90.6c0-15.6-1.9-26.7-5.7-33.1c-3.9-6.6-10.3-9.9-19.3-9.9
		c-10.4,0-17.9,3.9-22.7,11.7c-4.7,7.8-7.1,20.4-7.1,37.7v84.2h-37.8V347c0-29-8.4-43.5-25.1-43.5c-10.6,0-18.3,4-23.2,11.9
		c-4.9,7.9-7.3,20.4-7.3,37.5v84.2h-37.7V274.1z"/>
	<path class="st3" d="M1803.4,364.5h-116.9c1,13.4,5.4,24.1,13.1,32c7.7,7.8,17.6,11.7,29.6,11.7c9.4,0,17.1-2.2,23.3-6.7
		c6-4.5,12.9-12.7,20.6-24.8l31.8,17.7c-4.9,8.4-10.1,15.5-15.6,21.5c-5.5,6-11.3,10.9-17.6,14.7c-6.3,3.9-13,6.7-20.3,8.5
		c-7.3,1.8-15.1,2.7-23.6,2.7c-24.3,0-43.9-7.8-58.6-23.4c-14.7-15.7-22.1-36.6-22.1-62.6c0-25.8,7.1-46.7,21.4-62.6
		c14.4-15.7,33.5-23.6,57.3-23.6c24,0,43,7.6,56.9,22.9c13.8,15.2,20.8,36.2,20.8,63.1L1803.4,364.5z M1764.7,333.7
		c-5.2-20.1-17.9-30.1-38-30.1c-4.6,0-8.9,0.7-12.9,2.1c-4,1.4-7.7,3.4-11,6c-3.3,2.6-6.1,5.8-8.5,9.5c-2.3,3.7-4.1,7.9-5.4,12.6
		H1764.7z"/>
	<path class="st3" d="M1844.6,274.1h37.8v15.1c13.2-13.1,28-19.6,44.5-19.6c19,0,33.8,6,44.4,17.9c9.2,10.2,13.7,26.7,13.7,49.7
		v99.9h-37.8V346c0-16.1-2.2-27.2-6.7-33.3c-4.4-6.2-12.3-9.4-23.8-9.4c-12.5,0-21.4,4.1-26.6,12.4c-5.1,8.1-7.7,22.4-7.7,42.7v78.7
		h-37.8V274.1z"/>
	<path class="st3" d="M2071.4,309.2v127.9h-37.7V309.2h-16.1v-35.2h16.1v-59.8h37.7v59.8h29.3v35.2H2071.4z"/>
	<path class="st3" d="M2221.1,301.8l-31.1,16.6c-4.9-10-11-15.1-18.2-15.1c-3.5,0-6.4,1.1-8.9,3.4c-2.5,2.3-3.7,5.2-3.7,8.8
		c0,6.3,7.3,12.4,21.8,18.6c20,8.6,33.4,16.5,40.3,23.8c6.9,7.3,10.4,17,10.4,29.3c0,15.7-5.8,28.9-17.4,39.5
		c-11.3,10-24.9,15.1-40.9,15.1c-27.3,0-46.7-13.3-58.1-40l32.1-14.9c4.5,7.8,7.9,12.8,10.2,14.9c4.6,4.2,10,6.4,16.4,6.4
		c12.7,0,19.1-5.8,19.1-17.4c0-6.7-4.9-12.9-14.7-18.8c-3.8-1.9-7.6-3.7-11.4-5.5c-3.8-1.8-7.6-3.6-11.6-5.5
		c-10.9-5.4-18.6-10.7-23.1-16.1c-5.7-6.8-8.5-15.6-8.5-26.3c0-14.2,4.9-25.9,14.6-35.2c9.9-9.3,22-13.9,36.2-13.9
		C2195.4,269.5,2210.9,280.3,2221.1,301.8z"/>
</g>
</svg>
