<?xml version="1.0" encoding="utf-8"?>
<!-- Generator: Adobe Illustrator 24.0.3, SVG Export Plug-In . SVG Version: 6.00 Build 0)  -->
<svg version="1.1" id="Layer_1" xmlns="http://www.w3.org/2000/svg" xmlns:xlink="http://www.w3.org/1999/xlink" x="0px" y="0px"
	 viewBox="0 0 8192 604.8" style="enable-background:new 0 0 8192 604.8;" xml:space="preserve">
<style type="text/css">
	.st0{fill:#353535;}
	.st1{fill:#FF0000;}
	.st2{fill:#FFFFFF;}
</style>
<g>
	<polygon class="st0" points="6992.6,522.5 7589.6,301.1 6992.6,82.3 0,82.3 0,522.5 	"/>
	<polygon class="st1" points="7687.6,522.5 8192,301.1 7687.6,82.3 6277.8,82.3 6277.8,522.5 	"/>
</g>
<g>
	<path class="st2" d="M303.6,335.6H216v73.9h83.5l2.3-30.9h39.5v70.7H136.6v-31.1l27.5-5.3V227.2l-27.5-5.3v-31.3h27.5h176.8v70.9
		h-39.8l-2.3-30.9H216v65.1h87.6V335.6z"/>
	<path class="st2" d="M492,425.9c-6,8.9-13.2,15.6-21.4,20.3c-8.2,4.6-17.6,6.9-28.2,6.9c-23.7,0-42.1-8.6-55.2-25.9
		c-13.1-17.3-19.6-40.2-19.6-68.6v-3.7c0-30.3,6.6-54.8,19.7-73.4c13.2-18.6,31.6-27.9,55.5-27.9c9.6,0,18.2,2.1,25.9,6.3
		c7.7,4.2,14.5,10.2,20.3,17.9v-69l-27.7-5.3v-31.3H489h51.9v240.8l24.9,5.3v31.1h-69.8L492,425.9z M419.5,358.6
		c0,16.8,2.8,30.1,8.4,39.7c5.6,9.7,14.8,14.5,27.6,14.5c7.6,0,14.2-1.5,19.7-4.6c5.6-3.1,10.1-7.5,13.7-13.3v-81.6
		c-3.6-6.2-8.1-10.9-13.6-14.3s-12-5.1-19.5-5.1c-12.7,0-21.9,5.6-27.7,16.9c-5.8,11.3-8.7,25.9-8.7,44.1V358.6z"/>
	<path class="st2" d="M716.9,425c-6.2,9-13.8,15.9-22.8,20.8s-19.4,7.3-31,7.3c-20.3,0-36.1-6.5-47.6-19.5
		c-11.5-13-17.2-33.1-17.2-60.5v-79.4l-21.2-5.3v-31.3h21.2H650v116.4c0,14,2.3,24,7,30.1c4.7,6.1,11.6,9.2,20.9,9.2
		c8.2,0,15.3-1.3,21.2-4c6-2.7,10.9-6.5,14.7-11.5V293.7l-22.8-5.3v-31.3h22.8h51.9v155.9l23.3,5.3v31.1h-68.8L716.9,425z"/>
	<path class="st2" d="M899.7,413.3c9.2,0,16.6-2.7,22.2-8.1c5.6-5.4,8.4-12.6,8.4-21.6h46.9l0.5,1.1c0.5,19.4-6.8,35.7-21.9,48.8
		c-15,13.1-33.8,19.6-56.2,19.6c-28.7,0-50.8-9.1-66.3-27.2c-15.5-18.1-23.3-41.4-23.3-69.8v-5.3c0-28.3,8-51.6,23.9-69.8
		c15.9-18.2,38.7-27.4,68.2-27.4c15.5,0,29.4,2.3,41.8,6.9c12.3,4.6,22.6,11.1,30.7,19.6l0.7,51.4h-42.1l-8.5-30
		c-2.6-2.2-5.8-4.1-9.6-5.6c-3.8-1.5-8.1-2.2-13-2.2c-14.7,0-25.1,5.3-31.1,16c-6,10.7-9.1,24.4-9.1,41.2v5.3
		c0,17.2,2.8,31,8.4,41.5C876,408.1,885.8,413.3,899.7,413.3z"/>
	<path class="st2" d="M1123.7,449.4c-1.4-3.2-2.7-6.5-3.7-9.9s-1.9-6.8-2.5-10.2c-6.2,7.1-13.7,12.9-22.5,17.2
		c-8.8,4.4-18.9,6.6-30.3,6.6c-18.8,0-33.8-5.1-44.9-15.4c-11.1-10.2-16.6-24.2-16.6-41.9c0-18,7.2-31.9,21.7-41.8
		c14.5-9.8,35.7-14.8,63.6-14.8h26.5v-18.8c0-9.2-2.7-16.4-8-21.5c-5.3-5.1-13.2-7.6-23.6-7.6c-5.9,0-11.2,0.7-15.8,2
		c-4.6,1.4-8.4,3-11.2,4.9l-3.4,20.6h-39.1l0.2-42.7c9.5-6.4,20.4-11.8,32.6-16.2c12.3-4.4,25.6-6.6,40.1-6.6
		c23.8,0,43.2,5.8,58,17.5c14.9,11.7,22.3,28.3,22.3,49.9v79.4c0,3,0,5.7,0.1,8.4c0.1,2.6,0.3,5.1,0.6,7.5l15.8,2.1v31.1H1123.7z
		 M1078.7,414.7c7.8,0,14.9-1.7,21.3-5.1s11.4-7.6,14.9-12.7v-29.3h-26.5c-11,0-19.4,2.6-25.1,7.7s-8.5,11.3-8.5,18.6
		c0,6.5,2.1,11.6,6.3,15.3C1065.4,412.9,1071.3,414.7,1078.7,414.7z"/>
	<path class="st2" d="M1263.6,210v47.1h33.8v36.4h-33.8v97.9c0,7.5,1.5,12.8,4.6,16c3.1,3.2,7.2,4.8,12.4,4.8c3.6,0,6.7-0.1,9.3-0.4
		c2.7-0.3,5.7-0.8,9-1.5l4.4,37.5c-5.8,1.8-11.6,3.1-17.2,4s-11.9,1.3-18.5,1.3c-17.9,0-31.7-4.9-41.3-14.8
		c-9.7-9.8-14.5-25.4-14.5-46.7v-98.1h-28.3v-36.4h28.3V210H1263.6z"/>
	<path class="st2" d="M1321.2,418.3l25.1-5.3V293.7l-27.7-5.3v-31.3h79.6v155.9l24.9,5.3v31.1h-101.8V418.3z M1398.1,211h-51.9
		v-38.9h51.9V211z"/>
	<path class="st2" d="M1440.1,351.4c0-28.7,8-52.2,24.1-70.5c16.1-18.3,38.2-27.5,66.6-27.5c28.4,0,50.7,9.1,66.7,27.4
		c16.1,18.2,24.1,41.8,24.1,70.6v3.7c0,28.9-8,52.5-24.1,70.6c-16.1,18.2-38.2,27.3-66.4,27.3c-28.6,0-50.9-9.1-66.9-27.3
		c-16.1-18.2-24.1-41.7-24.1-70.6V351.4z M1492,355.2c0,17.5,3.1,31.6,9.2,42.2c6.2,10.6,16.1,15.9,29.9,15.9
		c13.4,0,23.2-5.3,29.4-16s9.3-24.7,9.3-42.1v-3.7c0-17.1-3.1-31-9.4-41.8c-6.3-10.8-16.2-16.2-29.7-16.2s-23.3,5.4-29.5,16.2
		c-6.2,10.8-9.2,24.7-9.2,41.8V355.2z"/>
	<path class="st2" d="M1641.3,418.3l24.9-5.3V293.7l-27.5-5.3v-31.3h75.9l2.3,27.5c6.4-9.8,14.3-17.5,23.6-22.9
		c9.4-5.4,19.8-8.2,31.5-8.2c19.4,0,34.6,6.1,45.5,18.3c10.9,12.2,16.4,31.3,16.4,57.4v83.7l24.9,5.3v31.1h-99.2v-31.1l22.2-5.3
		v-83.5c0-12.9-2.6-22.1-7.8-27.5c-5.2-5.4-13.1-8.1-23.6-8.1c-6.9,0-13,1.4-18.5,4.2c-5.5,2.8-10,6.7-13.7,11.8v103.1l21,5.3v31.1
		h-97.8V418.3z"/>
</g>
</svg>
