<?xml version="1.0" encoding="utf-8"?>
<!-- Generator: Adobe Illustrator 23.0.4, SVG Export Plug-In . SVG Version: 6.00 Build 0)  -->
<svg version="1.1" id="Layer_1" xmlns="http://www.w3.org/2000/svg" xmlns:xlink="http://www.w3.org/1999/xlink" x="0px" y="0px"
	 viewBox="0 0 8192 604.8" style="enable-background:new 0 0 8192 604.8;" xml:space="preserve">
<style type="text/css">
	.st0{fill:#353535;}
	.st1{fill:#FF0000;}
	.st2{enable-background:new    ;}
	.st3{fill:#FFFFFF;}
</style>
<g>
	<polygon class="st0" points="6992.6,522.5 7589.6,301.1 6992.6,82.3 0,82.3 0,522.5 	"/>
	<polygon class="st1" points="7687.6,522.5 8192,301.1 7687.6,82.3 6277.8,82.3 6277.8,522.5 	"/>
</g>
<g class="st2">
	<path class="st3" d="M269.3,219.6H165.6v62.1h100.6v36.7H165.6v86.4h103.6v36.7H126.6V182.9h142.6V219.6z"/>
	<path class="st3" d="M433.5,158.7h37.8v282.8h-37.8v-17.1c-14.8,14.5-31.6,21.8-50.4,21.8c-22.3,0-40.9-8.1-55.6-24.4
		c-14.6-16.6-21.9-37.4-21.9-62.3c0-24.3,7.3-44.6,21.9-60.9c14.5-16.4,32.8-24.6,54.7-24.6c19.1,0,36.2,7.8,51.2,23.4V158.7z
		 M344.1,359.4c0,15.6,4.2,28.4,12.6,38.2c8.6,9.9,19.4,14.9,32.5,14.9c14,0,25.2-4.8,33.8-14.4c8.6-9.9,12.9-22.5,12.9-37.8
		c0-15.3-4.3-27.9-12.9-37.8c-8.6-9.7-19.8-14.6-33.5-14.6c-12.9,0-23.8,4.9-32.5,14.7C348.4,332.5,344.1,344.8,344.1,359.4z"/>
	<path class="st3" d="M556.6,278.4V372c0,27,10.7,40.5,32,40.5c21.3,0,32-13.5,32-40.5v-93.6h37.7v94.4c0,13.1-1.6,24.3-4.9,33.8
		c-3.1,8.5-8.5,16.1-16.2,22.9c-12.7,11-28.9,16.6-48.6,16.6c-19.5,0-35.7-5.5-48.4-16.6c-7.8-6.8-13.3-14.5-16.6-22.9
		c-3.1-7.6-4.7-18.9-4.7-33.8v-94.4H556.6z"/>
	<path class="st3" d="M832.6,285.4v50.1c-8.6-10.5-16.3-17.7-23.1-21.6c-6.7-4-14.6-6-23.6-6c-14.2,0-26,5-35.3,14.9
		c-9.4,9.9-14.1,22.4-14.1,37.3c0,15.3,4.5,27.8,13.6,37.7c9.2,9.8,20.8,14.7,35,14.7c9,0,17-2,23.9-5.9
		c6.7-3.8,14.6-11.2,23.6-22.1v49.7c-15.3,7.9-30.6,11.9-45.9,11.9c-25.2,0-46.3-8.1-63.3-24.4c-17-16.4-25.4-36.8-25.4-61.1
		c0-24.3,8.6-44.9,25.8-61.6c17.2-16.7,38.3-25.1,63.3-25.1C803.2,273.9,818.3,277.7,832.6,285.4z"/>
	<path class="st3" d="M989.3,278.4h37.8v163.1h-37.8v-17.1c-15.5,14.5-32.2,21.8-50.1,21.8c-22.5,0-41.2-8.1-55.9-24.4
		c-14.6-16.6-21.9-37.4-21.9-62.3c0-24.4,7.3-44.8,21.9-61.1c14.6-16.3,32.9-24.4,54.9-24.4c19,0,36,7.8,51.1,23.4V278.4z
		 M899.9,359.4c0,15.6,4.2,28.4,12.6,38.2c8.6,9.9,19.4,14.9,32.5,14.9c14,0,25.2-4.8,33.8-14.4c8.6-9.9,12.9-22.5,12.9-37.8
		c0-15.3-4.3-27.9-12.9-37.8c-8.6-9.7-19.8-14.6-33.5-14.6c-12.9,0-23.8,4.9-32.5,14.7C904.2,332.5,899.9,344.8,899.9,359.4z"/>
	<path class="st3" d="M1113.6,313.5v127.9h-37.7V313.5h-16.1v-35.2h16.1v-59.8h37.7v59.8h29.3v35.2H1113.6z"/>
	<path class="st3" d="M1162.8,210.6c0-6.6,2.4-12.3,7.2-17.1c4.8-4.8,10.5-7.2,17.2-7.2c6.8,0,12.6,2.4,17.4,7.2
		c4.8,4.7,7.2,10.4,7.2,17.2c0,6.8-2.4,12.6-7.2,17.4c-4.7,4.8-10.4,7.2-17.2,7.2c-6.8,0-12.6-2.4-17.4-7.2
		C1165.2,223.4,1162.8,217.5,1162.8,210.6z M1206.1,278.4v163.1h-37.7V278.4H1206.1z"/>
	<path class="st3" d="M1246.2,358.7c0-23.5,8.4-43.6,25.3-60.1c16.9-16.5,37.4-24.8,61.6-24.8c24.3,0,45,8.3,61.9,24.9
		c16.7,16.6,25.1,37.1,25.1,61.3c0,24.4-8.4,44.9-25.3,61.4c-17,16.4-37.8,24.6-62.4,24.6c-24.4,0-44.9-8.4-61.4-25.1
		C1254.4,404.5,1246.2,383.7,1246.2,358.7z M1284.7,359.4c0,16.3,4.4,29.2,13.1,38.7c8.9,9.6,20.7,14.4,35.3,14.4
		c14.7,0,26.5-4.7,35.3-14.2c8.8-9.5,13.2-22.2,13.2-38c0-15.8-4.4-28.5-13.2-38c-8.9-9.6-20.7-14.4-35.3-14.4
		c-14.4,0-26.1,4.8-35,14.4C1289.1,331.8,1284.7,344.2,1284.7,359.4z"/>
	<path class="st3" d="M1459.9,278.4h37.8v15.1c13.2-13.1,28-19.6,44.5-19.6c19,0,33.8,6,44.4,17.9c9.2,10.2,13.7,26.7,13.7,49.7
		v99.9h-37.8v-91.1c0-16.1-2.2-27.2-6.7-33.3c-4.4-6.2-12.3-9.4-23.8-9.4c-12.5,0-21.4,4.1-26.6,12.4c-5.1,8.1-7.7,22.4-7.7,42.7
		v78.7h-37.8V278.4z"/>
</g>
</svg>
