<?xml version="1.0" encoding="utf-8"?>
<!-- Generator: Adobe Illustrator 24.0.3, SVG Export Plug-In . SVG Version: 6.00 Build 0)  -->
<svg version="1.1" id="Layer_1" xmlns="http://www.w3.org/2000/svg" xmlns:xlink="http://www.w3.org/1999/xlink" x="0px" y="0px"
	 viewBox="0 0 8192 604.8" style="enable-background:new 0 0 8192 604.8;" xml:space="preserve">
<style type="text/css">
	.st0{fill:#353535;}
	.st1{fill:#FF0000;}
	.st2{fill:#FFFFFF;}
</style>
<g>
	<polygon class="st0" points="6992.5,522.3 7589.5,300.9 6992.5,82 -0.2,82 -0.2,522.3 	"/>
	<polygon class="st1" points="7687.5,522.3 8191.8,300.9 7687.5,82 6277.6,82 6277.6,522.3 	"/>
</g>
<g>
	<path class="st2" d="M288.4,318h-87.6V392h83.5l2.3-30.9h39.5v70.7H121.4v-31.1l27.5-5.3V209.6l-27.5-5.3V173h27.5h176.8v70.9H286
		l-2.3-30.9h-82.8v65.1h87.6V318z"/>
	<path class="st2" d="M349.6,400.7l18-2.8l52.3-63.3l-50.5-60.8l-18-3v-31.3h86.6v30l-17.6,2.1l29.1,37l28.6-37l-18-2.1v-30H547
		v31.3l-17.4,3l-49.4,60.8l52.1,63.3l18.1,2.8v31.1h-88v-29.9l17.6-2.1l-29.9-38.7L419.8,400l15.5,2v29.9h-85.7V400.7z"/>
	<path class="st2" d="M562.9,270.8v-31.3h75.4l2.5,22.4c5.7-8.3,12.5-14.7,20.4-19.2c7.9-4.5,17.2-6.8,27.7-6.8
		c23.8,0,42.3,9.3,55.5,27.9c13.2,18.6,19.7,43.1,19.7,73.4v3.7c0,28.4-6.6,51.3-19.7,68.6c-13.2,17.3-31.5,25.9-55.1,25.9
		c-10.1,0-19-1.9-26.8-5.6s-14.5-9.2-20.1-16.4v55.6l25.1,5.3v31.3H565.5v-31.3l25.1-5.3v-193L562.9,270.8z M712.2,337.2
		c0-18.1-3-32.8-9.1-44.1c-6-11.3-15.3-16.9-27.7-16.9c-7.8,0-14.5,1.6-20,4.8s-9.9,7.8-13.1,13.7V379c3.2,5.5,7.6,9.6,13.1,12.4
		s12.3,4.3,20.4,4.3c12.6,0,21.8-4.9,27.6-14.8c5.9-9.8,8.8-23.2,8.8-40V337.2z"/>
	<path class="st2" d="M879.2,435.5c-27.7,0-49.9-8.9-66.5-26.7c-16.6-17.8-24.9-40.3-24.9-67.7V334c0-28.6,7.8-52.1,23.5-70.6
		c15.7-18.5,36.8-27.7,63.2-27.5c25.9,0,46.1,7.8,60.4,23.5c14.3,15.6,21.5,36.8,21.5,63.5v28.3H841.7l-0.4,1.1
		c0.9,12.7,5.2,23.1,12.7,31.3c7.5,8.2,17.7,12.3,30.7,12.3c11.5,0,21-1.2,28.6-3.5c7.6-2.3,15.9-6,24.9-10.9l14,32
		c-7.9,6.3-18.2,11.6-30.8,15.8S894.8,435.5,879.2,435.5z M874.6,275.9c-9.6,0-17.2,3.7-22.8,11c-5.6,7.3-9,17-10.3,29l0.5,0.9h63.6
		v-4.6c0-11-2.6-19.8-7.7-26.4S885,275.9,874.6,275.9z"/>
	<path class="st2" d="M985,400.7l24.9-5.3V276.1l-27.5-5.3v-31.3h75.9l2.3,28.1c4.5-10,10.3-17.7,17.4-23.3
		c7.1-5.6,15.3-8.4,24.7-8.4c2.7,0,5.6,0.2,8.6,0.6c3,0.4,5.5,0.9,7.6,1.5l-5.5,47.3l-21.3-0.5c-7.6,0-13.9,1.5-18.8,4.4
		c-5,3-8.8,7.2-11.4,12.6v93.5l24.9,5.3v31.1H985V400.7z"/>
	<path class="st2" d="M1132.7,400.7l25.1-5.3V276.1l-27.7-5.3v-31.3h79.6v155.9l24.9,5.3v31.1h-101.8V400.7z M1209.6,193.5h-51.9
		v-38.9h51.9V193.5z"/>
	<path class="st2" d="M1343.7,435.5c-27.7,0-49.9-8.9-66.5-26.7c-16.6-17.8-24.9-40.3-24.9-67.7V334c0-28.6,7.8-52.1,23.5-70.6
		c15.7-18.5,36.8-27.7,63.2-27.5c25.9,0,46.1,7.8,60.4,23.5c14.3,15.6,21.5,36.8,21.5,63.5v28.3h-114.8l-0.4,1.1
		c0.9,12.7,5.2,23.1,12.7,31.3c7.5,8.2,17.7,12.3,30.7,12.3c11.5,0,21-1.2,28.6-3.5c7.6-2.3,15.9-6,24.9-10.9l14,32
		c-7.9,6.3-18.2,11.6-30.8,15.8S1359.2,435.5,1343.7,435.5z M1339,275.9c-9.6,0-17.2,3.7-22.8,11c-5.6,7.3-9,17-10.3,29l0.5,0.9
		h63.6v-4.6c0-11-2.6-19.8-7.7-26.4S1349.5,275.9,1339,275.9z"/>
	<path class="st2" d="M1442.6,400.7l24.9-5.3V276.1l-27.5-5.3v-31.3h75.9l2.3,27.5c6.4-9.8,14.3-17.5,23.6-22.9
		c9.4-5.4,19.8-8.2,31.5-8.2c19.4,0,34.6,6.1,45.5,18.3c10.9,12.2,16.4,31.3,16.4,57.4v83.7l24.9,5.3v31.1h-99.2v-31.1l22.2-5.3
		v-83.5c0-12.9-2.6-22.1-7.8-27.5c-5.2-5.4-13.1-8.1-23.6-8.1c-6.9,0-13,1.4-18.5,4.2c-5.5,2.8-10,6.7-13.7,11.8v103.1l21,5.3v31.1
		h-97.8V400.7z"/>
	<path class="st2" d="M1765.1,395.7c9.2,0,16.6-2.7,22.2-8.1c5.6-5.4,8.4-12.6,8.4-21.6h46.9l0.5,1.1c0.5,19.4-6.8,35.7-21.9,48.8
		c-15,13.1-33.8,19.6-56.2,19.6c-28.7,0-50.8-9.1-66.3-27.2c-15.5-18.1-23.3-41.4-23.3-69.8v-5.3c0-28.3,8-51.6,23.9-69.8
		c15.9-18.2,38.7-27.4,68.2-27.4c15.5,0,29.4,2.3,41.8,6.9c12.3,4.6,22.6,11.1,30.7,19.6l0.7,51.4h-42.1l-8.5-30
		c-2.6-2.2-5.8-4.1-9.6-5.6c-3.8-1.5-8.1-2.2-13-2.2c-14.7,0-25.1,5.3-31.1,16s-9.1,24.4-9.1,41.2v5.3c0,17.2,2.8,31,8.4,41.5
		C1741.3,390.5,1751.1,395.7,1765.1,395.7z"/>
	<path class="st2" d="M1958.6,435.5c-27.7,0-49.9-8.9-66.5-26.7c-16.6-17.8-24.9-40.3-24.9-67.7V334c0-28.6,7.8-52.1,23.5-70.6
		c15.7-18.5,36.8-27.7,63.2-27.5c25.9,0,46.1,7.8,60.4,23.5c14.3,15.6,21.5,36.8,21.5,63.5v28.3h-114.8l-0.4,1.1
		c0.9,12.7,5.2,23.1,12.7,31.3c7.5,8.2,17.7,12.3,30.7,12.3c11.5,0,21-1.2,28.6-3.5c7.6-2.3,15.9-6,24.9-10.9l14,32
		c-7.9,6.3-18.2,11.6-30.8,15.8S1974.1,435.5,1958.6,435.5z M1954,275.9c-9.6,0-17.2,3.7-22.8,11c-5.6,7.3-9,17-10.3,29l0.5,0.9
		h63.6v-4.6c0-11-2.6-19.8-7.7-26.4S1964.4,275.9,1954,275.9z"/>
</g>
</svg>
