<?xml version="1.0" encoding="utf-8"?>
<!-- Generator: Adobe Illustrator 23.0.4, SVG Export Plug-In . SVG Version: 6.00 Build 0)  -->
<svg version="1.1" id="Layer_1" xmlns="http://www.w3.org/2000/svg" xmlns:xlink="http://www.w3.org/1999/xlink" x="0px" y="0px"
	 viewBox="0 0 8192 604.8" style="enable-background:new 0 0 8192 604.8;" xml:space="preserve">
<style type="text/css">
	.st0{fill:#353535;}
	.st1{fill:#FF0000;}
	.st2{enable-background:new    ;}
	.st3{fill:#FFFFFF;}
</style>
<g>
	<polygon class="st0" points="6992.5,522.3 7589.5,300.9 6992.5,82 -0.2,82 -0.2,522.3 	"/>
	<polygon class="st1" points="7687.5,522.3 8191.8,300.9 7687.5,82 6277.6,82 6277.6,522.3 	"/>
</g>
<g class="st2">
	<path class="st3" d="M258.4,187.7H154.8v62.1h100.6v36.7H154.8v86.4h103.6v36.7H115.8V151.1h142.6V187.7z"/>
	<path class="st3" d="M353,321.3l-58.6-74.8h44.9l36.3,47.5l37-47.5h46.2l-60.3,74.8l69.8,88.2h-44.9l-47.9-60.9l-49.1,60.9h-46
		L353,321.3z"/>
	<path class="st3" d="M531.5,498.3h-37.7V246.5h37.7v17.7c14.8-14.8,31.7-22.3,50.6-22.3c22.4,0,40.9,8.3,55.4,24.8
		c14.7,16.4,22.1,37.1,22.1,62.1c0,24.4-7.3,44.8-21.9,61.1c-14.5,16.2-32.8,24.3-54.9,24.3c-19.1,0-36.2-7.6-51.2-22.9V498.3z
		 M621,329.1c0-15.6-4.2-28.3-12.7-38.2c-8.6-9.9-19.4-14.9-32.5-14.9c-13.8,0-25.1,4.8-33.7,14.4c-8.6,9.6-12.9,22.2-12.9,37.8
		c0,15.3,4.3,27.9,12.9,37.8c8.5,9.7,19.6,14.6,33.5,14.6c13.1,0,23.8-4.9,32.3-14.7C616.7,356.1,621,343.8,621,329.1z"/>
	<path class="st3" d="M847.9,336.9H731c1,13.4,5.4,24.1,13.1,32c7.7,7.8,17.6,11.7,29.6,11.7c9.4,0,17.1-2.2,23.3-6.7
		c6-4.5,12.9-12.7,20.6-24.8l31.8,17.7c-4.9,8.4-10.1,15.5-15.6,21.5c-5.5,6-11.3,10.9-17.6,14.7c-6.3,3.9-13,6.7-20.3,8.5
		c-7.3,1.8-15.1,2.7-23.6,2.7c-24.3,0-43.9-7.8-58.6-23.4c-14.7-15.7-22.1-36.6-22.1-62.6c0-25.8,7.1-46.7,21.4-62.6
		c14.4-15.7,33.5-23.6,57.3-23.6c24,0,43,7.6,56.9,22.9c13.8,15.2,20.8,36.2,20.8,63.1L847.9,336.9z M809.2,306.1
		c-5.2-20.1-17.9-30.1-38-30.1c-4.6,0-8.9,0.7-12.9,2.1c-4,1.4-7.7,3.4-11,6c-3.3,2.6-6.1,5.8-8.5,9.5c-2.3,3.7-4.1,7.9-5.4,12.6
		H809.2z"/>
	<path class="st3" d="M889.1,246.5h37.7v14.6c6.9-7.3,13.1-12.2,18.4-14.9c5.5-2.8,11.9-4.2,19.4-4.2c9.9,0,20.3,3.2,31.1,9.7
		l-17.2,34.5c-7.1-5.1-14.1-7.7-20.9-7.7c-20.5,0-30.8,15.5-30.8,46.5v84.5h-37.7V246.5z"/>
	<path class="st3" d="M1016.8,178.7c0-6.6,2.4-12.3,7.2-17.1c4.8-4.8,10.5-7.2,17.2-7.2c6.8,0,12.6,2.4,17.4,7.2
		c4.8,4.7,7.2,10.4,7.2,17.2c0,6.8-2.4,12.6-7.2,17.4c-4.7,4.8-10.4,7.2-17.2,7.2c-6.8,0-12.6-2.4-17.4-7.2
		C1019.2,191.5,1016.8,185.6,1016.8,178.7z M1060.2,246.5v163.1h-37.7V246.5H1060.2z"/>
	<path class="st3" d="M1256.4,336.9h-116.9c1,13.4,5.4,24.1,13.1,32c7.7,7.8,17.6,11.7,29.6,11.7c9.4,0,17.1-2.2,23.3-6.7
		c6-4.5,12.9-12.7,20.6-24.8l31.8,17.7c-4.9,8.4-10.1,15.5-15.6,21.5c-5.5,6-11.3,10.9-17.6,14.7c-6.3,3.9-13,6.7-20.3,8.5
		c-7.3,1.8-15.1,2.7-23.6,2.7c-24.3,0-43.9-7.8-58.6-23.4c-14.7-15.7-22.1-36.6-22.1-62.6c0-25.8,7.1-46.7,21.4-62.6
		c14.4-15.7,33.5-23.6,57.3-23.6c24,0,43,7.6,56.9,22.9c13.8,15.2,20.8,36.2,20.8,63.1L1256.4,336.9z M1217.7,306.1
		c-5.2-20.1-17.9-30.1-38-30.1c-4.6,0-8.9,0.7-12.9,2.1c-4,1.4-7.7,3.4-11,6c-3.3,2.6-6.1,5.8-8.5,9.5c-2.3,3.7-4.1,7.9-5.4,12.6
		H1217.7z"/>
	<path class="st3" d="M1297.6,246.5h37.8v15.1c13.2-13.1,28-19.6,44.5-19.6c19,0,33.8,6,44.4,17.9c9.2,10.2,13.7,26.7,13.7,49.7
		v99.9h-37.8v-91.1c0-16.1-2.2-27.2-6.7-33.3c-4.4-6.2-12.3-9.4-23.8-9.4c-12.5,0-21.4,4.1-26.6,12.4c-5.1,8.1-7.7,22.4-7.7,42.7
		v78.7h-37.8V246.5z"/>
	<path class="st3" d="M1612.5,253.5v50.1c-8.6-10.5-16.3-17.7-23.1-21.6c-6.7-4-14.6-6-23.6-6c-14.2,0-26,5-35.3,14.9
		c-9.4,9.9-14.1,22.4-14.1,37.3c0,15.3,4.5,27.8,13.6,37.7c9.2,9.8,20.8,14.7,35,14.7c9,0,17-2,23.9-5.9
		c6.7-3.8,14.6-11.2,23.6-22.1v49.7c-15.3,7.9-30.6,11.9-45.9,11.9c-25.2,0-46.3-8.1-63.3-24.4c-17-16.4-25.4-36.8-25.4-61.1
		c0-24.3,8.6-44.9,25.8-61.6c17.2-16.7,38.3-25.1,63.3-25.1C1583,242,1598.2,245.8,1612.5,253.5z"/>
	<path class="st3" d="M1797.5,336.9h-116.9c1,13.4,5.4,24.1,13.1,32c7.7,7.8,17.6,11.7,29.6,11.7c9.4,0,17.1-2.2,23.3-6.7
		c6-4.5,12.9-12.7,20.6-24.8l31.8,17.7c-4.9,8.4-10.1,15.5-15.6,21.5c-5.5,6-11.3,10.9-17.6,14.7c-6.3,3.9-13,6.7-20.3,8.5
		c-7.3,1.8-15.1,2.7-23.6,2.7c-24.3,0-43.9-7.8-58.6-23.4c-14.7-15.7-22.1-36.6-22.1-62.6c0-25.8,7.1-46.7,21.4-62.6
		c14.4-15.7,33.5-23.6,57.3-23.6c24,0,43,7.6,56.9,22.9c13.8,15.2,20.8,36.2,20.8,63.1L1797.5,336.9z M1758.8,306.1
		c-5.2-20.1-17.9-30.1-38-30.1c-4.6,0-8.9,0.7-12.9,2.1c-4,1.4-7.7,3.4-11,6c-3.3,2.6-6.1,5.8-8.5,9.5c-2.3,3.7-4.1,7.9-5.4,12.6
		H1758.8z"/>
</g>
</svg>
