<?xml version="1.0" encoding="utf-8"?>
<!-- Generator: Adobe Illustrator 24.0.3, SVG Export Plug-In . SVG Version: 6.00 Build 0)  -->
<svg version="1.1" id="Layer_1" xmlns="http://www.w3.org/2000/svg" xmlns:xlink="http://www.w3.org/1999/xlink" x="0px" y="0px"
	 viewBox="0 0 8192 1392.6" style="enable-background:new 0 0 8192 1392.6;" xml:space="preserve">
<style type="text/css">
	.st0{fill:#353434;}
	.st1{fill:#FF0000;}
	.st2{fill:#FFFFFF;}
</style>
<g>
	<g id="Header">
		<rect y="129.4" class="st0" width="8192" height="1133.9"/>
		<rect x="7601.4" y="129.4" class="st1" width="590.7" height="1133.9"/>
		<rect y="129.4" class="st1" width="590.7" height="1133.9"/>
	</g>
</g>
<g>
	<path class="st2" d="M2425.4,473.2c49.2,0,87.8,11.3,115.8,33.8c28,22.5,42,53.6,42,93.3c0,21.8-5.9,40.8-17.6,56.9
		c-11.7,16.1-28.9,29.1-51.5,39c25.6,7.5,44,20.1,55.2,37.7c11.2,17.6,16.8,39.3,16.8,65.3v22c0,9.5,1.9,16.9,5.7,22.2
		c3.8,5.3,10,8.4,18.8,9.4l10.7,1.5v52.4h-45c-28.4,0-48.3-7.6-59.8-22.9c-11.5-15.3-17.3-35-17.3-59.2v-24.7
		c0-21-5.6-37.6-16.8-49.6c-11.2-12-27-18.3-47.5-18.9h-71.1v114.3l46.4,8.9v52.1h-179.5v-52.1l46.1-8.9V534.5l-46.1-8.9v-52.4h46.1
		H2425.4z M2363.8,664.3h60.1c24.2,0,42.4-5.2,54.5-15.5c12.1-10.3,18.2-25.2,18.2-44.7c0-19.4-6-35-18-46.6
		c-12-11.6-29.7-17.4-53.1-17.4h-61.6V664.3z"/>
	<path class="st2" d="M2985.4,636.9l-30.1,4.5l-118.5,313.5c-9.3,23.2-21.8,42.7-37.4,58.3c-15.6,15.7-39,23.5-70.4,23.5
		c-7.3,0-14.2-0.6-20.7-1.8c-6.5-1.2-14-2.9-22.8-5.1l10.1-63.4c2.8,0.4,5.7,0.8,8.6,1.2c3,0.4,5.6,0.6,7.7,0.6
		c14.5,0,25.6-3.5,33.3-10.6c7.7-7,13.7-15.8,17.9-26.3l9.8-24.4L2671,641.7l-30.1-4.8v-52.4h157.8v52.4l-36,6l44.1,128.6l4.5,23.2
		l1.8,0.3l50.9-152.1l-36.3-6v-52.4h157.8V636.9z"/>
	<path class="st2" d="M3213.4,906.6c-2.4-5.4-4.5-10.9-6.3-16.5s-3.2-11.4-4.2-17.1c-10.3,11.9-22.9,21.5-37.7,28.9
		c-14.8,7.3-31.7,11-50.8,11c-31.6,0-56.6-8.6-75.2-25.8c-18.6-17.2-27.8-40.5-27.8-70.1c0-30.2,12.1-53.5,36.3-70
		c24.2-16.5,59.7-24.7,106.6-24.7h44.4v-31.6c0-15.5-4.5-27.5-13.4-36c-8.9-8.5-22.1-12.8-39.6-12.8c-9.9,0-18.8,1.1-26.5,3.4
		c-7.7,2.3-14,5-18.8,8.2l-5.7,34.5h-65.5l0.3-71.4c15.9-10.7,34.1-19.7,54.6-27.1c20.5-7.3,42.9-11,67.1-11
		c39.9,0,72.3,9.8,97.2,29.3c24.9,19.6,37.4,47.4,37.4,83.5v133.1c0,5,0,9.6,0.1,14c0.1,4.4,0.4,8.5,1,12.5l26.5,3.6v52.1H3213.4z
		 M3138.1,848.6c13.1,0,25-2.8,35.7-8.5s19.1-12.8,25-21.3v-49.1h-44.4c-18.5,0-32.4,4.3-42,13c-9.5,8.6-14.3,19-14.3,31.1
		c0,10.9,3.5,19.5,10.6,25.6C3115.8,845.5,3125.6,848.6,3138.1,848.6z"/>
	<path class="st2" d="M3338.4,854.5l41.7-8.9V645.8l-46.1-8.9v-52.4h127.1l3.9,46.1c10.7-16.5,23.9-29.3,39.6-38.4
		c15.7-9.1,33.2-13.7,52.7-13.7c32.5,0,57.9,10.2,76.2,30.7c18.3,20.4,27.4,52.5,27.4,96.2v140.2l41.7,8.9v52.1h-166.1v-52.1
		l37.2-8.9V705.7c0-21.6-4.4-37-13.1-46c-8.7-9-21.9-13.5-39.6-13.5c-11.5,0-21.8,2.3-31,7c-9.1,4.7-16.8,11.3-22.9,19.8v172.7
		l35.1,8.9v52.1h-163.7V854.5z"/>
	<path class="st2" d="M4072.6,473.2c53,0,96.6,16.9,131,50.8c34.3,33.8,51.5,77.3,51.5,130.2v71.7c0,53.2-17.2,96.6-51.5,130.2
		c-34.3,33.6-78,50.5-131,50.5h-195v-52.1l46.1-8.9V534.5l-46.1-8.9v-52.4h46.1H4072.6z M4010.6,540.2v299.8h57.5
		c31.2,0,55.6-10.5,73.2-31.6c17.7-21,26.5-48.5,26.5-82.5v-72.3c0-33.5-8.8-60.8-26.5-81.9c-17.7-21-42.1-31.6-73.2-31.6H4010.6z"
		/>
	<path class="st2" d="M4525,865.8c-10.3,15.1-23.1,26.7-38.3,34.8c-15.2,8.1-32.5,12.2-51.9,12.2c-33.9,0-60.5-10.9-79.8-32.6
		c-19.3-21.7-28.9-55.5-28.9-101.4V645.8l-35.4-8.9v-52.4h35.4h86.9v195c0,23.4,3.9,40.2,11.8,50.5c7.8,10.2,19.5,15.3,35,15.3
		c13.7,0,25.6-2.2,35.6-6.7c10-4.5,18.2-10.9,24.6-19.2V645.8l-38.1-8.9v-52.4h38.1h86.9v261.1l39,8.9v52.1h-115.2L4525,865.8z"/>
	<path class="st2" d="M4673.6,636.9v-52.4h126.2l4.2,37.5c9.5-13.9,20.9-24.6,34.2-32.2c13.3-7.5,28.8-11.3,46.4-11.3
		c39.9,0,70.9,15.6,92.9,46.7c22,31.2,33,72.1,33,122.9v6.3c0,47.6-11,85.9-33,114.9c-22,29-52.8,43.5-92.3,43.5
		c-16.9,0-31.9-3.1-45-9.4c-13.1-6.3-24.3-15.4-33.6-27.5v93.2l42,8.9v52.4h-170.6v-52.4l42-8.9V645.8L4673.6,636.9z M4923.7,748.2
		c0-30.4-5.1-55-15.2-73.8c-10.1-18.9-25.6-28.3-46.4-28.3c-13.1,0-24.3,2.7-33.5,8s-16.5,13-21.9,22.9v141.1
		c5.4,9.1,12.7,16.1,21.9,20.8c9.2,4.8,20.6,7.1,34.1,7.1c21,0,36.5-8.2,46.3-24.7c9.8-16.5,14.7-38.8,14.7-67V748.2z"/>
	<path class="st2" d="M5274.6,865.8c-10.3,15.1-23.1,26.7-38.3,34.8c-15.2,8.1-32.5,12.2-51.9,12.2c-33.9,0-60.5-10.9-79.8-32.6
		c-19.3-21.7-28.9-55.5-28.9-101.4V645.8l-35.4-8.9v-52.4h35.4h86.9v195c0,23.4,3.9,40.2,11.8,50.5c7.8,10.2,19.5,15.3,35,15.3
		c13.7,0,25.6-2.2,35.6-6.7c10-4.5,18.2-10.9,24.6-19.2V645.8l-38.1-8.9v-52.4h38.1h86.9v261.1l39,8.9v52.1h-115.2L5274.6,865.8z"/>
	<path class="st2" d="M5427.1,854.5l42-8.9V645.8l-46.4-8.9v-52.4H5556v261.1l41.7,8.9v52.1h-170.6V854.5z M5556,507.4H5469v-65.2
		h86.9V507.4z"/>
	<path class="st2" d="M5889.1,695.2h-58.3l-9.2-40.2c-6-4.8-13.4-8.7-22.5-11.9c-9-3.2-19-4.8-29.9-4.8c-15.3,0-27.4,3.4-36.3,10.3
		c-8.9,6.8-13.4,15.4-13.4,25.8c0,9.7,4.3,17.8,12.8,24.3c8.5,6.5,25.6,12.2,51.2,17.1c39.9,7.9,69.5,19.6,88.7,35
		c19.2,15.4,28.9,36.6,28.9,63.6c0,29-12.5,52.6-37.4,71c-24.9,18.4-57.7,27.5-98.4,27.5c-24.8,0-47.6-3.6-68.3-10.9
		c-20.7-7.2-39.1-17.6-55.2-31.1l-0.9-72.3h60.7l11.9,42c5.2,4.4,12.2,7.6,21.1,9.7s18.3,3.1,28,3.1c17.7,0,31.1-3.2,40.3-9.5
		c9.2-6.3,13.8-15,13.8-25.9c0-9.5-4.7-17.8-14-24.7c-9.3-6.9-26.5-13.1-51.5-18.5c-37.9-7.7-66.5-19.2-85.9-34.4
		c-19.4-15.2-29-35.9-29-62.1c0-27,11.1-50.3,33.3-69.8c22.2-19.5,53.9-29.3,95-29.3c25,0,48.7,3.4,71,10.1
		c22.3,6.7,39.8,15.4,52.5,25.9L5889.1,695.2z"/>
</g>
</svg>
