<?xml version="1.0" encoding="utf-8"?>
<!-- Generator: Adobe Illustrator 23.0.4, SVG Export Plug-In . SVG Version: 6.00 Build 0)  -->
<svg version="1.1" id="Layer_1" xmlns="http://www.w3.org/2000/svg" xmlns:xlink="http://www.w3.org/1999/xlink" x="0px" y="0px"
	 viewBox="0 0 10061.4 1392.6" style="enable-background:new 0 0 10061.4 1392.6;" xml:space="preserve">
<style type="text/css">
	.st0{fill:#353434;}
	.st1{fill:#FF0000;}
	.st2{enable-background:new    ;}
	.st3{fill:#FFFFFF;}
</style>
<g>
	<g id="Header">
		<rect class="st0" width="10061.4" height="1392.6"/>
		<rect x="9336" class="st1" width="725.5" height="1392.6"/>
		<rect class="st1" width="725.5" height="1392.6"/>
	</g>
	<g class="st2">
		<path class="st3" d="M3111.6,697.3l173.8,239.2h-103.6l-160.3-229.8h-15.3v229.8h-84.7V375.1h99.3c74.2,0,127.7,13.9,160.7,41.8
			c36.4,31,54.5,72,54.5,122.9c0,39.8-11.4,73.9-34.2,102.5C3179,671,3148.9,689.3,3111.6,697.3z M3006.2,632.9h26.9
			c80.2,0,120.3-30.7,120.3-92c0-57.4-39-86.2-117.1-86.2h-30.2V632.9z"/>
		<path class="st3" d="M3465,870.7l-159.2-288.3h94.9L3509,786l101.1-203.6h92.3l-282.1,546.8h-93.4L3465,870.7z"/>
		<path class="st3" d="M4006.4,582.4h82.2v354.1h-82.2v-37.1c-33.7,31.5-69.9,47.3-108.7,47.3c-49,0-89.4-17.7-121.4-53.1
			c-31.8-36.1-47.6-81.2-47.6-135.2c0-53.1,15.9-97.3,47.6-132.7c31.8-35.4,71.5-53.1,119.3-53.1c41.2,0,78.2,17,110.9,50.9V582.4z
			 M3812.2,758.3c0,33.9,9.1,61.6,27.3,82.9c18.7,21.6,42.2,32.4,70.5,32.4c30.3,0,54.8-10.4,73.4-31.3c18.7-21.6,28-49,28-82.2
			c0-33.2-9.3-60.6-28-82.2c-18.7-21.1-42.9-31.6-72.7-31.6c-28.1,0-51.6,10.7-70.5,32C3821.6,699.9,3812.2,726.6,3812.2,758.3z"/>
		<path class="st3" d="M4191.8,582.4h82.2v32.7c28.6-28.4,60.8-42.5,96.7-42.5c41.2,0,73.3,13,96.3,38.9
			c19.9,22.1,29.8,58.1,29.8,108v217.1h-82.2V738.7c0-34.9-4.9-59-14.5-72.4c-9.5-13.6-26.7-20.4-51.6-20.4
			c-27.1,0-46.4,9-57.8,26.9c-11.2,17.7-16.7,48.6-16.7,92.7v170.9h-82.2V582.4z"/>
		<path class="st3" d="M4845.5,936.5V375.1h117.8c56.5,0,101.1,5.6,133.8,16.7c35.1,10.9,67,29.4,95.6,55.6
			c57.9,52.8,86.9,122.3,86.9,208.3c0,86.3-30.2,156.1-90.5,209.4c-30.3,26.7-62.1,45.2-95.3,55.6c-31,10.4-75,15.6-132,15.6H4845.5
			z M4930.2,856.9h38.2c38.1,0,69.7-4,94.9-12c25.2-8.5,48-21.9,68.4-40.4c41.7-38.1,62.5-87.6,62.5-148.7
			c0-61.6-20.6-111.5-61.8-149.8c-37.1-34.2-91.7-51.3-164-51.3h-38.2V856.9z"/>
		<path class="st3" d="M5452.3,582.4v203.2c0,58.7,23.1,88,69.4,88c46.3,0,69.4-29.3,69.4-88V582.4h81.8v205.1
			c0,28.4-3.5,52.8-10.5,73.4c-6.8,18.4-18.5,35-35.3,49.8c-27.6,24-62.8,36-105.4,36c-42.4,0-77.4-12-105.1-36
			c-17-14.8-29-31.4-36-49.8c-6.8-16.5-10.2-41-10.2-73.4V582.4H5452.3z"/>
		<path class="st3" d="M5858,1129.2h-81.8V582.4h81.8v38.5c32.2-32.2,68.8-48.4,109.8-48.4c48.7,0,88.8,17.9,120.3,53.8
			c32,35.6,48,80.6,48,134.9c0,53.1-15.9,97.3-47.6,132.7c-31.5,35.1-71.3,52.7-119.3,52.7c-41.4,0-78.5-16.6-111.3-49.8V1129.2z
			 M6052.5,761.6c0-33.9-9.2-61.6-27.6-82.9c-18.7-21.6-42.2-32.4-70.5-32.4c-30.1,0-54.4,10.4-73.1,31.3
			c-18.7,20.8-28,48.2-28,82.2c0,33.2,9.3,60.6,28,82.2c18.4,21.1,42.7,31.6,72.7,31.6c28.4,0,51.7-10.7,70.2-32
			C6043.1,820.3,6052.5,793.6,6052.5,761.6z"/>
		<path class="st3" d="M6304.5,582.4v203.2c0,58.7,23.1,88,69.4,88c46.3,0,69.4-29.3,69.4-88V582.4h81.8v205.1
			c0,28.4-3.5,52.8-10.5,73.4c-6.8,18.4-18.5,35-35.3,49.8c-27.6,24-62.8,36-105.4,36c-42.4,0-77.4-12-105.1-36
			c-17-14.8-29-31.4-36-49.8c-6.8-16.5-10.2-41-10.2-73.4V582.4H6304.5z"/>
		<path class="st3" d="M6616.1,435.1c0-14.3,5.2-26.7,15.6-37.1c10.4-10.4,22.9-15.6,37.4-15.6c14.8,0,27.4,5.2,37.8,15.6
			c10.4,10.2,15.6,22.7,15.6,37.4c0,14.8-5.2,27.4-15.6,37.8c-10.2,10.4-22.7,15.6-37.4,15.6c-14.8,0-27.4-5.2-37.8-15.6
			C6621.3,462.9,6616.1,450.2,6616.1,435.1z M6710.2,582.4v354.1h-81.8V582.4H6710.2z"/>
		<path class="st3" d="M7019.6,642.7l-67.6,36c-10.7-21.8-23.9-32.7-39.6-32.7c-7.5,0-13.9,2.5-19.3,7.5c-5.3,5-8,11.3-8,19.1
			c0,13.6,15.8,27,47.3,40.4c43.4,18.7,72.6,35.9,87.6,51.6c15,15.8,22.5,37,22.5,63.6c0,34.2-12.6,62.8-37.8,85.8
			c-24.5,21.8-54.1,32.7-88.7,32.7c-59.4,0-101.4-29-126.2-86.9l69.8-32.4c9.7,17,17.1,27.8,22.2,32.4c9.9,9.2,21.8,13.8,35.6,13.8
			c27.6,0,41.4-12.6,41.4-37.8c0-14.5-10.7-28.1-32-40.7c-8.2-4.1-16.5-8.1-24.7-12c-8.2-3.9-16.6-7.9-25.1-12
			c-23.8-11.6-40.5-23.3-50.2-34.9c-12.4-14.8-18.5-33.8-18.5-57.1c0-30.8,10.5-56.2,31.6-76.4c21.6-20.1,47.7-30.2,78.5-30.2
			C6963.9,572.5,6997.6,595.9,7019.6,642.7z"/>
	</g>
</g>
</svg>
